%TF.GenerationSoftware,KiCad,Pcbnew,7.0.7*%
%TF.CreationDate,2023-12-20T01:36:47+05:30*%
%TF.ProjectId,Power Supply,506f7765-7220-4537-9570-706c792e6b69,rev?*%
%TF.SameCoordinates,Original*%
%TF.FileFunction,Profile,NP*%
%FSLAX46Y46*%
G04 Gerber Fmt 4.6, Leading zero omitted, Abs format (unit mm)*
G04 Created by KiCad (PCBNEW 7.0.7) date 2023-12-20 01:36:47*
%MOMM*%
%LPD*%
G01*
G04 APERTURE LIST*
%TA.AperFunction,Profile*%
%ADD10C,0.100000*%
%TD*%
%TA.AperFunction,Profile*%
%ADD11C,0.050000*%
%TD*%
G04 APERTURE END LIST*
D10*
X165000000Y-168000000D02*
X165000000Y-181000000D01*
X210000000Y-21000000D02*
X210000000Y-158000000D01*
X210000000Y-21000000D02*
G75*
G03*
X205000000Y-16000000I-5000000J0D01*
G01*
X205000000Y-163000000D02*
X173000000Y-163000000D01*
X67000000Y-181000000D02*
X67000000Y-21000000D01*
X173000000Y-163000000D02*
X170000000Y-163000000D01*
X170000000Y-163000000D02*
G75*
G03*
X165000000Y-168000000I0J-5000000D01*
G01*
X205000000Y-163000000D02*
G75*
G03*
X210000000Y-158000000I0J5000000D01*
G01*
X160000000Y-186000000D02*
X72000000Y-186000000D01*
X72000000Y-16000000D02*
X205000000Y-16000000D01*
X160000000Y-186000000D02*
G75*
G03*
X165000000Y-181000000I0J5000000D01*
G01*
X67000000Y-181000000D02*
G75*
G03*
X72000000Y-186000000I5000000J0D01*
G01*
X72000000Y-16000000D02*
G75*
G03*
X67000000Y-21000000I0J-5000000D01*
G01*
D11*
%TO.C,TR1*%
X179815000Y-50460000D02*
X191753000Y-50460000D01*
X191753000Y-50460000D02*
X191753000Y-55540000D01*
X191753000Y-55540000D02*
X179815000Y-55540000D01*
X179815000Y-55540000D02*
X179815000Y-50460000D01*
X80120000Y-50460000D02*
X92058000Y-50460000D01*
X92058000Y-50460000D02*
X92058000Y-55540000D01*
X92058000Y-55540000D02*
X80120000Y-55540000D01*
X80120000Y-55540000D02*
X80120000Y-50460000D01*
%TD*%
M02*
