%TF.GenerationSoftware,KiCad,Pcbnew,7.0.7*%
%TF.CreationDate,2023-12-20T01:36:47+05:30*%
%TF.ProjectId,Power Supply,506f7765-7220-4537-9570-706c792e6b69,rev?*%
%TF.SameCoordinates,Original*%
%TF.FileFunction,Copper,L1,Top*%
%TF.FilePolarity,Positive*%
%FSLAX46Y46*%
G04 Gerber Fmt 4.6, Leading zero omitted, Abs format (unit mm)*
G04 Created by KiCad (PCBNEW 7.0.7) date 2023-12-20 01:36:47*
%MOMM*%
%LPD*%
G01*
G04 APERTURE LIST*
%TA.AperFunction,ComponentPad*%
%ADD10R,2.025000X2.025000*%
%TD*%
%TA.AperFunction,ComponentPad*%
%ADD11C,2.025000*%
%TD*%
%TA.AperFunction,ComponentPad*%
%ADD12C,1.600000*%
%TD*%
%TA.AperFunction,ComponentPad*%
%ADD13R,2.000000X2.000000*%
%TD*%
%TA.AperFunction,ComponentPad*%
%ADD14C,2.000000*%
%TD*%
%TA.AperFunction,ComponentPad*%
%ADD15R,3.200000X3.200000*%
%TD*%
%TA.AperFunction,ComponentPad*%
%ADD16O,3.200000X3.200000*%
%TD*%
%TA.AperFunction,ComponentPad*%
%ADD17C,12.000000*%
%TD*%
%TA.AperFunction,ComponentPad*%
%ADD18C,3.000000*%
%TD*%
%TA.AperFunction,ComponentPad*%
%ADD19C,2.400000*%
%TD*%
%TA.AperFunction,ComponentPad*%
%ADD20O,2.400000X2.400000*%
%TD*%
%TA.AperFunction,ComponentPad*%
%ADD21R,1.560000X1.560000*%
%TD*%
%TA.AperFunction,ComponentPad*%
%ADD22C,1.560000*%
%TD*%
%TA.AperFunction,ComponentPad*%
%ADD23C,3.048000*%
%TD*%
%TA.AperFunction,ComponentPad*%
%ADD24R,1.940000X1.940000*%
%TD*%
%TA.AperFunction,ComponentPad*%
%ADD25C,1.940000*%
%TD*%
%TA.AperFunction,ComponentPad*%
%ADD26O,6.299200X3.149600*%
%TD*%
%TA.AperFunction,ComponentPad*%
%ADD27C,6.477000*%
%TD*%
%TA.AperFunction,ComponentPad*%
%ADD28O,1.600000X1.600000*%
%TD*%
%TA.AperFunction,ComponentPad*%
%ADD29R,2.400000X2.400000*%
%TD*%
%TA.AperFunction,ComponentPad*%
%ADD30C,2.500000*%
%TD*%
%TA.AperFunction,Conductor*%
%ADD31C,1.000000*%
%TD*%
G04 APERTURE END LIST*
D10*
%TO.P,U2,1,VIN*%
%TO.N,~12V 3A DC*%
X93000000Y-141400000D03*
D11*
%TO.P,U2,2,OUTPUT*%
%TO.N,Net-(D4-K)*%
X97000000Y-139700000D03*
%TO.P,U2,3,GND*%
%TO.N,GND*%
X93000000Y-138000000D03*
%TO.P,U2,4,FEEDBACK*%
%TO.N,Net-(U2-FEEDBACK)*%
X97000000Y-136300000D03*
%TO.P,U2,5,~{ON}-OFF*%
%TO.N,GND*%
X93000000Y-134600000D03*
%TD*%
D10*
%TO.P,U1,1,VIN*%
%TO.N,~12V 3A DC*%
X93000000Y-124400000D03*
D11*
%TO.P,U1,2,OUTPUT*%
%TO.N,Net-(D3-K)*%
X97000000Y-122700000D03*
%TO.P,U1,3,GND*%
%TO.N,GND*%
X93000000Y-121000000D03*
%TO.P,U1,4,FEEDBACK*%
%TO.N,Net-(U1-FEEDBACK)*%
X97000000Y-119300000D03*
%TO.P,U1,5,~{ON}-OFF*%
%TO.N,GND*%
X93000000Y-117600000D03*
%TD*%
D12*
%TO.P,C2,1*%
%TO.N,~12V 3A DC*%
X112500000Y-106000000D03*
%TO.P,C2,2*%
%TO.N,GND*%
X117500000Y-106000000D03*
%TD*%
D13*
%TO.P,C6,1*%
%TO.N,~3.3V 1.87A DC*%
X119000000Y-138000000D03*
D14*
%TO.P,C6,2*%
%TO.N,GND*%
X124000000Y-138000000D03*
%TD*%
D15*
%TO.P,D3,1,K*%
%TO.N,Net-(D3-K)*%
X131380000Y-106000000D03*
D16*
%TO.P,D3,2,A*%
%TO.N,GND*%
X146620000Y-106000000D03*
%TD*%
D17*
%TO.P,J2,1,Pin_1*%
%TO.N,~5V 1.18A DC*%
X109000000Y-175000000D03*
%TD*%
D18*
%TO.P,L1,1,1*%
%TO.N,~5V 1.18A DC*%
X140000000Y-117000000D03*
%TO.P,L1,2,2*%
%TO.N,Net-(D3-K)*%
X140000000Y-124110000D03*
%TD*%
D15*
%TO.P,D4,1,K*%
%TO.N,Net-(D4-K)*%
X102380000Y-160000000D03*
D16*
%TO.P,D4,2,A*%
%TO.N,GND*%
X117620000Y-160000000D03*
%TD*%
D19*
%TO.P,R1,1*%
%TO.N,Net-(D2-K)*%
X91520000Y-96000000D03*
D20*
%TO.P,R1,2*%
%TO.N,Net-(D1-+)*%
X152480000Y-96000000D03*
%TD*%
D18*
%TO.P,L2,1,1*%
%TO.N,~3.3V 1.87A DC*%
X140000000Y-134445000D03*
%TO.P,L2,2,2*%
%TO.N,Net-(D4-K)*%
X140000000Y-141555000D03*
%TD*%
D21*
%TO.P,RV2,1,1*%
%TO.N,~3.3V 1.87A DC*%
X130500000Y-150760000D03*
D22*
%TO.P,RV2,2,2*%
%TO.N,Net-(U2-FEEDBACK)*%
X133000000Y-155760000D03*
%TO.P,RV2,3,3*%
%TO.N,unconnected-(RV2-Pad3)*%
X135500000Y-150760000D03*
%TD*%
D17*
%TO.P,J1,1,Pin_1*%
%TO.N,~12V 3A DC*%
X93000000Y-175000000D03*
%TD*%
D21*
%TO.P,RV1,1,1*%
%TO.N,~5V 1.18A DC*%
X143000000Y-150760000D03*
D22*
%TO.P,RV1,2,2*%
%TO.N,Net-(U1-FEEDBACK)*%
X145500000Y-155760000D03*
%TO.P,RV1,3,3*%
%TO.N,unconnected-(RV1-Pad3)*%
X148000000Y-150760000D03*
%TD*%
D23*
%TO.P,TR1,4,SB*%
%TO.N,Net-(TR1-SB)*%
X170290000Y-79670000D03*
%TO.P,TR1,3,SA*%
%TO.N,Net-(TR1-SA)*%
X101710000Y-79670000D03*
%TO.P,TR1,2,AB*%
%TO.N,unconnected-(TR1-AB-Pad2)*%
X170290000Y-26330000D03*
%TO.P,TR1,1,AA*%
%TO.N,unconnected-(TR1-AA-Pad1)*%
X102472000Y-26838000D03*
%TD*%
D24*
%TO.P,D2,1,K*%
%TO.N,Net-(D2-K)*%
X91285000Y-106000000D03*
D25*
%TO.P,D2,2,A*%
%TO.N,GND*%
X106715000Y-106000000D03*
%TD*%
D17*
%TO.P,J3,1,Pin_1*%
%TO.N,~3.3V 1.87A DC*%
X125000000Y-175000000D03*
%TD*%
D13*
%TO.P,C5,1*%
%TO.N,~12V 3A DC*%
X119000000Y-121000000D03*
D14*
%TO.P,C5,2*%
%TO.N,GND*%
X124000000Y-121000000D03*
%TD*%
D13*
%TO.P,C4,1*%
%TO.N,~5V 1.18A DC*%
X104000000Y-138000000D03*
D14*
%TO.P,C4,2*%
%TO.N,GND*%
X109000000Y-138000000D03*
%TD*%
D13*
%TO.P,C3,1*%
%TO.N,~12V 3A DC*%
X104000000Y-121000000D03*
D14*
%TO.P,C3,2*%
%TO.N,GND*%
X109000000Y-121000000D03*
%TD*%
D26*
%TO.P,T2,B*%
%TO.N,Net-(D2-K)*%
X172222000Y-130000000D03*
D27*
%TO.P,T2,C*%
%TO.N,Net-(D1-+)*%
X189113000Y-135461000D03*
%TO.P,T2,C/*%
X158887000Y-135461000D03*
D26*
%TO.P,T2,E*%
%TO.N,~12V 3A DC*%
X172222000Y-140922000D03*
%TD*%
D17*
%TO.P,J4,1,Pin_1*%
%TO.N,GND*%
X141000000Y-175000000D03*
%TD*%
D12*
%TO.P,R2,1*%
%TO.N,Net-(U2-FEEDBACK)*%
X91300000Y-151000000D03*
D28*
%TO.P,R2,2*%
%TO.N,GND*%
X104000000Y-151000000D03*
%TD*%
D29*
%TO.P,C1,1*%
%TO.N,Net-(D1-+)*%
X168000000Y-106000000D03*
D19*
%TO.P,C1,2*%
%TO.N,GND*%
X168000000Y-98500000D03*
%TD*%
D30*
%TO.P,D1,1,+*%
%TO.N,Net-(D1-+)*%
X198000000Y-106688000D03*
%TO.P,D1,2,-*%
%TO.N,GND*%
X186824000Y-95512000D03*
%TO.P,D1,3*%
%TO.N,Net-(TR1-SB)*%
X198000000Y-95385000D03*
%TO.P,D1,4*%
%TO.N,Net-(TR1-SA)*%
X186824000Y-106688000D03*
%TD*%
D12*
%TO.P,R3,1*%
%TO.N,Net-(U1-FEEDBACK)*%
X111650000Y-151000000D03*
D28*
%TO.P,R3,2*%
%TO.N,GND*%
X124350000Y-151000000D03*
%TD*%
D31*
%TO.N,Net-(U1-FEEDBACK)*%
X111650000Y-133950000D02*
X97000000Y-119300000D01*
X111650000Y-151000000D02*
X111650000Y-133950000D01*
%TO.N,Net-(D4-K)*%
X97000000Y-152020000D02*
X97000000Y-139700000D01*
X102380000Y-157400000D02*
X97000000Y-152020000D01*
X102380000Y-160000000D02*
X102380000Y-157400000D01*
%TO.N,Net-(D3-K)*%
X131380000Y-115490000D02*
X131380000Y-106000000D01*
X140000000Y-124110000D02*
X131380000Y-115490000D01*
%TO.N,Net-(D2-K)*%
X91520000Y-103795000D02*
X91520000Y-96000000D01*
X91285000Y-104030000D02*
X91520000Y-103795000D01*
X91285000Y-106000000D02*
X91285000Y-104030000D01*
%TO.N,~3.3V 1.87A DC*%
X121000000Y-171000000D02*
X125000000Y-175000000D01*
X121000000Y-142000000D02*
X121000000Y-171000000D01*
X119000000Y-140000000D02*
X121000000Y-142000000D01*
X119000000Y-138000000D02*
X119000000Y-140000000D01*
X119000000Y-138000000D02*
X121000000Y-138000000D01*
X131720300Y-142724700D02*
X140000000Y-134445000D01*
X131297500Y-142724700D02*
X131720300Y-142724700D01*
X130500000Y-143522200D02*
X131297500Y-142724700D01*
X130500000Y-150760000D02*
X130500000Y-143522200D01*
X122776600Y-136223400D02*
X121000000Y-138000000D01*
X124796200Y-136223400D02*
X122776600Y-136223400D01*
X131297500Y-142724700D02*
X124796200Y-136223400D01*
%TO.N,~5V 1.18A DC*%
X143000000Y-120000000D02*
X140000000Y-117000000D01*
X143000000Y-150760000D02*
X143000000Y-120000000D01*
X102430500Y-141569500D02*
X104000000Y-140000000D01*
X102430500Y-152338200D02*
X102430500Y-141569500D01*
X109000000Y-158907700D02*
X102430500Y-152338200D01*
X109000000Y-175000000D02*
X109000000Y-158907700D01*
X104000000Y-138000000D02*
X104000000Y-140000000D01*
%TO.N,~12V 3A DC*%
X119000000Y-121000000D02*
X119000000Y-119000000D01*
X93000000Y-124400000D02*
X93000000Y-126412500D01*
X112500000Y-119000000D02*
X119000000Y-119000000D01*
X112500000Y-119987100D02*
X112500000Y-119000000D01*
X109708000Y-122779100D02*
X112500000Y-119987100D01*
X107779100Y-122779100D02*
X109708000Y-122779100D01*
X106000000Y-121000000D02*
X107779100Y-122779100D01*
X112500000Y-119000000D02*
X112500000Y-106000000D01*
X104000000Y-121000000D02*
X106000000Y-121000000D01*
X93000000Y-141400000D02*
X93000000Y-175000000D01*
X91228800Y-139628800D02*
X93000000Y-141400000D01*
X91228800Y-128183700D02*
X91228800Y-139628800D01*
X93000000Y-126412500D02*
X91228800Y-128183700D01*
%TO.N,GND*%
X170988000Y-95512000D02*
X168000000Y-98500000D01*
X186824000Y-95512000D02*
X170988000Y-95512000D01*
X124350000Y-158350000D02*
X124350000Y-151000000D01*
X141000000Y-175000000D02*
X124350000Y-158350000D01*
X108014100Y-153327600D02*
X104000000Y-149313500D01*
X108014100Y-153327700D02*
X108014100Y-153327600D01*
X108347700Y-153327700D02*
X108014100Y-153327700D01*
X115020000Y-160000000D02*
X108347700Y-153327700D01*
X104000000Y-151000000D02*
X104000000Y-149313500D01*
X104000000Y-149313500D02*
X104000000Y-149200000D01*
X117620000Y-160000000D02*
X115020000Y-160000000D01*
X106715000Y-106000000D02*
X106715000Y-117525300D01*
X106715000Y-118715000D02*
X109000000Y-121000000D01*
X106715000Y-117525300D02*
X106715000Y-118715000D01*
X93074700Y-117525300D02*
X93000000Y-117600000D01*
X106715000Y-117525300D02*
X93074700Y-117525300D01*
X93000000Y-117600000D02*
X93000000Y-121000000D01*
X124000000Y-148850000D02*
X124350000Y-149200000D01*
X124000000Y-138000000D02*
X124000000Y-148850000D01*
X124350000Y-151000000D02*
X124350000Y-149200000D01*
X93000000Y-134600000D02*
X93000000Y-138000000D01*
X109000000Y-144200000D02*
X109000000Y-138000000D01*
X104000000Y-149200000D02*
X109000000Y-144200000D01*
X103835600Y-132835600D02*
X94764400Y-132835600D01*
X109000000Y-138000000D02*
X103835600Y-132835600D01*
X94764400Y-122764400D02*
X94764400Y-132835600D01*
X93000000Y-121000000D02*
X94764400Y-122764400D01*
X94764400Y-132835600D02*
X93000000Y-134600000D01*
X146620000Y-106000000D02*
X144020000Y-106000000D01*
X129399000Y-103646200D02*
X122272600Y-110772600D01*
X141666200Y-103646200D02*
X129399000Y-103646200D01*
X144020000Y-106000000D02*
X141666200Y-103646200D01*
X117500000Y-106000000D02*
X122272600Y-110772600D01*
X124000000Y-112500000D02*
X124000000Y-121000000D01*
X122272600Y-110772600D02*
X124000000Y-112500000D01*
%TO.N,Net-(D1-+)*%
X155800000Y-96000000D02*
X152480000Y-96000000D01*
X165800000Y-106000000D02*
X155800000Y-96000000D01*
X168000000Y-106000000D02*
X165800000Y-106000000D01*
X158887000Y-112913000D02*
X165800000Y-106000000D01*
X158887000Y-135461000D02*
X158887000Y-112913000D01*
%TD*%
%TA.AperFunction,Conductor*%
%TO.N,GND*%
G36*
X205217318Y-16009488D02*
G01*
X205415934Y-16018160D01*
X205420865Y-16018574D01*
X205636792Y-16045489D01*
X205832940Y-16071313D01*
X205837265Y-16071883D01*
X205841894Y-16072671D01*
X206054183Y-16117183D01*
X206252534Y-16161157D01*
X206256778Y-16162257D01*
X206464544Y-16224112D01*
X206658658Y-16285317D01*
X206662530Y-16286680D01*
X206864457Y-16365472D01*
X207052817Y-16443494D01*
X207056252Y-16445045D01*
X207131343Y-16481755D01*
X207250992Y-16540249D01*
X207388629Y-16611897D01*
X207432009Y-16634479D01*
X207435107Y-16636207D01*
X207621382Y-16747202D01*
X207793662Y-16856957D01*
X207796377Y-16858789D01*
X207972918Y-16984837D01*
X208135098Y-17109282D01*
X208137426Y-17111159D01*
X208303055Y-17251439D01*
X208454895Y-17390574D01*
X208609424Y-17545103D01*
X208748555Y-17696938D01*
X208763008Y-17714003D01*
X208888839Y-17862572D01*
X208890716Y-17864900D01*
X209015162Y-18027081D01*
X209141209Y-18203621D01*
X209143040Y-18206335D01*
X209252797Y-18378617D01*
X209363791Y-18564891D01*
X209365525Y-18568000D01*
X209459750Y-18749007D01*
X209525992Y-18884503D01*
X209554953Y-18943744D01*
X209556524Y-18947229D01*
X209634536Y-19135566D01*
X209713309Y-19337445D01*
X209714681Y-19341340D01*
X209775899Y-19535496D01*
X209837735Y-19743200D01*
X209838843Y-19747472D01*
X209882818Y-19945826D01*
X209927326Y-20158101D01*
X209928115Y-20162733D01*
X209954524Y-20363319D01*
X209981422Y-20579114D01*
X209981839Y-20584080D01*
X209990513Y-20782728D01*
X209999500Y-21000000D01*
X209999500Y-158000000D01*
X209990513Y-158217271D01*
X209981839Y-158415918D01*
X209981422Y-158420884D01*
X209954524Y-158636680D01*
X209928115Y-158837265D01*
X209927326Y-158841897D01*
X209882818Y-159054173D01*
X209838843Y-159252526D01*
X209837735Y-159256798D01*
X209775899Y-159464503D01*
X209714681Y-159658658D01*
X209713309Y-159662552D01*
X209634536Y-159864433D01*
X209556524Y-160052769D01*
X209554944Y-160056274D01*
X209459750Y-160250992D01*
X209365525Y-160431998D01*
X209363791Y-160435107D01*
X209252797Y-160621382D01*
X209143040Y-160793663D01*
X209141209Y-160796377D01*
X209015162Y-160972918D01*
X208890716Y-161135099D01*
X208888839Y-161137426D01*
X208748557Y-161303059D01*
X208609426Y-161454895D01*
X208454895Y-161609426D01*
X208303059Y-161748557D01*
X208137426Y-161888839D01*
X208135099Y-161890716D01*
X207972918Y-162015162D01*
X207796377Y-162141209D01*
X207793663Y-162143040D01*
X207621382Y-162252797D01*
X207435107Y-162363791D01*
X207431998Y-162365525D01*
X207250992Y-162459750D01*
X207056274Y-162554944D01*
X207052769Y-162556524D01*
X206864433Y-162634536D01*
X206662552Y-162713309D01*
X206658658Y-162714681D01*
X206464503Y-162775899D01*
X206256798Y-162837735D01*
X206252526Y-162838843D01*
X206054173Y-162882818D01*
X205841897Y-162927326D01*
X205837265Y-162928115D01*
X205636680Y-162954524D01*
X205420884Y-162981422D01*
X205415918Y-162981839D01*
X205217271Y-162990513D01*
X205000000Y-162999500D01*
X173000099Y-162999500D01*
X170000500Y-162999500D01*
X170000000Y-162999500D01*
X169793178Y-162999500D01*
X169754727Y-163002686D01*
X169550093Y-163019642D01*
X169471546Y-163023072D01*
X169457774Y-163027292D01*
X169380945Y-163033659D01*
X169111306Y-163078652D01*
X169047055Y-163087111D01*
X169037386Y-163090988D01*
X168989846Y-163098921D01*
X168972943Y-163101742D01*
X168859315Y-163130516D01*
X168674065Y-163177428D01*
X168629527Y-163187302D01*
X168623878Y-163190137D01*
X168587642Y-163199313D01*
X168571956Y-163203286D01*
X168571953Y-163203286D01*
X168571949Y-163203288D01*
X168239183Y-163317526D01*
X168222052Y-163322928D01*
X168220271Y-163324018D01*
X168186973Y-163335450D01*
X168180724Y-163337596D01*
X168180719Y-163337598D01*
X168180718Y-163337598D01*
X167801917Y-163503756D01*
X167801918Y-163503756D01*
X167438131Y-163700628D01*
X167091841Y-163926870D01*
X166765418Y-164180936D01*
X166765414Y-164180938D01*
X166765416Y-164180938D01*
X166461090Y-164461090D01*
X166180938Y-164765416D01*
X165926873Y-165091837D01*
X165926872Y-165091838D01*
X165700629Y-165438129D01*
X165503756Y-165801918D01*
X165503756Y-165801917D01*
X165337598Y-166180718D01*
X165337598Y-166180719D01*
X165324018Y-166220271D01*
X165323065Y-166221615D01*
X165317526Y-166239183D01*
X165203288Y-166571949D01*
X165190137Y-166623878D01*
X165187604Y-166628164D01*
X165177428Y-166674065D01*
X165101742Y-166972944D01*
X165090988Y-167037386D01*
X165087412Y-167044768D01*
X165078652Y-167111306D01*
X165033659Y-167380945D01*
X165027292Y-167457774D01*
X165023211Y-167468348D01*
X165019642Y-167550090D01*
X164999500Y-167793180D01*
X164999500Y-181000000D01*
X164990513Y-181217271D01*
X164981839Y-181415918D01*
X164981422Y-181420884D01*
X164954524Y-181636680D01*
X164928115Y-181837265D01*
X164927326Y-181841897D01*
X164882818Y-182054173D01*
X164838843Y-182252526D01*
X164837735Y-182256798D01*
X164775899Y-182464503D01*
X164714681Y-182658658D01*
X164713309Y-182662552D01*
X164634536Y-182864433D01*
X164556524Y-183052769D01*
X164554944Y-183056274D01*
X164459750Y-183250992D01*
X164365525Y-183431998D01*
X164363791Y-183435107D01*
X164252797Y-183621382D01*
X164143040Y-183793663D01*
X164141209Y-183796377D01*
X164015162Y-183972918D01*
X163890716Y-184135099D01*
X163888839Y-184137426D01*
X163748557Y-184303059D01*
X163609426Y-184454895D01*
X163454895Y-184609426D01*
X163303059Y-184748557D01*
X163137426Y-184888839D01*
X163135099Y-184890716D01*
X162972918Y-185015162D01*
X162796377Y-185141209D01*
X162793663Y-185143040D01*
X162621382Y-185252797D01*
X162435107Y-185363791D01*
X162431998Y-185365525D01*
X162250992Y-185459750D01*
X162056274Y-185554944D01*
X162052769Y-185556524D01*
X161864433Y-185634536D01*
X161662552Y-185713309D01*
X161658658Y-185714681D01*
X161464503Y-185775899D01*
X161256798Y-185837735D01*
X161252526Y-185838843D01*
X161054173Y-185882818D01*
X160841897Y-185927326D01*
X160837265Y-185928115D01*
X160636680Y-185954524D01*
X160420884Y-185981422D01*
X160415918Y-185981839D01*
X160217271Y-185990513D01*
X160000000Y-185999500D01*
X72000000Y-185999500D01*
X71782728Y-185990513D01*
X71584080Y-185981839D01*
X71579114Y-185981422D01*
X71363319Y-185954524D01*
X71162733Y-185928115D01*
X71158101Y-185927326D01*
X70945826Y-185882818D01*
X70747472Y-185838843D01*
X70743200Y-185837735D01*
X70535496Y-185775899D01*
X70341340Y-185714681D01*
X70337445Y-185713309D01*
X70135566Y-185634536D01*
X69947229Y-185556524D01*
X69943744Y-185554953D01*
X69884503Y-185525992D01*
X69749007Y-185459750D01*
X69568000Y-185365525D01*
X69564891Y-185363791D01*
X69378617Y-185252797D01*
X69206335Y-185143040D01*
X69203621Y-185141209D01*
X69027081Y-185015162D01*
X68864900Y-184890716D01*
X68862572Y-184888839D01*
X68696940Y-184748557D01*
X68545103Y-184609424D01*
X68390574Y-184454895D01*
X68251439Y-184303055D01*
X68111159Y-184137426D01*
X68109282Y-184135098D01*
X67984837Y-183972918D01*
X67858789Y-183796377D01*
X67856957Y-183793662D01*
X67747202Y-183621382D01*
X67636207Y-183435107D01*
X67634473Y-183431998D01*
X67540249Y-183250992D01*
X67481755Y-183131343D01*
X67445045Y-183056252D01*
X67443494Y-183052817D01*
X67365463Y-182864433D01*
X67286680Y-182662530D01*
X67285317Y-182658658D01*
X67224100Y-182464503D01*
X67213246Y-182428044D01*
X67162257Y-182256778D01*
X67161155Y-182252526D01*
X67117181Y-182054173D01*
X67111495Y-182027057D01*
X67072671Y-181841894D01*
X67071883Y-181837265D01*
X67071313Y-181832940D01*
X67045489Y-181636792D01*
X67018574Y-181420865D01*
X67018160Y-181415934D01*
X67009486Y-181217271D01*
X67000500Y-181000000D01*
X67000500Y-180999500D01*
X67000500Y-175000000D01*
X86494484Y-175000000D01*
X86514536Y-175510380D01*
X86514538Y-175510417D01*
X86574578Y-176017687D01*
X86674232Y-176518683D01*
X86812887Y-177010315D01*
X86812889Y-177010322D01*
X86812891Y-177010327D01*
X86989685Y-177489548D01*
X87203542Y-177953440D01*
X87453132Y-178399117D01*
X87453135Y-178399122D01*
X87453136Y-178399123D01*
X87736927Y-178823846D01*
X87947753Y-179091278D01*
X88053164Y-179224992D01*
X88053167Y-179224995D01*
X88399906Y-179600094D01*
X88775005Y-179946833D01*
X88775008Y-179946835D01*
X88775007Y-179946835D01*
X88908721Y-180052246D01*
X89176154Y-180263073D01*
X89600244Y-180546441D01*
X89600883Y-180546868D01*
X89976149Y-180757026D01*
X90046558Y-180796457D01*
X90510447Y-181010313D01*
X90510450Y-181010314D01*
X90510452Y-181010315D01*
X90989673Y-181187109D01*
X90989677Y-181187110D01*
X90989685Y-181187113D01*
X91481317Y-181325768D01*
X91982313Y-181425422D01*
X92185220Y-181449438D01*
X92489580Y-181485462D01*
X92489581Y-181485462D01*
X93000000Y-181505516D01*
X93510419Y-181485462D01*
X93510420Y-181485462D01*
X93814778Y-181449438D01*
X94017687Y-181425422D01*
X94518683Y-181325768D01*
X95010315Y-181187113D01*
X95010322Y-181187110D01*
X95010327Y-181187109D01*
X95489548Y-181010315D01*
X95489549Y-181010314D01*
X95489553Y-181010313D01*
X95953442Y-180796457D01*
X96023850Y-180757026D01*
X96399117Y-180546868D01*
X96399756Y-180546441D01*
X96823846Y-180263073D01*
X97091278Y-180052246D01*
X97224993Y-179946835D01*
X97224992Y-179946835D01*
X97224995Y-179946833D01*
X97600094Y-179600094D01*
X97946833Y-179224995D01*
X97946836Y-179224992D01*
X98052246Y-179091278D01*
X98263073Y-178823846D01*
X98546864Y-178399123D01*
X98546864Y-178399122D01*
X98546868Y-178399117D01*
X98796458Y-177953440D01*
X99010315Y-177489548D01*
X99187109Y-177010327D01*
X99187110Y-177010322D01*
X99187113Y-177010315D01*
X99325768Y-176518683D01*
X99425422Y-176017687D01*
X99485462Y-175510417D01*
X99485464Y-175510380D01*
X99505516Y-175000000D01*
X99485462Y-174489581D01*
X99485462Y-174489580D01*
X99425422Y-173982315D01*
X99325768Y-173481317D01*
X99289215Y-173351712D01*
X99187113Y-172989685D01*
X99179085Y-172967925D01*
X99010315Y-172510452D01*
X98796458Y-172046560D01*
X98546868Y-171600883D01*
X98546864Y-171600877D01*
X98263073Y-171176154D01*
X98052246Y-170908721D01*
X97946835Y-170775007D01*
X97946835Y-170775008D01*
X97946833Y-170775005D01*
X97600094Y-170399906D01*
X97224995Y-170053167D01*
X97224992Y-170053165D01*
X97224993Y-170053165D01*
X97091278Y-169947753D01*
X96823846Y-169736927D01*
X96399123Y-169453136D01*
X96399122Y-169453135D01*
X96399117Y-169453132D01*
X95954238Y-169203989D01*
X95953442Y-169203543D01*
X95489553Y-168989687D01*
X95489548Y-168989685D01*
X95010327Y-168812891D01*
X95010322Y-168812889D01*
X95010315Y-168812887D01*
X94518683Y-168674232D01*
X94100309Y-168591012D01*
X94038398Y-168558627D01*
X94003824Y-168497912D01*
X94000500Y-168469395D01*
X94000500Y-155759998D01*
X94000500Y-143030816D01*
X94020184Y-142963781D01*
X94072988Y-142918026D01*
X94111248Y-142907530D01*
X94119983Y-142906591D01*
X94225754Y-142867141D01*
X94254831Y-142856296D01*
X94370046Y-142770046D01*
X94456296Y-142654831D01*
X94506591Y-142519983D01*
X94513000Y-142460373D01*
X94512999Y-140339628D01*
X94506591Y-140280017D01*
X94505336Y-140276653D01*
X94456297Y-140145171D01*
X94456293Y-140145164D01*
X94370047Y-140029955D01*
X94370044Y-140029952D01*
X94254835Y-139943706D01*
X94254828Y-139943702D01*
X94119982Y-139893408D01*
X94119983Y-139893408D01*
X94060383Y-139887001D01*
X94060381Y-139887000D01*
X94060373Y-139887000D01*
X94060365Y-139887000D01*
X92953283Y-139887000D01*
X92886244Y-139867315D01*
X92865602Y-139850681D01*
X92729797Y-139714876D01*
X92721674Y-139699999D01*
X95482322Y-139699999D01*
X95501006Y-139937414D01*
X95556600Y-140168983D01*
X95647738Y-140389011D01*
X95772169Y-140592064D01*
X95772170Y-140592065D01*
X95772171Y-140592067D01*
X95772173Y-140592069D01*
X95926840Y-140773160D01*
X95926844Y-140773163D01*
X95956030Y-140798090D01*
X95994224Y-140856597D01*
X95999500Y-140892382D01*
X95999500Y-152007283D01*
X95997243Y-152096362D01*
X95997243Y-152096370D01*
X96008064Y-152156739D01*
X96008718Y-152161404D01*
X96014925Y-152222430D01*
X96014927Y-152222444D01*
X96025208Y-152255213D01*
X96027079Y-152262837D01*
X96033142Y-152296652D01*
X96033142Y-152296655D01*
X96055894Y-152353612D01*
X96057474Y-152358051D01*
X96075841Y-152416588D01*
X96075844Y-152416595D01*
X96092509Y-152446619D01*
X96095879Y-152453714D01*
X96108622Y-152485614D01*
X96108627Y-152485624D01*
X96142377Y-152536833D01*
X96144818Y-152540863D01*
X96174588Y-152594498D01*
X96174589Y-152594499D01*
X96174591Y-152594502D01*
X96196968Y-152620567D01*
X96201693Y-152626835D01*
X96214263Y-152645906D01*
X96220598Y-152655519D01*
X96263978Y-152698899D01*
X96267169Y-152702343D01*
X96307131Y-152748892D01*
X96307130Y-152748892D01*
X96334299Y-152769923D01*
X96340186Y-152775107D01*
X98885448Y-155320368D01*
X101252899Y-157687819D01*
X101286384Y-157749142D01*
X101281400Y-157818834D01*
X101239528Y-157874767D01*
X101174064Y-157899184D01*
X101165218Y-157899500D01*
X100732129Y-157899500D01*
X100732123Y-157899501D01*
X100672516Y-157905908D01*
X100537671Y-157956202D01*
X100537664Y-157956206D01*
X100422455Y-158042452D01*
X100422452Y-158042455D01*
X100336206Y-158157664D01*
X100336202Y-158157671D01*
X100285908Y-158292517D01*
X100284337Y-158307134D01*
X100279501Y-158352123D01*
X100279500Y-158352135D01*
X100279500Y-161647870D01*
X100279501Y-161647876D01*
X100285908Y-161707483D01*
X100336202Y-161842328D01*
X100336206Y-161842335D01*
X100422452Y-161957544D01*
X100422455Y-161957547D01*
X100537664Y-162043793D01*
X100537671Y-162043797D01*
X100672517Y-162094091D01*
X100672516Y-162094091D01*
X100679444Y-162094835D01*
X100732127Y-162100500D01*
X104027872Y-162100499D01*
X104087483Y-162094091D01*
X104222331Y-162043796D01*
X104337546Y-161957546D01*
X104423796Y-161842331D01*
X104474091Y-161707483D01*
X104480500Y-161647873D01*
X104480499Y-158352128D01*
X104474091Y-158292517D01*
X104469553Y-158280351D01*
X104423797Y-158157671D01*
X104423793Y-158157664D01*
X104337547Y-158042455D01*
X104337544Y-158042452D01*
X104222335Y-157956206D01*
X104222328Y-157956202D01*
X104087482Y-157905908D01*
X104087483Y-157905908D01*
X104027883Y-157899501D01*
X104027881Y-157899500D01*
X104027873Y-157899500D01*
X104027865Y-157899500D01*
X103504500Y-157899500D01*
X103437461Y-157879815D01*
X103391706Y-157827011D01*
X103380500Y-157775500D01*
X103380500Y-157412715D01*
X103382757Y-157323641D01*
X103382756Y-157323640D01*
X103382757Y-157323637D01*
X103371933Y-157263249D01*
X103371280Y-157258587D01*
X103365074Y-157197563D01*
X103365074Y-157197562D01*
X103354784Y-157164768D01*
X103352917Y-157157155D01*
X103346858Y-157123347D01*
X103346857Y-157123345D01*
X103324102Y-157066379D01*
X103322521Y-157061938D01*
X103317329Y-157045391D01*
X103304159Y-157003412D01*
X103304158Y-157003410D01*
X103304157Y-157003407D01*
X103287488Y-156973378D01*
X103284117Y-156966278D01*
X103271378Y-156934386D01*
X103271377Y-156934383D01*
X103237620Y-156883163D01*
X103235180Y-156879134D01*
X103224379Y-156859675D01*
X103205409Y-156825498D01*
X103205407Y-156825495D01*
X103183033Y-156799434D01*
X103178302Y-156793159D01*
X103159402Y-156764481D01*
X103116012Y-156721091D01*
X103112822Y-156717648D01*
X103072867Y-156671106D01*
X103072863Y-156671102D01*
X103045698Y-156650074D01*
X103039803Y-156644882D01*
X98036819Y-151641898D01*
X98003334Y-151580575D01*
X98000500Y-151554217D01*
X98000500Y-141594974D01*
X101425162Y-141594974D01*
X101426237Y-141603412D01*
X101429503Y-141629060D01*
X101430000Y-141636888D01*
X101430000Y-152325483D01*
X101427743Y-152414562D01*
X101427743Y-152414570D01*
X101438564Y-152474939D01*
X101439218Y-152479604D01*
X101445425Y-152540630D01*
X101445427Y-152540644D01*
X101455708Y-152573413D01*
X101457579Y-152581037D01*
X101463642Y-152614852D01*
X101463642Y-152614855D01*
X101486394Y-152671812D01*
X101487974Y-152676251D01*
X101506341Y-152734788D01*
X101506344Y-152734795D01*
X101523009Y-152764819D01*
X101526379Y-152771914D01*
X101539122Y-152803814D01*
X101539127Y-152803824D01*
X101572877Y-152855033D01*
X101575318Y-152859063D01*
X101605088Y-152912698D01*
X101605089Y-152912699D01*
X101605091Y-152912702D01*
X101627468Y-152938767D01*
X101632193Y-152945035D01*
X101644763Y-152964106D01*
X101651098Y-152973719D01*
X101694478Y-153017099D01*
X101697669Y-153020543D01*
X101737631Y-153067092D01*
X101737630Y-153067092D01*
X101764799Y-153088123D01*
X101770686Y-153093307D01*
X105080076Y-156402696D01*
X107963181Y-159285801D01*
X107996666Y-159347124D01*
X107999500Y-159373482D01*
X107999500Y-168469395D01*
X107979815Y-168536434D01*
X107927011Y-168582189D01*
X107899691Y-168591012D01*
X107481316Y-168674232D01*
X107481317Y-168674232D01*
X106989685Y-168812887D01*
X106989677Y-168812889D01*
X106989673Y-168812891D01*
X106510452Y-168989685D01*
X106510447Y-168989687D01*
X106046558Y-169203543D01*
X106045762Y-169203989D01*
X105600883Y-169453132D01*
X105600877Y-169453135D01*
X105600877Y-169453136D01*
X105176154Y-169736927D01*
X104908721Y-169947753D01*
X104775007Y-170053165D01*
X104775008Y-170053165D01*
X104775005Y-170053167D01*
X104399906Y-170399906D01*
X104053167Y-170775005D01*
X104053165Y-170775008D01*
X104053165Y-170775007D01*
X103947753Y-170908721D01*
X103736927Y-171176154D01*
X103453136Y-171600877D01*
X103453132Y-171600883D01*
X103203542Y-172046560D01*
X102989685Y-172510452D01*
X102820915Y-172967925D01*
X102812887Y-172989685D01*
X102710785Y-173351712D01*
X102674232Y-173481317D01*
X102574578Y-173982315D01*
X102514538Y-174489580D01*
X102514538Y-174489581D01*
X102494484Y-175000000D01*
X102514536Y-175510380D01*
X102514538Y-175510417D01*
X102574578Y-176017687D01*
X102674232Y-176518683D01*
X102812887Y-177010315D01*
X102812889Y-177010322D01*
X102812891Y-177010327D01*
X102989685Y-177489548D01*
X103203542Y-177953440D01*
X103453132Y-178399117D01*
X103453135Y-178399122D01*
X103453136Y-178399123D01*
X103736927Y-178823846D01*
X103947753Y-179091278D01*
X104053164Y-179224992D01*
X104053167Y-179224995D01*
X104399906Y-179600094D01*
X104775005Y-179946833D01*
X104775008Y-179946835D01*
X104775007Y-179946835D01*
X104908721Y-180052246D01*
X105176154Y-180263073D01*
X105600244Y-180546441D01*
X105600883Y-180546868D01*
X105976149Y-180757026D01*
X106046558Y-180796457D01*
X106510447Y-181010313D01*
X106510450Y-181010314D01*
X106510452Y-181010315D01*
X106989673Y-181187109D01*
X106989677Y-181187110D01*
X106989685Y-181187113D01*
X107481317Y-181325768D01*
X107982313Y-181425422D01*
X108185220Y-181449438D01*
X108489580Y-181485462D01*
X108489581Y-181485462D01*
X109000000Y-181505516D01*
X109510419Y-181485462D01*
X109510420Y-181485462D01*
X109814778Y-181449438D01*
X110017687Y-181425422D01*
X110518683Y-181325768D01*
X111010315Y-181187113D01*
X111010322Y-181187110D01*
X111010327Y-181187109D01*
X111489548Y-181010315D01*
X111489549Y-181010314D01*
X111489553Y-181010313D01*
X111953442Y-180796457D01*
X112023850Y-180757026D01*
X112399117Y-180546868D01*
X112399756Y-180546441D01*
X112823846Y-180263073D01*
X113091278Y-180052246D01*
X113224993Y-179946835D01*
X113224992Y-179946835D01*
X113224995Y-179946833D01*
X113600094Y-179600094D01*
X113946833Y-179224995D01*
X113946836Y-179224992D01*
X114052246Y-179091278D01*
X114263073Y-178823846D01*
X114546864Y-178399123D01*
X114546864Y-178399122D01*
X114546868Y-178399117D01*
X114796458Y-177953440D01*
X115010315Y-177489548D01*
X115187109Y-177010327D01*
X115187110Y-177010322D01*
X115187113Y-177010315D01*
X115325768Y-176518683D01*
X115425422Y-176017687D01*
X115485462Y-175510417D01*
X115485464Y-175510380D01*
X115505516Y-175000000D01*
X115485462Y-174489581D01*
X115485462Y-174489580D01*
X115425422Y-173982315D01*
X115325768Y-173481317D01*
X115289215Y-173351712D01*
X115187113Y-172989685D01*
X115179085Y-172967925D01*
X115010315Y-172510452D01*
X114796458Y-172046560D01*
X114546868Y-171600883D01*
X114546864Y-171600877D01*
X114263073Y-171176154D01*
X114052246Y-170908721D01*
X113946835Y-170775007D01*
X113946835Y-170775008D01*
X113946833Y-170775005D01*
X113600094Y-170399906D01*
X113224995Y-170053167D01*
X113224992Y-170053165D01*
X113224993Y-170053165D01*
X113091278Y-169947753D01*
X112823846Y-169736927D01*
X112399123Y-169453136D01*
X112399122Y-169453135D01*
X112399117Y-169453132D01*
X111954238Y-169203989D01*
X111953442Y-169203543D01*
X111489553Y-168989687D01*
X111489548Y-168989685D01*
X111010327Y-168812891D01*
X111010322Y-168812889D01*
X111010315Y-168812887D01*
X110518683Y-168674232D01*
X110100309Y-168591012D01*
X110038398Y-168558627D01*
X110003824Y-168497912D01*
X110000500Y-168469395D01*
X110000500Y-159749999D01*
X115532192Y-159749999D01*
X115532193Y-159750000D01*
X116704350Y-159750000D01*
X116771389Y-159769685D01*
X116817144Y-159822489D01*
X116827570Y-159887883D01*
X116814938Y-159999996D01*
X116814938Y-160000003D01*
X116827570Y-160112117D01*
X116815516Y-160180938D01*
X116768166Y-160232318D01*
X116704350Y-160250000D01*
X115532193Y-160250000D01*
X115534697Y-160286619D01*
X115593146Y-160567888D01*
X115593150Y-160567902D01*
X115689355Y-160838595D01*
X115821527Y-161093676D01*
X115987204Y-161328385D01*
X115987204Y-161328386D01*
X116183288Y-161538341D01*
X116406135Y-161719641D01*
X116406146Y-161719648D01*
X116651607Y-161868917D01*
X116915108Y-161983371D01*
X117191737Y-162060879D01*
X117191746Y-162060881D01*
X117369998Y-162085380D01*
X117369999Y-162085380D01*
X117369999Y-160915649D01*
X117389684Y-160848610D01*
X117442488Y-160802855D01*
X117507882Y-160792429D01*
X117540395Y-160796092D01*
X117575071Y-160800000D01*
X117575074Y-160800000D01*
X117664928Y-160800000D01*
X117682126Y-160798061D01*
X117732115Y-160792429D01*
X117800936Y-160804483D01*
X117852316Y-160851831D01*
X117869999Y-160915649D01*
X117869999Y-162085380D01*
X118048253Y-162060881D01*
X118048262Y-162060879D01*
X118324891Y-161983371D01*
X118588392Y-161868917D01*
X118833853Y-161719648D01*
X118833864Y-161719641D01*
X119056711Y-161538341D01*
X119252795Y-161328386D01*
X119252795Y-161328385D01*
X119418472Y-161093676D01*
X119550644Y-160838595D01*
X119646849Y-160567902D01*
X119646853Y-160567888D01*
X119705302Y-160286619D01*
X119707807Y-160250000D01*
X118535650Y-160250000D01*
X118468611Y-160230315D01*
X118422856Y-160177511D01*
X118412430Y-160112117D01*
X118425062Y-160000003D01*
X118425062Y-159999996D01*
X118412430Y-159887883D01*
X118424484Y-159819062D01*
X118471834Y-159767682D01*
X118535650Y-159750000D01*
X119707807Y-159750000D01*
X119707807Y-159749999D01*
X119705302Y-159713380D01*
X119646853Y-159432111D01*
X119646849Y-159432097D01*
X119550644Y-159161404D01*
X119418472Y-158906323D01*
X119252795Y-158671614D01*
X119252795Y-158671613D01*
X119056711Y-158461658D01*
X118833864Y-158280358D01*
X118833853Y-158280351D01*
X118588392Y-158131082D01*
X118324891Y-158016628D01*
X118048262Y-157939120D01*
X118048255Y-157939119D01*
X117869999Y-157914618D01*
X117869999Y-159084350D01*
X117850314Y-159151389D01*
X117797510Y-159197144D01*
X117732115Y-159207570D01*
X117664930Y-159200000D01*
X117664926Y-159200000D01*
X117575074Y-159200000D01*
X117575067Y-159200000D01*
X117507882Y-159207570D01*
X117439061Y-159195515D01*
X117387681Y-159148166D01*
X117369999Y-159084350D01*
X117369999Y-157914618D01*
X117191744Y-157939119D01*
X117191737Y-157939120D01*
X116915108Y-158016628D01*
X116651607Y-158131082D01*
X116406146Y-158280351D01*
X116406135Y-158280358D01*
X116183288Y-158461658D01*
X115987204Y-158671613D01*
X115987204Y-158671614D01*
X115821527Y-158906323D01*
X115689355Y-159161404D01*
X115593150Y-159432097D01*
X115593146Y-159432111D01*
X115534697Y-159713380D01*
X115532192Y-159749999D01*
X110000500Y-159749999D01*
X110000500Y-158920415D01*
X110002757Y-158831341D01*
X110002756Y-158831340D01*
X110002757Y-158831337D01*
X109991933Y-158770949D01*
X109991280Y-158766287D01*
X109985074Y-158705263D01*
X109985074Y-158705262D01*
X109974784Y-158672468D01*
X109972917Y-158664855D01*
X109966858Y-158631047D01*
X109966857Y-158631045D01*
X109944102Y-158574079D01*
X109942521Y-158569638D01*
X109924157Y-158511107D01*
X109907488Y-158481078D01*
X109904117Y-158473978D01*
X109891378Y-158442086D01*
X109891377Y-158442083D01*
X109857620Y-158390863D01*
X109855180Y-158386834D01*
X109835920Y-158352135D01*
X109825409Y-158333198D01*
X109825407Y-158333195D01*
X109803033Y-158307134D01*
X109798302Y-158300859D01*
X109792804Y-158292517D01*
X109779402Y-158272181D01*
X109736012Y-158228791D01*
X109732822Y-158225348D01*
X109692867Y-158178806D01*
X109692863Y-158178802D01*
X109665698Y-158157774D01*
X109659803Y-158152582D01*
X104015329Y-152508108D01*
X103981844Y-152446785D01*
X103986828Y-152377093D01*
X104028700Y-152321160D01*
X104092203Y-152296899D01*
X104226599Y-152285141D01*
X104226610Y-152285139D01*
X104446317Y-152226269D01*
X104446326Y-152226265D01*
X104652482Y-152130134D01*
X104838820Y-151999657D01*
X104999657Y-151838820D01*
X105130134Y-151652482D01*
X105226265Y-151446326D01*
X105226269Y-151446317D01*
X105278872Y-151250000D01*
X104510576Y-151250000D01*
X104443537Y-151230315D01*
X104397782Y-151177511D01*
X104387838Y-151108353D01*
X104388103Y-151106603D01*
X104404986Y-151000003D01*
X104404986Y-150999996D01*
X104388103Y-150893397D01*
X104397058Y-150824104D01*
X104442054Y-150770652D01*
X104508806Y-150750013D01*
X104510576Y-150750000D01*
X105278872Y-150750000D01*
X105278872Y-150749999D01*
X105226269Y-150553682D01*
X105226265Y-150553673D01*
X105130134Y-150347517D01*
X104999657Y-150161179D01*
X104838820Y-150000342D01*
X104652482Y-149869865D01*
X104446328Y-149773734D01*
X104249999Y-149721127D01*
X104250000Y-150489424D01*
X104230315Y-150556463D01*
X104177511Y-150602218D01*
X104108353Y-150612162D01*
X104106602Y-150611897D01*
X104031486Y-150600000D01*
X104031481Y-150600000D01*
X103968519Y-150600000D01*
X103968514Y-150600000D01*
X103893398Y-150611897D01*
X103824104Y-150602942D01*
X103770652Y-150557946D01*
X103750013Y-150491194D01*
X103750000Y-150489424D01*
X103750000Y-149721127D01*
X103749999Y-149721126D01*
X103587094Y-149764778D01*
X103517244Y-149763115D01*
X103459381Y-149723953D01*
X103431877Y-149659725D01*
X103431000Y-149645003D01*
X103431000Y-142035281D01*
X103450685Y-141968242D01*
X103467314Y-141947605D01*
X104698468Y-140716451D01*
X104763053Y-140655059D01*
X104798099Y-140604706D01*
X104800938Y-140600941D01*
X104808172Y-140592069D01*
X104839698Y-140553407D01*
X104855601Y-140522960D01*
X104859674Y-140516239D01*
X104864489Y-140509320D01*
X104879295Y-140488049D01*
X104903492Y-140431660D01*
X104905498Y-140427435D01*
X104933909Y-140373049D01*
X104943357Y-140340022D01*
X104945988Y-140332633D01*
X104959540Y-140301058D01*
X104971895Y-140240930D01*
X104972999Y-140236429D01*
X104989886Y-140177418D01*
X104992494Y-140143157D01*
X104993585Y-140135389D01*
X105000500Y-140101743D01*
X105000500Y-140040398D01*
X105000679Y-140035688D01*
X105001463Y-140025395D01*
X105005337Y-139974524D01*
X105002473Y-139952038D01*
X105000997Y-139940442D01*
X105000500Y-139932603D01*
X105000500Y-139616976D01*
X105020185Y-139549937D01*
X105072989Y-139504182D01*
X105100135Y-139496736D01*
X105099932Y-139495876D01*
X105107479Y-139494092D01*
X105107481Y-139494091D01*
X105107483Y-139494091D01*
X105242331Y-139443796D01*
X105357546Y-139357546D01*
X105443796Y-139242331D01*
X105494091Y-139107483D01*
X105500500Y-139047873D01*
X105500499Y-136952128D01*
X105494091Y-136892517D01*
X105450778Y-136776390D01*
X105443797Y-136757671D01*
X105443793Y-136757664D01*
X105357547Y-136642455D01*
X105357544Y-136642452D01*
X105242335Y-136556206D01*
X105242328Y-136556202D01*
X105107482Y-136505908D01*
X105107483Y-136505908D01*
X105047883Y-136499501D01*
X105047881Y-136499500D01*
X105047873Y-136499500D01*
X105047864Y-136499500D01*
X102952129Y-136499500D01*
X102952123Y-136499501D01*
X102892516Y-136505908D01*
X102757671Y-136556202D01*
X102757664Y-136556206D01*
X102642455Y-136642452D01*
X102642452Y-136642455D01*
X102556206Y-136757664D01*
X102556202Y-136757671D01*
X102505908Y-136892517D01*
X102499501Y-136952116D01*
X102499501Y-136952123D01*
X102499500Y-136952135D01*
X102499500Y-139047870D01*
X102499501Y-139047876D01*
X102505908Y-139107483D01*
X102556202Y-139242328D01*
X102556206Y-139242335D01*
X102642452Y-139357544D01*
X102642455Y-139357547D01*
X102757664Y-139443793D01*
X102757671Y-139443797D01*
X102856288Y-139480579D01*
X102912222Y-139522450D01*
X102936639Y-139587914D01*
X102921787Y-139656187D01*
X102900636Y-139684442D01*
X101732031Y-140853047D01*
X101667446Y-140914442D01*
X101632399Y-140964794D01*
X101629562Y-140968556D01*
X101590802Y-141016092D01*
X101590799Y-141016097D01*
X101574892Y-141046547D01*
X101570824Y-141053261D01*
X101551202Y-141081454D01*
X101527009Y-141137830D01*
X101524988Y-141142084D01*
X101496591Y-141196451D01*
X101496590Y-141196452D01*
X101487140Y-141229475D01*
X101484507Y-141236871D01*
X101470959Y-141268443D01*
X101458613Y-141328519D01*
X101457490Y-141333095D01*
X101440613Y-141392077D01*
X101440613Y-141392079D01*
X101438003Y-141426341D01*
X101436914Y-141434108D01*
X101431480Y-141460552D01*
X101430000Y-141467758D01*
X101430000Y-141529097D01*
X101429821Y-141533806D01*
X101425162Y-141594974D01*
X98000500Y-141594974D01*
X98000500Y-140892382D01*
X98020185Y-140825343D01*
X98043970Y-140798090D01*
X98073160Y-140773160D01*
X98227827Y-140592069D01*
X98352261Y-140389011D01*
X98443398Y-140168988D01*
X98498993Y-139937417D01*
X98517678Y-139700000D01*
X98498993Y-139462583D01*
X98443398Y-139231012D01*
X98352261Y-139010989D01*
X98352261Y-139010988D01*
X98227830Y-138807935D01*
X98227829Y-138807934D01*
X98227828Y-138807933D01*
X98227827Y-138807931D01*
X98073160Y-138626840D01*
X97892069Y-138472173D01*
X97892067Y-138472171D01*
X97892065Y-138472170D01*
X97892064Y-138472169D01*
X97689011Y-138347738D01*
X97468983Y-138256600D01*
X97237413Y-138201006D01*
X97237414Y-138201006D01*
X97022174Y-138184067D01*
X97000000Y-138182322D01*
X96999999Y-138182322D01*
X96762585Y-138201006D01*
X96531016Y-138256600D01*
X96310988Y-138347738D01*
X96107935Y-138472169D01*
X96107934Y-138472170D01*
X95926840Y-138626840D01*
X95772170Y-138807934D01*
X95772169Y-138807935D01*
X95647738Y-139010988D01*
X95556600Y-139231016D01*
X95501006Y-139462585D01*
X95482322Y-139699999D01*
X92721674Y-139699999D01*
X92696312Y-139653553D01*
X92701296Y-139583861D01*
X92743168Y-139527928D01*
X92808632Y-139503511D01*
X92827207Y-139503577D01*
X93000000Y-139517176D01*
X93237342Y-139498497D01*
X93468833Y-139442921D01*
X93468834Y-139442921D01*
X93688780Y-139351817D01*
X93688783Y-139351815D01*
X93880672Y-139234225D01*
X93880672Y-139234224D01*
X93381283Y-138734836D01*
X93347798Y-138673513D01*
X93352782Y-138603822D01*
X93394653Y-138547888D01*
X93398493Y-138545126D01*
X93450896Y-138508956D01*
X93556902Y-138389297D01*
X93616090Y-138352173D01*
X93685956Y-138352940D01*
X93737398Y-138383845D01*
X94234224Y-138880672D01*
X94234225Y-138880672D01*
X94351815Y-138688783D01*
X94351817Y-138688780D01*
X94442921Y-138468834D01*
X94442921Y-138468833D01*
X94498497Y-138237342D01*
X94517176Y-138000000D01*
X94498497Y-137762657D01*
X94442921Y-137531166D01*
X94442921Y-137531165D01*
X94351817Y-137311219D01*
X94351815Y-137311216D01*
X94234224Y-137119326D01*
X93737397Y-137616154D01*
X93676074Y-137649639D01*
X93606382Y-137644655D01*
X93556902Y-137610701D01*
X93450896Y-137491044D01*
X93441757Y-137484736D01*
X93423132Y-137471880D01*
X93398522Y-137454893D01*
X93354533Y-137400612D01*
X93346873Y-137331163D01*
X93377976Y-137268598D01*
X93381282Y-137265163D01*
X93880672Y-136765774D01*
X93688783Y-136648184D01*
X93688780Y-136648182D01*
X93468833Y-136557078D01*
X93237342Y-136501502D01*
X93000000Y-136482823D01*
X92762657Y-136501502D01*
X92531166Y-136557078D01*
X92531165Y-136557078D01*
X92400752Y-136611097D01*
X92331283Y-136618566D01*
X92268804Y-136587290D01*
X92233152Y-136527201D01*
X92229300Y-136496536D01*
X92229300Y-136300000D01*
X95482322Y-136300000D01*
X95501006Y-136537414D01*
X95556600Y-136768983D01*
X95647738Y-136989011D01*
X95772169Y-137192064D01*
X95772170Y-137192065D01*
X95772171Y-137192067D01*
X95772173Y-137192069D01*
X95926840Y-137373160D01*
X96107931Y-137527827D01*
X96107933Y-137527828D01*
X96107934Y-137527829D01*
X96107935Y-137527830D01*
X96310988Y-137652261D01*
X96396078Y-137687506D01*
X96531012Y-137743398D01*
X96762583Y-137798993D01*
X97000000Y-137817678D01*
X97237417Y-137798993D01*
X97468988Y-137743398D01*
X97689011Y-137652261D01*
X97892069Y-137527827D01*
X98073160Y-137373160D01*
X98227827Y-137192069D01*
X98352261Y-136989011D01*
X98443398Y-136768988D01*
X98498993Y-136537417D01*
X98517678Y-136300000D01*
X98498993Y-136062583D01*
X98443398Y-135831012D01*
X98352261Y-135610989D01*
X98352261Y-135610988D01*
X98227830Y-135407935D01*
X98227829Y-135407934D01*
X98227828Y-135407933D01*
X98227827Y-135407931D01*
X98073160Y-135226840D01*
X97892069Y-135072173D01*
X97892067Y-135072171D01*
X97892065Y-135072170D01*
X97892064Y-135072169D01*
X97689011Y-134947738D01*
X97468983Y-134856600D01*
X97237413Y-134801006D01*
X97237414Y-134801006D01*
X97022174Y-134784067D01*
X97000000Y-134782322D01*
X96999999Y-134782322D01*
X96762585Y-134801006D01*
X96531016Y-134856600D01*
X96310988Y-134947738D01*
X96107935Y-135072169D01*
X96107934Y-135072170D01*
X95926840Y-135226840D01*
X95772170Y-135407934D01*
X95772169Y-135407935D01*
X95647738Y-135610988D01*
X95556600Y-135831016D01*
X95501006Y-136062585D01*
X95482322Y-136300000D01*
X92229300Y-136300000D01*
X92229300Y-136103463D01*
X92248985Y-136036424D01*
X92301789Y-135990669D01*
X92370947Y-135980725D01*
X92400753Y-135988902D01*
X92531168Y-136042921D01*
X92762657Y-136098497D01*
X92999999Y-136117176D01*
X93237342Y-136098497D01*
X93468833Y-136042921D01*
X93468834Y-136042921D01*
X93688780Y-135951817D01*
X93688783Y-135951815D01*
X93880672Y-135834225D01*
X93880672Y-135834224D01*
X93381283Y-135334836D01*
X93347798Y-135273513D01*
X93352782Y-135203822D01*
X93394653Y-135147888D01*
X93398493Y-135145126D01*
X93450896Y-135108956D01*
X93556902Y-134989297D01*
X93616090Y-134952173D01*
X93685956Y-134952940D01*
X93737398Y-134983845D01*
X94234224Y-135480672D01*
X94234225Y-135480672D01*
X94351815Y-135288783D01*
X94351817Y-135288780D01*
X94442921Y-135068834D01*
X94442921Y-135068833D01*
X94498497Y-134837342D01*
X94517176Y-134599999D01*
X94498497Y-134362657D01*
X94442921Y-134131166D01*
X94442921Y-134131165D01*
X94351817Y-133911219D01*
X94351815Y-133911216D01*
X94234224Y-133719326D01*
X93737397Y-134216154D01*
X93676074Y-134249639D01*
X93606382Y-134244655D01*
X93556902Y-134210701D01*
X93450896Y-134091044D01*
X93398522Y-134054893D01*
X93354533Y-134000612D01*
X93346873Y-133931163D01*
X93377976Y-133868598D01*
X93381282Y-133865163D01*
X93880672Y-133365774D01*
X93688783Y-133248184D01*
X93688780Y-133248182D01*
X93468833Y-133157078D01*
X93237342Y-133101502D01*
X92999999Y-133082823D01*
X92762657Y-133101502D01*
X92531166Y-133157078D01*
X92531165Y-133157078D01*
X92400752Y-133211097D01*
X92331283Y-133218566D01*
X92268804Y-133187290D01*
X92233152Y-133127201D01*
X92229300Y-133096536D01*
X92229300Y-128649481D01*
X92248985Y-128582442D01*
X92265614Y-128561805D01*
X93698468Y-127128951D01*
X93763053Y-127067559D01*
X93798099Y-127017206D01*
X93800938Y-127013441D01*
X93804612Y-127008935D01*
X93839698Y-126965907D01*
X93855601Y-126935460D01*
X93859674Y-126928739D01*
X93864489Y-126921820D01*
X93879295Y-126900549D01*
X93903492Y-126844160D01*
X93905498Y-126839935D01*
X93933909Y-126785549D01*
X93943360Y-126752515D01*
X93945991Y-126745128D01*
X93959540Y-126713558D01*
X93971893Y-126653440D01*
X93973006Y-126648912D01*
X93989887Y-126589918D01*
X93992495Y-126555655D01*
X93993587Y-126547876D01*
X94000500Y-126514239D01*
X94000500Y-126452901D01*
X94000679Y-126448192D01*
X94005337Y-126387027D01*
X94000997Y-126352943D01*
X94000500Y-126345103D01*
X94000500Y-126030816D01*
X94020183Y-125963781D01*
X94072987Y-125918026D01*
X94111248Y-125907530D01*
X94119983Y-125906591D01*
X94147108Y-125896474D01*
X94254831Y-125856296D01*
X94370046Y-125770046D01*
X94456296Y-125654831D01*
X94506591Y-125519983D01*
X94513000Y-125460373D01*
X94512999Y-123339628D01*
X94506591Y-123280017D01*
X94489607Y-123234481D01*
X94456297Y-123145171D01*
X94456293Y-123145164D01*
X94370047Y-123029955D01*
X94370044Y-123029952D01*
X94254835Y-122943706D01*
X94254828Y-122943702D01*
X94119982Y-122893408D01*
X94119983Y-122893408D01*
X94060383Y-122887001D01*
X94060381Y-122887000D01*
X94060373Y-122887000D01*
X94060364Y-122887000D01*
X91939629Y-122887000D01*
X91939623Y-122887001D01*
X91880016Y-122893408D01*
X91745171Y-122943702D01*
X91745164Y-122943706D01*
X91629955Y-123029952D01*
X91629952Y-123029955D01*
X91543706Y-123145164D01*
X91543702Y-123145171D01*
X91493408Y-123280017D01*
X91487001Y-123339616D01*
X91487001Y-123339623D01*
X91487000Y-123339635D01*
X91487000Y-125460370D01*
X91487001Y-125460376D01*
X91493408Y-125519983D01*
X91543702Y-125654828D01*
X91543706Y-125654835D01*
X91629952Y-125770044D01*
X91629955Y-125770047D01*
X91745164Y-125856293D01*
X91745173Y-125856298D01*
X91852892Y-125896474D01*
X91908826Y-125938344D01*
X91933244Y-126003809D01*
X91918393Y-126072082D01*
X91897241Y-126100337D01*
X90530331Y-127467247D01*
X90465746Y-127528642D01*
X90430699Y-127578994D01*
X90427862Y-127582756D01*
X90389102Y-127630292D01*
X90389099Y-127630297D01*
X90373192Y-127660747D01*
X90369124Y-127667461D01*
X90349502Y-127695654D01*
X90325309Y-127752030D01*
X90323288Y-127756284D01*
X90294891Y-127810651D01*
X90294890Y-127810652D01*
X90285440Y-127843675D01*
X90282807Y-127851071D01*
X90269259Y-127882643D01*
X90256913Y-127942719D01*
X90255790Y-127947295D01*
X90238913Y-128006277D01*
X90238913Y-128006279D01*
X90236303Y-128040541D01*
X90235214Y-128048308D01*
X90229780Y-128074752D01*
X90228300Y-128081958D01*
X90228300Y-128143297D01*
X90228121Y-128148006D01*
X90223462Y-128209174D01*
X90225507Y-128225227D01*
X90227803Y-128243260D01*
X90228300Y-128251088D01*
X90228300Y-139616083D01*
X90226043Y-139705162D01*
X90226043Y-139705170D01*
X90236864Y-139765539D01*
X90237518Y-139770204D01*
X90243725Y-139831230D01*
X90243727Y-139831244D01*
X90254008Y-139864013D01*
X90255879Y-139871637D01*
X90261942Y-139905452D01*
X90261942Y-139905455D01*
X90284694Y-139962412D01*
X90286274Y-139966851D01*
X90304641Y-140025388D01*
X90304644Y-140025395D01*
X90321309Y-140055419D01*
X90324679Y-140062514D01*
X90337422Y-140094414D01*
X90337427Y-140094424D01*
X90342251Y-140101743D01*
X90370872Y-140145171D01*
X90371177Y-140145633D01*
X90373618Y-140149663D01*
X90403388Y-140203298D01*
X90403389Y-140203299D01*
X90403391Y-140203302D01*
X90425768Y-140229367D01*
X90430493Y-140235635D01*
X90435240Y-140242837D01*
X90449398Y-140264319D01*
X90492778Y-140307699D01*
X90495969Y-140311143D01*
X90535931Y-140357692D01*
X90535930Y-140357692D01*
X90563099Y-140378723D01*
X90568986Y-140383907D01*
X91038127Y-140853047D01*
X91450681Y-141265601D01*
X91484166Y-141326924D01*
X91487000Y-141353282D01*
X91487000Y-142460370D01*
X91487001Y-142460376D01*
X91493408Y-142519983D01*
X91543702Y-142654828D01*
X91543706Y-142654835D01*
X91629952Y-142770044D01*
X91629955Y-142770047D01*
X91745164Y-142856293D01*
X91745171Y-142856297D01*
X91880014Y-142906590D01*
X91880017Y-142906591D01*
X91888753Y-142907530D01*
X91953302Y-142934264D01*
X91993153Y-142991655D01*
X91999500Y-143030819D01*
X91999500Y-149696598D01*
X91979815Y-149763637D01*
X91927011Y-149809392D01*
X91857853Y-149819336D01*
X91823095Y-149808980D01*
X91746496Y-149773261D01*
X91746492Y-149773260D01*
X91746488Y-149773258D01*
X91526697Y-149714366D01*
X91526693Y-149714365D01*
X91526692Y-149714365D01*
X91526691Y-149714364D01*
X91526686Y-149714364D01*
X91300002Y-149694532D01*
X91299998Y-149694532D01*
X91073313Y-149714364D01*
X91073302Y-149714366D01*
X90853511Y-149773258D01*
X90853502Y-149773261D01*
X90647267Y-149869431D01*
X90647265Y-149869432D01*
X90460858Y-149999954D01*
X90299954Y-150160858D01*
X90169432Y-150347265D01*
X90169431Y-150347267D01*
X90073261Y-150553502D01*
X90073258Y-150553511D01*
X90014366Y-150773302D01*
X90014364Y-150773313D01*
X89994532Y-150999998D01*
X89994532Y-151000001D01*
X90014364Y-151226686D01*
X90014366Y-151226697D01*
X90073258Y-151446488D01*
X90073261Y-151446497D01*
X90169431Y-151652732D01*
X90169432Y-151652734D01*
X90299954Y-151839141D01*
X90460858Y-152000045D01*
X90497729Y-152025862D01*
X90647266Y-152130568D01*
X90853504Y-152226739D01*
X91073308Y-152285635D01*
X91235230Y-152299801D01*
X91299998Y-152305468D01*
X91300000Y-152305468D01*
X91300002Y-152305468D01*
X91356673Y-152300509D01*
X91526692Y-152285635D01*
X91746496Y-152226739D01*
X91823095Y-152191019D01*
X91892173Y-152180528D01*
X91955957Y-152209048D01*
X91994196Y-152267524D01*
X91999500Y-152303402D01*
X91999500Y-168469395D01*
X91979815Y-168536434D01*
X91927011Y-168582189D01*
X91899691Y-168591012D01*
X91481317Y-168674232D01*
X90989685Y-168812887D01*
X90989677Y-168812889D01*
X90989673Y-168812891D01*
X90510452Y-168989685D01*
X90510447Y-168989687D01*
X90046558Y-169203543D01*
X90045762Y-169203989D01*
X89600883Y-169453132D01*
X89600877Y-169453135D01*
X89600877Y-169453136D01*
X89176154Y-169736927D01*
X88908721Y-169947753D01*
X88775007Y-170053165D01*
X88775008Y-170053165D01*
X88775005Y-170053167D01*
X88399906Y-170399906D01*
X88053167Y-170775005D01*
X88053165Y-170775008D01*
X88053165Y-170775007D01*
X87947753Y-170908721D01*
X87736927Y-171176154D01*
X87453136Y-171600877D01*
X87453132Y-171600883D01*
X87203542Y-172046560D01*
X86989685Y-172510452D01*
X86820915Y-172967925D01*
X86812887Y-172989685D01*
X86710785Y-173351712D01*
X86674232Y-173481317D01*
X86574578Y-173982315D01*
X86514538Y-174489580D01*
X86514538Y-174489581D01*
X86494484Y-175000000D01*
X67000500Y-175000000D01*
X67000500Y-112000000D01*
X75000000Y-112000000D01*
X75000000Y-147000000D01*
X89000000Y-147000000D01*
X89000000Y-122700000D01*
X95482322Y-122700000D01*
X95501006Y-122937414D01*
X95556600Y-123168983D01*
X95647738Y-123389011D01*
X95772169Y-123592064D01*
X95772170Y-123592065D01*
X95772171Y-123592067D01*
X95772173Y-123592069D01*
X95926840Y-123773160D01*
X96107931Y-123927827D01*
X96107933Y-123927828D01*
X96107934Y-123927829D01*
X96107935Y-123927830D01*
X96310988Y-124052261D01*
X96396078Y-124087506D01*
X96531012Y-124143398D01*
X96762583Y-124198993D01*
X97000000Y-124217678D01*
X97237417Y-124198993D01*
X97468988Y-124143398D01*
X97689011Y-124052261D01*
X97892069Y-123927827D01*
X98073160Y-123773160D01*
X98227827Y-123592069D01*
X98352261Y-123389011D01*
X98443398Y-123168988D01*
X98498993Y-122937417D01*
X98517678Y-122700000D01*
X98504121Y-122527748D01*
X98518485Y-122459374D01*
X98567536Y-122409617D01*
X98635701Y-122394278D01*
X98701339Y-122418227D01*
X98715420Y-122430341D01*
X110613181Y-134328102D01*
X110646666Y-134389425D01*
X110649500Y-134415783D01*
X110649500Y-137434926D01*
X110629815Y-137501965D01*
X110577011Y-137547720D01*
X110507853Y-137557664D01*
X110444297Y-137528639D01*
X110411944Y-137484736D01*
X110323731Y-137283630D01*
X110223434Y-137130116D01*
X109608949Y-137744602D01*
X109547626Y-137778087D01*
X109477934Y-137773103D01*
X109422001Y-137731231D01*
X109416953Y-137723961D01*
X109381761Y-137669202D01*
X109353432Y-137644655D01*
X109273100Y-137575048D01*
X109273099Y-137575047D01*
X109266398Y-137569241D01*
X109268698Y-137566585D01*
X109233960Y-137526428D01*
X109224074Y-137457261D01*
X109253152Y-137393729D01*
X109259116Y-137387329D01*
X109870056Y-136776389D01*
X109823229Y-136739943D01*
X109604614Y-136621635D01*
X109604603Y-136621630D01*
X109369493Y-136540916D01*
X109124293Y-136500000D01*
X108875707Y-136500000D01*
X108630506Y-136540916D01*
X108395396Y-136621630D01*
X108395390Y-136621632D01*
X108176761Y-136739949D01*
X108129942Y-136776388D01*
X108129942Y-136776390D01*
X108740883Y-137387330D01*
X108774368Y-137448653D01*
X108769384Y-137518344D01*
X108732358Y-137567805D01*
X108733602Y-137569241D01*
X108618238Y-137669202D01*
X108583046Y-137723962D01*
X108530242Y-137769717D01*
X108461083Y-137779660D01*
X108397528Y-137750634D01*
X108391050Y-137744603D01*
X107776564Y-137130116D01*
X107676267Y-137283632D01*
X107576412Y-137511282D01*
X107515387Y-137752261D01*
X107515385Y-137752270D01*
X107494858Y-137999994D01*
X107494858Y-138000005D01*
X107515385Y-138247729D01*
X107515387Y-138247738D01*
X107576412Y-138488717D01*
X107676266Y-138716364D01*
X107776564Y-138869882D01*
X108391050Y-138255395D01*
X108452373Y-138221910D01*
X108522064Y-138226894D01*
X108577998Y-138268765D01*
X108583039Y-138276025D01*
X108618239Y-138330798D01*
X108682246Y-138386260D01*
X108733602Y-138430759D01*
X108731293Y-138433422D01*
X108766006Y-138473499D01*
X108775935Y-138542660D01*
X108746898Y-138606210D01*
X108740882Y-138612669D01*
X108129942Y-139223609D01*
X108176768Y-139260055D01*
X108176770Y-139260056D01*
X108395385Y-139378364D01*
X108395396Y-139378369D01*
X108630506Y-139459083D01*
X108875707Y-139500000D01*
X109124293Y-139500000D01*
X109369493Y-139459083D01*
X109604603Y-139378369D01*
X109604614Y-139378364D01*
X109823228Y-139260057D01*
X109823231Y-139260055D01*
X109870056Y-139223609D01*
X109259116Y-138612669D01*
X109225631Y-138551346D01*
X109230615Y-138481654D01*
X109267641Y-138432193D01*
X109266398Y-138430759D01*
X109314246Y-138389299D01*
X109381761Y-138330798D01*
X109416954Y-138276037D01*
X109469755Y-138230283D01*
X109538914Y-138220339D01*
X109602470Y-138249363D01*
X109608949Y-138255396D01*
X110223434Y-138869882D01*
X110323731Y-138716369D01*
X110411944Y-138515263D01*
X110456900Y-138461777D01*
X110523636Y-138441087D01*
X110590963Y-138459761D01*
X110637507Y-138511871D01*
X110649500Y-138565073D01*
X110649500Y-150122410D01*
X110629815Y-150189449D01*
X110627076Y-150193532D01*
X110519431Y-150347267D01*
X110423261Y-150553502D01*
X110423258Y-150553511D01*
X110364366Y-150773302D01*
X110364364Y-150773313D01*
X110344532Y-150999998D01*
X110344532Y-151000001D01*
X110364364Y-151226686D01*
X110364366Y-151226697D01*
X110423258Y-151446488D01*
X110423261Y-151446497D01*
X110519431Y-151652732D01*
X110519432Y-151652734D01*
X110649954Y-151839141D01*
X110810858Y-152000045D01*
X110847729Y-152025862D01*
X110997266Y-152130568D01*
X111203504Y-152226739D01*
X111423308Y-152285635D01*
X111585230Y-152299801D01*
X111649998Y-152305468D01*
X111650000Y-152305468D01*
X111650002Y-152305468D01*
X111706672Y-152300509D01*
X111876692Y-152285635D01*
X112096496Y-152226739D01*
X112302734Y-152130568D01*
X112489139Y-152000047D01*
X112650047Y-151839139D01*
X112780568Y-151652734D01*
X112876739Y-151446496D01*
X112935635Y-151226692D01*
X112955468Y-151000000D01*
X112935635Y-150773308D01*
X112876739Y-150553504D01*
X112780568Y-150347266D01*
X112672924Y-150193532D01*
X112650597Y-150127326D01*
X112650500Y-150122410D01*
X112650500Y-139047870D01*
X117499500Y-139047870D01*
X117499501Y-139047876D01*
X117505908Y-139107483D01*
X117556202Y-139242328D01*
X117556206Y-139242335D01*
X117642452Y-139357544D01*
X117642455Y-139357547D01*
X117757664Y-139443793D01*
X117757671Y-139443797D01*
X117892517Y-139494091D01*
X117900062Y-139495874D01*
X117899523Y-139498151D01*
X117953287Y-139520408D01*
X117993147Y-139577793D01*
X117999500Y-139616975D01*
X117999500Y-139987283D01*
X117997243Y-140076362D01*
X117997243Y-140076370D01*
X118008064Y-140136739D01*
X118008718Y-140141404D01*
X118014925Y-140202430D01*
X118014927Y-140202444D01*
X118025208Y-140235213D01*
X118027079Y-140242837D01*
X118033142Y-140276652D01*
X118033142Y-140276655D01*
X118055894Y-140333612D01*
X118057474Y-140338051D01*
X118075841Y-140396588D01*
X118075844Y-140396595D01*
X118092509Y-140426619D01*
X118095879Y-140433714D01*
X118108622Y-140465614D01*
X118108627Y-140465624D01*
X118111961Y-140470682D01*
X118141985Y-140516239D01*
X118142377Y-140516833D01*
X118144818Y-140520863D01*
X118174588Y-140574498D01*
X118174589Y-140574499D01*
X118174591Y-140574502D01*
X118196968Y-140600567D01*
X118201693Y-140606835D01*
X118207846Y-140616170D01*
X118220598Y-140635519D01*
X118263978Y-140678899D01*
X118267169Y-140682343D01*
X118307131Y-140728892D01*
X118307130Y-140728892D01*
X118334299Y-140749923D01*
X118340186Y-140755107D01*
X119180054Y-141594974D01*
X119963181Y-142378101D01*
X119996666Y-142439424D01*
X119999500Y-142465782D01*
X119999500Y-170800081D01*
X119979815Y-170867120D01*
X119972879Y-170876848D01*
X119829880Y-171058242D01*
X119736927Y-171176154D01*
X119453136Y-171600877D01*
X119453132Y-171600883D01*
X119203542Y-172046560D01*
X118989685Y-172510452D01*
X118820915Y-172967925D01*
X118812887Y-172989685D01*
X118710785Y-173351712D01*
X118674232Y-173481317D01*
X118574578Y-173982315D01*
X118514538Y-174489580D01*
X118514538Y-174489581D01*
X118494484Y-175000000D01*
X118514536Y-175510380D01*
X118514538Y-175510417D01*
X118574578Y-176017687D01*
X118674232Y-176518683D01*
X118812887Y-177010315D01*
X118812889Y-177010322D01*
X118812891Y-177010327D01*
X118989685Y-177489548D01*
X119203542Y-177953440D01*
X119453132Y-178399117D01*
X119453135Y-178399122D01*
X119453136Y-178399123D01*
X119736927Y-178823846D01*
X119947753Y-179091278D01*
X120053164Y-179224992D01*
X120053167Y-179224995D01*
X120399906Y-179600094D01*
X120775005Y-179946833D01*
X120775008Y-179946835D01*
X120775007Y-179946835D01*
X120908721Y-180052246D01*
X121176154Y-180263073D01*
X121600244Y-180546441D01*
X121600883Y-180546868D01*
X121976149Y-180757026D01*
X122046558Y-180796457D01*
X122510447Y-181010313D01*
X122510450Y-181010314D01*
X122510452Y-181010315D01*
X122989673Y-181187109D01*
X122989677Y-181187110D01*
X122989685Y-181187113D01*
X123481317Y-181325768D01*
X123982313Y-181425422D01*
X124185220Y-181449438D01*
X124489580Y-181485462D01*
X124489581Y-181485462D01*
X125000000Y-181505516D01*
X125510419Y-181485462D01*
X125510420Y-181485462D01*
X125814778Y-181449438D01*
X126017687Y-181425422D01*
X126518683Y-181325768D01*
X127010315Y-181187113D01*
X127010322Y-181187110D01*
X127010327Y-181187109D01*
X127489548Y-181010315D01*
X127489549Y-181010314D01*
X127489553Y-181010313D01*
X127953442Y-180796457D01*
X128023850Y-180757026D01*
X128399117Y-180546868D01*
X128399756Y-180546441D01*
X128823846Y-180263073D01*
X129091278Y-180052246D01*
X129224993Y-179946835D01*
X129224992Y-179946835D01*
X129224995Y-179946833D01*
X129600094Y-179600094D01*
X129946833Y-179224995D01*
X129946836Y-179224992D01*
X130052246Y-179091278D01*
X130263073Y-178823846D01*
X130546864Y-178399123D01*
X130546864Y-178399122D01*
X130546868Y-178399117D01*
X130796458Y-177953440D01*
X131010315Y-177489548D01*
X131187109Y-177010327D01*
X131187110Y-177010322D01*
X131187113Y-177010315D01*
X131325768Y-176518683D01*
X131425422Y-176017687D01*
X131485462Y-175510417D01*
X131485464Y-175510380D01*
X131505516Y-175000000D01*
X134494985Y-175000000D01*
X134515038Y-175510380D01*
X134515038Y-175510381D01*
X134575073Y-176017607D01*
X134674719Y-176518566D01*
X134813367Y-177010172D01*
X134990148Y-177489356D01*
X135203989Y-177953213D01*
X135203988Y-177953213D01*
X135453559Y-178398855D01*
X135737336Y-178823557D01*
X135737335Y-178823556D01*
X136053546Y-179224666D01*
X136230429Y-179416017D01*
X138969658Y-176676787D01*
X139030981Y-176643302D01*
X139100673Y-176648286D01*
X139147731Y-176679584D01*
X139285250Y-176826026D01*
X139312837Y-176848848D01*
X139351945Y-176906748D01*
X139353541Y-176976599D01*
X139321478Y-177032073D01*
X136583981Y-179769569D01*
X136583981Y-179769570D01*
X136775334Y-179946454D01*
X137176444Y-180262665D01*
X137176443Y-180262664D01*
X137601145Y-180546441D01*
X138046787Y-180796012D01*
X138046787Y-180796011D01*
X138510644Y-181009852D01*
X138989828Y-181186633D01*
X139481434Y-181325281D01*
X139982393Y-181424927D01*
X140489619Y-181484962D01*
X140489620Y-181484962D01*
X141000000Y-181505015D01*
X141510380Y-181484962D01*
X141510381Y-181484962D01*
X142017607Y-181424927D01*
X142518566Y-181325281D01*
X143010172Y-181186633D01*
X143489356Y-181009852D01*
X143953213Y-180796011D01*
X143953213Y-180796012D01*
X144398855Y-180546441D01*
X144823557Y-180262664D01*
X144823556Y-180262665D01*
X145224673Y-179946449D01*
X145416017Y-179769569D01*
X142678520Y-177032073D01*
X142645035Y-176970750D01*
X142650019Y-176901058D01*
X142687162Y-176848848D01*
X142714751Y-176826025D01*
X142852268Y-176679583D01*
X142912508Y-176644190D01*
X142982321Y-176646982D01*
X143030340Y-176676787D01*
X145769569Y-179416017D01*
X145946449Y-179224673D01*
X146262665Y-178823556D01*
X146262664Y-178823557D01*
X146546441Y-178398855D01*
X146796012Y-177953213D01*
X146796011Y-177953213D01*
X147009852Y-177489356D01*
X147186633Y-177010172D01*
X147325281Y-176518566D01*
X147424927Y-176017607D01*
X147484962Y-175510381D01*
X147484962Y-175510380D01*
X147505015Y-175000000D01*
X147484962Y-174489620D01*
X147484962Y-174489619D01*
X147424927Y-173982393D01*
X147325281Y-173481434D01*
X147186633Y-172989828D01*
X147009852Y-172510644D01*
X146796011Y-172046787D01*
X146796012Y-172046787D01*
X146546441Y-171601145D01*
X146262664Y-171176443D01*
X146262665Y-171176444D01*
X145946454Y-170775334D01*
X145769569Y-170583981D01*
X143030340Y-173323211D01*
X142969017Y-173356696D01*
X142899325Y-173351712D01*
X142852267Y-173320414D01*
X142714749Y-173173973D01*
X142714747Y-173173971D01*
X142687160Y-173151149D01*
X142648053Y-173093249D01*
X142646457Y-173023398D01*
X142678520Y-172967925D01*
X145416017Y-170230429D01*
X145416017Y-170230428D01*
X145224666Y-170053546D01*
X144823556Y-169737335D01*
X144823557Y-169737336D01*
X144398855Y-169453559D01*
X143953213Y-169203988D01*
X143953213Y-169203989D01*
X143489356Y-168990148D01*
X143010172Y-168813367D01*
X142518566Y-168674719D01*
X142017607Y-168575073D01*
X141510381Y-168515038D01*
X141510380Y-168515038D01*
X141000000Y-168494985D01*
X140489620Y-168515038D01*
X140489619Y-168515038D01*
X139982393Y-168575073D01*
X139481434Y-168674719D01*
X138989828Y-168813367D01*
X138510644Y-168990148D01*
X138046787Y-169203989D01*
X138046787Y-169203988D01*
X137601145Y-169453559D01*
X137176443Y-169737336D01*
X137176444Y-169737335D01*
X136775334Y-170053546D01*
X136583981Y-170230429D01*
X139321479Y-172967926D01*
X139354964Y-173029249D01*
X139349980Y-173098941D01*
X139312841Y-173151148D01*
X139285252Y-173173973D01*
X139285247Y-173173977D01*
X139285242Y-173173981D01*
X139147732Y-173320415D01*
X139087491Y-173355810D01*
X139017677Y-173353016D01*
X138969659Y-173323212D01*
X136230429Y-170583981D01*
X136053546Y-170775334D01*
X135737335Y-171176444D01*
X135737336Y-171176443D01*
X135453559Y-171601145D01*
X135203988Y-172046787D01*
X135203989Y-172046787D01*
X134990148Y-172510644D01*
X134813367Y-172989828D01*
X134674719Y-173481434D01*
X134575073Y-173982393D01*
X134515038Y-174489619D01*
X134515038Y-174489620D01*
X134494985Y-175000000D01*
X131505516Y-175000000D01*
X131485462Y-174489581D01*
X131485462Y-174489580D01*
X131425422Y-173982315D01*
X131325768Y-173481317D01*
X131289215Y-173351712D01*
X131187113Y-172989685D01*
X131179085Y-172967925D01*
X131010315Y-172510452D01*
X130796458Y-172046560D01*
X130546868Y-171600883D01*
X130546864Y-171600877D01*
X130263073Y-171176154D01*
X130052246Y-170908721D01*
X129946835Y-170775007D01*
X129946835Y-170775008D01*
X129946833Y-170775005D01*
X129600094Y-170399906D01*
X129224995Y-170053167D01*
X129224992Y-170053165D01*
X129224993Y-170053165D01*
X129091278Y-169947753D01*
X128823846Y-169736927D01*
X128399123Y-169453136D01*
X128399122Y-169453135D01*
X128399117Y-169453132D01*
X127954238Y-169203989D01*
X127953442Y-169203543D01*
X127489553Y-168989687D01*
X127489548Y-168989685D01*
X127010327Y-168812891D01*
X127010322Y-168812889D01*
X127010315Y-168812887D01*
X126518683Y-168674232D01*
X126017687Y-168574578D01*
X125814779Y-168550561D01*
X125510420Y-168514538D01*
X125510419Y-168514538D01*
X125000000Y-168494484D01*
X124489581Y-168514538D01*
X124489580Y-168514538D01*
X124185220Y-168550561D01*
X123982313Y-168574578D01*
X123481317Y-168674232D01*
X122989685Y-168812887D01*
X122989677Y-168812889D01*
X122989673Y-168812891D01*
X122510452Y-168989685D01*
X122510447Y-168989687D01*
X122451328Y-169016941D01*
X122176412Y-169143678D01*
X122107290Y-169153868D01*
X122043631Y-169125070D01*
X122005647Y-169066427D01*
X122000499Y-169031068D01*
X122000500Y-155760001D01*
X131714609Y-155760001D01*
X131734136Y-155983200D01*
X131734137Y-155983208D01*
X131792126Y-156199625D01*
X131792127Y-156199627D01*
X131792128Y-156199630D01*
X131886818Y-156402695D01*
X131886819Y-156402696D01*
X131886821Y-156402700D01*
X132015329Y-156586228D01*
X132015334Y-156586234D01*
X132173765Y-156744665D01*
X132173771Y-156744670D01*
X132357299Y-156873178D01*
X132357301Y-156873179D01*
X132357304Y-156873181D01*
X132560370Y-156967872D01*
X132776794Y-157025863D01*
X132936226Y-157039811D01*
X132999998Y-157045391D01*
X133000000Y-157045391D01*
X133000002Y-157045391D01*
X133055801Y-157040509D01*
X133223206Y-157025863D01*
X133439630Y-156967872D01*
X133642696Y-156873181D01*
X133826233Y-156744667D01*
X133984667Y-156586233D01*
X134113181Y-156402696D01*
X134207872Y-156199630D01*
X134265863Y-155983206D01*
X134285391Y-155760001D01*
X144214609Y-155760001D01*
X144234136Y-155983200D01*
X144234137Y-155983208D01*
X144292126Y-156199625D01*
X144292127Y-156199627D01*
X144292128Y-156199630D01*
X144386818Y-156402695D01*
X144386819Y-156402696D01*
X144386821Y-156402700D01*
X144515329Y-156586228D01*
X144515334Y-156586234D01*
X144673765Y-156744665D01*
X144673771Y-156744670D01*
X144857299Y-156873178D01*
X144857301Y-156873179D01*
X144857304Y-156873181D01*
X145060370Y-156967872D01*
X145276794Y-157025863D01*
X145436226Y-157039811D01*
X145499998Y-157045391D01*
X145500000Y-157045391D01*
X145500002Y-157045391D01*
X145555801Y-157040509D01*
X145723206Y-157025863D01*
X145939630Y-156967872D01*
X146142696Y-156873181D01*
X146326233Y-156744667D01*
X146484667Y-156586233D01*
X146613181Y-156402696D01*
X146707872Y-156199630D01*
X146765863Y-155983206D01*
X146785391Y-155760000D01*
X146765863Y-155536794D01*
X146707872Y-155320370D01*
X146613181Y-155117305D01*
X146484667Y-154933767D01*
X146326233Y-154775333D01*
X146326229Y-154775330D01*
X146326228Y-154775329D01*
X146142700Y-154646821D01*
X146142696Y-154646819D01*
X146142694Y-154646818D01*
X145939630Y-154552128D01*
X145939627Y-154552127D01*
X145939625Y-154552126D01*
X145723208Y-154494137D01*
X145723200Y-154494136D01*
X145500002Y-154474609D01*
X145499998Y-154474609D01*
X145276799Y-154494136D01*
X145276791Y-154494137D01*
X145060374Y-154552126D01*
X145060368Y-154552129D01*
X144857306Y-154646818D01*
X144857304Y-154646819D01*
X144673764Y-154775334D01*
X144515334Y-154933764D01*
X144386819Y-155117304D01*
X144386818Y-155117306D01*
X144292129Y-155320368D01*
X144292126Y-155320374D01*
X144234137Y-155536791D01*
X144234136Y-155536799D01*
X144214609Y-155759998D01*
X144214609Y-155760001D01*
X134285391Y-155760001D01*
X134285391Y-155760000D01*
X134265863Y-155536794D01*
X134207872Y-155320370D01*
X134113181Y-155117305D01*
X133984667Y-154933767D01*
X133826233Y-154775333D01*
X133826229Y-154775330D01*
X133826228Y-154775329D01*
X133642700Y-154646821D01*
X133642696Y-154646819D01*
X133642694Y-154646818D01*
X133439630Y-154552128D01*
X133439627Y-154552127D01*
X133439625Y-154552126D01*
X133223208Y-154494137D01*
X133223200Y-154494136D01*
X133000002Y-154474609D01*
X132999998Y-154474609D01*
X132776799Y-154494136D01*
X132776791Y-154494137D01*
X132560374Y-154552126D01*
X132560368Y-154552129D01*
X132357306Y-154646818D01*
X132357304Y-154646819D01*
X132173764Y-154775334D01*
X132015334Y-154933764D01*
X131886819Y-155117304D01*
X131886818Y-155117306D01*
X131792129Y-155320368D01*
X131792126Y-155320374D01*
X131734137Y-155536791D01*
X131734136Y-155536799D01*
X131714609Y-155759998D01*
X131714609Y-155760001D01*
X122000500Y-155760001D01*
X122000500Y-155536799D01*
X122000500Y-150749999D01*
X123071127Y-150749999D01*
X123071128Y-150750000D01*
X123839424Y-150750000D01*
X123906463Y-150769685D01*
X123952218Y-150822489D01*
X123962162Y-150891647D01*
X123961897Y-150893397D01*
X123945014Y-150999996D01*
X123945014Y-151000003D01*
X123961897Y-151106603D01*
X123952942Y-151175896D01*
X123907946Y-151229348D01*
X123841194Y-151249987D01*
X123839424Y-151250000D01*
X123071128Y-151250000D01*
X123123730Y-151446317D01*
X123123734Y-151446326D01*
X123219865Y-151652482D01*
X123350342Y-151838820D01*
X123511179Y-151999657D01*
X123697517Y-152130134D01*
X123903673Y-152226265D01*
X123903682Y-152226269D01*
X124099999Y-152278872D01*
X124100000Y-152278871D01*
X124100000Y-151510575D01*
X124119685Y-151443536D01*
X124172489Y-151397781D01*
X124241647Y-151387837D01*
X124243331Y-151388091D01*
X124275699Y-151393218D01*
X124318515Y-151400000D01*
X124318519Y-151400000D01*
X124381485Y-151400000D01*
X124424300Y-151393218D01*
X124456602Y-151388102D01*
X124525894Y-151397056D01*
X124579347Y-151442052D01*
X124599987Y-151508803D01*
X124600000Y-151510575D01*
X124600000Y-152278872D01*
X124796317Y-152226269D01*
X124796326Y-152226265D01*
X125002482Y-152130134D01*
X125188820Y-151999657D01*
X125349657Y-151838820D01*
X125480134Y-151652482D01*
X125576265Y-151446326D01*
X125576269Y-151446317D01*
X125628872Y-151250000D01*
X124860576Y-151250000D01*
X124793537Y-151230315D01*
X124747782Y-151177511D01*
X124737838Y-151108353D01*
X124738103Y-151106603D01*
X124754986Y-151000003D01*
X124754986Y-150999996D01*
X124738103Y-150893397D01*
X124747058Y-150824104D01*
X124792054Y-150770652D01*
X124858806Y-150750013D01*
X124860576Y-150750000D01*
X125628872Y-150750000D01*
X125628872Y-150749999D01*
X125576269Y-150553682D01*
X125576265Y-150553673D01*
X125480134Y-150347517D01*
X125349657Y-150161179D01*
X125188820Y-150000342D01*
X125002482Y-149869865D01*
X124796328Y-149773734D01*
X124599999Y-149721127D01*
X124600000Y-150489424D01*
X124580315Y-150556463D01*
X124527511Y-150602218D01*
X124458353Y-150612162D01*
X124456602Y-150611897D01*
X124381486Y-150600000D01*
X124381481Y-150600000D01*
X124318519Y-150600000D01*
X124318514Y-150600000D01*
X124243398Y-150611897D01*
X124174104Y-150602942D01*
X124120652Y-150557946D01*
X124100013Y-150491194D01*
X124100000Y-150489424D01*
X124100000Y-149721127D01*
X123903671Y-149773734D01*
X123697517Y-149869865D01*
X123511179Y-150000342D01*
X123350342Y-150161179D01*
X123219865Y-150347517D01*
X123123734Y-150553673D01*
X123123730Y-150553682D01*
X123071127Y-150749999D01*
X122000500Y-150749999D01*
X122000500Y-142012698D01*
X122002757Y-141923637D01*
X121991933Y-141863249D01*
X121991280Y-141858587D01*
X121985074Y-141797563D01*
X121985074Y-141797562D01*
X121974784Y-141764768D01*
X121972917Y-141757155D01*
X121966858Y-141723347D01*
X121966857Y-141723345D01*
X121944102Y-141666379D01*
X121942521Y-141661938D01*
X121924157Y-141603407D01*
X121907488Y-141573378D01*
X121904117Y-141566278D01*
X121891378Y-141534386D01*
X121891377Y-141534383D01*
X121857620Y-141483163D01*
X121855180Y-141479134D01*
X121844379Y-141459675D01*
X121825409Y-141425498D01*
X121825407Y-141425495D01*
X121803033Y-141399434D01*
X121798302Y-141393159D01*
X121797589Y-141392077D01*
X121779402Y-141364481D01*
X121736012Y-141321091D01*
X121732822Y-141317648D01*
X121692867Y-141271106D01*
X121692863Y-141271102D01*
X121665698Y-141250074D01*
X121659803Y-141244882D01*
X120099363Y-139684442D01*
X120065878Y-139623119D01*
X120070862Y-139553427D01*
X120112734Y-139497494D01*
X120143711Y-139480579D01*
X120242328Y-139443797D01*
X120242327Y-139443797D01*
X120242331Y-139443796D01*
X120357546Y-139357546D01*
X120443796Y-139242331D01*
X120494091Y-139107483D01*
X120494091Y-139107481D01*
X120495874Y-139099938D01*
X120498146Y-139100474D01*
X120520429Y-139046688D01*
X120577823Y-139006843D01*
X120616976Y-139000500D01*
X120987284Y-139000500D01*
X121076358Y-139002757D01*
X121076358Y-139002756D01*
X121076363Y-139002757D01*
X121136753Y-138991932D01*
X121141412Y-138991280D01*
X121183607Y-138986988D01*
X121202438Y-138985074D01*
X121235227Y-138974786D01*
X121242840Y-138972918D01*
X121276653Y-138966858D01*
X121333621Y-138944101D01*
X121338053Y-138942524D01*
X121396588Y-138924159D01*
X121426627Y-138907484D01*
X121433708Y-138904122D01*
X121465617Y-138891377D01*
X121516854Y-138857608D01*
X121520851Y-138855187D01*
X121574502Y-138825409D01*
X121600568Y-138803030D01*
X121606843Y-138798300D01*
X121635519Y-138779402D01*
X121678892Y-138736027D01*
X121682350Y-138732823D01*
X121685613Y-138730020D01*
X121728895Y-138692866D01*
X121749928Y-138665691D01*
X121755098Y-138659821D01*
X122299579Y-138115340D01*
X122360898Y-138081858D01*
X122430589Y-138086842D01*
X122486523Y-138128713D01*
X122510832Y-138192782D01*
X122515386Y-138247731D01*
X122515387Y-138247738D01*
X122576412Y-138488717D01*
X122676266Y-138716364D01*
X122776564Y-138869882D01*
X123391050Y-138255395D01*
X123452373Y-138221910D01*
X123522064Y-138226894D01*
X123577998Y-138268765D01*
X123583039Y-138276025D01*
X123618239Y-138330798D01*
X123682246Y-138386260D01*
X123733602Y-138430759D01*
X123731293Y-138433422D01*
X123766006Y-138473499D01*
X123775935Y-138542660D01*
X123746898Y-138606210D01*
X123740882Y-138612669D01*
X123129942Y-139223609D01*
X123176768Y-139260055D01*
X123176770Y-139260056D01*
X123395385Y-139378364D01*
X123395396Y-139378369D01*
X123630506Y-139459083D01*
X123875707Y-139500000D01*
X124124293Y-139500000D01*
X124369493Y-139459083D01*
X124604603Y-139378369D01*
X124604614Y-139378364D01*
X124823228Y-139260057D01*
X124823231Y-139260055D01*
X124870056Y-139223609D01*
X124259116Y-138612669D01*
X124225631Y-138551346D01*
X124230615Y-138481654D01*
X124267641Y-138432193D01*
X124266398Y-138430759D01*
X124314246Y-138389299D01*
X124381761Y-138330798D01*
X124416954Y-138276037D01*
X124469755Y-138230283D01*
X124538914Y-138220339D01*
X124602470Y-138249363D01*
X124608949Y-138255396D01*
X125223434Y-138869882D01*
X125323731Y-138716369D01*
X125418679Y-138499908D01*
X125463635Y-138446422D01*
X125530370Y-138425732D01*
X125597698Y-138444406D01*
X125619916Y-138462037D01*
X129794701Y-142636822D01*
X129828186Y-142698145D01*
X129823202Y-142767837D01*
X129792454Y-142814375D01*
X129736950Y-142867137D01*
X129736946Y-142867142D01*
X129701899Y-142917494D01*
X129699062Y-142921256D01*
X129660302Y-142968792D01*
X129660299Y-142968797D01*
X129644392Y-142999247D01*
X129640324Y-143005961D01*
X129620702Y-143034154D01*
X129596509Y-143090530D01*
X129594488Y-143094784D01*
X129566091Y-143149151D01*
X129566090Y-143149152D01*
X129556640Y-143182175D01*
X129554007Y-143189571D01*
X129540459Y-143221143D01*
X129528113Y-143281219D01*
X129526990Y-143285795D01*
X129510113Y-143344777D01*
X129510113Y-143344779D01*
X129507503Y-143379041D01*
X129506414Y-143386808D01*
X129500980Y-143413252D01*
X129499500Y-143420458D01*
X129499500Y-143481797D01*
X129499321Y-143486506D01*
X129494662Y-143547674D01*
X129496310Y-143560610D01*
X129499003Y-143581760D01*
X129499500Y-143589588D01*
X129499500Y-149457791D01*
X129479815Y-149524830D01*
X129449812Y-149557057D01*
X129362452Y-149622455D01*
X129276206Y-149737664D01*
X129276202Y-149737671D01*
X129225908Y-149872517D01*
X129219501Y-149932116D01*
X129219501Y-149932123D01*
X129219500Y-149932135D01*
X129219500Y-151587870D01*
X129219501Y-151587876D01*
X129225908Y-151647483D01*
X129276202Y-151782328D01*
X129276206Y-151782335D01*
X129362452Y-151897544D01*
X129362455Y-151897547D01*
X129477664Y-151983793D01*
X129477671Y-151983797D01*
X129612517Y-152034091D01*
X129612516Y-152034091D01*
X129619444Y-152034835D01*
X129672127Y-152040500D01*
X131327872Y-152040499D01*
X131387483Y-152034091D01*
X131522331Y-151983796D01*
X131637546Y-151897546D01*
X131723796Y-151782331D01*
X131774091Y-151647483D01*
X131780500Y-151587873D01*
X131780500Y-150760001D01*
X134214609Y-150760001D01*
X134234136Y-150983200D01*
X134234137Y-150983208D01*
X134292126Y-151199625D01*
X134292127Y-151199627D01*
X134292128Y-151199630D01*
X134378644Y-151385165D01*
X134386819Y-151402696D01*
X134386821Y-151402700D01*
X134515329Y-151586228D01*
X134515334Y-151586234D01*
X134673765Y-151744665D01*
X134673771Y-151744670D01*
X134857299Y-151873178D01*
X134857301Y-151873179D01*
X134857304Y-151873181D01*
X135060370Y-151967872D01*
X135276794Y-152025863D01*
X135436226Y-152039811D01*
X135499998Y-152045391D01*
X135500000Y-152045391D01*
X135500002Y-152045391D01*
X135555927Y-152040498D01*
X135723206Y-152025863D01*
X135939630Y-151967872D01*
X136142696Y-151873181D01*
X136326233Y-151744667D01*
X136484667Y-151586233D01*
X136613181Y-151402696D01*
X136707872Y-151199630D01*
X136765863Y-150983206D01*
X136785391Y-150760000D01*
X136765863Y-150536794D01*
X136707872Y-150320370D01*
X136613181Y-150117305D01*
X136484667Y-149933767D01*
X136326233Y-149775333D01*
X136326229Y-149775330D01*
X136326228Y-149775329D01*
X136142700Y-149646821D01*
X136142696Y-149646819D01*
X136090445Y-149622454D01*
X135939630Y-149552128D01*
X135939627Y-149552127D01*
X135939625Y-149552126D01*
X135723208Y-149494137D01*
X135723200Y-149494136D01*
X135500002Y-149474609D01*
X135499998Y-149474609D01*
X135276799Y-149494136D01*
X135276791Y-149494137D01*
X135060374Y-149552126D01*
X135060368Y-149552129D01*
X134857306Y-149646818D01*
X134857304Y-149646819D01*
X134673764Y-149775334D01*
X134515334Y-149933764D01*
X134386819Y-150117304D01*
X134386818Y-150117306D01*
X134292129Y-150320368D01*
X134292126Y-150320374D01*
X134234137Y-150536791D01*
X134234136Y-150536799D01*
X134214609Y-150759998D01*
X134214609Y-150760001D01*
X131780500Y-150760001D01*
X131780499Y-149932128D01*
X131774091Y-149872517D01*
X131772940Y-149869432D01*
X131723797Y-149737671D01*
X131723793Y-149737664D01*
X131637547Y-149622455D01*
X131637544Y-149622452D01*
X131550188Y-149557057D01*
X131508317Y-149501123D01*
X131500500Y-149457796D01*
X131500500Y-143987978D01*
X131520184Y-143920943D01*
X131536810Y-143900310D01*
X131674187Y-143762932D01*
X131735508Y-143729449D01*
X131765009Y-143726655D01*
X131796658Y-143727457D01*
X131796658Y-143727456D01*
X131796663Y-143727457D01*
X131857053Y-143716632D01*
X131861712Y-143715980D01*
X131903907Y-143711688D01*
X131922738Y-143709774D01*
X131955527Y-143699486D01*
X131963140Y-143697618D01*
X131996953Y-143691558D01*
X132053921Y-143668801D01*
X132058353Y-143667224D01*
X132116888Y-143648859D01*
X132146927Y-143632184D01*
X132154008Y-143628822D01*
X132185917Y-143616077D01*
X132237154Y-143582308D01*
X132241151Y-143579887D01*
X132294802Y-143550109D01*
X132320868Y-143527730D01*
X132327143Y-143523000D01*
X132355819Y-143504102D01*
X132399192Y-143460727D01*
X132402650Y-143457523D01*
X132405913Y-143454720D01*
X132449195Y-143417566D01*
X132470228Y-143390391D01*
X132475398Y-143384521D01*
X139432741Y-136427177D01*
X139494062Y-136393694D01*
X139546776Y-136393694D01*
X139714567Y-136430195D01*
X139714568Y-136430195D01*
X139714572Y-136430196D01*
X139968220Y-136448337D01*
X139999999Y-136450610D01*
X140000000Y-136450610D01*
X140000001Y-136450610D01*
X140028595Y-136448564D01*
X140285428Y-136430196D01*
X140453226Y-136393694D01*
X140565037Y-136369371D01*
X140565037Y-136369370D01*
X140565046Y-136369369D01*
X140833161Y-136269367D01*
X141084315Y-136132226D01*
X141313395Y-135960739D01*
X141515739Y-135758395D01*
X141687226Y-135529315D01*
X141753505Y-135407935D01*
X141766668Y-135383829D01*
X141816073Y-135334424D01*
X141884346Y-135319572D01*
X141949811Y-135343989D01*
X141991682Y-135399923D01*
X141999500Y-135443256D01*
X141999500Y-140556743D01*
X141979815Y-140623782D01*
X141927011Y-140669537D01*
X141857853Y-140679481D01*
X141794297Y-140650456D01*
X141766668Y-140616170D01*
X141687229Y-140470690D01*
X141687224Y-140470682D01*
X141515745Y-140241612D01*
X141515729Y-140241594D01*
X141313405Y-140039270D01*
X141313387Y-140039254D01*
X141084317Y-139867775D01*
X141084309Y-139867770D01*
X140833166Y-139730635D01*
X140833167Y-139730635D01*
X140633564Y-139656187D01*
X140565046Y-139630631D01*
X140565043Y-139630630D01*
X140565037Y-139630628D01*
X140285433Y-139569804D01*
X140000001Y-139549390D01*
X139999999Y-139549390D01*
X139714566Y-139569804D01*
X139434962Y-139630628D01*
X139166833Y-139730635D01*
X138915690Y-139867770D01*
X138915682Y-139867775D01*
X138686612Y-140039254D01*
X138686594Y-140039270D01*
X138484270Y-140241594D01*
X138484254Y-140241612D01*
X138312775Y-140470682D01*
X138312770Y-140470690D01*
X138175635Y-140721833D01*
X138075628Y-140989962D01*
X138014804Y-141269566D01*
X137994390Y-141554998D01*
X137994390Y-141555001D01*
X138014804Y-141840433D01*
X138075628Y-142120037D01*
X138175635Y-142388166D01*
X138312770Y-142639309D01*
X138312775Y-142639317D01*
X138484254Y-142868387D01*
X138484270Y-142868405D01*
X138686594Y-143070729D01*
X138686612Y-143070745D01*
X138915682Y-143242224D01*
X138915690Y-143242229D01*
X139166833Y-143379364D01*
X139166832Y-143379364D01*
X139166836Y-143379365D01*
X139166839Y-143379367D01*
X139434954Y-143479369D01*
X139434960Y-143479370D01*
X139434962Y-143479371D01*
X139714566Y-143540195D01*
X139714568Y-143540195D01*
X139714572Y-143540196D01*
X139968220Y-143558337D01*
X139999999Y-143560610D01*
X140000000Y-143560610D01*
X140000001Y-143560610D01*
X140028595Y-143558564D01*
X140285428Y-143540196D01*
X140354507Y-143525169D01*
X140565037Y-143479371D01*
X140565037Y-143479370D01*
X140565046Y-143479369D01*
X140833161Y-143379367D01*
X141084315Y-143242226D01*
X141313395Y-143070739D01*
X141515739Y-142868395D01*
X141687226Y-142639315D01*
X141734218Y-142553256D01*
X141766668Y-142493829D01*
X141816073Y-142444424D01*
X141884346Y-142429572D01*
X141949811Y-142453989D01*
X141991682Y-142509923D01*
X141999500Y-142553256D01*
X141999500Y-149457791D01*
X141979815Y-149524830D01*
X141949812Y-149557057D01*
X141862452Y-149622455D01*
X141776206Y-149737664D01*
X141776202Y-149737671D01*
X141725908Y-149872517D01*
X141719501Y-149932116D01*
X141719501Y-149932123D01*
X141719500Y-149932135D01*
X141719500Y-151587870D01*
X141719501Y-151587876D01*
X141725908Y-151647483D01*
X141776202Y-151782328D01*
X141776206Y-151782335D01*
X141862452Y-151897544D01*
X141862455Y-151897547D01*
X141977664Y-151983793D01*
X141977671Y-151983797D01*
X142112517Y-152034091D01*
X142112516Y-152034091D01*
X142119444Y-152034835D01*
X142172127Y-152040500D01*
X143827872Y-152040499D01*
X143887483Y-152034091D01*
X144022331Y-151983796D01*
X144137546Y-151897546D01*
X144223796Y-151782331D01*
X144274091Y-151647483D01*
X144280500Y-151587873D01*
X144280500Y-150760001D01*
X146714609Y-150760001D01*
X146734136Y-150983200D01*
X146734137Y-150983208D01*
X146792126Y-151199625D01*
X146792127Y-151199627D01*
X146792128Y-151199630D01*
X146878644Y-151385165D01*
X146886819Y-151402696D01*
X146886821Y-151402700D01*
X147015329Y-151586228D01*
X147015334Y-151586234D01*
X147173765Y-151744665D01*
X147173771Y-151744670D01*
X147357299Y-151873178D01*
X147357301Y-151873179D01*
X147357304Y-151873181D01*
X147560370Y-151967872D01*
X147776794Y-152025863D01*
X147936226Y-152039811D01*
X147999998Y-152045391D01*
X148000000Y-152045391D01*
X148000002Y-152045391D01*
X148055927Y-152040498D01*
X148223206Y-152025863D01*
X148439630Y-151967872D01*
X148642696Y-151873181D01*
X148826233Y-151744667D01*
X148984667Y-151586233D01*
X149113181Y-151402696D01*
X149207872Y-151199630D01*
X149265863Y-150983206D01*
X149285391Y-150760000D01*
X149265863Y-150536794D01*
X149207872Y-150320370D01*
X149113181Y-150117305D01*
X148984667Y-149933767D01*
X148826233Y-149775333D01*
X148826229Y-149775330D01*
X148826228Y-149775329D01*
X148642700Y-149646821D01*
X148642696Y-149646819D01*
X148590445Y-149622454D01*
X148439630Y-149552128D01*
X148439627Y-149552127D01*
X148439625Y-149552126D01*
X148223208Y-149494137D01*
X148223200Y-149494136D01*
X148000002Y-149474609D01*
X147999998Y-149474609D01*
X147776799Y-149494136D01*
X147776791Y-149494137D01*
X147560374Y-149552126D01*
X147560368Y-149552129D01*
X147357306Y-149646818D01*
X147357304Y-149646819D01*
X147173764Y-149775334D01*
X147015334Y-149933764D01*
X146886819Y-150117304D01*
X146886818Y-150117306D01*
X146792129Y-150320368D01*
X146792126Y-150320374D01*
X146734137Y-150536791D01*
X146734136Y-150536799D01*
X146714609Y-150759998D01*
X146714609Y-150760001D01*
X144280500Y-150760001D01*
X144280499Y-149932128D01*
X144274091Y-149872517D01*
X144272940Y-149869432D01*
X144223797Y-149737671D01*
X144223793Y-149737664D01*
X144137547Y-149622455D01*
X144050188Y-149557057D01*
X144008318Y-149501123D01*
X144000500Y-149457791D01*
X144000500Y-120012715D01*
X144002757Y-119923641D01*
X144002756Y-119923640D01*
X144002757Y-119923637D01*
X143991933Y-119863253D01*
X143991280Y-119858587D01*
X143988034Y-119826674D01*
X143985074Y-119797562D01*
X143974788Y-119764780D01*
X143972918Y-119757166D01*
X143966858Y-119723348D01*
X143944092Y-119666352D01*
X143942527Y-119661955D01*
X143924159Y-119603412D01*
X143907491Y-119573382D01*
X143904120Y-119566284D01*
X143900443Y-119557078D01*
X143891378Y-119534383D01*
X143857605Y-119483139D01*
X143855183Y-119479142D01*
X143825409Y-119425498D01*
X143803034Y-119399434D01*
X143798306Y-119393163D01*
X143779404Y-119364484D01*
X143779399Y-119364478D01*
X143753190Y-119338270D01*
X143736019Y-119321099D01*
X143732828Y-119317655D01*
X143692865Y-119271104D01*
X143665694Y-119250072D01*
X143659807Y-119244887D01*
X141982179Y-117567259D01*
X141948694Y-117505936D01*
X141948694Y-117453223D01*
X141985196Y-117285428D01*
X142005610Y-117000000D01*
X141985196Y-116714572D01*
X141924369Y-116434954D01*
X141824367Y-116166839D01*
X141801804Y-116125519D01*
X141687229Y-115915690D01*
X141687224Y-115915682D01*
X141515745Y-115686612D01*
X141515729Y-115686594D01*
X141313405Y-115484270D01*
X141313387Y-115484254D01*
X141084317Y-115312775D01*
X141084309Y-115312770D01*
X140833166Y-115175635D01*
X140833167Y-115175635D01*
X140662281Y-115111898D01*
X140565046Y-115075631D01*
X140565043Y-115075630D01*
X140565037Y-115075628D01*
X140285433Y-115014804D01*
X140000001Y-114994390D01*
X139999999Y-114994390D01*
X139714566Y-115014804D01*
X139434962Y-115075628D01*
X139166833Y-115175635D01*
X138915690Y-115312770D01*
X138915682Y-115312775D01*
X138686612Y-115484254D01*
X138686594Y-115484270D01*
X138484270Y-115686594D01*
X138484254Y-115686612D01*
X138312775Y-115915682D01*
X138312770Y-115915690D01*
X138175635Y-116166833D01*
X138075628Y-116434962D01*
X138014804Y-116714566D01*
X137994390Y-116999998D01*
X137994390Y-117000001D01*
X138014804Y-117285433D01*
X138075628Y-117565037D01*
X138075630Y-117565043D01*
X138075631Y-117565046D01*
X138119238Y-117681960D01*
X138175635Y-117833166D01*
X138312770Y-118084309D01*
X138312775Y-118084317D01*
X138484254Y-118313387D01*
X138484270Y-118313405D01*
X138686594Y-118515729D01*
X138686612Y-118515745D01*
X138915682Y-118687224D01*
X138915690Y-118687229D01*
X139166833Y-118824364D01*
X139166832Y-118824364D01*
X139166836Y-118824365D01*
X139166839Y-118824367D01*
X139434954Y-118924369D01*
X139434960Y-118924370D01*
X139434962Y-118924371D01*
X139714566Y-118985195D01*
X139714568Y-118985195D01*
X139714572Y-118985196D01*
X139968220Y-119003337D01*
X139999999Y-119005610D01*
X140000000Y-119005610D01*
X140000001Y-119005610D01*
X140023822Y-119003906D01*
X140285428Y-118985196D01*
X140453221Y-118948694D01*
X140522909Y-118953678D01*
X140567258Y-118982179D01*
X141963181Y-120378102D01*
X141996666Y-120439425D01*
X141999500Y-120465783D01*
X141999500Y-123111743D01*
X141979815Y-123178782D01*
X141927011Y-123224537D01*
X141857853Y-123234481D01*
X141794297Y-123205456D01*
X141766668Y-123171170D01*
X141687229Y-123025690D01*
X141687224Y-123025682D01*
X141515745Y-122796612D01*
X141515729Y-122796594D01*
X141313405Y-122594270D01*
X141313387Y-122594254D01*
X141084317Y-122422775D01*
X141084309Y-122422770D01*
X140833166Y-122285635D01*
X140833167Y-122285635D01*
X140695331Y-122234225D01*
X140565046Y-122185631D01*
X140565043Y-122185630D01*
X140565037Y-122185628D01*
X140285433Y-122124804D01*
X140000001Y-122104390D01*
X139999999Y-122104390D01*
X139714571Y-122124804D01*
X139714564Y-122124805D01*
X139546779Y-122161304D01*
X139477087Y-122156320D01*
X139432740Y-122127819D01*
X132416819Y-115111898D01*
X132383334Y-115050575D01*
X132380500Y-115024217D01*
X132380500Y-108224499D01*
X132400185Y-108157460D01*
X132452989Y-108111705D01*
X132504500Y-108100499D01*
X133027871Y-108100499D01*
X133027872Y-108100499D01*
X133087483Y-108094091D01*
X133222331Y-108043796D01*
X133337546Y-107957546D01*
X133423796Y-107842331D01*
X133474091Y-107707483D01*
X133480500Y-107647873D01*
X133480499Y-105749999D01*
X144532192Y-105749999D01*
X144532193Y-105750000D01*
X145704350Y-105750000D01*
X145771389Y-105769685D01*
X145817144Y-105822489D01*
X145827570Y-105887883D01*
X145814938Y-105999996D01*
X145814938Y-106000003D01*
X145827570Y-106112117D01*
X145815516Y-106180938D01*
X145768166Y-106232318D01*
X145704350Y-106250000D01*
X144532193Y-106250000D01*
X144534697Y-106286619D01*
X144593146Y-106567888D01*
X144593150Y-106567902D01*
X144689355Y-106838595D01*
X144821527Y-107093676D01*
X144987204Y-107328385D01*
X144987204Y-107328386D01*
X145183288Y-107538341D01*
X145406135Y-107719641D01*
X145406146Y-107719648D01*
X145651607Y-107868917D01*
X145915108Y-107983371D01*
X146191737Y-108060879D01*
X146191746Y-108060881D01*
X146369999Y-108085380D01*
X146370000Y-108085380D01*
X146370000Y-106915649D01*
X146389685Y-106848610D01*
X146442489Y-106802855D01*
X146507883Y-106792429D01*
X146545485Y-106796666D01*
X146575071Y-106800000D01*
X146575074Y-106800000D01*
X146664929Y-106800000D01*
X146694514Y-106796666D01*
X146732116Y-106792429D01*
X146800937Y-106804483D01*
X146852317Y-106851831D01*
X146870000Y-106915649D01*
X146870000Y-108085380D01*
X147048253Y-108060881D01*
X147048262Y-108060879D01*
X147324891Y-107983371D01*
X147588392Y-107868917D01*
X147833853Y-107719648D01*
X147833864Y-107719641D01*
X148056711Y-107538341D01*
X148252795Y-107328386D01*
X148252795Y-107328385D01*
X148418472Y-107093676D01*
X148550644Y-106838595D01*
X148646849Y-106567902D01*
X148646853Y-106567888D01*
X148705302Y-106286619D01*
X148707807Y-106250000D01*
X147535650Y-106250000D01*
X147468611Y-106230315D01*
X147422856Y-106177511D01*
X147412430Y-106112117D01*
X147425062Y-106000003D01*
X147425062Y-105999996D01*
X147412430Y-105887883D01*
X147424484Y-105819062D01*
X147471834Y-105767682D01*
X147535650Y-105750000D01*
X148707807Y-105750000D01*
X148707807Y-105749999D01*
X148705302Y-105713380D01*
X148646853Y-105432111D01*
X148646849Y-105432097D01*
X148550644Y-105161404D01*
X148418472Y-104906323D01*
X148252795Y-104671614D01*
X148252795Y-104671613D01*
X148056711Y-104461658D01*
X147833864Y-104280358D01*
X147833853Y-104280351D01*
X147588392Y-104131082D01*
X147324891Y-104016628D01*
X147048262Y-103939120D01*
X147048255Y-103939119D01*
X146870000Y-103914618D01*
X146870000Y-105084350D01*
X146850315Y-105151389D01*
X146797511Y-105197144D01*
X146732116Y-105207570D01*
X146664930Y-105200000D01*
X146664926Y-105200000D01*
X146575074Y-105200000D01*
X146575070Y-105200000D01*
X146507884Y-105207570D01*
X146439062Y-105195516D01*
X146387682Y-105148167D01*
X146370000Y-105084350D01*
X146370000Y-103914618D01*
X146191744Y-103939119D01*
X146191737Y-103939120D01*
X145915108Y-104016628D01*
X145651607Y-104131082D01*
X145406146Y-104280351D01*
X145406135Y-104280358D01*
X145183288Y-104461658D01*
X144987204Y-104671613D01*
X144987204Y-104671614D01*
X144821527Y-104906323D01*
X144689355Y-105161404D01*
X144593150Y-105432097D01*
X144593146Y-105432111D01*
X144534697Y-105713380D01*
X144532192Y-105749999D01*
X133480499Y-105749999D01*
X133480499Y-104352128D01*
X133474091Y-104292517D01*
X133470561Y-104283053D01*
X133423797Y-104157671D01*
X133423793Y-104157664D01*
X133337547Y-104042455D01*
X133337544Y-104042452D01*
X133222335Y-103956206D01*
X133222328Y-103956202D01*
X133087482Y-103905908D01*
X133087483Y-103905908D01*
X133027883Y-103899501D01*
X133027881Y-103899500D01*
X133027873Y-103899500D01*
X133027864Y-103899500D01*
X129732129Y-103899500D01*
X129732123Y-103899501D01*
X129672516Y-103905908D01*
X129537671Y-103956202D01*
X129537664Y-103956206D01*
X129422455Y-104042452D01*
X129422452Y-104042455D01*
X129336206Y-104157664D01*
X129336202Y-104157671D01*
X129285908Y-104292517D01*
X129283173Y-104317961D01*
X129279501Y-104352123D01*
X129279500Y-104352135D01*
X129279500Y-107647870D01*
X129279501Y-107647876D01*
X129285908Y-107707483D01*
X129336202Y-107842328D01*
X129336206Y-107842335D01*
X129422452Y-107957544D01*
X129422455Y-107957547D01*
X129537664Y-108043793D01*
X129537671Y-108043797D01*
X129582272Y-108060432D01*
X129672517Y-108094091D01*
X129732127Y-108100500D01*
X130255499Y-108100499D01*
X130322538Y-108120183D01*
X130368293Y-108172987D01*
X130379499Y-108224499D01*
X130379500Y-115477283D01*
X130377243Y-115566362D01*
X130377243Y-115566370D01*
X130388064Y-115626739D01*
X130388718Y-115631404D01*
X130394925Y-115692430D01*
X130394927Y-115692444D01*
X130405208Y-115725213D01*
X130407079Y-115732837D01*
X130413142Y-115766652D01*
X130413142Y-115766655D01*
X130435894Y-115823612D01*
X130437474Y-115828051D01*
X130455841Y-115886588D01*
X130455844Y-115886595D01*
X130472509Y-115916619D01*
X130475879Y-115923714D01*
X130488622Y-115955614D01*
X130488627Y-115955624D01*
X130504900Y-115980315D01*
X130517873Y-116000000D01*
X130522377Y-116006833D01*
X130524818Y-116010863D01*
X130554588Y-116064498D01*
X130554589Y-116064499D01*
X130554591Y-116064502D01*
X130576968Y-116090567D01*
X130581693Y-116096835D01*
X130584769Y-116101502D01*
X130600598Y-116125519D01*
X130643978Y-116168899D01*
X130647169Y-116172343D01*
X130687131Y-116218892D01*
X130687130Y-116218892D01*
X130714299Y-116239923D01*
X130720186Y-116245107D01*
X134398717Y-119923637D01*
X138017819Y-123542739D01*
X138051304Y-123604062D01*
X138051304Y-123656778D01*
X138014805Y-123824564D01*
X138014804Y-123824571D01*
X137994390Y-124109998D01*
X137994390Y-124110001D01*
X138014804Y-124395433D01*
X138075628Y-124675037D01*
X138175635Y-124943166D01*
X138312770Y-125194309D01*
X138312775Y-125194317D01*
X138484254Y-125423387D01*
X138484270Y-125423405D01*
X138686594Y-125625729D01*
X138686612Y-125625745D01*
X138915682Y-125797224D01*
X138915690Y-125797229D01*
X139166833Y-125934364D01*
X139166832Y-125934364D01*
X139166836Y-125934365D01*
X139166839Y-125934367D01*
X139434954Y-126034369D01*
X139434960Y-126034370D01*
X139434962Y-126034371D01*
X139714566Y-126095195D01*
X139714568Y-126095195D01*
X139714572Y-126095196D01*
X139968220Y-126113337D01*
X139999999Y-126115610D01*
X140000000Y-126115610D01*
X140000001Y-126115610D01*
X140028595Y-126113564D01*
X140285428Y-126095196D01*
X140565046Y-126034369D01*
X140833161Y-125934367D01*
X141084315Y-125797226D01*
X141313395Y-125625739D01*
X141515739Y-125423395D01*
X141687226Y-125194315D01*
X141766667Y-125048829D01*
X141816073Y-124999424D01*
X141884346Y-124984572D01*
X141949811Y-125008989D01*
X141991682Y-125064923D01*
X141999500Y-125108256D01*
X141999500Y-133446743D01*
X141979815Y-133513782D01*
X141927011Y-133559537D01*
X141857853Y-133569481D01*
X141794297Y-133540456D01*
X141766668Y-133506170D01*
X141687229Y-133360690D01*
X141687224Y-133360682D01*
X141515745Y-133131612D01*
X141515729Y-133131594D01*
X141313405Y-132929270D01*
X141313387Y-132929254D01*
X141084317Y-132757775D01*
X141084309Y-132757770D01*
X140833166Y-132620635D01*
X140833167Y-132620635D01*
X140725914Y-132580632D01*
X140565046Y-132520631D01*
X140565043Y-132520630D01*
X140565037Y-132520628D01*
X140285433Y-132459804D01*
X140000001Y-132439390D01*
X139999999Y-132439390D01*
X139714566Y-132459804D01*
X139434962Y-132520628D01*
X139166833Y-132620635D01*
X138915690Y-132757770D01*
X138915682Y-132757775D01*
X138686612Y-132929254D01*
X138686594Y-132929270D01*
X138484270Y-133131594D01*
X138484254Y-133131612D01*
X138312775Y-133360682D01*
X138312770Y-133360690D01*
X138175635Y-133611833D01*
X138075628Y-133879962D01*
X138014804Y-134159566D01*
X137994390Y-134444998D01*
X137994390Y-134445001D01*
X138014804Y-134730428D01*
X138014805Y-134730435D01*
X138051304Y-134898219D01*
X138046320Y-134967911D01*
X138017819Y-135012258D01*
X131596580Y-141433497D01*
X131535257Y-141466982D01*
X131465565Y-141461998D01*
X131421218Y-141433497D01*
X125512652Y-135524932D01*
X125451261Y-135460349D01*
X125451260Y-135460348D01*
X125451259Y-135460347D01*
X125423404Y-135440959D01*
X125400909Y-135425302D01*
X125397146Y-135422464D01*
X125349613Y-135383705D01*
X125349606Y-135383700D01*
X125319159Y-135367797D01*
X125312451Y-135363734D01*
X125284249Y-135344105D01*
X125284246Y-135344103D01*
X125284245Y-135344103D01*
X125284241Y-135344101D01*
X125227880Y-135319914D01*
X125223624Y-135317893D01*
X125169257Y-135289494D01*
X125169250Y-135289491D01*
X125169249Y-135289491D01*
X125163208Y-135287762D01*
X125136230Y-135280042D01*
X125128830Y-135277408D01*
X125097257Y-135263859D01*
X125097258Y-135263859D01*
X125037166Y-135251509D01*
X125032591Y-135250386D01*
X124973620Y-135233513D01*
X124973625Y-135233513D01*
X124939358Y-135230903D01*
X124931580Y-135229812D01*
X124897942Y-135222900D01*
X124897941Y-135222900D01*
X124836602Y-135222900D01*
X124831895Y-135222721D01*
X124826321Y-135222296D01*
X124770724Y-135218062D01*
X124750789Y-135220601D01*
X124736640Y-135222403D01*
X124728811Y-135222900D01*
X122789317Y-135222900D01*
X122700237Y-135220643D01*
X122700228Y-135220643D01*
X122649076Y-135229812D01*
X122639854Y-135231464D01*
X122635195Y-135232118D01*
X122574164Y-135238325D01*
X122574162Y-135238326D01*
X122541380Y-135248610D01*
X122533756Y-135250481D01*
X122530657Y-135251037D01*
X122499949Y-135256541D01*
X122499941Y-135256543D01*
X122442982Y-135279295D01*
X122438546Y-135280874D01*
X122380015Y-135299240D01*
X122380012Y-135299241D01*
X122380010Y-135299242D01*
X122380003Y-135299245D01*
X122349984Y-135315907D01*
X122342890Y-135319276D01*
X122310990Y-135332019D01*
X122310988Y-135332019D01*
X122310983Y-135332022D01*
X122310976Y-135332026D01*
X122310977Y-135332026D01*
X122259754Y-135365783D01*
X122255726Y-135368224D01*
X122202102Y-135397988D01*
X122202099Y-135397990D01*
X122176027Y-135420370D01*
X122169760Y-135425095D01*
X122141082Y-135443998D01*
X122141075Y-135444003D01*
X122097716Y-135487362D01*
X122094261Y-135490564D01*
X122047706Y-135530532D01*
X122047705Y-135530533D01*
X122026676Y-135557700D01*
X122021484Y-135563594D01*
X120684442Y-136900637D01*
X120623119Y-136934122D01*
X120553427Y-136929138D01*
X120497494Y-136887266D01*
X120480579Y-136856289D01*
X120443797Y-136757671D01*
X120443793Y-136757664D01*
X120357547Y-136642455D01*
X120357544Y-136642452D01*
X120242335Y-136556206D01*
X120242328Y-136556202D01*
X120107482Y-136505908D01*
X120107483Y-136505908D01*
X120047883Y-136499501D01*
X120047881Y-136499500D01*
X120047873Y-136499500D01*
X120047864Y-136499500D01*
X117952129Y-136499500D01*
X117952123Y-136499501D01*
X117892516Y-136505908D01*
X117757671Y-136556202D01*
X117757664Y-136556206D01*
X117642455Y-136642452D01*
X117642452Y-136642455D01*
X117556206Y-136757664D01*
X117556202Y-136757671D01*
X117505908Y-136892517D01*
X117499501Y-136952116D01*
X117499501Y-136952123D01*
X117499500Y-136952135D01*
X117499500Y-139047870D01*
X112650500Y-139047870D01*
X112650500Y-133962715D01*
X112652757Y-133873641D01*
X112652756Y-133873640D01*
X112652757Y-133873637D01*
X112641933Y-133813253D01*
X112641280Y-133808587D01*
X112638034Y-133776674D01*
X112635074Y-133747562D01*
X112624788Y-133714780D01*
X112622918Y-133707166D01*
X112616858Y-133673348D01*
X112594092Y-133616352D01*
X112592527Y-133611955D01*
X112574159Y-133553412D01*
X112557491Y-133523382D01*
X112554120Y-133516284D01*
X112541378Y-133484384D01*
X112541377Y-133484381D01*
X112533471Y-133472386D01*
X112507605Y-133433139D01*
X112505183Y-133429142D01*
X112475409Y-133375498D01*
X112453034Y-133349434D01*
X112448306Y-133343163D01*
X112429404Y-133314484D01*
X112429399Y-133314478D01*
X112407715Y-133292795D01*
X112386019Y-133271099D01*
X112382828Y-133267655D01*
X112342865Y-133221104D01*
X112315694Y-133200072D01*
X112309807Y-133194887D01*
X101162790Y-122047870D01*
X102499500Y-122047870D01*
X102499501Y-122047876D01*
X102505908Y-122107483D01*
X102556202Y-122242328D01*
X102556206Y-122242335D01*
X102642452Y-122357544D01*
X102642455Y-122357547D01*
X102757664Y-122443793D01*
X102757671Y-122443797D01*
X102892517Y-122494091D01*
X102892516Y-122494091D01*
X102899444Y-122494835D01*
X102952127Y-122500500D01*
X105047872Y-122500499D01*
X105107483Y-122494091D01*
X105242331Y-122443796D01*
X105357546Y-122357546D01*
X105443796Y-122242331D01*
X105480578Y-122143711D01*
X105522450Y-122087777D01*
X105587914Y-122063360D01*
X105656187Y-122078211D01*
X105684442Y-122099363D01*
X107062666Y-123477587D01*
X107124041Y-123542153D01*
X107124044Y-123542155D01*
X107124047Y-123542158D01*
X107147529Y-123558501D01*
X107174395Y-123577200D01*
X107178150Y-123580032D01*
X107225693Y-123618798D01*
X107256145Y-123634704D01*
X107262856Y-123638771D01*
X107291051Y-123658395D01*
X107347432Y-123682590D01*
X107351667Y-123684601D01*
X107406051Y-123713009D01*
X107439073Y-123722456D01*
X107446465Y-123725089D01*
X107478040Y-123738639D01*
X107478041Y-123738640D01*
X107491154Y-123741334D01*
X107538155Y-123750992D01*
X107542695Y-123752106D01*
X107601682Y-123768986D01*
X107635941Y-123771594D01*
X107643709Y-123772685D01*
X107677355Y-123779600D01*
X107677359Y-123779600D01*
X107738701Y-123779600D01*
X107743408Y-123779778D01*
X107770697Y-123781857D01*
X107804575Y-123784437D01*
X107804575Y-123784436D01*
X107804576Y-123784437D01*
X107838659Y-123780096D01*
X107846489Y-123779600D01*
X109695284Y-123779600D01*
X109784358Y-123781857D01*
X109784358Y-123781856D01*
X109784363Y-123781857D01*
X109844753Y-123771032D01*
X109849412Y-123770380D01*
X109891607Y-123766088D01*
X109910438Y-123764174D01*
X109943227Y-123753886D01*
X109950840Y-123752018D01*
X109984653Y-123745958D01*
X110041621Y-123723201D01*
X110046053Y-123721624D01*
X110104588Y-123703259D01*
X110134627Y-123686584D01*
X110141708Y-123683222D01*
X110173617Y-123670477D01*
X110224854Y-123636708D01*
X110228851Y-123634287D01*
X110282502Y-123604509D01*
X110308568Y-123582130D01*
X110314843Y-123577400D01*
X110315156Y-123577194D01*
X110343519Y-123558502D01*
X110386917Y-123515102D01*
X110390336Y-123511934D01*
X110436895Y-123471966D01*
X110457931Y-123444788D01*
X110463101Y-123438918D01*
X113198487Y-120703533D01*
X113263053Y-120642159D01*
X113298097Y-120591809D01*
X113300924Y-120588057D01*
X113339698Y-120540507D01*
X113355607Y-120510048D01*
X113359667Y-120503348D01*
X113379295Y-120475149D01*
X113403492Y-120418760D01*
X113405498Y-120414535D01*
X113433909Y-120360149D01*
X113443357Y-120327122D01*
X113445988Y-120319733D01*
X113459540Y-120288158D01*
X113471895Y-120228030D01*
X113472999Y-120223529D01*
X113489886Y-120164518D01*
X113492495Y-120130255D01*
X113493583Y-120122495D01*
X113495153Y-120114858D01*
X113498304Y-120099533D01*
X113531083Y-120037830D01*
X113592019Y-120003644D01*
X113619764Y-120000500D01*
X117375500Y-120000500D01*
X117442539Y-120020185D01*
X117488294Y-120072989D01*
X117499500Y-120124500D01*
X117499500Y-122047870D01*
X117499501Y-122047876D01*
X117505908Y-122107483D01*
X117556202Y-122242328D01*
X117556206Y-122242335D01*
X117642452Y-122357544D01*
X117642455Y-122357547D01*
X117757664Y-122443793D01*
X117757671Y-122443797D01*
X117892517Y-122494091D01*
X117892516Y-122494091D01*
X117899444Y-122494835D01*
X117952127Y-122500500D01*
X120047872Y-122500499D01*
X120107483Y-122494091D01*
X120242331Y-122443796D01*
X120357546Y-122357546D01*
X120443796Y-122242331D01*
X120494091Y-122107483D01*
X120500500Y-122047873D01*
X120500500Y-121000005D01*
X122494858Y-121000005D01*
X122515385Y-121247729D01*
X122515387Y-121247738D01*
X122576412Y-121488717D01*
X122676266Y-121716364D01*
X122776564Y-121869882D01*
X123391050Y-121255395D01*
X123452373Y-121221910D01*
X123522064Y-121226894D01*
X123577998Y-121268765D01*
X123583039Y-121276025D01*
X123618239Y-121330798D01*
X123682246Y-121386260D01*
X123733602Y-121430759D01*
X123731293Y-121433422D01*
X123766006Y-121473499D01*
X123775935Y-121542660D01*
X123746898Y-121606210D01*
X123740882Y-121612669D01*
X123129942Y-122223609D01*
X123176768Y-122260055D01*
X123176770Y-122260056D01*
X123395385Y-122378364D01*
X123395396Y-122378369D01*
X123630506Y-122459083D01*
X123875707Y-122500000D01*
X124124293Y-122500000D01*
X124369493Y-122459083D01*
X124604603Y-122378369D01*
X124604614Y-122378364D01*
X124823228Y-122260057D01*
X124823231Y-122260055D01*
X124870056Y-122223609D01*
X124259116Y-121612669D01*
X124225631Y-121551346D01*
X124230615Y-121481654D01*
X124267641Y-121432193D01*
X124266398Y-121430759D01*
X124314247Y-121389298D01*
X124381761Y-121330798D01*
X124416954Y-121276037D01*
X124469755Y-121230283D01*
X124538914Y-121220339D01*
X124602470Y-121249363D01*
X124608949Y-121255396D01*
X125223434Y-121869882D01*
X125323731Y-121716369D01*
X125423587Y-121488717D01*
X125484612Y-121247738D01*
X125484614Y-121247729D01*
X125505141Y-121000005D01*
X125505141Y-120999994D01*
X125484614Y-120752270D01*
X125484612Y-120752261D01*
X125423587Y-120511282D01*
X125323731Y-120283630D01*
X125223434Y-120130116D01*
X124608949Y-120744602D01*
X124547626Y-120778087D01*
X124477934Y-120773103D01*
X124422001Y-120731231D01*
X124416953Y-120723961D01*
X124381761Y-120669202D01*
X124350550Y-120642158D01*
X124273100Y-120575048D01*
X124273099Y-120575047D01*
X124266398Y-120569241D01*
X124268698Y-120566585D01*
X124233960Y-120526428D01*
X124224074Y-120457261D01*
X124253152Y-120393729D01*
X124259116Y-120387329D01*
X124870056Y-119776389D01*
X124823229Y-119739943D01*
X124604614Y-119621635D01*
X124604603Y-119621630D01*
X124369493Y-119540916D01*
X124124293Y-119500000D01*
X123875707Y-119500000D01*
X123630506Y-119540916D01*
X123395396Y-119621630D01*
X123395390Y-119621632D01*
X123176761Y-119739949D01*
X123129942Y-119776388D01*
X123129942Y-119776390D01*
X123740883Y-120387330D01*
X123774368Y-120448653D01*
X123769384Y-120518344D01*
X123732358Y-120567805D01*
X123733602Y-120569241D01*
X123618238Y-120669202D01*
X123583046Y-120723962D01*
X123530242Y-120769717D01*
X123461083Y-120779660D01*
X123397528Y-120750634D01*
X123391050Y-120744603D01*
X122776564Y-120130116D01*
X122676267Y-120283632D01*
X122576412Y-120511282D01*
X122515387Y-120752261D01*
X122515385Y-120752270D01*
X122494858Y-120999994D01*
X122494858Y-121000005D01*
X120500500Y-121000005D01*
X120500499Y-119952128D01*
X120494091Y-119892517D01*
X120450778Y-119776390D01*
X120443797Y-119757671D01*
X120443793Y-119757664D01*
X120357547Y-119642455D01*
X120357544Y-119642452D01*
X120242335Y-119556206D01*
X120242328Y-119556202D01*
X120107482Y-119505908D01*
X120099938Y-119504126D01*
X120100474Y-119501853D01*
X120046688Y-119479571D01*
X120006843Y-119422177D01*
X120000500Y-119383024D01*
X120000500Y-119026928D01*
X120000580Y-119023788D01*
X120001894Y-118997851D01*
X120004369Y-118949064D01*
X119993039Y-118875113D01*
X119992643Y-118871999D01*
X119985074Y-118797563D01*
X119985072Y-118797556D01*
X119980251Y-118782189D01*
X119975994Y-118763849D01*
X119973556Y-118747929D01*
X119947553Y-118677720D01*
X119946565Y-118674825D01*
X119924159Y-118603412D01*
X119916339Y-118589324D01*
X119908482Y-118572225D01*
X119902886Y-118557113D01*
X119863296Y-118493597D01*
X119861725Y-118490929D01*
X119825409Y-118425498D01*
X119814921Y-118413281D01*
X119803773Y-118398100D01*
X119803489Y-118397645D01*
X119795252Y-118384429D01*
X119743701Y-118330197D01*
X119741600Y-118327872D01*
X119692873Y-118271112D01*
X119692868Y-118271108D01*
X119692866Y-118271105D01*
X119680126Y-118261243D01*
X119666155Y-118248620D01*
X119655063Y-118236950D01*
X119593647Y-118194202D01*
X119591116Y-118192343D01*
X119531961Y-118146553D01*
X119531957Y-118146551D01*
X119517496Y-118139458D01*
X119501270Y-118129906D01*
X119488051Y-118120706D01*
X119460671Y-118108956D01*
X119419286Y-118091196D01*
X119416468Y-118089901D01*
X119349271Y-118056940D01*
X119349269Y-118056939D01*
X119333680Y-118052903D01*
X119315864Y-118046813D01*
X119301061Y-118040461D01*
X119301059Y-118040460D01*
X119301058Y-118040460D01*
X119227765Y-118025398D01*
X119224716Y-118024690D01*
X119152281Y-118005936D01*
X119136189Y-118005119D01*
X119117523Y-118002742D01*
X119101743Y-117999500D01*
X119101741Y-117999500D01*
X119026929Y-117999500D01*
X119023789Y-117999420D01*
X118949064Y-117995631D01*
X118949060Y-117995631D01*
X118933143Y-117998070D01*
X118914367Y-117999500D01*
X113624500Y-117999500D01*
X113557461Y-117979815D01*
X113511706Y-117927011D01*
X113500500Y-117875500D01*
X113500500Y-106877588D01*
X113520185Y-106810549D01*
X113522925Y-106806465D01*
X113538041Y-106784877D01*
X113630568Y-106652734D01*
X113726739Y-106446496D01*
X113785635Y-106226692D01*
X113805468Y-106000002D01*
X116195034Y-106000002D01*
X116214858Y-106226599D01*
X116214860Y-106226610D01*
X116273730Y-106446317D01*
X116273734Y-106446326D01*
X116369865Y-106652481D01*
X116369866Y-106652483D01*
X116420973Y-106725471D01*
X116420973Y-106725472D01*
X116962580Y-106183865D01*
X117023903Y-106150380D01*
X117093594Y-106155364D01*
X117149528Y-106197235D01*
X117160742Y-106215246D01*
X117166527Y-106226599D01*
X117172358Y-106238044D01*
X117172363Y-106238050D01*
X117261949Y-106327636D01*
X117261951Y-106327637D01*
X117261955Y-106327641D01*
X117284747Y-106339254D01*
X117335542Y-106387228D01*
X117352337Y-106455049D01*
X117329799Y-106521184D01*
X117316132Y-106537419D01*
X116774526Y-107079025D01*
X116774526Y-107079026D01*
X116847512Y-107130131D01*
X116847516Y-107130133D01*
X117053673Y-107226265D01*
X117053682Y-107226269D01*
X117273389Y-107285139D01*
X117273400Y-107285141D01*
X117499998Y-107304966D01*
X117500002Y-107304966D01*
X117726599Y-107285141D01*
X117726610Y-107285139D01*
X117946317Y-107226269D01*
X117946331Y-107226264D01*
X118152478Y-107130136D01*
X118225472Y-107079025D01*
X117683866Y-106537419D01*
X117650381Y-106476096D01*
X117655365Y-106406404D01*
X117697237Y-106350471D01*
X117715245Y-106339258D01*
X117738045Y-106327641D01*
X117827641Y-106238045D01*
X117839254Y-106215252D01*
X117887225Y-106164458D01*
X117955046Y-106147661D01*
X118021181Y-106170197D01*
X118037419Y-106183866D01*
X118579025Y-106725472D01*
X118630136Y-106652478D01*
X118726264Y-106446331D01*
X118726269Y-106446317D01*
X118785139Y-106226610D01*
X118785141Y-106226599D01*
X118804966Y-106000002D01*
X118804966Y-105999997D01*
X118785141Y-105773400D01*
X118785139Y-105773389D01*
X118726269Y-105553682D01*
X118726265Y-105553673D01*
X118630133Y-105347516D01*
X118630131Y-105347512D01*
X118579026Y-105274526D01*
X118579025Y-105274526D01*
X118037419Y-105816132D01*
X117976096Y-105849617D01*
X117906404Y-105844633D01*
X117850471Y-105802761D01*
X117839256Y-105784751D01*
X117827641Y-105761955D01*
X117827637Y-105761951D01*
X117827636Y-105761949D01*
X117738050Y-105672363D01*
X117738044Y-105672358D01*
X117728109Y-105667296D01*
X117715250Y-105660744D01*
X117664456Y-105612773D01*
X117647660Y-105544952D01*
X117670197Y-105478817D01*
X117683865Y-105462580D01*
X118225472Y-104920973D01*
X118152483Y-104869866D01*
X118152481Y-104869865D01*
X117946326Y-104773734D01*
X117946317Y-104773730D01*
X117726610Y-104714860D01*
X117726599Y-104714858D01*
X117500002Y-104695034D01*
X117499998Y-104695034D01*
X117273400Y-104714858D01*
X117273389Y-104714860D01*
X117053682Y-104773730D01*
X117053673Y-104773734D01*
X116847513Y-104869868D01*
X116774526Y-104920973D01*
X117316133Y-105462580D01*
X117349618Y-105523903D01*
X117344634Y-105593595D01*
X117302762Y-105649528D01*
X117284748Y-105660745D01*
X117261956Y-105672358D01*
X117261949Y-105672363D01*
X117172363Y-105761949D01*
X117172358Y-105761956D01*
X117160745Y-105784748D01*
X117112770Y-105835544D01*
X117044949Y-105852338D01*
X116978814Y-105829800D01*
X116962580Y-105816133D01*
X116420973Y-105274526D01*
X116369868Y-105347513D01*
X116273734Y-105553673D01*
X116273730Y-105553682D01*
X116214860Y-105773389D01*
X116214858Y-105773400D01*
X116195034Y-105999997D01*
X116195034Y-106000002D01*
X113805468Y-106000002D01*
X113805468Y-106000000D01*
X113805467Y-105999994D01*
X113790577Y-105829800D01*
X113785635Y-105773308D01*
X113726739Y-105553504D01*
X113630568Y-105347266D01*
X113500047Y-105160861D01*
X113500045Y-105160858D01*
X113339141Y-104999954D01*
X113152734Y-104869432D01*
X113152732Y-104869431D01*
X112946497Y-104773261D01*
X112946488Y-104773258D01*
X112726697Y-104714366D01*
X112726693Y-104714365D01*
X112726692Y-104714365D01*
X112726691Y-104714364D01*
X112726686Y-104714364D01*
X112500002Y-104694532D01*
X112499998Y-104694532D01*
X112273313Y-104714364D01*
X112273302Y-104714366D01*
X112053511Y-104773258D01*
X112053502Y-104773261D01*
X111847267Y-104869431D01*
X111847265Y-104869432D01*
X111660858Y-104999954D01*
X111499954Y-105160858D01*
X111369432Y-105347265D01*
X111369431Y-105347267D01*
X111273261Y-105553502D01*
X111273258Y-105553511D01*
X111214366Y-105773302D01*
X111214364Y-105773313D01*
X111194532Y-105999998D01*
X111194532Y-106000001D01*
X111214364Y-106226686D01*
X111214366Y-106226697D01*
X111273258Y-106446488D01*
X111273261Y-106446497D01*
X111369431Y-106652732D01*
X111369432Y-106652734D01*
X111477075Y-106806465D01*
X111499402Y-106872671D01*
X111499500Y-106877588D01*
X111499500Y-118973070D01*
X111499420Y-118976210D01*
X111495631Y-119050935D01*
X111495631Y-119050936D01*
X111498070Y-119066857D01*
X111499500Y-119085633D01*
X111499500Y-119521316D01*
X111479815Y-119588355D01*
X111463181Y-119608997D01*
X110593786Y-120478391D01*
X110532463Y-120511876D01*
X110462771Y-120506892D01*
X110406838Y-120465020D01*
X110392549Y-120440520D01*
X110323731Y-120283630D01*
X110223434Y-120130116D01*
X109608949Y-120744602D01*
X109547626Y-120778087D01*
X109477934Y-120773103D01*
X109422001Y-120731231D01*
X109416953Y-120723961D01*
X109381761Y-120669202D01*
X109350550Y-120642158D01*
X109273100Y-120575048D01*
X109273099Y-120575047D01*
X109266398Y-120569241D01*
X109268698Y-120566585D01*
X109233960Y-120526428D01*
X109224074Y-120457261D01*
X109253152Y-120393729D01*
X109259116Y-120387329D01*
X109870056Y-119776389D01*
X109823229Y-119739943D01*
X109604614Y-119621635D01*
X109604603Y-119621630D01*
X109369493Y-119540916D01*
X109124293Y-119500000D01*
X108875707Y-119500000D01*
X108630506Y-119540916D01*
X108395396Y-119621630D01*
X108395390Y-119621632D01*
X108176761Y-119739949D01*
X108129942Y-119776388D01*
X108129942Y-119776390D01*
X108740883Y-120387330D01*
X108774368Y-120448653D01*
X108769384Y-120518344D01*
X108732358Y-120567805D01*
X108733602Y-120569241D01*
X108618238Y-120669202D01*
X108583046Y-120723962D01*
X108530242Y-120769717D01*
X108461083Y-120779660D01*
X108397528Y-120750634D01*
X108391050Y-120744603D01*
X107776564Y-120130116D01*
X107676267Y-120283632D01*
X107576412Y-120511282D01*
X107515387Y-120752261D01*
X107515385Y-120752270D01*
X107510833Y-120807214D01*
X107485680Y-120872399D01*
X107429278Y-120913637D01*
X107359535Y-120917835D01*
X107299576Y-120884655D01*
X106716451Y-120301531D01*
X106655061Y-120236949D01*
X106655060Y-120236948D01*
X106655059Y-120236947D01*
X106627204Y-120217559D01*
X106604709Y-120201902D01*
X106600946Y-120199064D01*
X106553413Y-120160305D01*
X106553406Y-120160300D01*
X106522959Y-120144397D01*
X106516251Y-120140334D01*
X106488049Y-120120705D01*
X106488046Y-120120703D01*
X106488045Y-120120703D01*
X106488041Y-120120701D01*
X106431680Y-120096514D01*
X106427424Y-120094493D01*
X106373057Y-120066094D01*
X106373050Y-120066091D01*
X106373049Y-120066091D01*
X106367008Y-120064362D01*
X106340030Y-120056642D01*
X106332630Y-120054008D01*
X106301057Y-120040459D01*
X106301058Y-120040459D01*
X106240966Y-120028109D01*
X106236391Y-120026986D01*
X106177420Y-120010113D01*
X106177425Y-120010113D01*
X106143158Y-120007503D01*
X106135380Y-120006412D01*
X106101742Y-119999500D01*
X106101741Y-119999500D01*
X106040402Y-119999500D01*
X106035695Y-119999321D01*
X106030121Y-119998896D01*
X105974524Y-119994662D01*
X105954589Y-119997201D01*
X105940440Y-119999003D01*
X105932611Y-119999500D01*
X105616977Y-119999500D01*
X105549938Y-119979815D01*
X105504183Y-119927011D01*
X105496733Y-119899865D01*
X105495876Y-119900068D01*
X105494092Y-119892520D01*
X105443797Y-119757671D01*
X105443793Y-119757664D01*
X105357547Y-119642455D01*
X105357544Y-119642452D01*
X105242335Y-119556206D01*
X105242328Y-119556202D01*
X105107482Y-119505908D01*
X105107483Y-119505908D01*
X105047883Y-119499501D01*
X105047881Y-119499500D01*
X105047873Y-119499500D01*
X105047864Y-119499500D01*
X102952129Y-119499500D01*
X102952123Y-119499501D01*
X102892516Y-119505908D01*
X102757671Y-119556202D01*
X102757664Y-119556206D01*
X102642455Y-119642452D01*
X102642452Y-119642455D01*
X102556206Y-119757664D01*
X102556202Y-119757671D01*
X102505908Y-119892517D01*
X102502200Y-119927011D01*
X102499501Y-119952123D01*
X102499500Y-119952135D01*
X102499500Y-122047870D01*
X101162790Y-122047870D01*
X98550602Y-119435682D01*
X98517117Y-119374359D01*
X98514665Y-119338275D01*
X98517678Y-119300000D01*
X98498993Y-119062583D01*
X98443398Y-118831012D01*
X98352261Y-118610989D01*
X98352261Y-118610988D01*
X98227830Y-118407935D01*
X98227829Y-118407934D01*
X98227828Y-118407933D01*
X98227827Y-118407931D01*
X98073160Y-118226840D01*
X97892069Y-118072173D01*
X97892067Y-118072171D01*
X97892065Y-118072170D01*
X97892064Y-118072169D01*
X97689011Y-117947738D01*
X97468983Y-117856600D01*
X97237413Y-117801006D01*
X97237414Y-117801006D01*
X97022174Y-117784067D01*
X97000000Y-117782322D01*
X96999999Y-117782322D01*
X96762585Y-117801006D01*
X96531016Y-117856600D01*
X96310988Y-117947738D01*
X96107935Y-118072169D01*
X96107934Y-118072170D01*
X95926840Y-118226840D01*
X95772170Y-118407934D01*
X95772169Y-118407935D01*
X95647738Y-118610988D01*
X95556600Y-118831016D01*
X95501006Y-119062585D01*
X95482322Y-119300000D01*
X95501006Y-119537414D01*
X95556600Y-119768983D01*
X95647738Y-119989011D01*
X95772169Y-120192064D01*
X95772170Y-120192065D01*
X95772171Y-120192067D01*
X95772173Y-120192069D01*
X95926840Y-120373160D01*
X96107931Y-120527827D01*
X96107933Y-120527828D01*
X96107934Y-120527829D01*
X96107935Y-120527830D01*
X96310988Y-120652261D01*
X96396078Y-120687506D01*
X96531012Y-120743398D01*
X96762583Y-120798993D01*
X97000000Y-120817678D01*
X97038271Y-120814665D01*
X97106646Y-120829028D01*
X97135681Y-120850602D01*
X97269658Y-120984579D01*
X97303143Y-121045902D01*
X97298159Y-121115594D01*
X97256287Y-121171527D01*
X97190823Y-121195944D01*
X97172248Y-121195878D01*
X97000000Y-121182322D01*
X96762585Y-121201006D01*
X96531016Y-121256600D01*
X96310988Y-121347738D01*
X96107935Y-121472169D01*
X96107934Y-121472170D01*
X95926840Y-121626840D01*
X95772170Y-121807934D01*
X95772169Y-121807935D01*
X95647738Y-122010988D01*
X95556600Y-122231016D01*
X95501006Y-122462585D01*
X95482322Y-122700000D01*
X89000000Y-122700000D01*
X89000000Y-120999999D01*
X91482823Y-120999999D01*
X91501502Y-121237342D01*
X91557078Y-121468833D01*
X91557078Y-121468834D01*
X91648182Y-121688780D01*
X91648184Y-121688783D01*
X91765774Y-121880672D01*
X92262601Y-121383844D01*
X92323924Y-121350359D01*
X92393615Y-121355343D01*
X92443096Y-121389296D01*
X92517692Y-121473499D01*
X92549104Y-121508956D01*
X92601474Y-121545104D01*
X92645464Y-121599386D01*
X92653124Y-121668835D01*
X92622021Y-121731400D01*
X92618715Y-121734835D01*
X92119326Y-122234224D01*
X92311216Y-122351815D01*
X92311219Y-122351817D01*
X92531166Y-122442921D01*
X92762657Y-122498497D01*
X93000000Y-122517176D01*
X93237342Y-122498497D01*
X93468833Y-122442921D01*
X93468834Y-122442921D01*
X93688780Y-122351817D01*
X93688783Y-122351815D01*
X93880672Y-122234225D01*
X93880672Y-122234224D01*
X93381283Y-121734836D01*
X93347798Y-121673513D01*
X93352782Y-121603822D01*
X93394653Y-121547888D01*
X93398493Y-121545126D01*
X93450896Y-121508956D01*
X93556902Y-121389297D01*
X93616090Y-121352173D01*
X93685956Y-121352940D01*
X93737398Y-121383845D01*
X94234224Y-121880672D01*
X94234225Y-121880672D01*
X94351815Y-121688783D01*
X94351817Y-121688780D01*
X94442921Y-121468834D01*
X94442921Y-121468833D01*
X94498497Y-121237342D01*
X94517176Y-120999999D01*
X94498497Y-120762657D01*
X94442921Y-120531166D01*
X94442921Y-120531165D01*
X94351817Y-120311219D01*
X94351815Y-120311216D01*
X94234224Y-120119326D01*
X93737397Y-120616154D01*
X93676074Y-120649639D01*
X93606382Y-120644655D01*
X93556902Y-120610701D01*
X93450896Y-120491044D01*
X93398522Y-120454893D01*
X93354533Y-120400612D01*
X93346873Y-120331163D01*
X93377976Y-120268598D01*
X93381282Y-120265163D01*
X93880672Y-119765774D01*
X93688783Y-119648184D01*
X93688780Y-119648182D01*
X93468833Y-119557078D01*
X93237342Y-119501502D01*
X93000000Y-119482823D01*
X92762657Y-119501502D01*
X92531166Y-119557078D01*
X92531165Y-119557078D01*
X92311227Y-119648179D01*
X92311224Y-119648181D01*
X92119327Y-119765775D01*
X92618716Y-120265163D01*
X92652201Y-120326486D01*
X92647217Y-120396177D01*
X92605346Y-120452111D01*
X92601476Y-120454893D01*
X92549103Y-120491044D01*
X92443097Y-120610700D01*
X92383908Y-120647827D01*
X92314042Y-120647059D01*
X92262601Y-120616154D01*
X91765775Y-120119327D01*
X91648181Y-120311224D01*
X91648179Y-120311227D01*
X91557078Y-120531165D01*
X91557078Y-120531166D01*
X91501502Y-120762657D01*
X91482823Y-120999999D01*
X89000000Y-120999999D01*
X89000000Y-117600000D01*
X91482823Y-117600000D01*
X91501502Y-117837342D01*
X91557078Y-118068833D01*
X91557078Y-118068834D01*
X91648182Y-118288780D01*
X91648184Y-118288783D01*
X91765774Y-118480672D01*
X92262601Y-117983844D01*
X92323924Y-117950359D01*
X92393615Y-117955343D01*
X92443096Y-117989296D01*
X92549104Y-118108956D01*
X92579455Y-118129906D01*
X92601474Y-118145104D01*
X92645464Y-118199386D01*
X92653124Y-118268835D01*
X92622021Y-118331400D01*
X92618715Y-118334835D01*
X92119326Y-118834224D01*
X92311216Y-118951815D01*
X92311219Y-118951817D01*
X92531166Y-119042921D01*
X92762657Y-119098497D01*
X93000000Y-119117176D01*
X93237342Y-119098497D01*
X93468833Y-119042921D01*
X93468834Y-119042921D01*
X93688780Y-118951817D01*
X93688783Y-118951815D01*
X93880672Y-118834225D01*
X93880672Y-118834224D01*
X93381283Y-118334836D01*
X93347798Y-118273513D01*
X93352782Y-118203822D01*
X93394653Y-118147888D01*
X93398493Y-118145126D01*
X93450896Y-118108956D01*
X93556902Y-117989297D01*
X93616090Y-117952173D01*
X93685956Y-117952940D01*
X93737398Y-117983845D01*
X94234224Y-118480672D01*
X94234225Y-118480672D01*
X94351815Y-118288783D01*
X94351817Y-118288780D01*
X94442921Y-118068834D01*
X94442921Y-118068833D01*
X94498497Y-117837342D01*
X94517176Y-117600000D01*
X94498497Y-117362657D01*
X94442921Y-117131166D01*
X94442921Y-117131165D01*
X94351817Y-116911219D01*
X94351815Y-116911216D01*
X94234224Y-116719326D01*
X93737397Y-117216154D01*
X93676074Y-117249639D01*
X93606382Y-117244655D01*
X93556902Y-117210701D01*
X93450896Y-117091044D01*
X93398522Y-117054893D01*
X93354533Y-117000612D01*
X93346873Y-116931163D01*
X93377976Y-116868598D01*
X93381282Y-116865163D01*
X93880672Y-116365774D01*
X93688783Y-116248184D01*
X93688780Y-116248182D01*
X93468833Y-116157078D01*
X93237342Y-116101502D01*
X92999999Y-116082823D01*
X92762657Y-116101502D01*
X92531166Y-116157078D01*
X92531165Y-116157078D01*
X92311227Y-116248179D01*
X92311224Y-116248181D01*
X92119327Y-116365775D01*
X92618716Y-116865163D01*
X92652201Y-116926486D01*
X92647217Y-116996177D01*
X92605346Y-117052111D01*
X92601476Y-117054893D01*
X92549103Y-117091044D01*
X92443097Y-117210700D01*
X92383908Y-117247827D01*
X92314042Y-117247059D01*
X92262601Y-117216154D01*
X91765775Y-116719327D01*
X91648181Y-116911224D01*
X91648179Y-116911227D01*
X91557078Y-117131165D01*
X91557078Y-117131166D01*
X91501502Y-117362657D01*
X91482823Y-117600000D01*
X89000000Y-117600000D01*
X89000000Y-112000000D01*
X75000000Y-112000000D01*
X67000500Y-112000000D01*
X67000500Y-107017870D01*
X89814500Y-107017870D01*
X89814501Y-107017876D01*
X89820908Y-107077483D01*
X89871202Y-107212328D01*
X89871206Y-107212335D01*
X89957452Y-107327544D01*
X89957455Y-107327547D01*
X90072664Y-107413793D01*
X90072671Y-107413797D01*
X90207517Y-107464091D01*
X90207516Y-107464091D01*
X90214444Y-107464835D01*
X90267127Y-107470500D01*
X92302872Y-107470499D01*
X92362483Y-107464091D01*
X92497331Y-107413796D01*
X92612546Y-107327546D01*
X92698796Y-107212331D01*
X92749091Y-107077483D01*
X92755500Y-107017873D01*
X92755500Y-106000005D01*
X105239962Y-106000005D01*
X105260079Y-106242779D01*
X105319884Y-106478944D01*
X105417741Y-106702036D01*
X105513239Y-106848207D01*
X106000954Y-106360491D01*
X106062277Y-106327006D01*
X106131968Y-106331990D01*
X106187902Y-106373861D01*
X106193331Y-106381729D01*
X106214068Y-106414406D01*
X106332863Y-106525961D01*
X106336873Y-106528874D01*
X106379542Y-106584202D01*
X106385525Y-106653815D01*
X106352922Y-106715612D01*
X106351674Y-106716877D01*
X105866320Y-107202231D01*
X105908233Y-107234852D01*
X106122482Y-107350799D01*
X106122491Y-107350802D01*
X106352897Y-107429901D01*
X106593193Y-107470000D01*
X106836807Y-107470000D01*
X107077102Y-107429901D01*
X107307508Y-107350802D01*
X107307517Y-107350799D01*
X107521767Y-107234852D01*
X107563678Y-107202231D01*
X107074655Y-106713208D01*
X107041170Y-106651885D01*
X107046154Y-106582193D01*
X107088026Y-106526260D01*
X107089400Y-106525245D01*
X107160042Y-106473921D01*
X107246319Y-106369629D01*
X107304218Y-106330523D01*
X107374069Y-106328927D01*
X107429543Y-106360990D01*
X107916759Y-106848207D01*
X108012254Y-106702043D01*
X108012259Y-106702035D01*
X108110115Y-106478944D01*
X108169920Y-106242779D01*
X108190038Y-106000005D01*
X108190038Y-105999994D01*
X108169920Y-105757220D01*
X108110115Y-105521055D01*
X108012256Y-105297958D01*
X107916759Y-105151791D01*
X107429044Y-105639507D01*
X107367721Y-105672992D01*
X107298029Y-105668008D01*
X107242096Y-105626136D01*
X107236672Y-105618277D01*
X107215931Y-105585594D01*
X107181948Y-105553682D01*
X107097134Y-105474036D01*
X107093121Y-105471121D01*
X107050455Y-105415792D01*
X107044474Y-105346179D01*
X107077079Y-105284383D01*
X107078324Y-105283121D01*
X107563679Y-104797767D01*
X107521766Y-104765147D01*
X107307517Y-104649200D01*
X107307508Y-104649197D01*
X107077102Y-104570098D01*
X106836807Y-104530000D01*
X106593193Y-104530000D01*
X106352897Y-104570098D01*
X106122491Y-104649197D01*
X106122483Y-104649200D01*
X105908226Y-104765151D01*
X105866320Y-104797766D01*
X105866320Y-104797768D01*
X106355345Y-105286792D01*
X106388830Y-105348115D01*
X106383846Y-105417806D01*
X106341975Y-105473740D01*
X106340602Y-105474752D01*
X106286748Y-105513879D01*
X106269955Y-105526081D01*
X106269953Y-105526083D01*
X106183680Y-105630369D01*
X106125780Y-105669476D01*
X106055929Y-105671072D01*
X106000456Y-105639009D01*
X105513239Y-105151791D01*
X105417742Y-105297960D01*
X105319884Y-105521055D01*
X105260079Y-105757220D01*
X105239962Y-105999994D01*
X105239962Y-106000005D01*
X92755500Y-106000005D01*
X92755499Y-104982128D01*
X92749091Y-104922517D01*
X92730584Y-104872898D01*
X92698797Y-104787671D01*
X92698793Y-104787664D01*
X92612547Y-104672455D01*
X92612544Y-104672452D01*
X92497335Y-104586206D01*
X92497328Y-104586202D01*
X92405212Y-104551845D01*
X92349278Y-104509974D01*
X92324861Y-104444509D01*
X92339713Y-104376236D01*
X92352441Y-104357305D01*
X92359698Y-104348407D01*
X92375601Y-104317960D01*
X92379674Y-104311239D01*
X92384489Y-104304320D01*
X92399295Y-104283049D01*
X92423492Y-104226660D01*
X92425498Y-104222435D01*
X92453909Y-104168049D01*
X92463357Y-104135022D01*
X92465988Y-104127633D01*
X92479540Y-104096058D01*
X92491895Y-104035930D01*
X92492999Y-104031429D01*
X92509886Y-103972418D01*
X92512494Y-103938157D01*
X92513585Y-103930389D01*
X92520500Y-103896743D01*
X92520500Y-103835398D01*
X92520679Y-103830688D01*
X92525337Y-103769524D01*
X92525336Y-103769524D01*
X92520995Y-103735440D01*
X92520499Y-103727606D01*
X92520499Y-103339550D01*
X92520499Y-97441523D01*
X92540184Y-97374488D01*
X92574650Y-97339072D01*
X92583217Y-97333232D01*
X92583220Y-97333228D01*
X92583223Y-97333227D01*
X92770041Y-97159885D01*
X92770050Y-97159877D01*
X92928959Y-96960612D01*
X93056393Y-96739888D01*
X93149508Y-96502637D01*
X93206222Y-96254157D01*
X93218032Y-96096556D01*
X93225268Y-96000004D01*
X150774732Y-96000004D01*
X150793777Y-96254154D01*
X150850490Y-96502630D01*
X150850492Y-96502637D01*
X150943608Y-96739890D01*
X150970536Y-96786531D01*
X151071041Y-96960612D01*
X151229950Y-97159877D01*
X151416783Y-97333232D01*
X151627366Y-97476805D01*
X151627371Y-97476807D01*
X151627372Y-97476808D01*
X151627373Y-97476809D01*
X151749328Y-97535538D01*
X151856992Y-97587387D01*
X151856993Y-97587387D01*
X151856996Y-97587389D01*
X152100542Y-97662513D01*
X152352565Y-97700500D01*
X152607435Y-97700500D01*
X152859458Y-97662513D01*
X153103004Y-97587389D01*
X153284458Y-97500005D01*
X153332626Y-97476809D01*
X153332626Y-97476808D01*
X153332634Y-97476805D01*
X153543217Y-97333232D01*
X153730050Y-97159877D01*
X153819917Y-97047186D01*
X153877106Y-97007047D01*
X153916864Y-97000500D01*
X155334217Y-97000500D01*
X155401256Y-97020185D01*
X155421898Y-97036819D01*
X164297397Y-105912318D01*
X164330882Y-105973641D01*
X164325898Y-106043333D01*
X164297397Y-106087680D01*
X158188532Y-112196546D01*
X158123946Y-112257942D01*
X158088899Y-112308294D01*
X158086062Y-112312056D01*
X158047302Y-112359592D01*
X158047299Y-112359597D01*
X158031392Y-112390047D01*
X158027324Y-112396761D01*
X158007702Y-112424954D01*
X157983509Y-112481330D01*
X157981488Y-112485584D01*
X157953091Y-112539951D01*
X157953090Y-112539952D01*
X157943640Y-112572975D01*
X157941007Y-112580371D01*
X157927459Y-112611943D01*
X157915113Y-112672019D01*
X157913990Y-112676595D01*
X157897113Y-112735577D01*
X157897113Y-112735579D01*
X157894503Y-112769841D01*
X157893414Y-112777608D01*
X157887980Y-112804052D01*
X157886500Y-112811258D01*
X157886500Y-112872597D01*
X157886321Y-112877306D01*
X157881662Y-112938474D01*
X157883707Y-112954527D01*
X157886003Y-112972560D01*
X157886500Y-112980388D01*
X157886500Y-115876000D01*
X157866815Y-115943039D01*
X157814011Y-115988794D01*
X157762500Y-116000000D01*
X154000000Y-116000000D01*
X154000000Y-154000000D01*
X194000000Y-154000000D01*
X194000000Y-116000000D01*
X160011500Y-116000000D01*
X159944461Y-115980315D01*
X159898706Y-115927511D01*
X159887500Y-115876000D01*
X159887500Y-113378782D01*
X159907185Y-113311743D01*
X159923814Y-113291106D01*
X166087819Y-107127101D01*
X166149143Y-107093616D01*
X166218835Y-107098600D01*
X166274768Y-107140472D01*
X166299185Y-107205936D01*
X166299501Y-107214782D01*
X166299501Y-107247876D01*
X166305908Y-107307483D01*
X166356202Y-107442328D01*
X166356206Y-107442335D01*
X166442452Y-107557544D01*
X166442455Y-107557547D01*
X166557664Y-107643793D01*
X166557671Y-107643797D01*
X166692517Y-107694091D01*
X166692516Y-107694091D01*
X166699444Y-107694835D01*
X166752127Y-107700500D01*
X169247872Y-107700499D01*
X169307483Y-107694091D01*
X169442331Y-107643796D01*
X169557546Y-107557546D01*
X169643796Y-107442331D01*
X169694091Y-107307483D01*
X169700500Y-107247873D01*
X169700500Y-106688004D01*
X185068592Y-106688004D01*
X185088196Y-106949620D01*
X185088197Y-106949625D01*
X185146576Y-107205402D01*
X185146578Y-107205411D01*
X185146580Y-107205416D01*
X185242432Y-107449643D01*
X185373614Y-107676857D01*
X185407739Y-107719648D01*
X185537198Y-107881985D01*
X185711592Y-108043797D01*
X185729521Y-108060433D01*
X185946296Y-108208228D01*
X185946301Y-108208230D01*
X185946302Y-108208231D01*
X185946303Y-108208232D01*
X186071843Y-108268688D01*
X186182673Y-108322061D01*
X186182674Y-108322061D01*
X186182677Y-108322063D01*
X186433385Y-108399396D01*
X186692818Y-108438500D01*
X186955182Y-108438500D01*
X187214615Y-108399396D01*
X187465323Y-108322063D01*
X187701704Y-108208228D01*
X187918479Y-108060433D01*
X188110805Y-107881981D01*
X188274386Y-107676857D01*
X188405568Y-107449643D01*
X188501420Y-107205416D01*
X188559802Y-106949630D01*
X188559803Y-106949620D01*
X188579408Y-106688004D01*
X196244592Y-106688004D01*
X196264196Y-106949620D01*
X196264197Y-106949625D01*
X196322576Y-107205402D01*
X196322578Y-107205411D01*
X196322580Y-107205416D01*
X196418432Y-107449643D01*
X196549614Y-107676857D01*
X196583739Y-107719648D01*
X196713198Y-107881985D01*
X196887592Y-108043797D01*
X196905521Y-108060433D01*
X197122296Y-108208228D01*
X197122301Y-108208230D01*
X197122302Y-108208231D01*
X197122303Y-108208232D01*
X197247843Y-108268688D01*
X197358673Y-108322061D01*
X197358674Y-108322061D01*
X197358677Y-108322063D01*
X197609385Y-108399396D01*
X197868818Y-108438500D01*
X198131182Y-108438500D01*
X198390615Y-108399396D01*
X198641323Y-108322063D01*
X198877704Y-108208228D01*
X199094479Y-108060433D01*
X199286805Y-107881981D01*
X199450386Y-107676857D01*
X199581568Y-107449643D01*
X199677420Y-107205416D01*
X199735802Y-106949630D01*
X199735803Y-106949620D01*
X199755408Y-106688004D01*
X199755408Y-106687995D01*
X199735803Y-106426379D01*
X199735802Y-106426374D01*
X199735802Y-106426370D01*
X199677420Y-106170584D01*
X199581568Y-105926357D01*
X199450386Y-105699143D01*
X199286805Y-105494019D01*
X199286804Y-105494018D01*
X199286801Y-105494014D01*
X199094479Y-105315567D01*
X199052274Y-105286792D01*
X198877704Y-105167772D01*
X198877700Y-105167770D01*
X198877697Y-105167768D01*
X198877696Y-105167767D01*
X198641325Y-105053938D01*
X198641327Y-105053938D01*
X198390623Y-104976606D01*
X198390619Y-104976605D01*
X198390615Y-104976604D01*
X198265823Y-104957794D01*
X198131187Y-104937500D01*
X198131182Y-104937500D01*
X197868818Y-104937500D01*
X197868812Y-104937500D01*
X197707247Y-104961853D01*
X197609385Y-104976604D01*
X197609381Y-104976605D01*
X197609382Y-104976605D01*
X197609376Y-104976606D01*
X197358673Y-105053938D01*
X197122303Y-105167767D01*
X197122302Y-105167768D01*
X196905520Y-105315567D01*
X196713198Y-105494014D01*
X196549614Y-105699143D01*
X196418432Y-105926356D01*
X196322582Y-106170578D01*
X196322576Y-106170597D01*
X196264197Y-106426374D01*
X196264196Y-106426379D01*
X196244592Y-106687995D01*
X196244592Y-106688004D01*
X188579408Y-106688004D01*
X188579408Y-106687995D01*
X188559803Y-106426379D01*
X188559802Y-106426374D01*
X188559802Y-106426370D01*
X188501420Y-106170584D01*
X188405568Y-105926357D01*
X188274386Y-105699143D01*
X188110805Y-105494019D01*
X188110804Y-105494018D01*
X188110801Y-105494014D01*
X187918479Y-105315567D01*
X187876274Y-105286792D01*
X187701704Y-105167772D01*
X187701700Y-105167770D01*
X187701697Y-105167768D01*
X187701696Y-105167767D01*
X187465325Y-105053938D01*
X187465327Y-105053938D01*
X187214623Y-104976606D01*
X187214619Y-104976605D01*
X187214615Y-104976604D01*
X187089823Y-104957794D01*
X186955187Y-104937500D01*
X186955182Y-104937500D01*
X186692818Y-104937500D01*
X186692812Y-104937500D01*
X186531247Y-104961853D01*
X186433385Y-104976604D01*
X186433381Y-104976605D01*
X186433382Y-104976605D01*
X186433376Y-104976606D01*
X186182673Y-105053938D01*
X185946303Y-105167767D01*
X185946302Y-105167768D01*
X185729520Y-105315567D01*
X185537198Y-105494014D01*
X185373614Y-105699143D01*
X185242432Y-105926356D01*
X185146582Y-106170578D01*
X185146576Y-106170597D01*
X185088197Y-106426374D01*
X185088196Y-106426379D01*
X185068592Y-106687995D01*
X185068592Y-106688004D01*
X169700500Y-106688004D01*
X169700499Y-104752128D01*
X169694091Y-104692517D01*
X169686608Y-104672455D01*
X169643797Y-104557671D01*
X169643793Y-104557664D01*
X169557547Y-104442455D01*
X169557544Y-104442452D01*
X169442335Y-104356206D01*
X169442328Y-104356202D01*
X169307482Y-104305908D01*
X169307483Y-104305908D01*
X169247883Y-104299501D01*
X169247881Y-104299500D01*
X169247873Y-104299500D01*
X169247864Y-104299500D01*
X166752129Y-104299500D01*
X166752123Y-104299501D01*
X166692516Y-104305908D01*
X166557671Y-104356202D01*
X166557664Y-104356206D01*
X166442455Y-104442452D01*
X166442452Y-104442455D01*
X166356206Y-104557664D01*
X166356202Y-104557671D01*
X166305908Y-104692517D01*
X166299501Y-104752116D01*
X166299501Y-104752123D01*
X166299500Y-104752135D01*
X166299500Y-104785217D01*
X166279815Y-104852256D01*
X166227011Y-104898011D01*
X166157853Y-104907955D01*
X166094297Y-104878930D01*
X166087819Y-104872898D01*
X159714924Y-98500004D01*
X166295233Y-98500004D01*
X166314273Y-98754079D01*
X166370968Y-99002477D01*
X166370973Y-99002494D01*
X166464058Y-99239671D01*
X166464057Y-99239671D01*
X166591457Y-99460332D01*
X166633452Y-99512993D01*
X167318590Y-98827855D01*
X167379913Y-98794370D01*
X167449604Y-98799354D01*
X167504645Y-98840049D01*
X167572074Y-98927924D01*
X167572075Y-98927925D01*
X167659948Y-98995353D01*
X167701150Y-99051781D01*
X167705305Y-99121527D01*
X167672142Y-99181409D01*
X166986813Y-99866737D01*
X167147623Y-99976375D01*
X167147624Y-99976376D01*
X167377176Y-100086921D01*
X167377174Y-100086921D01*
X167620652Y-100162024D01*
X167620658Y-100162026D01*
X167872595Y-100199999D01*
X167872604Y-100200000D01*
X168127396Y-100200000D01*
X168127404Y-100199999D01*
X168379341Y-100162026D01*
X168379347Y-100162024D01*
X168622824Y-100086921D01*
X168852381Y-99976373D01*
X169013185Y-99866737D01*
X168327856Y-99181409D01*
X168294371Y-99120086D01*
X168299355Y-99050395D01*
X168340049Y-98995353D01*
X168427925Y-98927925D01*
X168495354Y-98840048D01*
X168551779Y-98798848D01*
X168621525Y-98794693D01*
X168681409Y-98827856D01*
X169366545Y-99512993D01*
X169408545Y-99460327D01*
X169535941Y-99239671D01*
X169629026Y-99002494D01*
X169629031Y-99002477D01*
X169685726Y-98754079D01*
X169704767Y-98500004D01*
X169704767Y-98499995D01*
X169685726Y-98245920D01*
X169629031Y-97997522D01*
X169629026Y-97997505D01*
X169535941Y-97760328D01*
X169535942Y-97760328D01*
X169408544Y-97539671D01*
X169366545Y-97487005D01*
X168681409Y-98172142D01*
X168620086Y-98205627D01*
X168550394Y-98200643D01*
X168495353Y-98159948D01*
X168427925Y-98072075D01*
X168427925Y-98072074D01*
X168340049Y-98004645D01*
X168298847Y-97948219D01*
X168294692Y-97878473D01*
X168327855Y-97818590D01*
X169013185Y-97133261D01*
X168852377Y-97023624D01*
X168852376Y-97023623D01*
X168622823Y-96913078D01*
X168622825Y-96913078D01*
X168379347Y-96837975D01*
X168379341Y-96837973D01*
X168127404Y-96800000D01*
X167872595Y-96800000D01*
X167620658Y-96837973D01*
X167620652Y-96837975D01*
X167377175Y-96913078D01*
X167147624Y-97023623D01*
X167147616Y-97023628D01*
X166986813Y-97133261D01*
X167672143Y-97818590D01*
X167705628Y-97879913D01*
X167700644Y-97949604D01*
X167659949Y-98004646D01*
X167572075Y-98072074D01*
X167572074Y-98072075D01*
X167504646Y-98159949D01*
X167448218Y-98201151D01*
X167378472Y-98205306D01*
X167318590Y-98172143D01*
X166633453Y-97487006D01*
X166591455Y-97539670D01*
X166464058Y-97760328D01*
X166370973Y-97997505D01*
X166370968Y-97997522D01*
X166314273Y-98245920D01*
X166295233Y-98499995D01*
X166295233Y-98500004D01*
X159714924Y-98500004D01*
X156726924Y-95512004D01*
X185069093Y-95512004D01*
X185088692Y-95773545D01*
X185088693Y-95773550D01*
X185147058Y-96029270D01*
X185242883Y-96273426D01*
X185242882Y-96273426D01*
X185374030Y-96500577D01*
X185421873Y-96560571D01*
X186142589Y-95839855D01*
X186203912Y-95806370D01*
X186273603Y-95811354D01*
X186328645Y-95852048D01*
X186396075Y-95939925D01*
X186396076Y-95939926D01*
X186483948Y-96007352D01*
X186525151Y-96063780D01*
X186529306Y-96133526D01*
X186496143Y-96193409D01*
X185774831Y-96914720D01*
X185946546Y-97031793D01*
X185946550Y-97031795D01*
X186182854Y-97145594D01*
X186182858Y-97145595D01*
X186433494Y-97222907D01*
X186433500Y-97222909D01*
X186692848Y-97261999D01*
X186692857Y-97262000D01*
X186955143Y-97262000D01*
X186955151Y-97261999D01*
X187214499Y-97222909D01*
X187214505Y-97222907D01*
X187465143Y-97145595D01*
X187701445Y-97031798D01*
X187701456Y-97031791D01*
X187873167Y-96914720D01*
X187151856Y-96193409D01*
X187118371Y-96132086D01*
X187123355Y-96062394D01*
X187164049Y-96007353D01*
X187251925Y-95939925D01*
X187319355Y-95852048D01*
X187375781Y-95810848D01*
X187445527Y-95806693D01*
X187505410Y-95839856D01*
X188226124Y-96560571D01*
X188273974Y-96500570D01*
X188405116Y-96273426D01*
X188500941Y-96029270D01*
X188559306Y-95773550D01*
X188559307Y-95773545D01*
X188578907Y-95512004D01*
X188578907Y-95511995D01*
X188569390Y-95385004D01*
X196244592Y-95385004D01*
X196264196Y-95646620D01*
X196264197Y-95646625D01*
X196322576Y-95902402D01*
X196322578Y-95902411D01*
X196322580Y-95902416D01*
X196418432Y-96146643D01*
X196549614Y-96373857D01*
X196650664Y-96500570D01*
X196713198Y-96578985D01*
X196886612Y-96739888D01*
X196905521Y-96757433D01*
X197122296Y-96905228D01*
X197122301Y-96905230D01*
X197122302Y-96905231D01*
X197122303Y-96905232D01*
X197237300Y-96960611D01*
X197358673Y-97019061D01*
X197358674Y-97019061D01*
X197358677Y-97019063D01*
X197609385Y-97096396D01*
X197868818Y-97135500D01*
X198131182Y-97135500D01*
X198390615Y-97096396D01*
X198641323Y-97019063D01*
X198877704Y-96905228D01*
X199094479Y-96757433D01*
X199286805Y-96578981D01*
X199450386Y-96373857D01*
X199581568Y-96146643D01*
X199677420Y-95902416D01*
X199735802Y-95646630D01*
X199745891Y-95512000D01*
X199755408Y-95385004D01*
X199755408Y-95384995D01*
X199735803Y-95123379D01*
X199735802Y-95123374D01*
X199735802Y-95123370D01*
X199677420Y-94867584D01*
X199581568Y-94623357D01*
X199450386Y-94396143D01*
X199286805Y-94191019D01*
X199286804Y-94191018D01*
X199286801Y-94191014D01*
X199094479Y-94012567D01*
X199064609Y-93992202D01*
X198877704Y-93864772D01*
X198877700Y-93864770D01*
X198877697Y-93864768D01*
X198877696Y-93864767D01*
X198641325Y-93750938D01*
X198641327Y-93750938D01*
X198390623Y-93673606D01*
X198390619Y-93673605D01*
X198390615Y-93673604D01*
X198265823Y-93654794D01*
X198131187Y-93634500D01*
X198131182Y-93634500D01*
X197868818Y-93634500D01*
X197868812Y-93634500D01*
X197707247Y-93658853D01*
X197609385Y-93673604D01*
X197609381Y-93673605D01*
X197609382Y-93673605D01*
X197609376Y-93673606D01*
X197358673Y-93750938D01*
X197122303Y-93864767D01*
X197122302Y-93864768D01*
X196905520Y-94012567D01*
X196713198Y-94191014D01*
X196549614Y-94396143D01*
X196418432Y-94623356D01*
X196322582Y-94867578D01*
X196322576Y-94867597D01*
X196264197Y-95123374D01*
X196264196Y-95123379D01*
X196244592Y-95384995D01*
X196244592Y-95385004D01*
X188569390Y-95385004D01*
X188559307Y-95250454D01*
X188559306Y-95250449D01*
X188500941Y-94994729D01*
X188405116Y-94750573D01*
X188405117Y-94750573D01*
X188273971Y-94523426D01*
X188226125Y-94463427D01*
X187505409Y-95184143D01*
X187444086Y-95217628D01*
X187374394Y-95212644D01*
X187319352Y-95171948D01*
X187251926Y-95084076D01*
X187251925Y-95084075D01*
X187164048Y-95016645D01*
X187122847Y-94960218D01*
X187118692Y-94890472D01*
X187151855Y-94830589D01*
X187873167Y-94109278D01*
X187701447Y-93992202D01*
X187701445Y-93992201D01*
X187465142Y-93878404D01*
X187465144Y-93878404D01*
X187214505Y-93801092D01*
X187214499Y-93801090D01*
X186955151Y-93762000D01*
X186692848Y-93762000D01*
X186433500Y-93801090D01*
X186433494Y-93801092D01*
X186182858Y-93878404D01*
X186182854Y-93878405D01*
X185946550Y-93992204D01*
X185946546Y-93992206D01*
X185774832Y-94109278D01*
X186496144Y-94830590D01*
X186529629Y-94891913D01*
X186524645Y-94961605D01*
X186483950Y-95016645D01*
X186396075Y-95084075D01*
X186396074Y-95084076D01*
X186328645Y-95171950D01*
X186272216Y-95213152D01*
X186202470Y-95217306D01*
X186142589Y-95184143D01*
X185421873Y-94463427D01*
X185374029Y-94523423D01*
X185242883Y-94750573D01*
X185147058Y-94994729D01*
X185088693Y-95250449D01*
X185088692Y-95250454D01*
X185069093Y-95511995D01*
X185069093Y-95512004D01*
X156726924Y-95512004D01*
X156516452Y-95301532D01*
X156455061Y-95236949D01*
X156455060Y-95236948D01*
X156455059Y-95236947D01*
X156420142Y-95212644D01*
X156404709Y-95201902D01*
X156400946Y-95199064D01*
X156353413Y-95160305D01*
X156353406Y-95160300D01*
X156322959Y-95144397D01*
X156316251Y-95140334D01*
X156288049Y-95120705D01*
X156288046Y-95120703D01*
X156288045Y-95120703D01*
X156288041Y-95120701D01*
X156231680Y-95096514D01*
X156227424Y-95094493D01*
X156173057Y-95066094D01*
X156173050Y-95066091D01*
X156173049Y-95066091D01*
X156167008Y-95064362D01*
X156140030Y-95056642D01*
X156132630Y-95054008D01*
X156101057Y-95040459D01*
X156101058Y-95040459D01*
X156040966Y-95028109D01*
X156036391Y-95026986D01*
X155977420Y-95010113D01*
X155977425Y-95010113D01*
X155943158Y-95007503D01*
X155935380Y-95006412D01*
X155901742Y-94999500D01*
X155901741Y-94999500D01*
X155840402Y-94999500D01*
X155835695Y-94999321D01*
X155830121Y-94998896D01*
X155774524Y-94994662D01*
X155754589Y-94997201D01*
X155740440Y-94999003D01*
X155732611Y-94999500D01*
X153916864Y-94999500D01*
X153849825Y-94979815D01*
X153819917Y-94952813D01*
X153799686Y-94927444D01*
X153730050Y-94840123D01*
X153543217Y-94666768D01*
X153332634Y-94523195D01*
X153332630Y-94523193D01*
X153332627Y-94523191D01*
X153332626Y-94523190D01*
X153103006Y-94412612D01*
X153103008Y-94412612D01*
X152859466Y-94337489D01*
X152859462Y-94337488D01*
X152859458Y-94337487D01*
X152738231Y-94319214D01*
X152607440Y-94299500D01*
X152607435Y-94299500D01*
X152352565Y-94299500D01*
X152352559Y-94299500D01*
X152195609Y-94323157D01*
X152100542Y-94337487D01*
X152100538Y-94337488D01*
X152100539Y-94337488D01*
X152100533Y-94337489D01*
X151856992Y-94412612D01*
X151627373Y-94523190D01*
X151627372Y-94523191D01*
X151416782Y-94666768D01*
X151229952Y-94840121D01*
X151229950Y-94840123D01*
X151071041Y-95039388D01*
X150943608Y-95260109D01*
X150850492Y-95497362D01*
X150850490Y-95497369D01*
X150793777Y-95745845D01*
X150774732Y-95999995D01*
X150774732Y-96000004D01*
X93225268Y-96000004D01*
X93225268Y-95999995D01*
X93206222Y-95745845D01*
X93188598Y-95668631D01*
X93149508Y-95497363D01*
X93056393Y-95260112D01*
X92928959Y-95039388D01*
X92770050Y-94840123D01*
X92583217Y-94666768D01*
X92372634Y-94523195D01*
X92372630Y-94523193D01*
X92372627Y-94523191D01*
X92372626Y-94523190D01*
X92143006Y-94412612D01*
X92143008Y-94412612D01*
X91899466Y-94337489D01*
X91899462Y-94337488D01*
X91899458Y-94337487D01*
X91778231Y-94319214D01*
X91647440Y-94299500D01*
X91647435Y-94299500D01*
X91392565Y-94299500D01*
X91392559Y-94299500D01*
X91235609Y-94323157D01*
X91140542Y-94337487D01*
X91140538Y-94337488D01*
X91140539Y-94337488D01*
X91140533Y-94337489D01*
X90896992Y-94412612D01*
X90667373Y-94523190D01*
X90667372Y-94523191D01*
X90456782Y-94666768D01*
X90269952Y-94840121D01*
X90269950Y-94840123D01*
X90111041Y-95039388D01*
X89983608Y-95260109D01*
X89890492Y-95497362D01*
X89890490Y-95497369D01*
X89833777Y-95745845D01*
X89814732Y-95999995D01*
X89814732Y-96000004D01*
X89833777Y-96254154D01*
X89890490Y-96502630D01*
X89890492Y-96502637D01*
X89983608Y-96739890D01*
X90010536Y-96786531D01*
X90111041Y-96960612D01*
X90269950Y-97159877D01*
X90269955Y-97159881D01*
X90269958Y-97159885D01*
X90456774Y-97333225D01*
X90456779Y-97333228D01*
X90456783Y-97333232D01*
X90465351Y-97339073D01*
X90509652Y-97393099D01*
X90519500Y-97441527D01*
X90519500Y-103339550D01*
X90499815Y-103406589D01*
X90497274Y-103410388D01*
X90486897Y-103425297D01*
X90484060Y-103429059D01*
X90445306Y-103476586D01*
X90445299Y-103476597D01*
X90429392Y-103507047D01*
X90425324Y-103513761D01*
X90405702Y-103541954D01*
X90381509Y-103598330D01*
X90379488Y-103602584D01*
X90351091Y-103656951D01*
X90351090Y-103656952D01*
X90341640Y-103689975D01*
X90339007Y-103697371D01*
X90325459Y-103728943D01*
X90313113Y-103789019D01*
X90311990Y-103793595D01*
X90295113Y-103852577D01*
X90295113Y-103852579D01*
X90292503Y-103886841D01*
X90291414Y-103894608D01*
X90289093Y-103905908D01*
X90284500Y-103928258D01*
X90284500Y-103989597D01*
X90284321Y-103994306D01*
X90279662Y-104055474D01*
X90281707Y-104071527D01*
X90284003Y-104089560D01*
X90284500Y-104097388D01*
X90284500Y-104421100D01*
X90264815Y-104488139D01*
X90212011Y-104533894D01*
X90203833Y-104537282D01*
X90072671Y-104586202D01*
X90072664Y-104586206D01*
X89957455Y-104672452D01*
X89957452Y-104672455D01*
X89871206Y-104787664D01*
X89871202Y-104787671D01*
X89820908Y-104922517D01*
X89814501Y-104982116D01*
X89814501Y-104982123D01*
X89814500Y-104982135D01*
X89814500Y-107017870D01*
X67000500Y-107017870D01*
X67000500Y-79669999D01*
X99680769Y-79669999D01*
X99699668Y-79946314D01*
X99699669Y-79946316D01*
X99756014Y-80217469D01*
X99756019Y-80217485D01*
X99848760Y-80478435D01*
X99848763Y-80478441D01*
X99848764Y-80478444D01*
X99848766Y-80478448D01*
X99976186Y-80724356D01*
X100135903Y-80950623D01*
X100324942Y-81153035D01*
X100539782Y-81327821D01*
X100539784Y-81327822D01*
X100539785Y-81327823D01*
X100776423Y-81471725D01*
X100949917Y-81547083D01*
X101030452Y-81582065D01*
X101297141Y-81656788D01*
X101538364Y-81689942D01*
X101571519Y-81694500D01*
X101571520Y-81694500D01*
X101848481Y-81694500D01*
X101878061Y-81690434D01*
X102122859Y-81656788D01*
X102389548Y-81582065D01*
X102643578Y-81471724D01*
X102880218Y-81327821D01*
X103095058Y-81153035D01*
X103284097Y-80950623D01*
X103443814Y-80724356D01*
X103571234Y-80478448D01*
X103663982Y-80217480D01*
X103663982Y-80217475D01*
X103663985Y-80217469D01*
X103694973Y-80068343D01*
X103720331Y-79946314D01*
X103739231Y-79670000D01*
X103739231Y-79669999D01*
X168260769Y-79669999D01*
X168279668Y-79946314D01*
X168279669Y-79946316D01*
X168336014Y-80217469D01*
X168336019Y-80217485D01*
X168428760Y-80478435D01*
X168428763Y-80478441D01*
X168428764Y-80478444D01*
X168428766Y-80478448D01*
X168556186Y-80724356D01*
X168715903Y-80950623D01*
X168904942Y-81153035D01*
X169119782Y-81327821D01*
X169119784Y-81327822D01*
X169119785Y-81327823D01*
X169356423Y-81471725D01*
X169529917Y-81547083D01*
X169610452Y-81582065D01*
X169877141Y-81656788D01*
X170118364Y-81689942D01*
X170151519Y-81694500D01*
X170151520Y-81694500D01*
X170428481Y-81694500D01*
X170458061Y-81690434D01*
X170702859Y-81656788D01*
X170969548Y-81582065D01*
X171223578Y-81471724D01*
X171460218Y-81327821D01*
X171675058Y-81153035D01*
X171864097Y-80950623D01*
X172023814Y-80724356D01*
X172151234Y-80478448D01*
X172243982Y-80217480D01*
X172243982Y-80217475D01*
X172243985Y-80217469D01*
X172274973Y-80068343D01*
X172300331Y-79946314D01*
X172319231Y-79670000D01*
X172300331Y-79393686D01*
X172283989Y-79315046D01*
X172243985Y-79122530D01*
X172243980Y-79122514D01*
X172151239Y-78861564D01*
X172151236Y-78861558D01*
X172151234Y-78861552D01*
X172023814Y-78615644D01*
X171864097Y-78389377D01*
X171675058Y-78186965D01*
X171460218Y-78012179D01*
X171460216Y-78012178D01*
X171460214Y-78012176D01*
X171223576Y-77868274D01*
X170969551Y-77757936D01*
X170969549Y-77757935D01*
X170969548Y-77757935D01*
X170893673Y-77736676D01*
X170702864Y-77683213D01*
X170702860Y-77683212D01*
X170702859Y-77683212D01*
X170565669Y-77664356D01*
X170428481Y-77645500D01*
X170428480Y-77645500D01*
X170151520Y-77645500D01*
X170151519Y-77645500D01*
X169877141Y-77683212D01*
X169877135Y-77683213D01*
X169610448Y-77757936D01*
X169356423Y-77868274D01*
X169119785Y-78012176D01*
X168904941Y-78186965D01*
X168715907Y-78389372D01*
X168556186Y-78615643D01*
X168428763Y-78861558D01*
X168428760Y-78861564D01*
X168336019Y-79122514D01*
X168336014Y-79122530D01*
X168279669Y-79393683D01*
X168279668Y-79393685D01*
X168260769Y-79669999D01*
X103739231Y-79669999D01*
X103720331Y-79393686D01*
X103703989Y-79315046D01*
X103663985Y-79122530D01*
X103663980Y-79122514D01*
X103571239Y-78861564D01*
X103571236Y-78861558D01*
X103571234Y-78861552D01*
X103443814Y-78615644D01*
X103284097Y-78389377D01*
X103095058Y-78186965D01*
X102880218Y-78012179D01*
X102880216Y-78012178D01*
X102880214Y-78012176D01*
X102643576Y-77868274D01*
X102389551Y-77757936D01*
X102389549Y-77757935D01*
X102389548Y-77757935D01*
X102313673Y-77736675D01*
X102122864Y-77683213D01*
X102122860Y-77683212D01*
X102122859Y-77683212D01*
X101985669Y-77664355D01*
X101848481Y-77645500D01*
X101848480Y-77645500D01*
X101571520Y-77645500D01*
X101571519Y-77645500D01*
X101297141Y-77683212D01*
X101297135Y-77683213D01*
X101030448Y-77757936D01*
X100776423Y-77868274D01*
X100539785Y-78012176D01*
X100324941Y-78186965D01*
X100135907Y-78389372D01*
X99976186Y-78615643D01*
X99848763Y-78861558D01*
X99848760Y-78861564D01*
X99756019Y-79122514D01*
X99756014Y-79122530D01*
X99699669Y-79393683D01*
X99699668Y-79393685D01*
X99680769Y-79669999D01*
X67000500Y-79669999D01*
X67000500Y-67000000D01*
X77000000Y-67000000D01*
X91876000Y-67000000D01*
X91943039Y-67019685D01*
X91988794Y-67072489D01*
X92000000Y-67124000D01*
X92000000Y-74000000D01*
X180000000Y-74000000D01*
X180000000Y-67124000D01*
X180019685Y-67056961D01*
X180072489Y-67011206D01*
X180124000Y-67000000D01*
X195000000Y-67000000D01*
X195000000Y-40000000D01*
X180124000Y-40000000D01*
X180056961Y-39980315D01*
X180011206Y-39927511D01*
X180000000Y-39876000D01*
X180000000Y-32000000D01*
X92000000Y-32000000D01*
X92000000Y-39876000D01*
X91980315Y-39943039D01*
X91927511Y-39988794D01*
X91876000Y-40000000D01*
X77000000Y-40000000D01*
X77000000Y-67000000D01*
X67000500Y-67000000D01*
X67000500Y-26838000D01*
X100442769Y-26838000D01*
X100461668Y-27114314D01*
X100461669Y-27114316D01*
X100518014Y-27385469D01*
X100518019Y-27385485D01*
X100610760Y-27646435D01*
X100610763Y-27646441D01*
X100610764Y-27646444D01*
X100610766Y-27646448D01*
X100738186Y-27892356D01*
X100897903Y-28118623D01*
X101086942Y-28321035D01*
X101301782Y-28495821D01*
X101301784Y-28495822D01*
X101301785Y-28495823D01*
X101538423Y-28639725D01*
X101711917Y-28715083D01*
X101792452Y-28750065D01*
X102059141Y-28824788D01*
X102300364Y-28857942D01*
X102333519Y-28862500D01*
X102333520Y-28862500D01*
X102610481Y-28862500D01*
X102640061Y-28858434D01*
X102884859Y-28824788D01*
X103151548Y-28750065D01*
X103405578Y-28639724D01*
X103642218Y-28495821D01*
X103857058Y-28321035D01*
X104046097Y-28118623D01*
X104205814Y-27892356D01*
X104333234Y-27646448D01*
X104425982Y-27385480D01*
X104425982Y-27385475D01*
X104425985Y-27385469D01*
X104456973Y-27236343D01*
X104482331Y-27114314D01*
X104501231Y-26838000D01*
X104482331Y-26561686D01*
X104465989Y-26483046D01*
X104434187Y-26330000D01*
X168260769Y-26330000D01*
X168279668Y-26606314D01*
X168279669Y-26606316D01*
X168336014Y-26877469D01*
X168336019Y-26877485D01*
X168428760Y-27138435D01*
X168428763Y-27138441D01*
X168428764Y-27138444D01*
X168428766Y-27138448D01*
X168556186Y-27384356D01*
X168715903Y-27610623D01*
X168904942Y-27813035D01*
X169119782Y-27987821D01*
X169119784Y-27987822D01*
X169119785Y-27987823D01*
X169356423Y-28131725D01*
X169529917Y-28207083D01*
X169610452Y-28242065D01*
X169877141Y-28316788D01*
X170118364Y-28349942D01*
X170151519Y-28354500D01*
X170151520Y-28354500D01*
X170428481Y-28354500D01*
X170458061Y-28350434D01*
X170702859Y-28316788D01*
X170969548Y-28242065D01*
X171223578Y-28131724D01*
X171460218Y-27987821D01*
X171675058Y-27813035D01*
X171864097Y-27610623D01*
X172023814Y-27384356D01*
X172151234Y-27138448D01*
X172159812Y-27114314D01*
X172243980Y-26877485D01*
X172243985Y-26877469D01*
X172274973Y-26728343D01*
X172300331Y-26606314D01*
X172319231Y-26330000D01*
X172300331Y-26053686D01*
X172244216Y-25783644D01*
X172243985Y-25782530D01*
X172243980Y-25782514D01*
X172151239Y-25521564D01*
X172151236Y-25521558D01*
X172151234Y-25521552D01*
X172023814Y-25275644D01*
X171864097Y-25049377D01*
X171675058Y-24846965D01*
X171460218Y-24672179D01*
X171460216Y-24672178D01*
X171460214Y-24672176D01*
X171223576Y-24528274D01*
X170969551Y-24417936D01*
X170969549Y-24417935D01*
X170969548Y-24417935D01*
X170893673Y-24396676D01*
X170702864Y-24343213D01*
X170702860Y-24343212D01*
X170702859Y-24343212D01*
X170565669Y-24324356D01*
X170428481Y-24305500D01*
X170428480Y-24305500D01*
X170151520Y-24305500D01*
X170151519Y-24305500D01*
X169877141Y-24343212D01*
X169877135Y-24343213D01*
X169610448Y-24417936D01*
X169356423Y-24528274D01*
X169119785Y-24672176D01*
X168904941Y-24846965D01*
X168715907Y-25049372D01*
X168556186Y-25275643D01*
X168428763Y-25521558D01*
X168428760Y-25521564D01*
X168336019Y-25782514D01*
X168336014Y-25782530D01*
X168279669Y-26053683D01*
X168279668Y-26053685D01*
X168260769Y-26330000D01*
X104434187Y-26330000D01*
X104425985Y-26290530D01*
X104425980Y-26290514D01*
X104333239Y-26029564D01*
X104333236Y-26029558D01*
X104333234Y-26029552D01*
X104205814Y-25783644D01*
X104046097Y-25557377D01*
X103857058Y-25354965D01*
X103642218Y-25180179D01*
X103642216Y-25180178D01*
X103642214Y-25180176D01*
X103405576Y-25036274D01*
X103151551Y-24925936D01*
X103151549Y-24925935D01*
X103151548Y-24925935D01*
X103075673Y-24904675D01*
X102884864Y-24851213D01*
X102884860Y-24851212D01*
X102884859Y-24851212D01*
X102747669Y-24832356D01*
X102610481Y-24813500D01*
X102610480Y-24813500D01*
X102333520Y-24813500D01*
X102333519Y-24813500D01*
X102059141Y-24851212D01*
X102059135Y-24851213D01*
X101792448Y-24925936D01*
X101538423Y-25036274D01*
X101301785Y-25180176D01*
X101086941Y-25354965D01*
X100897907Y-25557372D01*
X100738186Y-25783643D01*
X100610763Y-26029558D01*
X100610760Y-26029564D01*
X100518019Y-26290514D01*
X100518014Y-26290530D01*
X100461669Y-26561683D01*
X100461668Y-26561685D01*
X100442769Y-26838000D01*
X67000500Y-26838000D01*
X67000500Y-21000000D01*
X67009493Y-20782569D01*
X67018160Y-20584061D01*
X67018574Y-20579138D01*
X67045487Y-20363223D01*
X67071884Y-20162726D01*
X67072669Y-20158114D01*
X67117191Y-19945778D01*
X67161160Y-19747451D01*
X67162253Y-19743235D01*
X67224112Y-19535457D01*
X67285324Y-19341320D01*
X67286673Y-19337488D01*
X67365469Y-19135551D01*
X67443499Y-18947170D01*
X67445033Y-18943771D01*
X67514381Y-18801920D01*
X67540249Y-18749007D01*
X67573419Y-18685284D01*
X67634494Y-18567960D01*
X67636207Y-18564891D01*
X67747211Y-18378601D01*
X67856972Y-18206313D01*
X67858765Y-18203656D01*
X67984856Y-18027054D01*
X68109313Y-17864861D01*
X68111135Y-17862601D01*
X68251448Y-17696933D01*
X68390563Y-17545115D01*
X68545115Y-17390563D01*
X68696933Y-17251448D01*
X68862601Y-17111135D01*
X68864861Y-17109313D01*
X69027054Y-16984856D01*
X69203656Y-16858765D01*
X69206313Y-16856972D01*
X69378601Y-16747211D01*
X69564900Y-16636201D01*
X69567960Y-16634494D01*
X69685284Y-16573419D01*
X69749007Y-16540249D01*
X69823655Y-16503755D01*
X69943771Y-16445033D01*
X69947170Y-16443499D01*
X70135551Y-16365469D01*
X70337488Y-16286673D01*
X70341320Y-16285324D01*
X70535457Y-16224112D01*
X70743235Y-16162253D01*
X70747451Y-16161160D01*
X70945778Y-16117191D01*
X71158114Y-16072669D01*
X71162726Y-16071884D01*
X71363223Y-16045487D01*
X71579138Y-16018574D01*
X71584061Y-16018160D01*
X71782569Y-16009493D01*
X72000000Y-16000500D01*
X72000500Y-16000500D01*
X204999500Y-16000500D01*
X205000000Y-16000500D01*
X205217318Y-16009488D01*
G37*
%TD.AperFunction*%
%TD*%
M02*
