%TF.GenerationSoftware,KiCad,Pcbnew,7.0.7*%
%TF.CreationDate,2023-12-20T01:36:47+05:30*%
%TF.ProjectId,Power Supply,506f7765-7220-4537-9570-706c792e6b69,rev?*%
%TF.SameCoordinates,Original*%
%TF.FileFunction,Copper,L2,Bot*%
%TF.FilePolarity,Positive*%
%FSLAX46Y46*%
G04 Gerber Fmt 4.6, Leading zero omitted, Abs format (unit mm)*
G04 Created by KiCad (PCBNEW 7.0.7) date 2023-12-20 01:36:47*
%MOMM*%
%LPD*%
G01*
G04 APERTURE LIST*
%TA.AperFunction,ComponentPad*%
%ADD10R,2.025000X2.025000*%
%TD*%
%TA.AperFunction,ComponentPad*%
%ADD11C,2.025000*%
%TD*%
%TA.AperFunction,ComponentPad*%
%ADD12C,1.600000*%
%TD*%
%TA.AperFunction,ComponentPad*%
%ADD13R,2.000000X2.000000*%
%TD*%
%TA.AperFunction,ComponentPad*%
%ADD14C,2.000000*%
%TD*%
%TA.AperFunction,ComponentPad*%
%ADD15R,3.200000X3.200000*%
%TD*%
%TA.AperFunction,ComponentPad*%
%ADD16O,3.200000X3.200000*%
%TD*%
%TA.AperFunction,ComponentPad*%
%ADD17C,12.000000*%
%TD*%
%TA.AperFunction,ComponentPad*%
%ADD18C,3.000000*%
%TD*%
%TA.AperFunction,ComponentPad*%
%ADD19C,2.400000*%
%TD*%
%TA.AperFunction,ComponentPad*%
%ADD20O,2.400000X2.400000*%
%TD*%
%TA.AperFunction,ComponentPad*%
%ADD21R,1.560000X1.560000*%
%TD*%
%TA.AperFunction,ComponentPad*%
%ADD22C,1.560000*%
%TD*%
%TA.AperFunction,ComponentPad*%
%ADD23C,3.048000*%
%TD*%
%TA.AperFunction,ComponentPad*%
%ADD24R,1.940000X1.940000*%
%TD*%
%TA.AperFunction,ComponentPad*%
%ADD25C,1.940000*%
%TD*%
%TA.AperFunction,ComponentPad*%
%ADD26O,6.299200X3.149600*%
%TD*%
%TA.AperFunction,ComponentPad*%
%ADD27C,6.477000*%
%TD*%
%TA.AperFunction,ComponentPad*%
%ADD28O,1.600000X1.600000*%
%TD*%
%TA.AperFunction,ComponentPad*%
%ADD29R,2.400000X2.400000*%
%TD*%
%TA.AperFunction,ComponentPad*%
%ADD30C,2.500000*%
%TD*%
%TA.AperFunction,Conductor*%
%ADD31C,1.000000*%
%TD*%
G04 APERTURE END LIST*
D10*
%TO.P,U2,1,VIN*%
%TO.N,~12V 3A DC*%
X93000000Y-141400000D03*
D11*
%TO.P,U2,2,OUTPUT*%
%TO.N,Net-(D4-K)*%
X97000000Y-139700000D03*
%TO.P,U2,3,GND*%
%TO.N,GND*%
X93000000Y-138000000D03*
%TO.P,U2,4,FEEDBACK*%
%TO.N,Net-(U2-FEEDBACK)*%
X97000000Y-136300000D03*
%TO.P,U2,5,~{ON}-OFF*%
%TO.N,GND*%
X93000000Y-134600000D03*
%TD*%
D10*
%TO.P,U1,1,VIN*%
%TO.N,~12V 3A DC*%
X93000000Y-124400000D03*
D11*
%TO.P,U1,2,OUTPUT*%
%TO.N,Net-(D3-K)*%
X97000000Y-122700000D03*
%TO.P,U1,3,GND*%
%TO.N,GND*%
X93000000Y-121000000D03*
%TO.P,U1,4,FEEDBACK*%
%TO.N,Net-(U1-FEEDBACK)*%
X97000000Y-119300000D03*
%TO.P,U1,5,~{ON}-OFF*%
%TO.N,GND*%
X93000000Y-117600000D03*
%TD*%
D12*
%TO.P,C2,1*%
%TO.N,~12V 3A DC*%
X112500000Y-106000000D03*
%TO.P,C2,2*%
%TO.N,GND*%
X117500000Y-106000000D03*
%TD*%
D13*
%TO.P,C6,1*%
%TO.N,~3.3V 1.87A DC*%
X119000000Y-138000000D03*
D14*
%TO.P,C6,2*%
%TO.N,GND*%
X124000000Y-138000000D03*
%TD*%
D15*
%TO.P,D3,1,K*%
%TO.N,Net-(D3-K)*%
X131380000Y-106000000D03*
D16*
%TO.P,D3,2,A*%
%TO.N,GND*%
X146620000Y-106000000D03*
%TD*%
D17*
%TO.P,J2,1,Pin_1*%
%TO.N,~5V 1.18A DC*%
X109000000Y-175000000D03*
%TD*%
D18*
%TO.P,L1,1,1*%
%TO.N,~5V 1.18A DC*%
X140000000Y-117000000D03*
%TO.P,L1,2,2*%
%TO.N,Net-(D3-K)*%
X140000000Y-124110000D03*
%TD*%
D15*
%TO.P,D4,1,K*%
%TO.N,Net-(D4-K)*%
X102380000Y-160000000D03*
D16*
%TO.P,D4,2,A*%
%TO.N,GND*%
X117620000Y-160000000D03*
%TD*%
D19*
%TO.P,R1,1*%
%TO.N,Net-(D2-K)*%
X91520000Y-96000000D03*
D20*
%TO.P,R1,2*%
%TO.N,Net-(D1-+)*%
X152480000Y-96000000D03*
%TD*%
D18*
%TO.P,L2,1,1*%
%TO.N,~3.3V 1.87A DC*%
X140000000Y-134445000D03*
%TO.P,L2,2,2*%
%TO.N,Net-(D4-K)*%
X140000000Y-141555000D03*
%TD*%
D21*
%TO.P,RV2,1,1*%
%TO.N,~3.3V 1.87A DC*%
X130500000Y-150760000D03*
D22*
%TO.P,RV2,2,2*%
%TO.N,Net-(U2-FEEDBACK)*%
X133000000Y-155760000D03*
%TO.P,RV2,3,3*%
%TO.N,unconnected-(RV2-Pad3)*%
X135500000Y-150760000D03*
%TD*%
D17*
%TO.P,J1,1,Pin_1*%
%TO.N,~12V 3A DC*%
X93000000Y-175000000D03*
%TD*%
D21*
%TO.P,RV1,1,1*%
%TO.N,~5V 1.18A DC*%
X143000000Y-150760000D03*
D22*
%TO.P,RV1,2,2*%
%TO.N,Net-(U1-FEEDBACK)*%
X145500000Y-155760000D03*
%TO.P,RV1,3,3*%
%TO.N,unconnected-(RV1-Pad3)*%
X148000000Y-150760000D03*
%TD*%
D23*
%TO.P,TR1,4,SB*%
%TO.N,Net-(TR1-SB)*%
X170290000Y-79670000D03*
%TO.P,TR1,3,SA*%
%TO.N,Net-(TR1-SA)*%
X101710000Y-79670000D03*
%TO.P,TR1,2,AB*%
%TO.N,unconnected-(TR1-AB-Pad2)*%
X170290000Y-26330000D03*
%TO.P,TR1,1,AA*%
%TO.N,unconnected-(TR1-AA-Pad1)*%
X102472000Y-26838000D03*
%TD*%
D24*
%TO.P,D2,1,K*%
%TO.N,Net-(D2-K)*%
X91285000Y-106000000D03*
D25*
%TO.P,D2,2,A*%
%TO.N,GND*%
X106715000Y-106000000D03*
%TD*%
D17*
%TO.P,J3,1,Pin_1*%
%TO.N,~3.3V 1.87A DC*%
X125000000Y-175000000D03*
%TD*%
D13*
%TO.P,C5,1*%
%TO.N,~12V 3A DC*%
X119000000Y-121000000D03*
D14*
%TO.P,C5,2*%
%TO.N,GND*%
X124000000Y-121000000D03*
%TD*%
D13*
%TO.P,C4,1*%
%TO.N,~5V 1.18A DC*%
X104000000Y-138000000D03*
D14*
%TO.P,C4,2*%
%TO.N,GND*%
X109000000Y-138000000D03*
%TD*%
D13*
%TO.P,C3,1*%
%TO.N,~12V 3A DC*%
X104000000Y-121000000D03*
D14*
%TO.P,C3,2*%
%TO.N,GND*%
X109000000Y-121000000D03*
%TD*%
D26*
%TO.P,T2,B*%
%TO.N,Net-(D2-K)*%
X172222000Y-130000000D03*
D27*
%TO.P,T2,C*%
%TO.N,Net-(D1-+)*%
X189113000Y-135461000D03*
%TO.P,T2,C/*%
X158887000Y-135461000D03*
D26*
%TO.P,T2,E*%
%TO.N,~12V 3A DC*%
X172222000Y-140922000D03*
%TD*%
D17*
%TO.P,J4,1,Pin_1*%
%TO.N,GND*%
X141000000Y-175000000D03*
%TD*%
D12*
%TO.P,R2,1*%
%TO.N,Net-(U2-FEEDBACK)*%
X91300000Y-151000000D03*
D28*
%TO.P,R2,2*%
%TO.N,GND*%
X104000000Y-151000000D03*
%TD*%
D29*
%TO.P,C1,1*%
%TO.N,Net-(D1-+)*%
X168000000Y-106000000D03*
D19*
%TO.P,C1,2*%
%TO.N,GND*%
X168000000Y-98500000D03*
%TD*%
D30*
%TO.P,D1,1,+*%
%TO.N,Net-(D1-+)*%
X198000000Y-106688000D03*
%TO.P,D1,2,-*%
%TO.N,GND*%
X186824000Y-95512000D03*
%TO.P,D1,3*%
%TO.N,Net-(TR1-SB)*%
X198000000Y-95385000D03*
%TO.P,D1,4*%
%TO.N,Net-(TR1-SA)*%
X186824000Y-106688000D03*
%TD*%
D12*
%TO.P,R3,1*%
%TO.N,Net-(U1-FEEDBACK)*%
X111650000Y-151000000D03*
D28*
%TO.P,R3,2*%
%TO.N,GND*%
X124350000Y-151000000D03*
%TD*%
D31*
%TO.N,Net-(U1-FEEDBACK)*%
X143112500Y-153372500D02*
X145500000Y-155760000D01*
X114022500Y-153372500D02*
X143112500Y-153372500D01*
X111650000Y-151000000D02*
X114022500Y-153372500D01*
%TO.N,Net-(U2-FEEDBACK)*%
X103056000Y-155760000D02*
X94798000Y-147502000D01*
X133000000Y-155760000D02*
X103056000Y-155760000D01*
X91300000Y-151000000D02*
X94798000Y-147502000D01*
X94798000Y-138502000D02*
X97000000Y-136300000D01*
X94798000Y-147502000D02*
X94798000Y-138502000D01*
%TO.N,Net-(D4-K)*%
X98855000Y-141555000D02*
X97000000Y-139700000D01*
X140000000Y-141555000D02*
X98855000Y-141555000D01*
%TO.N,Net-(D3-K)*%
X97092100Y-122792100D02*
X97000000Y-122700000D01*
X113628800Y-122792100D02*
X97092100Y-122792100D01*
X117180500Y-119240400D02*
X113628800Y-122792100D01*
X135130400Y-119240400D02*
X117180500Y-119240400D01*
X140000000Y-124110000D02*
X135130400Y-119240400D01*
%TO.N,Net-(D2-K)*%
X101796100Y-114541100D02*
X93255000Y-106000000D01*
X152613500Y-114541100D02*
X101796100Y-114541100D01*
X168072400Y-130000000D02*
X152613500Y-114541100D01*
X172222000Y-130000000D02*
X168072400Y-130000000D01*
X91285000Y-106000000D02*
X93255000Y-106000000D01*
%TO.N,Net-(TR1-SA)*%
X159806000Y-79670000D02*
X101710000Y-79670000D01*
X186824000Y-106688000D02*
X159806000Y-79670000D01*
%TO.N,Net-(TR1-SB)*%
X182285000Y-79670000D02*
X170290000Y-79670000D01*
X198000000Y-95385000D02*
X182285000Y-79670000D01*
%TO.N,~5V 1.18A DC*%
X116973500Y-167026500D02*
X109000000Y-175000000D01*
X136462800Y-167026500D02*
X116973500Y-167026500D01*
X147036700Y-156452600D02*
X136462800Y-167026500D01*
X147036700Y-154796700D02*
X147036700Y-156452600D01*
X143000000Y-150760000D02*
X147036700Y-154796700D01*
%TO.N,~12V 3A DC*%
X126612900Y-126612900D02*
X121000000Y-121000000D01*
X155804800Y-126612900D02*
X126612900Y-126612900D01*
X168072400Y-138880500D02*
X155804800Y-126612900D01*
X168072400Y-140922000D02*
X168072400Y-138880500D01*
X172222000Y-140922000D02*
X168072400Y-140922000D01*
X119000000Y-121000000D02*
X121000000Y-121000000D01*
X95190600Y-122209400D02*
X93000000Y-124400000D01*
X95190600Y-118590500D02*
X95190600Y-122209400D01*
X96250800Y-117530300D02*
X95190600Y-118590500D01*
X98530300Y-117530300D02*
X96250800Y-117530300D01*
X102000000Y-121000000D02*
X98530300Y-117530300D01*
X104000000Y-121000000D02*
X102000000Y-121000000D01*
%TO.N,GND*%
X156720000Y-98500000D02*
X149220000Y-106000000D01*
X168000000Y-98500000D02*
X156720000Y-98500000D01*
X146620000Y-106000000D02*
X149220000Y-106000000D01*
X115931200Y-107568800D02*
X117500000Y-106000000D01*
X108283800Y-107568800D02*
X115931200Y-107568800D01*
X106715000Y-106000000D02*
X108283800Y-107568800D01*
X122248100Y-139751900D02*
X124000000Y-138000000D01*
X110751900Y-139751900D02*
X122248100Y-139751900D01*
X109000000Y-138000000D02*
X110751900Y-139751900D01*
%TO.N,Net-(D1-+)*%
X168000000Y-106000000D02*
X170200000Y-106000000D01*
X189113000Y-108701700D02*
X189113000Y-135461000D01*
X195986300Y-108701700D02*
X189113000Y-108701700D01*
X198000000Y-106688000D02*
X195986300Y-108701700D01*
X172901700Y-108701700D02*
X170200000Y-106000000D01*
X189113000Y-108701700D02*
X172901700Y-108701700D01*
%TD*%
%TA.AperFunction,Conductor*%
%TO.N,GND*%
G36*
X134731656Y-120260585D02*
G01*
X134752298Y-120277219D01*
X138017819Y-123542740D01*
X138051304Y-123604063D01*
X138051304Y-123656779D01*
X138014805Y-123824564D01*
X138014804Y-123824571D01*
X137994390Y-124109998D01*
X137994390Y-124110001D01*
X138014804Y-124395433D01*
X138075628Y-124675037D01*
X138175635Y-124943166D01*
X138312770Y-125194309D01*
X138312775Y-125194317D01*
X138477295Y-125414090D01*
X138501712Y-125479554D01*
X138486860Y-125547827D01*
X138437455Y-125597232D01*
X138378028Y-125612400D01*
X127078683Y-125612400D01*
X127011644Y-125592715D01*
X126991002Y-125576081D01*
X125558319Y-124143398D01*
X124115200Y-122700280D01*
X124081716Y-122638958D01*
X124086700Y-122569266D01*
X124128572Y-122513333D01*
X124182473Y-122490291D01*
X124369492Y-122459083D01*
X124604603Y-122378369D01*
X124604614Y-122378364D01*
X124823228Y-122260057D01*
X124823231Y-122260055D01*
X124870056Y-122223609D01*
X124259116Y-121612669D01*
X124225631Y-121551346D01*
X124230615Y-121481654D01*
X124267641Y-121432193D01*
X124266398Y-121430759D01*
X124314247Y-121389298D01*
X124381761Y-121330798D01*
X124416952Y-121276038D01*
X124469755Y-121230283D01*
X124538914Y-121220339D01*
X124602470Y-121249363D01*
X124608949Y-121255396D01*
X125223434Y-121869882D01*
X125323731Y-121716369D01*
X125423587Y-121488717D01*
X125484612Y-121247738D01*
X125484614Y-121247729D01*
X125505141Y-121000005D01*
X125505141Y-120999994D01*
X125484614Y-120752270D01*
X125484612Y-120752261D01*
X125423587Y-120511282D01*
X125381228Y-120414710D01*
X125372325Y-120345409D01*
X125402303Y-120282297D01*
X125461642Y-120245411D01*
X125494784Y-120240900D01*
X134664617Y-120240900D01*
X134731656Y-120260585D01*
G37*
%TD.AperFunction*%
%TA.AperFunction,Conductor*%
G36*
X205217318Y-16009488D02*
G01*
X205415934Y-16018160D01*
X205420865Y-16018574D01*
X205636792Y-16045489D01*
X205832940Y-16071313D01*
X205837265Y-16071883D01*
X205841894Y-16072671D01*
X206054183Y-16117183D01*
X206252534Y-16161157D01*
X206256778Y-16162257D01*
X206464544Y-16224112D01*
X206658658Y-16285317D01*
X206662530Y-16286680D01*
X206864457Y-16365472D01*
X207052817Y-16443494D01*
X207056252Y-16445045D01*
X207131343Y-16481755D01*
X207250992Y-16540249D01*
X207388629Y-16611897D01*
X207432009Y-16634479D01*
X207435107Y-16636207D01*
X207621382Y-16747202D01*
X207793662Y-16856957D01*
X207796377Y-16858789D01*
X207972918Y-16984837D01*
X208135098Y-17109282D01*
X208137426Y-17111159D01*
X208303055Y-17251439D01*
X208454895Y-17390574D01*
X208609424Y-17545103D01*
X208748555Y-17696938D01*
X208763008Y-17714003D01*
X208888839Y-17862572D01*
X208890716Y-17864900D01*
X209015162Y-18027081D01*
X209141209Y-18203621D01*
X209143040Y-18206335D01*
X209252797Y-18378617D01*
X209363791Y-18564891D01*
X209365525Y-18568000D01*
X209459750Y-18749007D01*
X209525992Y-18884503D01*
X209554953Y-18943744D01*
X209556524Y-18947229D01*
X209634536Y-19135566D01*
X209713309Y-19337445D01*
X209714681Y-19341340D01*
X209775899Y-19535496D01*
X209837735Y-19743200D01*
X209838843Y-19747472D01*
X209882818Y-19945826D01*
X209927326Y-20158101D01*
X209928115Y-20162733D01*
X209954524Y-20363319D01*
X209981422Y-20579114D01*
X209981839Y-20584080D01*
X209990513Y-20782728D01*
X209999500Y-21000000D01*
X209999500Y-158000000D01*
X209990513Y-158217271D01*
X209981839Y-158415918D01*
X209981422Y-158420884D01*
X209954524Y-158636680D01*
X209928115Y-158837265D01*
X209927326Y-158841897D01*
X209882818Y-159054173D01*
X209838843Y-159252526D01*
X209837735Y-159256798D01*
X209775899Y-159464503D01*
X209714681Y-159658658D01*
X209713309Y-159662552D01*
X209634536Y-159864433D01*
X209556524Y-160052769D01*
X209554944Y-160056274D01*
X209459750Y-160250992D01*
X209365525Y-160431998D01*
X209363791Y-160435107D01*
X209252797Y-160621382D01*
X209143040Y-160793663D01*
X209141209Y-160796377D01*
X209015162Y-160972918D01*
X208890716Y-161135099D01*
X208888839Y-161137426D01*
X208748557Y-161303059D01*
X208609426Y-161454895D01*
X208454895Y-161609426D01*
X208303059Y-161748557D01*
X208137426Y-161888839D01*
X208135099Y-161890716D01*
X207972918Y-162015162D01*
X207796377Y-162141209D01*
X207793663Y-162143040D01*
X207621382Y-162252797D01*
X207435107Y-162363791D01*
X207431998Y-162365525D01*
X207250992Y-162459750D01*
X207056274Y-162554944D01*
X207052769Y-162556524D01*
X206864433Y-162634536D01*
X206662552Y-162713309D01*
X206658658Y-162714681D01*
X206464503Y-162775899D01*
X206256798Y-162837735D01*
X206252526Y-162838843D01*
X206054173Y-162882818D01*
X205841897Y-162927326D01*
X205837265Y-162928115D01*
X205636680Y-162954524D01*
X205420884Y-162981422D01*
X205415918Y-162981839D01*
X205217271Y-162990513D01*
X205000000Y-162999500D01*
X173000099Y-162999500D01*
X170000500Y-162999500D01*
X170000000Y-162999500D01*
X169793178Y-162999500D01*
X169754727Y-163002686D01*
X169550093Y-163019642D01*
X169471546Y-163023072D01*
X169457774Y-163027292D01*
X169380945Y-163033659D01*
X169111306Y-163078652D01*
X169047055Y-163087111D01*
X169037386Y-163090988D01*
X168989846Y-163098921D01*
X168972943Y-163101742D01*
X168859315Y-163130516D01*
X168674065Y-163177428D01*
X168629527Y-163187302D01*
X168623878Y-163190137D01*
X168587642Y-163199313D01*
X168571956Y-163203286D01*
X168571953Y-163203286D01*
X168571949Y-163203288D01*
X168239183Y-163317526D01*
X168222052Y-163322928D01*
X168220271Y-163324018D01*
X168186973Y-163335450D01*
X168180724Y-163337596D01*
X168180719Y-163337598D01*
X168180718Y-163337598D01*
X167801917Y-163503756D01*
X167801918Y-163503756D01*
X167438131Y-163700628D01*
X167091841Y-163926870D01*
X166765418Y-164180936D01*
X166765414Y-164180938D01*
X166765416Y-164180938D01*
X166461090Y-164461090D01*
X166180938Y-164765416D01*
X165926873Y-165091837D01*
X165926872Y-165091838D01*
X165700629Y-165438129D01*
X165503756Y-165801918D01*
X165503756Y-165801917D01*
X165337598Y-166180718D01*
X165337598Y-166180719D01*
X165324018Y-166220271D01*
X165323065Y-166221615D01*
X165317526Y-166239183D01*
X165203288Y-166571949D01*
X165190137Y-166623878D01*
X165187604Y-166628164D01*
X165177428Y-166674065D01*
X165101742Y-166972944D01*
X165090988Y-167037386D01*
X165087412Y-167044768D01*
X165078652Y-167111306D01*
X165033659Y-167380945D01*
X165027292Y-167457774D01*
X165023211Y-167468348D01*
X165019642Y-167550090D01*
X164999500Y-167793180D01*
X164999500Y-181000000D01*
X164990513Y-181217271D01*
X164981839Y-181415918D01*
X164981422Y-181420884D01*
X164954524Y-181636680D01*
X164928115Y-181837265D01*
X164927326Y-181841897D01*
X164882818Y-182054173D01*
X164838843Y-182252526D01*
X164837735Y-182256798D01*
X164775899Y-182464503D01*
X164714681Y-182658658D01*
X164713309Y-182662552D01*
X164634536Y-182864433D01*
X164556524Y-183052769D01*
X164554944Y-183056274D01*
X164459750Y-183250992D01*
X164365525Y-183431998D01*
X164363791Y-183435107D01*
X164252797Y-183621382D01*
X164143040Y-183793663D01*
X164141209Y-183796377D01*
X164015162Y-183972918D01*
X163890716Y-184135099D01*
X163888839Y-184137426D01*
X163748557Y-184303059D01*
X163609426Y-184454895D01*
X163454895Y-184609426D01*
X163303059Y-184748557D01*
X163137426Y-184888839D01*
X163135099Y-184890716D01*
X162972918Y-185015162D01*
X162796377Y-185141209D01*
X162793663Y-185143040D01*
X162621382Y-185252797D01*
X162435107Y-185363791D01*
X162431998Y-185365525D01*
X162250992Y-185459750D01*
X162056274Y-185554944D01*
X162052769Y-185556524D01*
X161864433Y-185634536D01*
X161662552Y-185713309D01*
X161658658Y-185714681D01*
X161464503Y-185775899D01*
X161256798Y-185837735D01*
X161252526Y-185838843D01*
X161054173Y-185882818D01*
X160841897Y-185927326D01*
X160837265Y-185928115D01*
X160636680Y-185954524D01*
X160420884Y-185981422D01*
X160415918Y-185981839D01*
X160217271Y-185990513D01*
X160000000Y-185999500D01*
X72000000Y-185999500D01*
X71782728Y-185990513D01*
X71584080Y-185981839D01*
X71579114Y-185981422D01*
X71363319Y-185954524D01*
X71162733Y-185928115D01*
X71158101Y-185927326D01*
X70945826Y-185882818D01*
X70747472Y-185838843D01*
X70743200Y-185837735D01*
X70535496Y-185775899D01*
X70341340Y-185714681D01*
X70337445Y-185713309D01*
X70135566Y-185634536D01*
X69947229Y-185556524D01*
X69943744Y-185554953D01*
X69884503Y-185525992D01*
X69749007Y-185459750D01*
X69568000Y-185365525D01*
X69564891Y-185363791D01*
X69378617Y-185252797D01*
X69206335Y-185143040D01*
X69203621Y-185141209D01*
X69027081Y-185015162D01*
X68864900Y-184890716D01*
X68862572Y-184888839D01*
X68696940Y-184748557D01*
X68545103Y-184609424D01*
X68390574Y-184454895D01*
X68251439Y-184303055D01*
X68111159Y-184137426D01*
X68109282Y-184135098D01*
X67984837Y-183972918D01*
X67858789Y-183796377D01*
X67856957Y-183793662D01*
X67747202Y-183621382D01*
X67636207Y-183435107D01*
X67634473Y-183431998D01*
X67540249Y-183250992D01*
X67481755Y-183131343D01*
X67445045Y-183056252D01*
X67443494Y-183052817D01*
X67365463Y-182864433D01*
X67286680Y-182662530D01*
X67285317Y-182658658D01*
X67224100Y-182464503D01*
X67213246Y-182428044D01*
X67162257Y-182256778D01*
X67161155Y-182252526D01*
X67117181Y-182054173D01*
X67111495Y-182027057D01*
X67072671Y-181841894D01*
X67071883Y-181837265D01*
X67071313Y-181832940D01*
X67045489Y-181636792D01*
X67018574Y-181420865D01*
X67018160Y-181415934D01*
X67009486Y-181217271D01*
X67000500Y-181000000D01*
X67000500Y-180999500D01*
X67000500Y-175000000D01*
X86494484Y-175000000D01*
X86514536Y-175510380D01*
X86514538Y-175510417D01*
X86574578Y-176017687D01*
X86674232Y-176518683D01*
X86812887Y-177010315D01*
X86812889Y-177010322D01*
X86812891Y-177010327D01*
X86989685Y-177489548D01*
X87203542Y-177953440D01*
X87453132Y-178399117D01*
X87453135Y-178399122D01*
X87453136Y-178399123D01*
X87736927Y-178823846D01*
X87947753Y-179091278D01*
X88053164Y-179224992D01*
X88053167Y-179224995D01*
X88399906Y-179600094D01*
X88775005Y-179946833D01*
X88775008Y-179946835D01*
X88775007Y-179946835D01*
X88908721Y-180052246D01*
X89176154Y-180263073D01*
X89600244Y-180546441D01*
X89600883Y-180546868D01*
X89976149Y-180757026D01*
X90046558Y-180796457D01*
X90510447Y-181010313D01*
X90510450Y-181010314D01*
X90510452Y-181010315D01*
X90989673Y-181187109D01*
X90989677Y-181187110D01*
X90989685Y-181187113D01*
X91481317Y-181325768D01*
X91982313Y-181425422D01*
X92185220Y-181449438D01*
X92489580Y-181485462D01*
X92489581Y-181485462D01*
X93000000Y-181505516D01*
X93510419Y-181485462D01*
X93510420Y-181485462D01*
X93814778Y-181449438D01*
X94017687Y-181425422D01*
X94518683Y-181325768D01*
X95010315Y-181187113D01*
X95010322Y-181187110D01*
X95010327Y-181187109D01*
X95489548Y-181010315D01*
X95489549Y-181010314D01*
X95489553Y-181010313D01*
X95953442Y-180796457D01*
X96023850Y-180757026D01*
X96399117Y-180546868D01*
X96399756Y-180546441D01*
X96823846Y-180263073D01*
X97091278Y-180052246D01*
X97224993Y-179946835D01*
X97224992Y-179946835D01*
X97224995Y-179946833D01*
X97600094Y-179600094D01*
X97946833Y-179224995D01*
X97946836Y-179224992D01*
X98052246Y-179091278D01*
X98263073Y-178823846D01*
X98546864Y-178399123D01*
X98546864Y-178399122D01*
X98546868Y-178399117D01*
X98796458Y-177953440D01*
X99010315Y-177489548D01*
X99187109Y-177010327D01*
X99187110Y-177010322D01*
X99187113Y-177010315D01*
X99325768Y-176518683D01*
X99425422Y-176017687D01*
X99485462Y-175510417D01*
X99485464Y-175510380D01*
X99505516Y-175000000D01*
X99485462Y-174489581D01*
X99485462Y-174489580D01*
X99425422Y-173982315D01*
X99325768Y-173481317D01*
X99289215Y-173351712D01*
X99187113Y-172989685D01*
X99179085Y-172967925D01*
X99010315Y-172510452D01*
X98796458Y-172046560D01*
X98546868Y-171600883D01*
X98309874Y-171246197D01*
X98263073Y-171176154D01*
X98052246Y-170908721D01*
X97946835Y-170775007D01*
X97946835Y-170775008D01*
X97946833Y-170775005D01*
X97600094Y-170399906D01*
X97224995Y-170053167D01*
X97224992Y-170053165D01*
X97224993Y-170053165D01*
X97091278Y-169947753D01*
X96823846Y-169736927D01*
X96399123Y-169453136D01*
X96399122Y-169453135D01*
X96399117Y-169453132D01*
X95954238Y-169203989D01*
X95953442Y-169203543D01*
X95489553Y-168989687D01*
X95489548Y-168989685D01*
X95010327Y-168812891D01*
X95010322Y-168812889D01*
X95010315Y-168812887D01*
X94518683Y-168674232D01*
X94017687Y-168574578D01*
X93814779Y-168550561D01*
X93510420Y-168514538D01*
X93510419Y-168514538D01*
X93000000Y-168494484D01*
X92489581Y-168514538D01*
X92489580Y-168514538D01*
X92185220Y-168550561D01*
X91982313Y-168574578D01*
X91481317Y-168674232D01*
X90989685Y-168812887D01*
X90989677Y-168812889D01*
X90989673Y-168812891D01*
X90510452Y-168989685D01*
X90510447Y-168989687D01*
X90046558Y-169203543D01*
X90045762Y-169203989D01*
X89600883Y-169453132D01*
X89600877Y-169453135D01*
X89600877Y-169453136D01*
X89176154Y-169736927D01*
X88908721Y-169947753D01*
X88775007Y-170053165D01*
X88775008Y-170053165D01*
X88775005Y-170053167D01*
X88399906Y-170399906D01*
X88053167Y-170775005D01*
X88053165Y-170775008D01*
X88053165Y-170775007D01*
X87947753Y-170908721D01*
X87736927Y-171176154D01*
X87690126Y-171246197D01*
X87453132Y-171600883D01*
X87203542Y-172046560D01*
X86989685Y-172510452D01*
X86820915Y-172967925D01*
X86812887Y-172989685D01*
X86710785Y-173351712D01*
X86674232Y-173481317D01*
X86574578Y-173982315D01*
X86514538Y-174489580D01*
X86514538Y-174489581D01*
X86494484Y-175000000D01*
X67000500Y-175000000D01*
X67000500Y-161647870D01*
X100279500Y-161647870D01*
X100279501Y-161647876D01*
X100285908Y-161707483D01*
X100336202Y-161842328D01*
X100336206Y-161842335D01*
X100422452Y-161957544D01*
X100422455Y-161957547D01*
X100537664Y-162043793D01*
X100537671Y-162043797D01*
X100672517Y-162094091D01*
X100672516Y-162094091D01*
X100679444Y-162094835D01*
X100732127Y-162100500D01*
X104027872Y-162100499D01*
X104087483Y-162094091D01*
X104222331Y-162043796D01*
X104337546Y-161957546D01*
X104423796Y-161842331D01*
X104474091Y-161707483D01*
X104480500Y-161647873D01*
X104480499Y-159749999D01*
X115532192Y-159749999D01*
X115532193Y-159750000D01*
X116704350Y-159750000D01*
X116771389Y-159769685D01*
X116817144Y-159822489D01*
X116827570Y-159887883D01*
X116814938Y-159999996D01*
X116814938Y-160000003D01*
X116827570Y-160112117D01*
X116815516Y-160180938D01*
X116768166Y-160232318D01*
X116704350Y-160250000D01*
X115532193Y-160250000D01*
X115534697Y-160286619D01*
X115593146Y-160567888D01*
X115593150Y-160567902D01*
X115689355Y-160838595D01*
X115821527Y-161093676D01*
X115987204Y-161328385D01*
X115987204Y-161328386D01*
X116183288Y-161538341D01*
X116406135Y-161719641D01*
X116406146Y-161719648D01*
X116651607Y-161868917D01*
X116915108Y-161983371D01*
X117191737Y-162060879D01*
X117191746Y-162060881D01*
X117369998Y-162085380D01*
X117369999Y-162085380D01*
X117369999Y-160915649D01*
X117389684Y-160848610D01*
X117442488Y-160802855D01*
X117507882Y-160792429D01*
X117540395Y-160796092D01*
X117575071Y-160800000D01*
X117575074Y-160800000D01*
X117664928Y-160800000D01*
X117682126Y-160798061D01*
X117732115Y-160792429D01*
X117800936Y-160804483D01*
X117852316Y-160851831D01*
X117869999Y-160915649D01*
X117869999Y-162085380D01*
X118048253Y-162060881D01*
X118048262Y-162060879D01*
X118324891Y-161983371D01*
X118588392Y-161868917D01*
X118833853Y-161719648D01*
X118833864Y-161719641D01*
X119056711Y-161538341D01*
X119252795Y-161328386D01*
X119252795Y-161328385D01*
X119418472Y-161093676D01*
X119550644Y-160838595D01*
X119646849Y-160567902D01*
X119646853Y-160567888D01*
X119705302Y-160286619D01*
X119707807Y-160250000D01*
X118535650Y-160250000D01*
X118468611Y-160230315D01*
X118422856Y-160177511D01*
X118412430Y-160112117D01*
X118425062Y-160000003D01*
X118425062Y-159999996D01*
X118412430Y-159887883D01*
X118424484Y-159819062D01*
X118471834Y-159767682D01*
X118535650Y-159750000D01*
X119707807Y-159750000D01*
X119707807Y-159749999D01*
X119705302Y-159713380D01*
X119646853Y-159432111D01*
X119646849Y-159432097D01*
X119550644Y-159161404D01*
X119418472Y-158906323D01*
X119252795Y-158671614D01*
X119252795Y-158671613D01*
X119056711Y-158461658D01*
X118833864Y-158280358D01*
X118833853Y-158280351D01*
X118588392Y-158131082D01*
X118324891Y-158016628D01*
X118048262Y-157939120D01*
X118048255Y-157939119D01*
X117869999Y-157914618D01*
X117869999Y-159084350D01*
X117850314Y-159151389D01*
X117797510Y-159197144D01*
X117732115Y-159207570D01*
X117664930Y-159200000D01*
X117664926Y-159200000D01*
X117575074Y-159200000D01*
X117575067Y-159200000D01*
X117507882Y-159207570D01*
X117439061Y-159195515D01*
X117387681Y-159148166D01*
X117369999Y-159084350D01*
X117369999Y-157914618D01*
X117191744Y-157939119D01*
X117191737Y-157939120D01*
X116915108Y-158016628D01*
X116651607Y-158131082D01*
X116406146Y-158280351D01*
X116406135Y-158280358D01*
X116183288Y-158461658D01*
X115987204Y-158671613D01*
X115987204Y-158671614D01*
X115821527Y-158906323D01*
X115689355Y-159161404D01*
X115593150Y-159432097D01*
X115593146Y-159432111D01*
X115534697Y-159713380D01*
X115532192Y-159749999D01*
X104480499Y-159749999D01*
X104480499Y-158352128D01*
X104474091Y-158292517D01*
X104469553Y-158280351D01*
X104423797Y-158157671D01*
X104423793Y-158157664D01*
X104337547Y-158042455D01*
X104337544Y-158042452D01*
X104222335Y-157956206D01*
X104222328Y-157956202D01*
X104087482Y-157905908D01*
X104087483Y-157905908D01*
X104027883Y-157899501D01*
X104027881Y-157899500D01*
X104027873Y-157899500D01*
X104027864Y-157899500D01*
X100732129Y-157899500D01*
X100732123Y-157899501D01*
X100672516Y-157905908D01*
X100537671Y-157956202D01*
X100537664Y-157956206D01*
X100422455Y-158042452D01*
X100422452Y-158042455D01*
X100336206Y-158157664D01*
X100336202Y-158157671D01*
X100285908Y-158292517D01*
X100279501Y-158352116D01*
X100279501Y-158352123D01*
X100279500Y-158352135D01*
X100279500Y-161647870D01*
X67000500Y-161647870D01*
X67000500Y-151000001D01*
X89994532Y-151000001D01*
X90014364Y-151226686D01*
X90014366Y-151226697D01*
X90073258Y-151446488D01*
X90073261Y-151446497D01*
X90169431Y-151652732D01*
X90169432Y-151652734D01*
X90299954Y-151839141D01*
X90460858Y-152000045D01*
X90460861Y-152000047D01*
X90647266Y-152130568D01*
X90853504Y-152226739D01*
X90853509Y-152226740D01*
X90853511Y-152226741D01*
X90906415Y-152240916D01*
X91073308Y-152285635D01*
X91231911Y-152299511D01*
X91299998Y-152305468D01*
X91300000Y-152305468D01*
X91300002Y-152305468D01*
X91356673Y-152300509D01*
X91526692Y-152285635D01*
X91746496Y-152226739D01*
X91952734Y-152130568D01*
X92139139Y-152000047D01*
X92300047Y-151839139D01*
X92430568Y-151652734D01*
X92526739Y-151446496D01*
X92585635Y-151226692D01*
X92591040Y-151164905D01*
X92616492Y-151099838D01*
X92626879Y-151088040D01*
X94710318Y-149004600D01*
X94771641Y-148971116D01*
X94841333Y-148976100D01*
X94885680Y-149004601D01*
X102339566Y-156458487D01*
X102400938Y-156523050D01*
X102400941Y-156523053D01*
X102451281Y-156558092D01*
X102455043Y-156560928D01*
X102502587Y-156599694D01*
X102502590Y-156599695D01*
X102502593Y-156599698D01*
X102533045Y-156615604D01*
X102539758Y-156619672D01*
X102567951Y-156639295D01*
X102624329Y-156663489D01*
X102628578Y-156665507D01*
X102682951Y-156693909D01*
X102710489Y-156701788D01*
X102715974Y-156703358D01*
X102723368Y-156705990D01*
X102754942Y-156719540D01*
X102754945Y-156719540D01*
X102754946Y-156719541D01*
X102815022Y-156731887D01*
X102819600Y-156733010D01*
X102833501Y-156736987D01*
X102878582Y-156749887D01*
X102912839Y-156752495D01*
X102920614Y-156753586D01*
X102954255Y-156760500D01*
X102954259Y-156760500D01*
X103015599Y-156760500D01*
X103020305Y-156760678D01*
X103055063Y-156763325D01*
X103081476Y-156765337D01*
X103081476Y-156765336D01*
X103081477Y-156765337D01*
X103115560Y-156760996D01*
X103123390Y-156760500D01*
X132157281Y-156760500D01*
X132224320Y-156780185D01*
X132228404Y-156782925D01*
X132357299Y-156873178D01*
X132357301Y-156873179D01*
X132357304Y-156873181D01*
X132560370Y-156967872D01*
X132776794Y-157025863D01*
X132936226Y-157039811D01*
X132999998Y-157045391D01*
X133000000Y-157045391D01*
X133000002Y-157045391D01*
X133055801Y-157040509D01*
X133223206Y-157025863D01*
X133439630Y-156967872D01*
X133642696Y-156873181D01*
X133826233Y-156744667D01*
X133984667Y-156586233D01*
X134113181Y-156402696D01*
X134207872Y-156199630D01*
X134265863Y-155983206D01*
X134285391Y-155760000D01*
X134265863Y-155536794D01*
X134207872Y-155320370D01*
X134113181Y-155117305D01*
X133984667Y-154933767D01*
X133826233Y-154775333D01*
X133826229Y-154775330D01*
X133826228Y-154775329D01*
X133642700Y-154646821D01*
X133642692Y-154646817D01*
X133562412Y-154609382D01*
X133509972Y-154563210D01*
X133490820Y-154496017D01*
X133511036Y-154429135D01*
X133564201Y-154383801D01*
X133614816Y-154373000D01*
X142646717Y-154373000D01*
X142713756Y-154392685D01*
X142734398Y-154409319D01*
X144195113Y-155870034D01*
X144228598Y-155931357D01*
X144230960Y-155946904D01*
X144234136Y-155983203D01*
X144234137Y-155983208D01*
X144292126Y-156199625D01*
X144292127Y-156199627D01*
X144292128Y-156199630D01*
X144378661Y-156385202D01*
X144386819Y-156402696D01*
X144386821Y-156402700D01*
X144515329Y-156586228D01*
X144515334Y-156586234D01*
X144673765Y-156744665D01*
X144673771Y-156744670D01*
X144703287Y-156765337D01*
X144857304Y-156873181D01*
X144931339Y-156907704D01*
X144983775Y-156953873D01*
X145002928Y-157021067D01*
X144982713Y-157087948D01*
X144966613Y-157107765D01*
X136084699Y-165989681D01*
X136023376Y-166023166D01*
X135997018Y-166026000D01*
X116986217Y-166026000D01*
X116897137Y-166023743D01*
X116897128Y-166023743D01*
X116844136Y-166033241D01*
X116836754Y-166034564D01*
X116832095Y-166035218D01*
X116771064Y-166041425D01*
X116771062Y-166041426D01*
X116738280Y-166051710D01*
X116730656Y-166053581D01*
X116722808Y-166054988D01*
X116696849Y-166059641D01*
X116696841Y-166059643D01*
X116639882Y-166082395D01*
X116635446Y-166083974D01*
X116576915Y-166102340D01*
X116576912Y-166102341D01*
X116576910Y-166102342D01*
X116576903Y-166102345D01*
X116546884Y-166119007D01*
X116539790Y-166122376D01*
X116507890Y-166135119D01*
X116507888Y-166135119D01*
X116507883Y-166135122D01*
X116507876Y-166135126D01*
X116507877Y-166135126D01*
X116456654Y-166168883D01*
X116452626Y-166171324D01*
X116399002Y-166201088D01*
X116398999Y-166201090D01*
X116372927Y-166223470D01*
X116366660Y-166228195D01*
X116337982Y-166247098D01*
X116337975Y-166247103D01*
X116294616Y-166290462D01*
X116291161Y-166293664D01*
X116244606Y-166333632D01*
X116244605Y-166333633D01*
X116223576Y-166360800D01*
X116218384Y-166366694D01*
X112910374Y-169674704D01*
X112849051Y-169708189D01*
X112779359Y-169703205D01*
X112753802Y-169690125D01*
X112399117Y-169453132D01*
X111954238Y-169203989D01*
X111953442Y-169203543D01*
X111489553Y-168989687D01*
X111489548Y-168989685D01*
X111010327Y-168812891D01*
X111010322Y-168812889D01*
X111010315Y-168812887D01*
X110518683Y-168674232D01*
X110017687Y-168574578D01*
X109814779Y-168550561D01*
X109510420Y-168514538D01*
X109510419Y-168514538D01*
X109000000Y-168494484D01*
X108489581Y-168514538D01*
X108489580Y-168514538D01*
X108185220Y-168550561D01*
X107982313Y-168574578D01*
X107481317Y-168674232D01*
X106989685Y-168812887D01*
X106989677Y-168812889D01*
X106989673Y-168812891D01*
X106510452Y-168989685D01*
X106510447Y-168989687D01*
X106046558Y-169203543D01*
X106045762Y-169203989D01*
X105600883Y-169453132D01*
X105600877Y-169453135D01*
X105600877Y-169453136D01*
X105176154Y-169736927D01*
X104908721Y-169947753D01*
X104775007Y-170053165D01*
X104775008Y-170053165D01*
X104775005Y-170053167D01*
X104399906Y-170399906D01*
X104053167Y-170775005D01*
X104053165Y-170775008D01*
X104053165Y-170775007D01*
X103947753Y-170908721D01*
X103736927Y-171176154D01*
X103690126Y-171246197D01*
X103453132Y-171600883D01*
X103203542Y-172046560D01*
X102989685Y-172510452D01*
X102820915Y-172967925D01*
X102812887Y-172989685D01*
X102710785Y-173351712D01*
X102674232Y-173481317D01*
X102574578Y-173982315D01*
X102514538Y-174489580D01*
X102514538Y-174489581D01*
X102494484Y-175000000D01*
X102514536Y-175510380D01*
X102514538Y-175510417D01*
X102574578Y-176017687D01*
X102674232Y-176518683D01*
X102812887Y-177010315D01*
X102812889Y-177010322D01*
X102812891Y-177010327D01*
X102989685Y-177489548D01*
X103203542Y-177953440D01*
X103453132Y-178399117D01*
X103453135Y-178399122D01*
X103453136Y-178399123D01*
X103736927Y-178823846D01*
X103947753Y-179091278D01*
X104053164Y-179224992D01*
X104053167Y-179224995D01*
X104399906Y-179600094D01*
X104775005Y-179946833D01*
X104775008Y-179946835D01*
X104775007Y-179946835D01*
X104908721Y-180052246D01*
X105176154Y-180263073D01*
X105600244Y-180546441D01*
X105600883Y-180546868D01*
X105976149Y-180757026D01*
X106046558Y-180796457D01*
X106510447Y-181010313D01*
X106510450Y-181010314D01*
X106510452Y-181010315D01*
X106989673Y-181187109D01*
X106989677Y-181187110D01*
X106989685Y-181187113D01*
X107481317Y-181325768D01*
X107982313Y-181425422D01*
X108185220Y-181449438D01*
X108489580Y-181485462D01*
X108489581Y-181485462D01*
X109000000Y-181505516D01*
X109510419Y-181485462D01*
X109510420Y-181485462D01*
X109814778Y-181449438D01*
X110017687Y-181425422D01*
X110518683Y-181325768D01*
X111010315Y-181187113D01*
X111010322Y-181187110D01*
X111010327Y-181187109D01*
X111489548Y-181010315D01*
X111489549Y-181010314D01*
X111489553Y-181010313D01*
X111953442Y-180796457D01*
X112023850Y-180757026D01*
X112399117Y-180546868D01*
X112399756Y-180546441D01*
X112823846Y-180263073D01*
X113091278Y-180052246D01*
X113224993Y-179946835D01*
X113224992Y-179946835D01*
X113224995Y-179946833D01*
X113600094Y-179600094D01*
X113946833Y-179224995D01*
X113946836Y-179224992D01*
X114052246Y-179091278D01*
X114263073Y-178823846D01*
X114546864Y-178399123D01*
X114546864Y-178399122D01*
X114546868Y-178399117D01*
X114796458Y-177953440D01*
X115010315Y-177489548D01*
X115187109Y-177010327D01*
X115187110Y-177010322D01*
X115187113Y-177010315D01*
X115325768Y-176518683D01*
X115425422Y-176017687D01*
X115485462Y-175510417D01*
X115485464Y-175510380D01*
X115505516Y-175000000D01*
X118494484Y-175000000D01*
X118514536Y-175510380D01*
X118514538Y-175510417D01*
X118574578Y-176017687D01*
X118674232Y-176518683D01*
X118812887Y-177010315D01*
X118812889Y-177010322D01*
X118812891Y-177010327D01*
X118989685Y-177489548D01*
X119203542Y-177953440D01*
X119453132Y-178399117D01*
X119453135Y-178399122D01*
X119453136Y-178399123D01*
X119736927Y-178823846D01*
X119947753Y-179091278D01*
X120053164Y-179224992D01*
X120053167Y-179224995D01*
X120399906Y-179600094D01*
X120775005Y-179946833D01*
X120775008Y-179946835D01*
X120775007Y-179946835D01*
X120908721Y-180052246D01*
X121176154Y-180263073D01*
X121600244Y-180546441D01*
X121600883Y-180546868D01*
X121976149Y-180757026D01*
X122046558Y-180796457D01*
X122510447Y-181010313D01*
X122510450Y-181010314D01*
X122510452Y-181010315D01*
X122989673Y-181187109D01*
X122989677Y-181187110D01*
X122989685Y-181187113D01*
X123481317Y-181325768D01*
X123982313Y-181425422D01*
X124185220Y-181449438D01*
X124489580Y-181485462D01*
X124489581Y-181485462D01*
X125000000Y-181505516D01*
X125510419Y-181485462D01*
X125510420Y-181485462D01*
X125814778Y-181449438D01*
X126017687Y-181425422D01*
X126518683Y-181325768D01*
X127010315Y-181187113D01*
X127010322Y-181187110D01*
X127010327Y-181187109D01*
X127489548Y-181010315D01*
X127489549Y-181010314D01*
X127489553Y-181010313D01*
X127953442Y-180796457D01*
X128023850Y-180757026D01*
X128399117Y-180546868D01*
X128399756Y-180546441D01*
X128823846Y-180263073D01*
X129091278Y-180052246D01*
X129224993Y-179946835D01*
X129224992Y-179946835D01*
X129224995Y-179946833D01*
X129600094Y-179600094D01*
X129946833Y-179224995D01*
X129946836Y-179224992D01*
X130052246Y-179091278D01*
X130263073Y-178823846D01*
X130546864Y-178399123D01*
X130546864Y-178399122D01*
X130546868Y-178399117D01*
X130796458Y-177953440D01*
X131010315Y-177489548D01*
X131187109Y-177010327D01*
X131187110Y-177010322D01*
X131187113Y-177010315D01*
X131325768Y-176518683D01*
X131425422Y-176017687D01*
X131485462Y-175510417D01*
X131485464Y-175510380D01*
X131505516Y-175000000D01*
X134494985Y-175000000D01*
X134515038Y-175510380D01*
X134515038Y-175510381D01*
X134575073Y-176017607D01*
X134674719Y-176518566D01*
X134813367Y-177010172D01*
X134990148Y-177489356D01*
X135203989Y-177953213D01*
X135203988Y-177953213D01*
X135453559Y-178398855D01*
X135737336Y-178823557D01*
X135737335Y-178823556D01*
X136053546Y-179224666D01*
X136230429Y-179416017D01*
X138969658Y-176676787D01*
X139030981Y-176643302D01*
X139100673Y-176648286D01*
X139147731Y-176679584D01*
X139285250Y-176826026D01*
X139312837Y-176848848D01*
X139351945Y-176906748D01*
X139353541Y-176976599D01*
X139321478Y-177032073D01*
X136583981Y-179769569D01*
X136583981Y-179769570D01*
X136775334Y-179946454D01*
X137176444Y-180262665D01*
X137176443Y-180262664D01*
X137601145Y-180546441D01*
X138046787Y-180796012D01*
X138046787Y-180796011D01*
X138510644Y-181009852D01*
X138989828Y-181186633D01*
X139481434Y-181325281D01*
X139982393Y-181424927D01*
X140489619Y-181484962D01*
X140489620Y-181484962D01*
X141000000Y-181505015D01*
X141510380Y-181484962D01*
X141510381Y-181484962D01*
X142017607Y-181424927D01*
X142518566Y-181325281D01*
X143010172Y-181186633D01*
X143489356Y-181009852D01*
X143953213Y-180796011D01*
X143953213Y-180796012D01*
X144398855Y-180546441D01*
X144823557Y-180262664D01*
X144823556Y-180262665D01*
X145224673Y-179946449D01*
X145416017Y-179769569D01*
X142678520Y-177032073D01*
X142645035Y-176970750D01*
X142650019Y-176901058D01*
X142687162Y-176848848D01*
X142714751Y-176826025D01*
X142852268Y-176679583D01*
X142912508Y-176644190D01*
X142982321Y-176646982D01*
X143030340Y-176676787D01*
X145769569Y-179416017D01*
X145946449Y-179224673D01*
X146262665Y-178823556D01*
X146262664Y-178823557D01*
X146546441Y-178398855D01*
X146796012Y-177953213D01*
X146796011Y-177953213D01*
X147009852Y-177489356D01*
X147186633Y-177010172D01*
X147325281Y-176518566D01*
X147424927Y-176017607D01*
X147484962Y-175510381D01*
X147484962Y-175510380D01*
X147505015Y-175000000D01*
X147484962Y-174489620D01*
X147484962Y-174489619D01*
X147424927Y-173982393D01*
X147325281Y-173481434D01*
X147186633Y-172989828D01*
X147009852Y-172510644D01*
X146796011Y-172046787D01*
X146796012Y-172046787D01*
X146546441Y-171601145D01*
X146262664Y-171176443D01*
X146262665Y-171176444D01*
X145946454Y-170775334D01*
X145769569Y-170583981D01*
X143030340Y-173323211D01*
X142969017Y-173356696D01*
X142899325Y-173351712D01*
X142852267Y-173320414D01*
X142714749Y-173173973D01*
X142714747Y-173173971D01*
X142687160Y-173151149D01*
X142648053Y-173093249D01*
X142646457Y-173023398D01*
X142678520Y-172967925D01*
X145416017Y-170230429D01*
X145416017Y-170230428D01*
X145224666Y-170053546D01*
X144823556Y-169737335D01*
X144823557Y-169737336D01*
X144398855Y-169453559D01*
X143953213Y-169203988D01*
X143953213Y-169203989D01*
X143489356Y-168990148D01*
X143010172Y-168813367D01*
X142518566Y-168674719D01*
X142017607Y-168575073D01*
X141510381Y-168515038D01*
X141510380Y-168515038D01*
X141000000Y-168494985D01*
X140489620Y-168515038D01*
X140489619Y-168515038D01*
X139982393Y-168575073D01*
X139481434Y-168674719D01*
X138989828Y-168813367D01*
X138510644Y-168990148D01*
X138046787Y-169203989D01*
X138046787Y-169203988D01*
X137601145Y-169453559D01*
X137176443Y-169737336D01*
X137176444Y-169737335D01*
X136775334Y-170053546D01*
X136583981Y-170230429D01*
X139321479Y-172967926D01*
X139354964Y-173029249D01*
X139349980Y-173098941D01*
X139312841Y-173151148D01*
X139285252Y-173173973D01*
X139285247Y-173173977D01*
X139285242Y-173173981D01*
X139147732Y-173320415D01*
X139087491Y-173355810D01*
X139017677Y-173353016D01*
X138969659Y-173323212D01*
X136230429Y-170583981D01*
X136053546Y-170775334D01*
X135737335Y-171176444D01*
X135737336Y-171176443D01*
X135453559Y-171601145D01*
X135203988Y-172046787D01*
X135203989Y-172046787D01*
X134990148Y-172510644D01*
X134813367Y-172989828D01*
X134674719Y-173481434D01*
X134575073Y-173982393D01*
X134515038Y-174489619D01*
X134515038Y-174489620D01*
X134494985Y-175000000D01*
X131505516Y-175000000D01*
X131485462Y-174489581D01*
X131485462Y-174489580D01*
X131425422Y-173982315D01*
X131325768Y-173481317D01*
X131289215Y-173351712D01*
X131187113Y-172989685D01*
X131179085Y-172967925D01*
X131010315Y-172510452D01*
X130796458Y-172046560D01*
X130546868Y-171600883D01*
X130309874Y-171246197D01*
X130263073Y-171176154D01*
X130052246Y-170908721D01*
X129946835Y-170775007D01*
X129946835Y-170775008D01*
X129946833Y-170775005D01*
X129600094Y-170399906D01*
X129224995Y-170053167D01*
X129224992Y-170053165D01*
X129224993Y-170053165D01*
X129091278Y-169947753D01*
X128823846Y-169736927D01*
X128399123Y-169453136D01*
X128399122Y-169453135D01*
X128399117Y-169453132D01*
X127954238Y-169203989D01*
X127953442Y-169203543D01*
X127489553Y-168989687D01*
X127489548Y-168989685D01*
X127010327Y-168812891D01*
X127010322Y-168812889D01*
X127010315Y-168812887D01*
X126518683Y-168674232D01*
X126017687Y-168574578D01*
X125814779Y-168550561D01*
X125510420Y-168514538D01*
X125510419Y-168514538D01*
X125000000Y-168494484D01*
X124489581Y-168514538D01*
X124489580Y-168514538D01*
X124185220Y-168550561D01*
X123982313Y-168574578D01*
X123481317Y-168674232D01*
X122989685Y-168812887D01*
X122989677Y-168812889D01*
X122989673Y-168812891D01*
X122510452Y-168989685D01*
X122510447Y-168989687D01*
X122046558Y-169203543D01*
X122045762Y-169203989D01*
X121600883Y-169453132D01*
X121600877Y-169453135D01*
X121600877Y-169453136D01*
X121176154Y-169736927D01*
X120908721Y-169947753D01*
X120775007Y-170053165D01*
X120775008Y-170053165D01*
X120775005Y-170053167D01*
X120399906Y-170399906D01*
X120053167Y-170775005D01*
X120053165Y-170775008D01*
X120053165Y-170775007D01*
X119947753Y-170908721D01*
X119736927Y-171176154D01*
X119690126Y-171246197D01*
X119453132Y-171600883D01*
X119203542Y-172046560D01*
X118989685Y-172510452D01*
X118820915Y-172967925D01*
X118812887Y-172989685D01*
X118710785Y-173351712D01*
X118674232Y-173481317D01*
X118574578Y-173982315D01*
X118514538Y-174489580D01*
X118514538Y-174489581D01*
X118494484Y-175000000D01*
X115505516Y-175000000D01*
X115485462Y-174489581D01*
X115485462Y-174489580D01*
X115425422Y-173982315D01*
X115325768Y-173481317D01*
X115289215Y-173351712D01*
X115187113Y-172989685D01*
X115179085Y-172967925D01*
X115010315Y-172510452D01*
X114796458Y-172046560D01*
X114546868Y-171600883D01*
X114546864Y-171600877D01*
X114309871Y-171246193D01*
X114288995Y-171179520D01*
X114307479Y-171112139D01*
X114325290Y-171089629D01*
X117351600Y-168063319D01*
X117412924Y-168029834D01*
X117439282Y-168027000D01*
X136450084Y-168027000D01*
X136539158Y-168029257D01*
X136539158Y-168029256D01*
X136539163Y-168029257D01*
X136599553Y-168018432D01*
X136604212Y-168017780D01*
X136646407Y-168013488D01*
X136665238Y-168011574D01*
X136698027Y-168001286D01*
X136705640Y-167999418D01*
X136739453Y-167993358D01*
X136796421Y-167970601D01*
X136800853Y-167969024D01*
X136859388Y-167950659D01*
X136889427Y-167933984D01*
X136896508Y-167930622D01*
X136928417Y-167917877D01*
X136979654Y-167884108D01*
X136983651Y-167881687D01*
X137037302Y-167851909D01*
X137063368Y-167829530D01*
X137069643Y-167824800D01*
X137098319Y-167805902D01*
X137141692Y-167762527D01*
X137145150Y-167759323D01*
X137148413Y-167756520D01*
X137191695Y-167719366D01*
X137212728Y-167692191D01*
X137217898Y-167686321D01*
X147735167Y-157169052D01*
X147799753Y-157107659D01*
X147834799Y-157057306D01*
X147837638Y-157053541D01*
X147841312Y-157049035D01*
X147876398Y-157006007D01*
X147892301Y-156975560D01*
X147896374Y-156968839D01*
X147901189Y-156961920D01*
X147915995Y-156940649D01*
X147940192Y-156884260D01*
X147942198Y-156880035D01*
X147970609Y-156825649D01*
X147980060Y-156792615D01*
X147982691Y-156785228D01*
X147996240Y-156753658D01*
X148008593Y-156693540D01*
X148009706Y-156689012D01*
X148026587Y-156630018D01*
X148029195Y-156595755D01*
X148030287Y-156587976D01*
X148030646Y-156586234D01*
X148037200Y-156554341D01*
X148037200Y-156493000D01*
X148037379Y-156488292D01*
X148042037Y-156427125D01*
X148037697Y-156393041D01*
X148037200Y-156385202D01*
X148037200Y-154809415D01*
X148039457Y-154720341D01*
X148039456Y-154720340D01*
X148039457Y-154720337D01*
X148028633Y-154659949D01*
X148027980Y-154655287D01*
X148021774Y-154594263D01*
X148016735Y-154578203D01*
X148011484Y-154561468D01*
X148009617Y-154553855D01*
X148009307Y-154552128D01*
X148003558Y-154520047D01*
X147980800Y-154463074D01*
X147979221Y-154458638D01*
X147969964Y-154429135D01*
X147960859Y-154400112D01*
X147960858Y-154400110D01*
X147960857Y-154400107D01*
X147946086Y-154373497D01*
X147944185Y-154370071D01*
X147940817Y-154362978D01*
X147933391Y-154344387D01*
X147928077Y-154331083D01*
X147894320Y-154279863D01*
X147891880Y-154275834D01*
X147878537Y-154251795D01*
X147862109Y-154222198D01*
X147862107Y-154222195D01*
X147839733Y-154196134D01*
X147835002Y-154189859D01*
X147824173Y-154173428D01*
X147816102Y-154161181D01*
X147772712Y-154117791D01*
X147769522Y-154114348D01*
X147729567Y-154067806D01*
X147729563Y-154067802D01*
X147702398Y-154046774D01*
X147696503Y-154041582D01*
X144414922Y-150760001D01*
X146714609Y-150760001D01*
X146734136Y-150983200D01*
X146734137Y-150983208D01*
X146792126Y-151199625D01*
X146792127Y-151199627D01*
X146792128Y-151199630D01*
X146878644Y-151385165D01*
X146886819Y-151402696D01*
X146886821Y-151402700D01*
X147015329Y-151586228D01*
X147015334Y-151586234D01*
X147173765Y-151744665D01*
X147173771Y-151744670D01*
X147357299Y-151873178D01*
X147357301Y-151873179D01*
X147357304Y-151873181D01*
X147560370Y-151967872D01*
X147776794Y-152025863D01*
X147936226Y-152039811D01*
X147999998Y-152045391D01*
X148000000Y-152045391D01*
X148000002Y-152045391D01*
X148055927Y-152040498D01*
X148223206Y-152025863D01*
X148439630Y-151967872D01*
X148642696Y-151873181D01*
X148826233Y-151744667D01*
X148984667Y-151586233D01*
X149113181Y-151402696D01*
X149207872Y-151199630D01*
X149265863Y-150983206D01*
X149285391Y-150760000D01*
X149265863Y-150536794D01*
X149207872Y-150320370D01*
X149113181Y-150117305D01*
X148984667Y-149933767D01*
X148826233Y-149775333D01*
X148826229Y-149775330D01*
X148826228Y-149775329D01*
X148642700Y-149646821D01*
X148642696Y-149646819D01*
X148590445Y-149622454D01*
X148439630Y-149552128D01*
X148439627Y-149552127D01*
X148439625Y-149552126D01*
X148223208Y-149494137D01*
X148223200Y-149494136D01*
X148000002Y-149474609D01*
X147999998Y-149474609D01*
X147776799Y-149494136D01*
X147776791Y-149494137D01*
X147560374Y-149552126D01*
X147560368Y-149552129D01*
X147357306Y-149646818D01*
X147357304Y-149646819D01*
X147173764Y-149775334D01*
X147015334Y-149933764D01*
X146886819Y-150117304D01*
X146886818Y-150117306D01*
X146792129Y-150320368D01*
X146792126Y-150320374D01*
X146734137Y-150536791D01*
X146734136Y-150536799D01*
X146714609Y-150759998D01*
X146714609Y-150760001D01*
X144414922Y-150760001D01*
X144316818Y-150661897D01*
X144283333Y-150600574D01*
X144280499Y-150574216D01*
X144280499Y-149932129D01*
X144280498Y-149932123D01*
X144280497Y-149932116D01*
X144274091Y-149872517D01*
X144272940Y-149869432D01*
X144223797Y-149737671D01*
X144223793Y-149737664D01*
X144137547Y-149622455D01*
X144137544Y-149622452D01*
X144022335Y-149536206D01*
X144022328Y-149536202D01*
X143887482Y-149485908D01*
X143887483Y-149485908D01*
X143827883Y-149479501D01*
X143827881Y-149479500D01*
X143827873Y-149479500D01*
X143827864Y-149479500D01*
X142172129Y-149479500D01*
X142172123Y-149479501D01*
X142112516Y-149485908D01*
X141977671Y-149536202D01*
X141977664Y-149536206D01*
X141862455Y-149622452D01*
X141862452Y-149622455D01*
X141776206Y-149737664D01*
X141776202Y-149737671D01*
X141725908Y-149872517D01*
X141719501Y-149932116D01*
X141719501Y-149932123D01*
X141719500Y-149932135D01*
X141719500Y-151587870D01*
X141719501Y-151587876D01*
X141725908Y-151647483D01*
X141776202Y-151782328D01*
X141776206Y-151782335D01*
X141862452Y-151897544D01*
X141862455Y-151897547D01*
X141977664Y-151983793D01*
X141977671Y-151983797D01*
X142020195Y-151999657D01*
X142112517Y-152034091D01*
X142172127Y-152040500D01*
X142814216Y-152040499D01*
X142881255Y-152060183D01*
X142901897Y-152076818D01*
X142985398Y-152160319D01*
X143018883Y-152221642D01*
X143013899Y-152291334D01*
X142972027Y-152347267D01*
X142906563Y-152371684D01*
X142897717Y-152372000D01*
X125043127Y-152372000D01*
X124976088Y-152352315D01*
X124930333Y-152299511D01*
X124920389Y-152230353D01*
X124949414Y-152166797D01*
X124990722Y-152135618D01*
X125002482Y-152130134D01*
X125188820Y-151999657D01*
X125349657Y-151838820D01*
X125480134Y-151652482D01*
X125510263Y-151587870D01*
X129219500Y-151587870D01*
X129219501Y-151587876D01*
X129225908Y-151647483D01*
X129276202Y-151782328D01*
X129276206Y-151782335D01*
X129362452Y-151897544D01*
X129362455Y-151897547D01*
X129477664Y-151983793D01*
X129477671Y-151983797D01*
X129612517Y-152034091D01*
X129612516Y-152034091D01*
X129619444Y-152034835D01*
X129672127Y-152040500D01*
X131327872Y-152040499D01*
X131387483Y-152034091D01*
X131522331Y-151983796D01*
X131637546Y-151897546D01*
X131723796Y-151782331D01*
X131774091Y-151647483D01*
X131780500Y-151587873D01*
X131780500Y-150760001D01*
X134214609Y-150760001D01*
X134234136Y-150983200D01*
X134234137Y-150983208D01*
X134292126Y-151199625D01*
X134292127Y-151199627D01*
X134292128Y-151199630D01*
X134378644Y-151385165D01*
X134386819Y-151402696D01*
X134386821Y-151402700D01*
X134515329Y-151586228D01*
X134515334Y-151586234D01*
X134673765Y-151744665D01*
X134673771Y-151744670D01*
X134857299Y-151873178D01*
X134857301Y-151873179D01*
X134857304Y-151873181D01*
X135060370Y-151967872D01*
X135276794Y-152025863D01*
X135436226Y-152039811D01*
X135499998Y-152045391D01*
X135500000Y-152045391D01*
X135500002Y-152045391D01*
X135555927Y-152040498D01*
X135723206Y-152025863D01*
X135939630Y-151967872D01*
X136142696Y-151873181D01*
X136326233Y-151744667D01*
X136484667Y-151586233D01*
X136613181Y-151402696D01*
X136707872Y-151199630D01*
X136765863Y-150983206D01*
X136785391Y-150760000D01*
X136765863Y-150536794D01*
X136707872Y-150320370D01*
X136613181Y-150117305D01*
X136484667Y-149933767D01*
X136326233Y-149775333D01*
X136326229Y-149775330D01*
X136326228Y-149775329D01*
X136142700Y-149646821D01*
X136142696Y-149646819D01*
X136090445Y-149622454D01*
X135939630Y-149552128D01*
X135939627Y-149552127D01*
X135939625Y-149552126D01*
X135723208Y-149494137D01*
X135723200Y-149494136D01*
X135500002Y-149474609D01*
X135499998Y-149474609D01*
X135276799Y-149494136D01*
X135276791Y-149494137D01*
X135060374Y-149552126D01*
X135060368Y-149552129D01*
X134857306Y-149646818D01*
X134857304Y-149646819D01*
X134673764Y-149775334D01*
X134515334Y-149933764D01*
X134386819Y-150117304D01*
X134386818Y-150117306D01*
X134292129Y-150320368D01*
X134292126Y-150320374D01*
X134234137Y-150536791D01*
X134234136Y-150536799D01*
X134214609Y-150759998D01*
X134214609Y-150760001D01*
X131780500Y-150760001D01*
X131780499Y-149932128D01*
X131774091Y-149872517D01*
X131772940Y-149869432D01*
X131723797Y-149737671D01*
X131723793Y-149737664D01*
X131637547Y-149622455D01*
X131637544Y-149622452D01*
X131522335Y-149536206D01*
X131522328Y-149536202D01*
X131387482Y-149485908D01*
X131387483Y-149485908D01*
X131327883Y-149479501D01*
X131327881Y-149479500D01*
X131327873Y-149479500D01*
X131327864Y-149479500D01*
X129672129Y-149479500D01*
X129672123Y-149479501D01*
X129612516Y-149485908D01*
X129477671Y-149536202D01*
X129477664Y-149536206D01*
X129362455Y-149622452D01*
X129362452Y-149622455D01*
X129276206Y-149737664D01*
X129276202Y-149737671D01*
X129225908Y-149872517D01*
X129219501Y-149932116D01*
X129219501Y-149932123D01*
X129219500Y-149932135D01*
X129219500Y-151587870D01*
X125510263Y-151587870D01*
X125576265Y-151446326D01*
X125576269Y-151446317D01*
X125628872Y-151250000D01*
X124860576Y-151250000D01*
X124793537Y-151230315D01*
X124747782Y-151177511D01*
X124737838Y-151108353D01*
X124738103Y-151106603D01*
X124754986Y-151000003D01*
X124754986Y-150999996D01*
X124738103Y-150893397D01*
X124747058Y-150824104D01*
X124792054Y-150770652D01*
X124858806Y-150750013D01*
X124860576Y-150750000D01*
X125628872Y-150750000D01*
X125628872Y-150749999D01*
X125576269Y-150553682D01*
X125576265Y-150553673D01*
X125480134Y-150347517D01*
X125349657Y-150161179D01*
X125188820Y-150000342D01*
X125002482Y-149869865D01*
X124796328Y-149773734D01*
X124599999Y-149721127D01*
X124600000Y-150489424D01*
X124580315Y-150556463D01*
X124527511Y-150602218D01*
X124458353Y-150612162D01*
X124456602Y-150611897D01*
X124381486Y-150600000D01*
X124381481Y-150600000D01*
X124318519Y-150600000D01*
X124318514Y-150600000D01*
X124243398Y-150611897D01*
X124174104Y-150602942D01*
X124120652Y-150557946D01*
X124100013Y-150491194D01*
X124100000Y-150489424D01*
X124100000Y-149721127D01*
X123903671Y-149773734D01*
X123697517Y-149869865D01*
X123511179Y-150000342D01*
X123350342Y-150161179D01*
X123219865Y-150347517D01*
X123123734Y-150553673D01*
X123123730Y-150553682D01*
X123071127Y-150749999D01*
X123071128Y-150750000D01*
X123839424Y-150750000D01*
X123906463Y-150769685D01*
X123952218Y-150822489D01*
X123962162Y-150891647D01*
X123961897Y-150893397D01*
X123945014Y-150999996D01*
X123945014Y-151000003D01*
X123961897Y-151106603D01*
X123952942Y-151175896D01*
X123907946Y-151229348D01*
X123841194Y-151249987D01*
X123839424Y-151250000D01*
X123071128Y-151250000D01*
X123123730Y-151446317D01*
X123123734Y-151446326D01*
X123219865Y-151652482D01*
X123350342Y-151838820D01*
X123511179Y-151999657D01*
X123697517Y-152130134D01*
X123709278Y-152135618D01*
X123761717Y-152181790D01*
X123780869Y-152248984D01*
X123760653Y-152315865D01*
X123707488Y-152361200D01*
X123656873Y-152372000D01*
X114488282Y-152372000D01*
X114421243Y-152352315D01*
X114400601Y-152335681D01*
X112976887Y-150911967D01*
X112943402Y-150850644D01*
X112941040Y-150835093D01*
X112939937Y-150822489D01*
X112935635Y-150773308D01*
X112876739Y-150553504D01*
X112780568Y-150347266D01*
X112650047Y-150160861D01*
X112650045Y-150160858D01*
X112489141Y-149999954D01*
X112302734Y-149869432D01*
X112302732Y-149869431D01*
X112096497Y-149773261D01*
X112096488Y-149773258D01*
X111876697Y-149714366D01*
X111876693Y-149714365D01*
X111876692Y-149714365D01*
X111876691Y-149714364D01*
X111876686Y-149714364D01*
X111650002Y-149694532D01*
X111649998Y-149694532D01*
X111423313Y-149714364D01*
X111423302Y-149714366D01*
X111203511Y-149773258D01*
X111203502Y-149773261D01*
X110997267Y-149869431D01*
X110997265Y-149869432D01*
X110810858Y-149999954D01*
X110649954Y-150160858D01*
X110519432Y-150347265D01*
X110519431Y-150347267D01*
X110423261Y-150553502D01*
X110423258Y-150553511D01*
X110364366Y-150773302D01*
X110364364Y-150773313D01*
X110344532Y-150999998D01*
X110344532Y-151000001D01*
X110364364Y-151226686D01*
X110364366Y-151226697D01*
X110423258Y-151446488D01*
X110423261Y-151446497D01*
X110519431Y-151652732D01*
X110519432Y-151652734D01*
X110649954Y-151839141D01*
X110810858Y-152000045D01*
X110810861Y-152000047D01*
X110997266Y-152130568D01*
X111203504Y-152226739D01*
X111203509Y-152226740D01*
X111203511Y-152226741D01*
X111286524Y-152248984D01*
X111423308Y-152285635D01*
X111485091Y-152291039D01*
X111550158Y-152316490D01*
X111561965Y-152326886D01*
X113306066Y-154070987D01*
X113367438Y-154135550D01*
X113367441Y-154135553D01*
X113417781Y-154170592D01*
X113421543Y-154173428D01*
X113469087Y-154212194D01*
X113469090Y-154212195D01*
X113469093Y-154212198D01*
X113499545Y-154228104D01*
X113506258Y-154232172D01*
X113534451Y-154251795D01*
X113590829Y-154275989D01*
X113595078Y-154278007D01*
X113649451Y-154306409D01*
X113676989Y-154314288D01*
X113682474Y-154315858D01*
X113689868Y-154318490D01*
X113721442Y-154332040D01*
X113721445Y-154332040D01*
X113721446Y-154332041D01*
X113781522Y-154344387D01*
X113786100Y-154345510D01*
X113800001Y-154349487D01*
X113845082Y-154362387D01*
X113879339Y-154364995D01*
X113887114Y-154366086D01*
X113920755Y-154373000D01*
X113920759Y-154373000D01*
X113982099Y-154373000D01*
X113986805Y-154373178D01*
X114021563Y-154375825D01*
X114047976Y-154377837D01*
X114047976Y-154377836D01*
X114047977Y-154377837D01*
X114082060Y-154373496D01*
X114089890Y-154373000D01*
X132385184Y-154373000D01*
X132452223Y-154392685D01*
X132497978Y-154445489D01*
X132507922Y-154514647D01*
X132478897Y-154578203D01*
X132437589Y-154609382D01*
X132357306Y-154646818D01*
X132357304Y-154646819D01*
X132277287Y-154702847D01*
X132228404Y-154737075D01*
X132162200Y-154759402D01*
X132157283Y-154759500D01*
X103521782Y-154759500D01*
X103454743Y-154739815D01*
X103434101Y-154723181D01*
X99460919Y-150749999D01*
X102721127Y-150749999D01*
X102721128Y-150750000D01*
X103489424Y-150750000D01*
X103556463Y-150769685D01*
X103602218Y-150822489D01*
X103612162Y-150891647D01*
X103611897Y-150893397D01*
X103595014Y-150999996D01*
X103595014Y-151000003D01*
X103611897Y-151106603D01*
X103602942Y-151175896D01*
X103557946Y-151229348D01*
X103491194Y-151249987D01*
X103489424Y-151250000D01*
X102721128Y-151250000D01*
X102773730Y-151446317D01*
X102773734Y-151446326D01*
X102869865Y-151652482D01*
X103000342Y-151838820D01*
X103161179Y-151999657D01*
X103347517Y-152130134D01*
X103553673Y-152226265D01*
X103553682Y-152226269D01*
X103749999Y-152278872D01*
X103750000Y-152278871D01*
X103750000Y-151510575D01*
X103769685Y-151443536D01*
X103822489Y-151397781D01*
X103891647Y-151387837D01*
X103893331Y-151388091D01*
X103925699Y-151393218D01*
X103968515Y-151400000D01*
X103968519Y-151400000D01*
X104031485Y-151400000D01*
X104074300Y-151393218D01*
X104106602Y-151388102D01*
X104175894Y-151397056D01*
X104229347Y-151442052D01*
X104249987Y-151508803D01*
X104250000Y-151510575D01*
X104250000Y-152278872D01*
X104446317Y-152226269D01*
X104446326Y-152226265D01*
X104652482Y-152130134D01*
X104838820Y-151999657D01*
X104999657Y-151838820D01*
X105130134Y-151652482D01*
X105226265Y-151446326D01*
X105226269Y-151446317D01*
X105278872Y-151250000D01*
X104510576Y-151250000D01*
X104443537Y-151230315D01*
X104397782Y-151177511D01*
X104387838Y-151108353D01*
X104388103Y-151106603D01*
X104404986Y-151000003D01*
X104404986Y-150999996D01*
X104388103Y-150893397D01*
X104397058Y-150824104D01*
X104442054Y-150770652D01*
X104508806Y-150750013D01*
X104510576Y-150750000D01*
X105278872Y-150750000D01*
X105278872Y-150749999D01*
X105226269Y-150553682D01*
X105226265Y-150553673D01*
X105130134Y-150347517D01*
X104999657Y-150161179D01*
X104838820Y-150000342D01*
X104652482Y-149869865D01*
X104446328Y-149773734D01*
X104249999Y-149721127D01*
X104250000Y-150489424D01*
X104230315Y-150556463D01*
X104177511Y-150602218D01*
X104108353Y-150612162D01*
X104106602Y-150611897D01*
X104031486Y-150600000D01*
X104031481Y-150600000D01*
X103968519Y-150600000D01*
X103968514Y-150600000D01*
X103893398Y-150611897D01*
X103824104Y-150602942D01*
X103770652Y-150557946D01*
X103750013Y-150491194D01*
X103750000Y-150489424D01*
X103750000Y-149721127D01*
X103553671Y-149773734D01*
X103347517Y-149869865D01*
X103161179Y-150000342D01*
X103000342Y-150161179D01*
X102869865Y-150347517D01*
X102773734Y-150553673D01*
X102773730Y-150553682D01*
X102721127Y-150749999D01*
X99460919Y-150749999D01*
X95834819Y-147123899D01*
X95801334Y-147062576D01*
X95798500Y-147036218D01*
X95798500Y-140932523D01*
X95818185Y-140865484D01*
X95870989Y-140819729D01*
X95940147Y-140809785D01*
X96003028Y-140838231D01*
X96107931Y-140927827D01*
X96107933Y-140927828D01*
X96107934Y-140927829D01*
X96107935Y-140927830D01*
X96310988Y-141052261D01*
X96396078Y-141087506D01*
X96531012Y-141143398D01*
X96762583Y-141198993D01*
X97000000Y-141217678D01*
X97038272Y-141214665D01*
X97106647Y-141229028D01*
X97135682Y-141250602D01*
X98138548Y-142253468D01*
X98199941Y-142318053D01*
X98199944Y-142318055D01*
X98199947Y-142318058D01*
X98234053Y-142341795D01*
X98250303Y-142353106D01*
X98254044Y-142355926D01*
X98301593Y-142394698D01*
X98332045Y-142410604D01*
X98338756Y-142414671D01*
X98366951Y-142434295D01*
X98423332Y-142458490D01*
X98427567Y-142460501D01*
X98481951Y-142488909D01*
X98514973Y-142498356D01*
X98522365Y-142500989D01*
X98553940Y-142514539D01*
X98553941Y-142514540D01*
X98559363Y-142515654D01*
X98614055Y-142526892D01*
X98618595Y-142528006D01*
X98677582Y-142544886D01*
X98711841Y-142547494D01*
X98719609Y-142548585D01*
X98753255Y-142555500D01*
X98753259Y-142555500D01*
X98814601Y-142555500D01*
X98819308Y-142555678D01*
X98855651Y-142558446D01*
X98880475Y-142560337D01*
X98880475Y-142560336D01*
X98880476Y-142560337D01*
X98914559Y-142555996D01*
X98922389Y-142555500D01*
X138193435Y-142555500D01*
X138260474Y-142575185D01*
X138302268Y-142620075D01*
X138312770Y-142639309D01*
X138312775Y-142639317D01*
X138484254Y-142868387D01*
X138484270Y-142868405D01*
X138686594Y-143070729D01*
X138686612Y-143070745D01*
X138915682Y-143242224D01*
X138915690Y-143242229D01*
X139166833Y-143379364D01*
X139166832Y-143379364D01*
X139166836Y-143379365D01*
X139166839Y-143379367D01*
X139434954Y-143479369D01*
X139434960Y-143479370D01*
X139434962Y-143479371D01*
X139714566Y-143540195D01*
X139714568Y-143540195D01*
X139714572Y-143540196D01*
X139968220Y-143558337D01*
X139999999Y-143560610D01*
X140000000Y-143560610D01*
X140000001Y-143560610D01*
X140028595Y-143558564D01*
X140285428Y-143540196D01*
X140565046Y-143479369D01*
X140833161Y-143379367D01*
X141084315Y-143242226D01*
X141313395Y-143070739D01*
X141515739Y-142868395D01*
X141687226Y-142639315D01*
X141824367Y-142388161D01*
X141924369Y-142120046D01*
X141972977Y-141896599D01*
X141985195Y-141840433D01*
X141985195Y-141840432D01*
X141985196Y-141840428D01*
X142005610Y-141555000D01*
X142004363Y-141537571D01*
X141992013Y-141364887D01*
X141985196Y-141269572D01*
X141981069Y-141250602D01*
X141924371Y-140989962D01*
X141924370Y-140989960D01*
X141924369Y-140989954D01*
X141824367Y-140721839D01*
X141687226Y-140470685D01*
X141687224Y-140470682D01*
X141515745Y-140241612D01*
X141515729Y-140241594D01*
X141313405Y-140039270D01*
X141313387Y-140039254D01*
X141084317Y-139867775D01*
X141084309Y-139867770D01*
X140833166Y-139730635D01*
X140833167Y-139730635D01*
X140725915Y-139690632D01*
X140565046Y-139630631D01*
X140565043Y-139630630D01*
X140565037Y-139630628D01*
X140285433Y-139569804D01*
X140000001Y-139549390D01*
X139999999Y-139549390D01*
X139714566Y-139569804D01*
X139434962Y-139630628D01*
X139166833Y-139730635D01*
X138915690Y-139867770D01*
X138915682Y-139867775D01*
X138686612Y-140039254D01*
X138686594Y-140039270D01*
X138484270Y-140241594D01*
X138484254Y-140241612D01*
X138312775Y-140470682D01*
X138312770Y-140470690D01*
X138302268Y-140489925D01*
X138252863Y-140539331D01*
X138193435Y-140554500D01*
X99320783Y-140554500D01*
X99253744Y-140534815D01*
X99233102Y-140518181D01*
X98550602Y-139835682D01*
X98517117Y-139774359D01*
X98514665Y-139738275D01*
X98517678Y-139700000D01*
X98498993Y-139462583D01*
X98443398Y-139231012D01*
X98387506Y-139096078D01*
X98367538Y-139047870D01*
X102499500Y-139047870D01*
X102499501Y-139047876D01*
X102505908Y-139107483D01*
X102556202Y-139242328D01*
X102556206Y-139242335D01*
X102642452Y-139357544D01*
X102642455Y-139357547D01*
X102757664Y-139443793D01*
X102757671Y-139443797D01*
X102892517Y-139494091D01*
X102892516Y-139494091D01*
X102899444Y-139494835D01*
X102952127Y-139500500D01*
X105047872Y-139500499D01*
X105107483Y-139494091D01*
X105242331Y-139443796D01*
X105357546Y-139357546D01*
X105443796Y-139242331D01*
X105494091Y-139107483D01*
X105500500Y-139047873D01*
X105500500Y-138000005D01*
X107494858Y-138000005D01*
X107515385Y-138247729D01*
X107515387Y-138247738D01*
X107576412Y-138488717D01*
X107676266Y-138716364D01*
X107776564Y-138869882D01*
X108391050Y-138255395D01*
X108452373Y-138221910D01*
X108522064Y-138226894D01*
X108577998Y-138268765D01*
X108583039Y-138276025D01*
X108618239Y-138330798D01*
X108722925Y-138421508D01*
X108733602Y-138430759D01*
X108731293Y-138433422D01*
X108766006Y-138473499D01*
X108775935Y-138542660D01*
X108746898Y-138606210D01*
X108740882Y-138612669D01*
X108129942Y-139223609D01*
X108176768Y-139260055D01*
X108176770Y-139260056D01*
X108395385Y-139378364D01*
X108395396Y-139378369D01*
X108630506Y-139459083D01*
X108875707Y-139500000D01*
X109124293Y-139500000D01*
X109369493Y-139459083D01*
X109604603Y-139378369D01*
X109604614Y-139378364D01*
X109823228Y-139260057D01*
X109823231Y-139260055D01*
X109870056Y-139223609D01*
X109694317Y-139047870D01*
X117499500Y-139047870D01*
X117499501Y-139047876D01*
X117505908Y-139107483D01*
X117556202Y-139242328D01*
X117556206Y-139242335D01*
X117642452Y-139357544D01*
X117642455Y-139357547D01*
X117757664Y-139443793D01*
X117757671Y-139443797D01*
X117892517Y-139494091D01*
X117892516Y-139494091D01*
X117899444Y-139494835D01*
X117952127Y-139500500D01*
X120047872Y-139500499D01*
X120107483Y-139494091D01*
X120242331Y-139443796D01*
X120357546Y-139357546D01*
X120443796Y-139242331D01*
X120494091Y-139107483D01*
X120500500Y-139047873D01*
X120500500Y-138000005D01*
X122494858Y-138000005D01*
X122515385Y-138247729D01*
X122515387Y-138247738D01*
X122576412Y-138488717D01*
X122676266Y-138716364D01*
X122776564Y-138869882D01*
X123391050Y-138255395D01*
X123452373Y-138221910D01*
X123522064Y-138226894D01*
X123577998Y-138268765D01*
X123583039Y-138276025D01*
X123618239Y-138330798D01*
X123722925Y-138421508D01*
X123733602Y-138430759D01*
X123731293Y-138433422D01*
X123766006Y-138473499D01*
X123775935Y-138542660D01*
X123746898Y-138606210D01*
X123740882Y-138612669D01*
X123129942Y-139223609D01*
X123176768Y-139260055D01*
X123176770Y-139260056D01*
X123395385Y-139378364D01*
X123395396Y-139378369D01*
X123630506Y-139459083D01*
X123875707Y-139500000D01*
X124124293Y-139500000D01*
X124369493Y-139459083D01*
X124604603Y-139378369D01*
X124604614Y-139378364D01*
X124823228Y-139260057D01*
X124823231Y-139260055D01*
X124870056Y-139223609D01*
X124259116Y-138612669D01*
X124225631Y-138551346D01*
X124230615Y-138481654D01*
X124267641Y-138432193D01*
X124266398Y-138430759D01*
X124277072Y-138421510D01*
X124381761Y-138330798D01*
X124416954Y-138276037D01*
X124469755Y-138230283D01*
X124538914Y-138220339D01*
X124602470Y-138249363D01*
X124608949Y-138255396D01*
X125223434Y-138869882D01*
X125323731Y-138716369D01*
X125423587Y-138488717D01*
X125484612Y-138247738D01*
X125484614Y-138247729D01*
X125505141Y-138000005D01*
X125505141Y-137999994D01*
X125484614Y-137752270D01*
X125484612Y-137752261D01*
X125423587Y-137511282D01*
X125323731Y-137283630D01*
X125223434Y-137130116D01*
X124608949Y-137744602D01*
X124547626Y-137778087D01*
X124477934Y-137773103D01*
X124422001Y-137731231D01*
X124416953Y-137723961D01*
X124381761Y-137669202D01*
X124353432Y-137644655D01*
X124273100Y-137575048D01*
X124273099Y-137575047D01*
X124266398Y-137569241D01*
X124268698Y-137566585D01*
X124233960Y-137526428D01*
X124224074Y-137457261D01*
X124253152Y-137393729D01*
X124259116Y-137387329D01*
X124870056Y-136776389D01*
X124823229Y-136739943D01*
X124604614Y-136621635D01*
X124604603Y-136621630D01*
X124369493Y-136540916D01*
X124124293Y-136500000D01*
X123875707Y-136500000D01*
X123630506Y-136540916D01*
X123395396Y-136621630D01*
X123395390Y-136621632D01*
X123176761Y-136739949D01*
X123129942Y-136776388D01*
X123129942Y-136776390D01*
X123740883Y-137387330D01*
X123774368Y-137448653D01*
X123769384Y-137518344D01*
X123732358Y-137567805D01*
X123733602Y-137569241D01*
X123618238Y-137669202D01*
X123583046Y-137723962D01*
X123530242Y-137769717D01*
X123461083Y-137779660D01*
X123397528Y-137750634D01*
X123391050Y-137744603D01*
X122776564Y-137130116D01*
X122676267Y-137283632D01*
X122576412Y-137511282D01*
X122515387Y-137752261D01*
X122515385Y-137752270D01*
X122494858Y-137999994D01*
X122494858Y-138000005D01*
X120500500Y-138000005D01*
X120500499Y-136952128D01*
X120494091Y-136892517D01*
X120450778Y-136776390D01*
X120443797Y-136757671D01*
X120443793Y-136757664D01*
X120357547Y-136642455D01*
X120357544Y-136642452D01*
X120242335Y-136556206D01*
X120242328Y-136556202D01*
X120107482Y-136505908D01*
X120107483Y-136505908D01*
X120047883Y-136499501D01*
X120047881Y-136499500D01*
X120047873Y-136499500D01*
X120047864Y-136499500D01*
X117952129Y-136499500D01*
X117952123Y-136499501D01*
X117892516Y-136505908D01*
X117757671Y-136556202D01*
X117757664Y-136556206D01*
X117642455Y-136642452D01*
X117642452Y-136642455D01*
X117556206Y-136757664D01*
X117556202Y-136757671D01*
X117505908Y-136892517D01*
X117501085Y-136937384D01*
X117499501Y-136952123D01*
X117499500Y-136952135D01*
X117499500Y-139047870D01*
X109694317Y-139047870D01*
X109259116Y-138612669D01*
X109225631Y-138551346D01*
X109230615Y-138481654D01*
X109267641Y-138432193D01*
X109266398Y-138430759D01*
X109277072Y-138421510D01*
X109381761Y-138330798D01*
X109416954Y-138276037D01*
X109469755Y-138230283D01*
X109538914Y-138220339D01*
X109602470Y-138249363D01*
X109608949Y-138255396D01*
X110223434Y-138869882D01*
X110323731Y-138716369D01*
X110423587Y-138488717D01*
X110484612Y-138247738D01*
X110484614Y-138247729D01*
X110505141Y-138000005D01*
X110505141Y-137999994D01*
X110484614Y-137752270D01*
X110484612Y-137752261D01*
X110423587Y-137511282D01*
X110323731Y-137283630D01*
X110223434Y-137130116D01*
X109608949Y-137744602D01*
X109547626Y-137778087D01*
X109477934Y-137773103D01*
X109422001Y-137731231D01*
X109416953Y-137723961D01*
X109381761Y-137669202D01*
X109353432Y-137644655D01*
X109273100Y-137575048D01*
X109273099Y-137575047D01*
X109266398Y-137569241D01*
X109268698Y-137566585D01*
X109233960Y-137526428D01*
X109224074Y-137457261D01*
X109253152Y-137393729D01*
X109259116Y-137387329D01*
X109870056Y-136776389D01*
X109823229Y-136739943D01*
X109604614Y-136621635D01*
X109604603Y-136621630D01*
X109369493Y-136540916D01*
X109124293Y-136500000D01*
X108875707Y-136500000D01*
X108630506Y-136540916D01*
X108395396Y-136621630D01*
X108395390Y-136621632D01*
X108176761Y-136739949D01*
X108129942Y-136776388D01*
X108129942Y-136776390D01*
X108740883Y-137387330D01*
X108774368Y-137448653D01*
X108769384Y-137518344D01*
X108732358Y-137567805D01*
X108733602Y-137569241D01*
X108618238Y-137669202D01*
X108583046Y-137723962D01*
X108530242Y-137769717D01*
X108461083Y-137779660D01*
X108397528Y-137750634D01*
X108391050Y-137744603D01*
X107776564Y-137130116D01*
X107676267Y-137283632D01*
X107576412Y-137511282D01*
X107515387Y-137752261D01*
X107515385Y-137752270D01*
X107494858Y-137999994D01*
X107494858Y-138000005D01*
X105500500Y-138000005D01*
X105500499Y-136952128D01*
X105494091Y-136892517D01*
X105450778Y-136776390D01*
X105443797Y-136757671D01*
X105443793Y-136757664D01*
X105357547Y-136642455D01*
X105357544Y-136642452D01*
X105242335Y-136556206D01*
X105242328Y-136556202D01*
X105107482Y-136505908D01*
X105107483Y-136505908D01*
X105047883Y-136499501D01*
X105047881Y-136499500D01*
X105047873Y-136499500D01*
X105047864Y-136499500D01*
X102952129Y-136499500D01*
X102952123Y-136499501D01*
X102892516Y-136505908D01*
X102757671Y-136556202D01*
X102757664Y-136556206D01*
X102642455Y-136642452D01*
X102642452Y-136642455D01*
X102556206Y-136757664D01*
X102556202Y-136757671D01*
X102505908Y-136892517D01*
X102501085Y-136937384D01*
X102499501Y-136952123D01*
X102499500Y-136952135D01*
X102499500Y-139047870D01*
X98367538Y-139047870D01*
X98352261Y-139010988D01*
X98227830Y-138807935D01*
X98227829Y-138807934D01*
X98227828Y-138807933D01*
X98227827Y-138807931D01*
X98073160Y-138626840D01*
X97892069Y-138472173D01*
X97892067Y-138472171D01*
X97892065Y-138472170D01*
X97892064Y-138472169D01*
X97689011Y-138347738D01*
X97468983Y-138256600D01*
X97237413Y-138201006D01*
X97237414Y-138201006D01*
X97022174Y-138184067D01*
X97000000Y-138182322D01*
X96999999Y-138182322D01*
X96827749Y-138195878D01*
X96759372Y-138181514D01*
X96709616Y-138132462D01*
X96694277Y-138064297D01*
X96718226Y-137998660D01*
X96730333Y-137984586D01*
X96864319Y-137850600D01*
X96925640Y-137817117D01*
X96961724Y-137814665D01*
X97000000Y-137817678D01*
X97237417Y-137798993D01*
X97468988Y-137743398D01*
X97689011Y-137652261D01*
X97892069Y-137527827D01*
X98073160Y-137373160D01*
X98227827Y-137192069D01*
X98352261Y-136989011D01*
X98443398Y-136768988D01*
X98498993Y-136537417D01*
X98517678Y-136300000D01*
X98498993Y-136062583D01*
X98443398Y-135831012D01*
X98352261Y-135610989D01*
X98352261Y-135610988D01*
X98227830Y-135407935D01*
X98227829Y-135407934D01*
X98227828Y-135407933D01*
X98227827Y-135407931D01*
X98073160Y-135226840D01*
X97892069Y-135072173D01*
X97892067Y-135072171D01*
X97892065Y-135072170D01*
X97892064Y-135072169D01*
X97689011Y-134947738D01*
X97468983Y-134856600D01*
X97237413Y-134801006D01*
X97237414Y-134801006D01*
X97022174Y-134784067D01*
X97000000Y-134782322D01*
X96999999Y-134782322D01*
X96762585Y-134801006D01*
X96531016Y-134856600D01*
X96310988Y-134947738D01*
X96107935Y-135072169D01*
X96107934Y-135072170D01*
X95926840Y-135226840D01*
X95772170Y-135407934D01*
X95772169Y-135407935D01*
X95647738Y-135610988D01*
X95556600Y-135831016D01*
X95501006Y-136062585D01*
X95482322Y-136300000D01*
X95485334Y-136338272D01*
X95470969Y-136406649D01*
X95449397Y-136435681D01*
X94547407Y-137337670D01*
X94486084Y-137371155D01*
X94416392Y-137366171D01*
X94360459Y-137324299D01*
X94353999Y-137314779D01*
X94234224Y-137119326D01*
X93737397Y-137616154D01*
X93676074Y-137649639D01*
X93606382Y-137644655D01*
X93556902Y-137610701D01*
X93450896Y-137491044D01*
X93398522Y-137454893D01*
X93354533Y-137400612D01*
X93346873Y-137331163D01*
X93377976Y-137268598D01*
X93381282Y-137265163D01*
X93880672Y-136765774D01*
X93688783Y-136648184D01*
X93688780Y-136648182D01*
X93468833Y-136557078D01*
X93237342Y-136501502D01*
X93000000Y-136482823D01*
X92762657Y-136501502D01*
X92531166Y-136557078D01*
X92531165Y-136557078D01*
X92311227Y-136648179D01*
X92311224Y-136648181D01*
X92119327Y-136765775D01*
X92618716Y-137265163D01*
X92652201Y-137326486D01*
X92647217Y-137396177D01*
X92605346Y-137452111D01*
X92601476Y-137454893D01*
X92549103Y-137491044D01*
X92443097Y-137610700D01*
X92383908Y-137647827D01*
X92314042Y-137647059D01*
X92262601Y-137616154D01*
X91765775Y-137119327D01*
X91648181Y-137311224D01*
X91648179Y-137311227D01*
X91557078Y-137531165D01*
X91557078Y-137531166D01*
X91501502Y-137762657D01*
X91482823Y-138000000D01*
X91501502Y-138237342D01*
X91557078Y-138468833D01*
X91557078Y-138468834D01*
X91648182Y-138688780D01*
X91648184Y-138688783D01*
X91765774Y-138880672D01*
X92262601Y-138383844D01*
X92323924Y-138350359D01*
X92393615Y-138355343D01*
X92443096Y-138389296D01*
X92549104Y-138508956D01*
X92600878Y-138544693D01*
X92601474Y-138545104D01*
X92645464Y-138599386D01*
X92653124Y-138668835D01*
X92622021Y-138731400D01*
X92618715Y-138734835D01*
X92119326Y-139234224D01*
X92311216Y-139351815D01*
X92311219Y-139351817D01*
X92531166Y-139442921D01*
X92762657Y-139498497D01*
X93000000Y-139517176D01*
X93237342Y-139498497D01*
X93468831Y-139442921D01*
X93626047Y-139377801D01*
X93695517Y-139370332D01*
X93757996Y-139401607D01*
X93793648Y-139461696D01*
X93797500Y-139492362D01*
X93797500Y-139763000D01*
X93777815Y-139830039D01*
X93725011Y-139875794D01*
X93673500Y-139887000D01*
X91939629Y-139887000D01*
X91939623Y-139887001D01*
X91880016Y-139893408D01*
X91745171Y-139943702D01*
X91745164Y-139943706D01*
X91629955Y-140029952D01*
X91629952Y-140029955D01*
X91543706Y-140145164D01*
X91543702Y-140145171D01*
X91493408Y-140280017D01*
X91487001Y-140339616D01*
X91487000Y-140339635D01*
X91487000Y-142460370D01*
X91487001Y-142460376D01*
X91493408Y-142519983D01*
X91543702Y-142654828D01*
X91543706Y-142654835D01*
X91629952Y-142770044D01*
X91629955Y-142770047D01*
X91745164Y-142856293D01*
X91745171Y-142856297D01*
X91880017Y-142906591D01*
X91880016Y-142906591D01*
X91886944Y-142907335D01*
X91939627Y-142913000D01*
X93673500Y-142912999D01*
X93740539Y-142932684D01*
X93786294Y-142985487D01*
X93797500Y-143036999D01*
X93797500Y-147036216D01*
X93777815Y-147103255D01*
X93761181Y-147123897D01*
X91211966Y-149673111D01*
X91150643Y-149706596D01*
X91135095Y-149708958D01*
X91073307Y-149714365D01*
X90853511Y-149773258D01*
X90853502Y-149773261D01*
X90647267Y-149869431D01*
X90647265Y-149869432D01*
X90460858Y-149999954D01*
X90299954Y-150160858D01*
X90169432Y-150347265D01*
X90169431Y-150347267D01*
X90073261Y-150553502D01*
X90073258Y-150553511D01*
X90014366Y-150773302D01*
X90014364Y-150773313D01*
X89994532Y-150999998D01*
X89994532Y-151000001D01*
X67000500Y-151000001D01*
X67000500Y-134599999D01*
X91482823Y-134599999D01*
X91501502Y-134837342D01*
X91557078Y-135068833D01*
X91557078Y-135068834D01*
X91648182Y-135288780D01*
X91648184Y-135288783D01*
X91765774Y-135480672D01*
X92262601Y-134983844D01*
X92323924Y-134950359D01*
X92393615Y-134955343D01*
X92443096Y-134989296D01*
X92525441Y-135082246D01*
X92549104Y-135108956D01*
X92601474Y-135145104D01*
X92645464Y-135199386D01*
X92653124Y-135268835D01*
X92622021Y-135331400D01*
X92618715Y-135334835D01*
X92119326Y-135834224D01*
X92311216Y-135951815D01*
X92311219Y-135951817D01*
X92531166Y-136042921D01*
X92762657Y-136098497D01*
X92999999Y-136117176D01*
X93237342Y-136098497D01*
X93468833Y-136042921D01*
X93468834Y-136042921D01*
X93688780Y-135951817D01*
X93688783Y-135951815D01*
X93880672Y-135834225D01*
X93880672Y-135834224D01*
X93381283Y-135334836D01*
X93347798Y-135273513D01*
X93352782Y-135203822D01*
X93394653Y-135147888D01*
X93398493Y-135145126D01*
X93450896Y-135108956D01*
X93556902Y-134989297D01*
X93616090Y-134952173D01*
X93685956Y-134952940D01*
X93737398Y-134983845D01*
X94234224Y-135480672D01*
X94234225Y-135480672D01*
X94351815Y-135288783D01*
X94351817Y-135288780D01*
X94442921Y-135068834D01*
X94442921Y-135068833D01*
X94498497Y-134837342D01*
X94517176Y-134599999D01*
X94504978Y-134445001D01*
X137994390Y-134445001D01*
X138014804Y-134730433D01*
X138075628Y-135010037D01*
X138075630Y-135010043D01*
X138075631Y-135010046D01*
X138174454Y-135275000D01*
X138175635Y-135278166D01*
X138312770Y-135529309D01*
X138312775Y-135529317D01*
X138484254Y-135758387D01*
X138484270Y-135758405D01*
X138686594Y-135960729D01*
X138686612Y-135960745D01*
X138915682Y-136132224D01*
X138915690Y-136132229D01*
X139166833Y-136269364D01*
X139166832Y-136269364D01*
X139166836Y-136269365D01*
X139166839Y-136269367D01*
X139434954Y-136369369D01*
X139434960Y-136369370D01*
X139434962Y-136369371D01*
X139714566Y-136430195D01*
X139714568Y-136430195D01*
X139714572Y-136430196D01*
X139968220Y-136448337D01*
X139999999Y-136450610D01*
X140000000Y-136450610D01*
X140000001Y-136450610D01*
X140028595Y-136448564D01*
X140285428Y-136430196D01*
X140565046Y-136369369D01*
X140833161Y-136269367D01*
X141084315Y-136132226D01*
X141313395Y-135960739D01*
X141515739Y-135758395D01*
X141687226Y-135529315D01*
X141824367Y-135278161D01*
X141924369Y-135010046D01*
X141936792Y-134952940D01*
X141985195Y-134730433D01*
X141985195Y-134730432D01*
X141985196Y-134730428D01*
X142005610Y-134445000D01*
X141985196Y-134159572D01*
X141979016Y-134131165D01*
X141924371Y-133879962D01*
X141924370Y-133879960D01*
X141924369Y-133879954D01*
X141824367Y-133611839D01*
X141690005Y-133365775D01*
X141687229Y-133360690D01*
X141687224Y-133360682D01*
X141515745Y-133131612D01*
X141515729Y-133131594D01*
X141313405Y-132929270D01*
X141313387Y-132929254D01*
X141084317Y-132757775D01*
X141084309Y-132757770D01*
X140833166Y-132620635D01*
X140833167Y-132620635D01*
X140725914Y-132580632D01*
X140565046Y-132520631D01*
X140565043Y-132520630D01*
X140565037Y-132520628D01*
X140285433Y-132459804D01*
X140000001Y-132439390D01*
X139999999Y-132439390D01*
X139714566Y-132459804D01*
X139434962Y-132520628D01*
X139166833Y-132620635D01*
X138915690Y-132757770D01*
X138915682Y-132757775D01*
X138686612Y-132929254D01*
X138686594Y-132929270D01*
X138484270Y-133131594D01*
X138484254Y-133131612D01*
X138312775Y-133360682D01*
X138312770Y-133360690D01*
X138175635Y-133611833D01*
X138075628Y-133879962D01*
X138014804Y-134159566D01*
X137994390Y-134444998D01*
X137994390Y-134445001D01*
X94504978Y-134445001D01*
X94498497Y-134362657D01*
X94442921Y-134131166D01*
X94442921Y-134131165D01*
X94351817Y-133911219D01*
X94351815Y-133911216D01*
X94234224Y-133719326D01*
X93737397Y-134216154D01*
X93676074Y-134249639D01*
X93606382Y-134244655D01*
X93556902Y-134210701D01*
X93450896Y-134091044D01*
X93398522Y-134054893D01*
X93354533Y-134000612D01*
X93346873Y-133931163D01*
X93377976Y-133868598D01*
X93381282Y-133865163D01*
X93880672Y-133365774D01*
X93688783Y-133248184D01*
X93688780Y-133248182D01*
X93468833Y-133157078D01*
X93237342Y-133101502D01*
X92999999Y-133082823D01*
X92762657Y-133101502D01*
X92531166Y-133157078D01*
X92531165Y-133157078D01*
X92311227Y-133248179D01*
X92311224Y-133248181D01*
X92119327Y-133365775D01*
X92618716Y-133865163D01*
X92652201Y-133926486D01*
X92647217Y-133996177D01*
X92605346Y-134052111D01*
X92601476Y-134054893D01*
X92549103Y-134091044D01*
X92443097Y-134210700D01*
X92383908Y-134247827D01*
X92314042Y-134247059D01*
X92262601Y-134216154D01*
X91765775Y-133719327D01*
X91648181Y-133911224D01*
X91648179Y-133911227D01*
X91557078Y-134131165D01*
X91557078Y-134131166D01*
X91501502Y-134362657D01*
X91482823Y-134599999D01*
X67000500Y-134599999D01*
X67000500Y-120999999D01*
X91482823Y-120999999D01*
X91501502Y-121237342D01*
X91557078Y-121468833D01*
X91557078Y-121468834D01*
X91648182Y-121688780D01*
X91648184Y-121688783D01*
X91765774Y-121880672D01*
X92262601Y-121383844D01*
X92323924Y-121350359D01*
X92393615Y-121355343D01*
X92443096Y-121389296D01*
X92524917Y-121481654D01*
X92549104Y-121508956D01*
X92601474Y-121545104D01*
X92645464Y-121599386D01*
X92653124Y-121668835D01*
X92622021Y-121731400D01*
X92618715Y-121734835D01*
X92119326Y-122234224D01*
X92311216Y-122351815D01*
X92311219Y-122351817D01*
X92531166Y-122442921D01*
X92762657Y-122498497D01*
X92999999Y-122517176D01*
X93172792Y-122503577D01*
X93241169Y-122517941D01*
X93290926Y-122566992D01*
X93306265Y-122635157D01*
X93282316Y-122700794D01*
X93270202Y-122714876D01*
X93134397Y-122850681D01*
X93073074Y-122884166D01*
X93046716Y-122887000D01*
X91939629Y-122887000D01*
X91939623Y-122887001D01*
X91880016Y-122893408D01*
X91745171Y-122943702D01*
X91745164Y-122943706D01*
X91629955Y-123029952D01*
X91629952Y-123029955D01*
X91543706Y-123145164D01*
X91543702Y-123145171D01*
X91493408Y-123280017D01*
X91487001Y-123339616D01*
X91487000Y-123339635D01*
X91487000Y-125460370D01*
X91487001Y-125460376D01*
X91493408Y-125519983D01*
X91543702Y-125654828D01*
X91543706Y-125654835D01*
X91629952Y-125770044D01*
X91629955Y-125770047D01*
X91745164Y-125856293D01*
X91745171Y-125856297D01*
X91880017Y-125906591D01*
X91880016Y-125906591D01*
X91886944Y-125907335D01*
X91939627Y-125913000D01*
X94060372Y-125912999D01*
X94119983Y-125906591D01*
X94254831Y-125856296D01*
X94370046Y-125770046D01*
X94456296Y-125654831D01*
X94506591Y-125519983D01*
X94513000Y-125460373D01*
X94512999Y-124353281D01*
X94532684Y-124286243D01*
X94549313Y-124265605D01*
X95452230Y-123362688D01*
X95513551Y-123329205D01*
X95583242Y-123334189D01*
X95639176Y-123376061D01*
X95645636Y-123385581D01*
X95772169Y-123592063D01*
X95772170Y-123592065D01*
X95772171Y-123592067D01*
X95772173Y-123592069D01*
X95926840Y-123773160D01*
X96107931Y-123927827D01*
X96107933Y-123927828D01*
X96107934Y-123927829D01*
X96107935Y-123927830D01*
X96310988Y-124052261D01*
X96396078Y-124087506D01*
X96531012Y-124143398D01*
X96762583Y-124198993D01*
X97000000Y-124217678D01*
X97237417Y-124198993D01*
X97468988Y-124143398D01*
X97689011Y-124052261D01*
X97892069Y-123927827D01*
X98015613Y-123822309D01*
X98079375Y-123793739D01*
X98096145Y-123792600D01*
X113616084Y-123792600D01*
X113705158Y-123794857D01*
X113705158Y-123794856D01*
X113705163Y-123794857D01*
X113765553Y-123784032D01*
X113770212Y-123783380D01*
X113812407Y-123779088D01*
X113831238Y-123777174D01*
X113864027Y-123766886D01*
X113871640Y-123765018D01*
X113905453Y-123758958D01*
X113962421Y-123736201D01*
X113966853Y-123734624D01*
X114025388Y-123716259D01*
X114055427Y-123699584D01*
X114062508Y-123696222D01*
X114094417Y-123683477D01*
X114145654Y-123649708D01*
X114149651Y-123647287D01*
X114203302Y-123617509D01*
X114229368Y-123595130D01*
X114235643Y-123590400D01*
X114264319Y-123571502D01*
X114307717Y-123528102D01*
X114311136Y-123524934D01*
X114357695Y-123484966D01*
X114378731Y-123457788D01*
X114383901Y-123451918D01*
X117287821Y-120547998D01*
X117349142Y-120514515D01*
X117418834Y-120519499D01*
X117474767Y-120561371D01*
X117499184Y-120626835D01*
X117499500Y-120635681D01*
X117499500Y-122047870D01*
X117499501Y-122047876D01*
X117505908Y-122107483D01*
X117556202Y-122242328D01*
X117556206Y-122242335D01*
X117642452Y-122357544D01*
X117642455Y-122357547D01*
X117757664Y-122443793D01*
X117757671Y-122443797D01*
X117892517Y-122494091D01*
X117892516Y-122494091D01*
X117899444Y-122494835D01*
X117952127Y-122500500D01*
X120047872Y-122500499D01*
X120107483Y-122494091D01*
X120242331Y-122443796D01*
X120357546Y-122357546D01*
X120443796Y-122242331D01*
X120480578Y-122143711D01*
X120522450Y-122087777D01*
X120587914Y-122063360D01*
X120656187Y-122078211D01*
X120684442Y-122099362D01*
X125896466Y-127311387D01*
X125957841Y-127375953D01*
X125957844Y-127375955D01*
X125957847Y-127375958D01*
X125988777Y-127397484D01*
X126008195Y-127411000D01*
X126011950Y-127413832D01*
X126059493Y-127452598D01*
X126089945Y-127468504D01*
X126096656Y-127472571D01*
X126124851Y-127492195D01*
X126181232Y-127516390D01*
X126185467Y-127518401D01*
X126239851Y-127546809D01*
X126272873Y-127556256D01*
X126280265Y-127558889D01*
X126311840Y-127572439D01*
X126311841Y-127572440D01*
X126324954Y-127575134D01*
X126371955Y-127584792D01*
X126376495Y-127585906D01*
X126435482Y-127602786D01*
X126469741Y-127605394D01*
X126477509Y-127606485D01*
X126511155Y-127613400D01*
X126511159Y-127613400D01*
X126572501Y-127613400D01*
X126577208Y-127613578D01*
X126613551Y-127616346D01*
X126638375Y-127618237D01*
X126638375Y-127618236D01*
X126638376Y-127618237D01*
X126672459Y-127613896D01*
X126680289Y-127613400D01*
X155339017Y-127613400D01*
X155406056Y-127633085D01*
X155426698Y-127649719D01*
X159300509Y-131523530D01*
X159333994Y-131584853D01*
X159329010Y-131654545D01*
X159287138Y-131710478D01*
X159221674Y-131734895D01*
X159200283Y-131734575D01*
X159076622Y-131722000D01*
X159076621Y-131722000D01*
X158697379Y-131722000D01*
X158697378Y-131722000D01*
X158320088Y-131760366D01*
X157948601Y-131836709D01*
X157948595Y-131836710D01*
X157586765Y-131950235D01*
X157238250Y-132099794D01*
X156906666Y-132283838D01*
X156906661Y-132283841D01*
X156595392Y-132500491D01*
X156307642Y-132747516D01*
X156046353Y-133022393D01*
X155814225Y-133322278D01*
X155613616Y-133644124D01*
X155446604Y-133984600D01*
X155446598Y-133984615D01*
X155314891Y-134340234D01*
X155219830Y-134707382D01*
X155162402Y-135082246D01*
X155143195Y-135460999D01*
X155162402Y-135839753D01*
X155219830Y-136214617D01*
X155219831Y-136214622D01*
X155269550Y-136406649D01*
X155314891Y-136581765D01*
X155446598Y-136937384D01*
X155446604Y-136937399D01*
X155613616Y-137277875D01*
X155681840Y-137387330D01*
X155814222Y-137599717D01*
X155814224Y-137599720D01*
X155814225Y-137599721D01*
X156005587Y-137846941D01*
X156046358Y-137899612D01*
X156267698Y-138132462D01*
X156307642Y-138174483D01*
X156595392Y-138421508D01*
X156595395Y-138421510D01*
X156906662Y-138638159D01*
X157238250Y-138822205D01*
X157586757Y-138971761D01*
X157586760Y-138971762D01*
X157586765Y-138971764D01*
X157948595Y-139085289D01*
X157948598Y-139085289D01*
X157948606Y-139085292D01*
X158320084Y-139161633D01*
X158621920Y-139192326D01*
X158697378Y-139200000D01*
X158697379Y-139200000D01*
X159076622Y-139200000D01*
X159139503Y-139193605D01*
X159453916Y-139161633D01*
X159825394Y-139085292D01*
X159825404Y-139085289D01*
X160187234Y-138971764D01*
X160187235Y-138971763D01*
X160187243Y-138971761D01*
X160535750Y-138822205D01*
X160867338Y-138638159D01*
X161178605Y-138421510D01*
X161466358Y-138174483D01*
X161727642Y-137899612D01*
X161959778Y-137599717D01*
X162160383Y-137277876D01*
X162327399Y-136937391D01*
X162459111Y-136581757D01*
X162554169Y-136214622D01*
X162611597Y-135839754D01*
X162630805Y-135461000D01*
X162614687Y-135143189D01*
X162630951Y-135075241D01*
X162681370Y-135026870D01*
X162749936Y-135013437D01*
X162814880Y-135039205D01*
X162826209Y-135049230D01*
X167035581Y-139258602D01*
X167069066Y-139319925D01*
X167071900Y-139346283D01*
X167071900Y-140895070D01*
X167071820Y-140898210D01*
X167068031Y-140972935D01*
X167068031Y-140972936D01*
X167079357Y-141046877D01*
X167079754Y-141049991D01*
X167087325Y-141124437D01*
X167087326Y-141124440D01*
X167092149Y-141139814D01*
X167096403Y-141158147D01*
X167098842Y-141174064D01*
X167098843Y-141174068D01*
X167124827Y-141244232D01*
X167125841Y-141247198D01*
X167148241Y-141318588D01*
X167148242Y-141318589D01*
X167148243Y-141318592D01*
X167156057Y-141332670D01*
X167163917Y-141349777D01*
X167169511Y-141364881D01*
X167169514Y-141364887D01*
X167209094Y-141428390D01*
X167210688Y-141431096D01*
X167246992Y-141496503D01*
X167246993Y-141496504D01*
X167257478Y-141508718D01*
X167268622Y-141523894D01*
X167277145Y-141537567D01*
X167277145Y-141537568D01*
X167277148Y-141537571D01*
X167328715Y-141591819D01*
X167330792Y-141594118D01*
X167351302Y-141618010D01*
X167379532Y-141650894D01*
X167379533Y-141650895D01*
X167392269Y-141660753D01*
X167406244Y-141673379D01*
X167417340Y-141685052D01*
X167478740Y-141727789D01*
X167481273Y-141729648D01*
X167502902Y-141746390D01*
X167540442Y-141775448D01*
X167554915Y-141782547D01*
X167571126Y-141792090D01*
X167584351Y-141801295D01*
X167584356Y-141801297D01*
X167653096Y-141830796D01*
X167655952Y-141832108D01*
X167723124Y-141865058D01*
X167723126Y-141865058D01*
X167723129Y-141865060D01*
X167738716Y-141869095D01*
X167756528Y-141875182D01*
X167771342Y-141881540D01*
X167844665Y-141896607D01*
X167847660Y-141897302D01*
X167920111Y-141916062D01*
X167920115Y-141916063D01*
X167936207Y-141916879D01*
X167954880Y-141919257D01*
X167963813Y-141921093D01*
X167970658Y-141922500D01*
X167970659Y-141922500D01*
X168045471Y-141922500D01*
X168048611Y-141922580D01*
X168075242Y-141923930D01*
X168123336Y-141926369D01*
X168139256Y-141923930D01*
X168158033Y-141922500D01*
X168752849Y-141922500D01*
X168819888Y-141942185D01*
X168855649Y-141977160D01*
X169007841Y-142202793D01*
X169007854Y-142202809D01*
X169202050Y-142418487D01*
X169202057Y-142418494D01*
X169424384Y-142605049D01*
X169424388Y-142605052D01*
X169424390Y-142605053D01*
X169479211Y-142639309D01*
X169670519Y-142758852D01*
X169670521Y-142758852D01*
X169670526Y-142758856D01*
X169935672Y-142876906D01*
X169935676Y-142876907D01*
X169935678Y-142876908D01*
X170061546Y-142913000D01*
X170214667Y-142956907D01*
X170214671Y-142956907D01*
X170214677Y-142956909D01*
X170380195Y-142980170D01*
X170502078Y-142997299D01*
X170502079Y-142997300D01*
X170502081Y-142997300D01*
X173869278Y-142997300D01*
X173901916Y-142995017D01*
X174086331Y-142982122D01*
X174086336Y-142982121D01*
X174086338Y-142982121D01*
X174228279Y-142951950D01*
X174370227Y-142921778D01*
X174642962Y-142822511D01*
X174899227Y-142686252D01*
X175134035Y-142515654D01*
X175342815Y-142314038D01*
X175521503Y-142085327D01*
X175666622Y-141833973D01*
X175775348Y-141564869D01*
X175845563Y-141283252D01*
X175875901Y-140994604D01*
X175875144Y-140972936D01*
X175865772Y-140704545D01*
X175865772Y-140704542D01*
X175815372Y-140418713D01*
X175725684Y-140142680D01*
X175675248Y-140039270D01*
X175598456Y-139881823D01*
X175598446Y-139881806D01*
X175436158Y-139641206D01*
X175436145Y-139641190D01*
X175241949Y-139425512D01*
X175241942Y-139425505D01*
X175019615Y-139238950D01*
X174773480Y-139085147D01*
X174773475Y-139085145D01*
X174773474Y-139085144D01*
X174508328Y-138967094D01*
X174508327Y-138967093D01*
X174508321Y-138967091D01*
X174229342Y-138887095D01*
X174229322Y-138887090D01*
X173941922Y-138846700D01*
X173941919Y-138846700D01*
X170574724Y-138846700D01*
X170574722Y-138846700D01*
X170357665Y-138861878D01*
X170357661Y-138861878D01*
X170073779Y-138922220D01*
X170073771Y-138922222D01*
X169801046Y-139021485D01*
X169801037Y-139021489D01*
X169544778Y-139157744D01*
X169544771Y-139157749D01*
X169309972Y-139328339D01*
X169309957Y-139328351D01*
X169283037Y-139354349D01*
X169221139Y-139386759D01*
X169151545Y-139380559D01*
X169096351Y-139337717D01*
X169073080Y-139271837D01*
X169072900Y-139265151D01*
X169072900Y-138893175D01*
X169075156Y-138804142D01*
X169075155Y-138804141D01*
X169075156Y-138804136D01*
X169064329Y-138743733D01*
X169063682Y-138739120D01*
X169057474Y-138678062D01*
X169057473Y-138678060D01*
X169057473Y-138678057D01*
X169047190Y-138645287D01*
X169045317Y-138637654D01*
X169039258Y-138603848D01*
X169016502Y-138546878D01*
X169014921Y-138542437D01*
X169010227Y-138527476D01*
X168996559Y-138483912D01*
X168996558Y-138483910D01*
X168996557Y-138483907D01*
X168979888Y-138453878D01*
X168976517Y-138446778D01*
X168963778Y-138414886D01*
X168963777Y-138414883D01*
X168930020Y-138363663D01*
X168927580Y-138359634D01*
X168911574Y-138330798D01*
X168897809Y-138305998D01*
X168897807Y-138305995D01*
X168875433Y-138279934D01*
X168870702Y-138273659D01*
X168851802Y-138244981D01*
X168808412Y-138201591D01*
X168805222Y-138198148D01*
X168765267Y-138151606D01*
X168765263Y-138151602D01*
X168738098Y-138130574D01*
X168732203Y-138125382D01*
X156521252Y-125914432D01*
X156459861Y-125849849D01*
X156459860Y-125849848D01*
X156459859Y-125849847D01*
X156432004Y-125830459D01*
X156409509Y-125814802D01*
X156405746Y-125811964D01*
X156358213Y-125773205D01*
X156358206Y-125773200D01*
X156327759Y-125757297D01*
X156321051Y-125753234D01*
X156292849Y-125733605D01*
X156292846Y-125733603D01*
X156292845Y-125733603D01*
X156292841Y-125733601D01*
X156236480Y-125709414D01*
X156232224Y-125707393D01*
X156177857Y-125678994D01*
X156177850Y-125678991D01*
X156177849Y-125678991D01*
X156171808Y-125677262D01*
X156144830Y-125669542D01*
X156137430Y-125666908D01*
X156105857Y-125653359D01*
X156105858Y-125653359D01*
X156045766Y-125641009D01*
X156041191Y-125639886D01*
X155982220Y-125623013D01*
X155982225Y-125623013D01*
X155947958Y-125620403D01*
X155940180Y-125619312D01*
X155906542Y-125612400D01*
X155906541Y-125612400D01*
X155845202Y-125612400D01*
X155840495Y-125612221D01*
X155834921Y-125611796D01*
X155779324Y-125607562D01*
X155759389Y-125610101D01*
X155745240Y-125611903D01*
X155737411Y-125612400D01*
X141621972Y-125612400D01*
X141554933Y-125592715D01*
X141509178Y-125539911D01*
X141499234Y-125470753D01*
X141522705Y-125414090D01*
X141592439Y-125320934D01*
X141687226Y-125194315D01*
X141824367Y-124943161D01*
X141924369Y-124675046D01*
X141985196Y-124395428D01*
X142005610Y-124110000D01*
X141985196Y-123824572D01*
X141985194Y-123824564D01*
X141924371Y-123544962D01*
X141924370Y-123544960D01*
X141924369Y-123544954D01*
X141824367Y-123276839D01*
X141752469Y-123145169D01*
X141687229Y-123025690D01*
X141687224Y-123025682D01*
X141515745Y-122796612D01*
X141515729Y-122796594D01*
X141313405Y-122594270D01*
X141313387Y-122594254D01*
X141084317Y-122422775D01*
X141084309Y-122422770D01*
X140833166Y-122285635D01*
X140833167Y-122285635D01*
X140717056Y-122242328D01*
X140565046Y-122185631D01*
X140565043Y-122185630D01*
X140565037Y-122185628D01*
X140285433Y-122124804D01*
X140000001Y-122104390D01*
X139999999Y-122104390D01*
X139714571Y-122124804D01*
X139714564Y-122124805D01*
X139546779Y-122161304D01*
X139477087Y-122156320D01*
X139432740Y-122127819D01*
X135846852Y-118541932D01*
X135785461Y-118477349D01*
X135785460Y-118477348D01*
X135785459Y-118477347D01*
X135747982Y-118451262D01*
X135735109Y-118442302D01*
X135731346Y-118439464D01*
X135683813Y-118400705D01*
X135683806Y-118400700D01*
X135653359Y-118384797D01*
X135646651Y-118380734D01*
X135618449Y-118361105D01*
X135618446Y-118361103D01*
X135618445Y-118361103D01*
X135618441Y-118361101D01*
X135562080Y-118336914D01*
X135557824Y-118334893D01*
X135503457Y-118306494D01*
X135503450Y-118306491D01*
X135503449Y-118306491D01*
X135497408Y-118304762D01*
X135470430Y-118297042D01*
X135463030Y-118294408D01*
X135431457Y-118280859D01*
X135431458Y-118280859D01*
X135371366Y-118268509D01*
X135366791Y-118267386D01*
X135307820Y-118250513D01*
X135307825Y-118250513D01*
X135273558Y-118247903D01*
X135265780Y-118246812D01*
X135232142Y-118239900D01*
X135232141Y-118239900D01*
X135170802Y-118239900D01*
X135166095Y-118239721D01*
X135160521Y-118239296D01*
X135104924Y-118235062D01*
X135084989Y-118237601D01*
X135070840Y-118239403D01*
X135063011Y-118239900D01*
X117193176Y-118239900D01*
X117148655Y-118238772D01*
X117104136Y-118237644D01*
X117104135Y-118237644D01*
X117104126Y-118237644D01*
X117043763Y-118248464D01*
X117039097Y-118249118D01*
X116978064Y-118255325D01*
X116945280Y-118265610D01*
X116937653Y-118267482D01*
X116903849Y-118273541D01*
X116846881Y-118296295D01*
X116842445Y-118297874D01*
X116783914Y-118316240D01*
X116783910Y-118316242D01*
X116753878Y-118332910D01*
X116746784Y-118336279D01*
X116714882Y-118349023D01*
X116714877Y-118349025D01*
X116663656Y-118382781D01*
X116659628Y-118385222D01*
X116606001Y-118414988D01*
X116579934Y-118437365D01*
X116573665Y-118442092D01*
X116544984Y-118460995D01*
X116544978Y-118461000D01*
X116501609Y-118504368D01*
X116498155Y-118507569D01*
X116451602Y-118547536D01*
X116430576Y-118574698D01*
X116425385Y-118580592D01*
X113250699Y-121755281D01*
X113189376Y-121788766D01*
X113163018Y-121791600D01*
X110480528Y-121791600D01*
X110413489Y-121771915D01*
X110367734Y-121719111D01*
X110357790Y-121649953D01*
X110366972Y-121617790D01*
X110423588Y-121488717D01*
X110484612Y-121247738D01*
X110484614Y-121247729D01*
X110505141Y-121000005D01*
X110505141Y-120999994D01*
X110484614Y-120752270D01*
X110484612Y-120752261D01*
X110423587Y-120511282D01*
X110323731Y-120283630D01*
X110223434Y-120130116D01*
X109608949Y-120744602D01*
X109547626Y-120778087D01*
X109477934Y-120773103D01*
X109422001Y-120731231D01*
X109416953Y-120723961D01*
X109381761Y-120669202D01*
X109332866Y-120626835D01*
X109273100Y-120575048D01*
X109273099Y-120575047D01*
X109266398Y-120569241D01*
X109268698Y-120566585D01*
X109233960Y-120526428D01*
X109224074Y-120457261D01*
X109253152Y-120393729D01*
X109259116Y-120387329D01*
X109870056Y-119776389D01*
X109823229Y-119739943D01*
X109604614Y-119621635D01*
X109604603Y-119621630D01*
X109369493Y-119540916D01*
X109124293Y-119500000D01*
X108875707Y-119500000D01*
X108630506Y-119540916D01*
X108395396Y-119621630D01*
X108395390Y-119621632D01*
X108176761Y-119739949D01*
X108129942Y-119776388D01*
X108129942Y-119776390D01*
X108740883Y-120387330D01*
X108774368Y-120448653D01*
X108769384Y-120518344D01*
X108732358Y-120567805D01*
X108733602Y-120569241D01*
X108618238Y-120669202D01*
X108583046Y-120723962D01*
X108530242Y-120769717D01*
X108461083Y-120779660D01*
X108397528Y-120750634D01*
X108391050Y-120744603D01*
X107776564Y-120130116D01*
X107676267Y-120283632D01*
X107576412Y-120511282D01*
X107515387Y-120752261D01*
X107515385Y-120752270D01*
X107494858Y-120999994D01*
X107494858Y-121000005D01*
X107515385Y-121247729D01*
X107515387Y-121247738D01*
X107576411Y-121488717D01*
X107633028Y-121617790D01*
X107641931Y-121687090D01*
X107611954Y-121750202D01*
X107552614Y-121787089D01*
X107519472Y-121791600D01*
X105624500Y-121791600D01*
X105557461Y-121771915D01*
X105511706Y-121719111D01*
X105500500Y-121667600D01*
X105500499Y-119952129D01*
X105500498Y-119952123D01*
X105497237Y-119921788D01*
X105494091Y-119892517D01*
X105489845Y-119881134D01*
X105443797Y-119757671D01*
X105443793Y-119757664D01*
X105357547Y-119642455D01*
X105357544Y-119642452D01*
X105242335Y-119556206D01*
X105242328Y-119556202D01*
X105107482Y-119505908D01*
X105107483Y-119505908D01*
X105047883Y-119499501D01*
X105047881Y-119499500D01*
X105047873Y-119499500D01*
X105047864Y-119499500D01*
X102952129Y-119499500D01*
X102952123Y-119499501D01*
X102892516Y-119505908D01*
X102757671Y-119556202D01*
X102757664Y-119556206D01*
X102642455Y-119642452D01*
X102642452Y-119642455D01*
X102556206Y-119757664D01*
X102556203Y-119757669D01*
X102519420Y-119856290D01*
X102477548Y-119912223D01*
X102412084Y-119936640D01*
X102343811Y-119921788D01*
X102315557Y-119900637D01*
X99246752Y-116831832D01*
X99185361Y-116767249D01*
X99185360Y-116767248D01*
X99185359Y-116767247D01*
X99157504Y-116747859D01*
X99135009Y-116732202D01*
X99131246Y-116729364D01*
X99083713Y-116690605D01*
X99083706Y-116690600D01*
X99053259Y-116674697D01*
X99046551Y-116670634D01*
X99018349Y-116651005D01*
X99018346Y-116651003D01*
X99018345Y-116651003D01*
X99018341Y-116651001D01*
X98961980Y-116626814D01*
X98957724Y-116624793D01*
X98903357Y-116596394D01*
X98903350Y-116596391D01*
X98903349Y-116596391D01*
X98897308Y-116594662D01*
X98870330Y-116586942D01*
X98862930Y-116584308D01*
X98831357Y-116570759D01*
X98831358Y-116570759D01*
X98771266Y-116558409D01*
X98766691Y-116557286D01*
X98707720Y-116540413D01*
X98707725Y-116540413D01*
X98673458Y-116537803D01*
X98665680Y-116536712D01*
X98632042Y-116529800D01*
X98632041Y-116529800D01*
X98570702Y-116529800D01*
X98565995Y-116529621D01*
X98560421Y-116529196D01*
X98504824Y-116524962D01*
X98484889Y-116527501D01*
X98470740Y-116529303D01*
X98462911Y-116529800D01*
X96263477Y-116529800D01*
X96174437Y-116527544D01*
X96174426Y-116527545D01*
X96114071Y-116538362D01*
X96109407Y-116539016D01*
X96048363Y-116545225D01*
X96048355Y-116545227D01*
X96015581Y-116555510D01*
X96007953Y-116557382D01*
X95974149Y-116563441D01*
X95917181Y-116586195D01*
X95912745Y-116587774D01*
X95854214Y-116606140D01*
X95854210Y-116606142D01*
X95824178Y-116622810D01*
X95817084Y-116626179D01*
X95785182Y-116638923D01*
X95785177Y-116638925D01*
X95733956Y-116672681D01*
X95729928Y-116675122D01*
X95676301Y-116704888D01*
X95650234Y-116727265D01*
X95643965Y-116731992D01*
X95615284Y-116750895D01*
X95615278Y-116750900D01*
X95571909Y-116794268D01*
X95568455Y-116797469D01*
X95521902Y-116837436D01*
X95500876Y-116864598D01*
X95495685Y-116870492D01*
X94725539Y-117640638D01*
X94664216Y-117674123D01*
X94594524Y-117669139D01*
X94538591Y-117627267D01*
X94514240Y-117562686D01*
X94498497Y-117362657D01*
X94442921Y-117131166D01*
X94442921Y-117131165D01*
X94351817Y-116911219D01*
X94351815Y-116911216D01*
X94234224Y-116719326D01*
X93737397Y-117216154D01*
X93676074Y-117249639D01*
X93606382Y-117244655D01*
X93556902Y-117210701D01*
X93450896Y-117091044D01*
X93398522Y-117054893D01*
X93354533Y-117000612D01*
X93346873Y-116931163D01*
X93377976Y-116868598D01*
X93381282Y-116865163D01*
X93880672Y-116365774D01*
X93688783Y-116248184D01*
X93688780Y-116248182D01*
X93468833Y-116157078D01*
X93237342Y-116101502D01*
X92999999Y-116082823D01*
X92762657Y-116101502D01*
X92531166Y-116157078D01*
X92531165Y-116157078D01*
X92311227Y-116248179D01*
X92311224Y-116248181D01*
X92119327Y-116365775D01*
X92618716Y-116865163D01*
X92652201Y-116926486D01*
X92647217Y-116996177D01*
X92605346Y-117052111D01*
X92601476Y-117054893D01*
X92549103Y-117091044D01*
X92443097Y-117210700D01*
X92383908Y-117247827D01*
X92314042Y-117247059D01*
X92262601Y-117216154D01*
X91765775Y-116719327D01*
X91648181Y-116911224D01*
X91648179Y-116911227D01*
X91557078Y-117131165D01*
X91557078Y-117131166D01*
X91501502Y-117362657D01*
X91482823Y-117600000D01*
X91501502Y-117837342D01*
X91557078Y-118068833D01*
X91557078Y-118068834D01*
X91648182Y-118288780D01*
X91648184Y-118288783D01*
X91765774Y-118480672D01*
X92262601Y-117983844D01*
X92323924Y-117950359D01*
X92393615Y-117955343D01*
X92443096Y-117989296D01*
X92515503Y-118071028D01*
X92549104Y-118108956D01*
X92601474Y-118145104D01*
X92645464Y-118199386D01*
X92653124Y-118268835D01*
X92622021Y-118331400D01*
X92618715Y-118334835D01*
X92119326Y-118834224D01*
X92311216Y-118951815D01*
X92311219Y-118951817D01*
X92531166Y-119042921D01*
X92762657Y-119098497D01*
X93000000Y-119117176D01*
X93237342Y-119098497D01*
X93468833Y-119042921D01*
X93468834Y-119042921D01*
X93688780Y-118951817D01*
X93688783Y-118951815D01*
X93891768Y-118827425D01*
X93891770Y-118827424D01*
X93985568Y-118747313D01*
X94049329Y-118718742D01*
X94118415Y-118729179D01*
X94170891Y-118775309D01*
X94190100Y-118841603D01*
X94190100Y-119758396D01*
X94170415Y-119825435D01*
X94117611Y-119871190D01*
X94048453Y-119881134D01*
X93985568Y-119852686D01*
X93891771Y-119772575D01*
X93891768Y-119772574D01*
X93688783Y-119648184D01*
X93688780Y-119648182D01*
X93468833Y-119557078D01*
X93237342Y-119501502D01*
X93000000Y-119482823D01*
X92762657Y-119501502D01*
X92531166Y-119557078D01*
X92531165Y-119557078D01*
X92311227Y-119648179D01*
X92311224Y-119648181D01*
X92119327Y-119765775D01*
X92618716Y-120265163D01*
X92652201Y-120326486D01*
X92647217Y-120396177D01*
X92605346Y-120452111D01*
X92601476Y-120454893D01*
X92549103Y-120491044D01*
X92443097Y-120610700D01*
X92383908Y-120647827D01*
X92314042Y-120647059D01*
X92262601Y-120616154D01*
X91765775Y-120119327D01*
X91648181Y-120311224D01*
X91648179Y-120311227D01*
X91557078Y-120531165D01*
X91557078Y-120531166D01*
X91501502Y-120762657D01*
X91482823Y-120999999D01*
X67000500Y-120999999D01*
X67000500Y-107017870D01*
X89814500Y-107017870D01*
X89814501Y-107017876D01*
X89820908Y-107077483D01*
X89871202Y-107212328D01*
X89871206Y-107212335D01*
X89957452Y-107327544D01*
X89957455Y-107327547D01*
X90072664Y-107413793D01*
X90072671Y-107413797D01*
X90207517Y-107464091D01*
X90207516Y-107464091D01*
X90214444Y-107464835D01*
X90267127Y-107470500D01*
X92302872Y-107470499D01*
X92362483Y-107464091D01*
X92497331Y-107413796D01*
X92612546Y-107327546D01*
X92698796Y-107212331D01*
X92727428Y-107135562D01*
X92769299Y-107079628D01*
X92834763Y-107055210D01*
X92903037Y-107070061D01*
X92931292Y-107091213D01*
X101079666Y-115239587D01*
X101141041Y-115304153D01*
X101141044Y-115304155D01*
X101141045Y-115304156D01*
X101191395Y-115339201D01*
X101195147Y-115342029D01*
X101242692Y-115380797D01*
X101242695Y-115380798D01*
X101242697Y-115380800D01*
X101273139Y-115396701D01*
X101279853Y-115400768D01*
X101308047Y-115420392D01*
X101308053Y-115420396D01*
X101364431Y-115444590D01*
X101368669Y-115446602D01*
X101423051Y-115475009D01*
X101456073Y-115484456D01*
X101463465Y-115487089D01*
X101495040Y-115500639D01*
X101495041Y-115500640D01*
X101508154Y-115503334D01*
X101555155Y-115512992D01*
X101559695Y-115514106D01*
X101618682Y-115530986D01*
X101652941Y-115533594D01*
X101660709Y-115534685D01*
X101694355Y-115541600D01*
X101694359Y-115541600D01*
X101755701Y-115541600D01*
X101760408Y-115541778D01*
X101796751Y-115544546D01*
X101821575Y-115546437D01*
X101821575Y-115546436D01*
X101821576Y-115546437D01*
X101855659Y-115542096D01*
X101863489Y-115541600D01*
X138345090Y-115541600D01*
X138412129Y-115561285D01*
X138457884Y-115614089D01*
X138467828Y-115683247D01*
X138444357Y-115739910D01*
X138312775Y-115915682D01*
X138312770Y-115915690D01*
X138175635Y-116166833D01*
X138075628Y-116434962D01*
X138014804Y-116714566D01*
X137994390Y-116999998D01*
X137994390Y-117000001D01*
X138014804Y-117285433D01*
X138075628Y-117565037D01*
X138075630Y-117565043D01*
X138075631Y-117565046D01*
X138114456Y-117669139D01*
X138175635Y-117833166D01*
X138312770Y-118084309D01*
X138312775Y-118084317D01*
X138484254Y-118313387D01*
X138484270Y-118313405D01*
X138686594Y-118515729D01*
X138686612Y-118515745D01*
X138915682Y-118687224D01*
X138915690Y-118687229D01*
X139166833Y-118824364D01*
X139166832Y-118824364D01*
X139166836Y-118824365D01*
X139166839Y-118824367D01*
X139434954Y-118924369D01*
X139434960Y-118924370D01*
X139434962Y-118924371D01*
X139714566Y-118985195D01*
X139714568Y-118985195D01*
X139714572Y-118985196D01*
X139968220Y-119003337D01*
X139999999Y-119005610D01*
X140000000Y-119005610D01*
X140000001Y-119005610D01*
X140028595Y-119003564D01*
X140285428Y-118985196D01*
X140438870Y-118951817D01*
X140565037Y-118924371D01*
X140565037Y-118924370D01*
X140565046Y-118924369D01*
X140833161Y-118824367D01*
X141084315Y-118687226D01*
X141313395Y-118515739D01*
X141515739Y-118313395D01*
X141687226Y-118084315D01*
X141824367Y-117833161D01*
X141924369Y-117565046D01*
X141985196Y-117285428D01*
X142005610Y-117000000D01*
X141985196Y-116714572D01*
X141983089Y-116704888D01*
X141924371Y-116434962D01*
X141924370Y-116434960D01*
X141924369Y-116434954D01*
X141824367Y-116166839D01*
X141687226Y-115915685D01*
X141555643Y-115739910D01*
X141531226Y-115674446D01*
X141546078Y-115606173D01*
X141595483Y-115556768D01*
X141654910Y-115541600D01*
X152147717Y-115541600D01*
X152214756Y-115561285D01*
X152235398Y-115577919D01*
X167355947Y-130698467D01*
X167417341Y-130763053D01*
X167417344Y-130763055D01*
X167417347Y-130763058D01*
X167451453Y-130786795D01*
X167467703Y-130798106D01*
X167471444Y-130800926D01*
X167518993Y-130839698D01*
X167549445Y-130855604D01*
X167556158Y-130859672D01*
X167584351Y-130879295D01*
X167640729Y-130903489D01*
X167644978Y-130905507D01*
X167699351Y-130933909D01*
X167726889Y-130941788D01*
X167732374Y-130943358D01*
X167739768Y-130945990D01*
X167771342Y-130959540D01*
X167771345Y-130959540D01*
X167771346Y-130959541D01*
X167831422Y-130971887D01*
X167836000Y-130973010D01*
X167849901Y-130976987D01*
X167894982Y-130989887D01*
X167929239Y-130992495D01*
X167937014Y-130993586D01*
X167970655Y-131000500D01*
X167970659Y-131000500D01*
X168031998Y-131000500D01*
X168036704Y-131000678D01*
X168071462Y-131003325D01*
X168097875Y-131005337D01*
X168097875Y-131005336D01*
X168097876Y-131005337D01*
X168131959Y-131000996D01*
X168139789Y-131000500D01*
X168752849Y-131000500D01*
X168819888Y-131020185D01*
X168855649Y-131055160D01*
X169007841Y-131280793D01*
X169007854Y-131280809D01*
X169202050Y-131496487D01*
X169202057Y-131496494D01*
X169424384Y-131683049D01*
X169424388Y-131683052D01*
X169424390Y-131683053D01*
X169523165Y-131744774D01*
X169670519Y-131836852D01*
X169670521Y-131836852D01*
X169670526Y-131836856D01*
X169935672Y-131954906D01*
X169935676Y-131954907D01*
X169935678Y-131954908D01*
X170092155Y-131999777D01*
X170214667Y-132034907D01*
X170214671Y-132034907D01*
X170214677Y-132034909D01*
X170380195Y-132058170D01*
X170502078Y-132075299D01*
X170502079Y-132075300D01*
X170502081Y-132075300D01*
X173869278Y-132075300D01*
X173901916Y-132073017D01*
X174086331Y-132060122D01*
X174086336Y-132060121D01*
X174086338Y-132060121D01*
X174228278Y-132029950D01*
X174370227Y-131999778D01*
X174642962Y-131900511D01*
X174899227Y-131764252D01*
X175134035Y-131593654D01*
X175342815Y-131392038D01*
X175521503Y-131163327D01*
X175666622Y-130911973D01*
X175775348Y-130642869D01*
X175845563Y-130361252D01*
X175875901Y-130072604D01*
X175865772Y-129782542D01*
X175815372Y-129496713D01*
X175725684Y-129220680D01*
X175725682Y-129220675D01*
X175598456Y-128959823D01*
X175598446Y-128959806D01*
X175436158Y-128719206D01*
X175436145Y-128719190D01*
X175241949Y-128503512D01*
X175241942Y-128503505D01*
X175019615Y-128316950D01*
X174773480Y-128163147D01*
X174773475Y-128163145D01*
X174773474Y-128163144D01*
X174508328Y-128045094D01*
X174508327Y-128045093D01*
X174508321Y-128045091D01*
X174229342Y-127965095D01*
X174229322Y-127965090D01*
X173941922Y-127924700D01*
X173941919Y-127924700D01*
X170574724Y-127924700D01*
X170574722Y-127924700D01*
X170357665Y-127939878D01*
X170357661Y-127939878D01*
X170073779Y-128000220D01*
X170073771Y-128000222D01*
X169801046Y-128099485D01*
X169801037Y-128099489D01*
X169544778Y-128235744D01*
X169544771Y-128235749D01*
X169309972Y-128406339D01*
X169309965Y-128406345D01*
X169101183Y-128607964D01*
X168922497Y-128836671D01*
X168864285Y-128937500D01*
X168813719Y-128985715D01*
X168756898Y-128999500D01*
X168538183Y-128999500D01*
X168471144Y-128979815D01*
X168450502Y-128963181D01*
X153329952Y-113842632D01*
X153268561Y-113778049D01*
X153268560Y-113778048D01*
X153268559Y-113778047D01*
X153240704Y-113758659D01*
X153218209Y-113743002D01*
X153214446Y-113740164D01*
X153166913Y-113701405D01*
X153166906Y-113701400D01*
X153136459Y-113685497D01*
X153129751Y-113681434D01*
X153101549Y-113661805D01*
X153101546Y-113661803D01*
X153101545Y-113661803D01*
X153101541Y-113661801D01*
X153045180Y-113637614D01*
X153040924Y-113635593D01*
X152986557Y-113607194D01*
X152986550Y-113607191D01*
X152986549Y-113607191D01*
X152980508Y-113605462D01*
X152953530Y-113597742D01*
X152946130Y-113595108D01*
X152914557Y-113581559D01*
X152914558Y-113581559D01*
X152854466Y-113569209D01*
X152849891Y-113568086D01*
X152790920Y-113551213D01*
X152790925Y-113551213D01*
X152756658Y-113548603D01*
X152748880Y-113547512D01*
X152715242Y-113540600D01*
X152715241Y-113540600D01*
X152653902Y-113540600D01*
X152649195Y-113540421D01*
X152643621Y-113539996D01*
X152588024Y-113535762D01*
X152568089Y-113538301D01*
X152553940Y-113540103D01*
X152546111Y-113540600D01*
X102261883Y-113540600D01*
X102194844Y-113520915D01*
X102174202Y-113504281D01*
X96317790Y-107647870D01*
X129279500Y-107647870D01*
X129279501Y-107647876D01*
X129285908Y-107707483D01*
X129336202Y-107842328D01*
X129336206Y-107842335D01*
X129422452Y-107957544D01*
X129422455Y-107957547D01*
X129537664Y-108043793D01*
X129537671Y-108043797D01*
X129672517Y-108094091D01*
X129672516Y-108094091D01*
X129679444Y-108094835D01*
X129732127Y-108100500D01*
X133027872Y-108100499D01*
X133087483Y-108094091D01*
X133222331Y-108043796D01*
X133337546Y-107957546D01*
X133423796Y-107842331D01*
X133474091Y-107707483D01*
X133480500Y-107647873D01*
X133480499Y-105749999D01*
X144532192Y-105749999D01*
X144532193Y-105750000D01*
X145704350Y-105750000D01*
X145771389Y-105769685D01*
X145817144Y-105822489D01*
X145827570Y-105887883D01*
X145814938Y-105999996D01*
X145814938Y-106000003D01*
X145827570Y-106112117D01*
X145815516Y-106180938D01*
X145768166Y-106232318D01*
X145704350Y-106250000D01*
X144532193Y-106250000D01*
X144534697Y-106286619D01*
X144593146Y-106567888D01*
X144593150Y-106567902D01*
X144689355Y-106838595D01*
X144821527Y-107093676D01*
X144987204Y-107328385D01*
X144987204Y-107328386D01*
X145183288Y-107538341D01*
X145406135Y-107719641D01*
X145406146Y-107719648D01*
X145651607Y-107868917D01*
X145915108Y-107983371D01*
X146191737Y-108060879D01*
X146191746Y-108060881D01*
X146369999Y-108085380D01*
X146370000Y-108085380D01*
X146370000Y-106915649D01*
X146389685Y-106848610D01*
X146442489Y-106802855D01*
X146507883Y-106792429D01*
X146545485Y-106796666D01*
X146575071Y-106800000D01*
X146575074Y-106800000D01*
X146664929Y-106800000D01*
X146694514Y-106796666D01*
X146732116Y-106792429D01*
X146800937Y-106804483D01*
X146852317Y-106851831D01*
X146870000Y-106915649D01*
X146870000Y-108085380D01*
X147048253Y-108060881D01*
X147048262Y-108060879D01*
X147324891Y-107983371D01*
X147588392Y-107868917D01*
X147833853Y-107719648D01*
X147833864Y-107719641D01*
X148056711Y-107538341D01*
X148252795Y-107328386D01*
X148252795Y-107328385D01*
X148418472Y-107093676D01*
X148550644Y-106838595D01*
X148646849Y-106567902D01*
X148646853Y-106567888D01*
X148705302Y-106286619D01*
X148707807Y-106250000D01*
X147535650Y-106250000D01*
X147468611Y-106230315D01*
X147422856Y-106177511D01*
X147412430Y-106112117D01*
X147425062Y-106000003D01*
X147425062Y-105999996D01*
X147412430Y-105887883D01*
X147424484Y-105819062D01*
X147471834Y-105767682D01*
X147535650Y-105750000D01*
X148707807Y-105750000D01*
X148707807Y-105749999D01*
X148705302Y-105713380D01*
X148646853Y-105432111D01*
X148646849Y-105432097D01*
X148550644Y-105161404D01*
X148418472Y-104906323D01*
X148252795Y-104671614D01*
X148252795Y-104671613D01*
X148056711Y-104461658D01*
X147833864Y-104280358D01*
X147833853Y-104280351D01*
X147588392Y-104131082D01*
X147324891Y-104016628D01*
X147048262Y-103939120D01*
X147048255Y-103939119D01*
X146870000Y-103914618D01*
X146870000Y-105084350D01*
X146850315Y-105151389D01*
X146797511Y-105197144D01*
X146732116Y-105207570D01*
X146664930Y-105200000D01*
X146664926Y-105200000D01*
X146575074Y-105200000D01*
X146575070Y-105200000D01*
X146507884Y-105207570D01*
X146439062Y-105195516D01*
X146387682Y-105148167D01*
X146370000Y-105084350D01*
X146370000Y-103914618D01*
X146191744Y-103939119D01*
X146191737Y-103939120D01*
X145915108Y-104016628D01*
X145651607Y-104131082D01*
X145406146Y-104280351D01*
X145406135Y-104280358D01*
X145183288Y-104461658D01*
X144987204Y-104671613D01*
X144987204Y-104671614D01*
X144821527Y-104906323D01*
X144689355Y-105161404D01*
X144593150Y-105432097D01*
X144593146Y-105432111D01*
X144534697Y-105713380D01*
X144532192Y-105749999D01*
X133480499Y-105749999D01*
X133480499Y-104352128D01*
X133474091Y-104292517D01*
X133469553Y-104280351D01*
X133423797Y-104157671D01*
X133423793Y-104157664D01*
X133337547Y-104042455D01*
X133337544Y-104042452D01*
X133222335Y-103956206D01*
X133222328Y-103956202D01*
X133087482Y-103905908D01*
X133087483Y-103905908D01*
X133027883Y-103899501D01*
X133027881Y-103899500D01*
X133027873Y-103899500D01*
X133027864Y-103899500D01*
X129732129Y-103899500D01*
X129732123Y-103899501D01*
X129672516Y-103905908D01*
X129537671Y-103956202D01*
X129537664Y-103956206D01*
X129422455Y-104042452D01*
X129422452Y-104042455D01*
X129336206Y-104157664D01*
X129336202Y-104157671D01*
X129285908Y-104292517D01*
X129279501Y-104352116D01*
X129279501Y-104352123D01*
X129279500Y-104352135D01*
X129279500Y-107647870D01*
X96317790Y-107647870D01*
X94669925Y-106000005D01*
X105239962Y-106000005D01*
X105260079Y-106242779D01*
X105319884Y-106478944D01*
X105417741Y-106702036D01*
X105513239Y-106848207D01*
X106000954Y-106360491D01*
X106062277Y-106327006D01*
X106131968Y-106331990D01*
X106187902Y-106373861D01*
X106193331Y-106381729D01*
X106214068Y-106414406D01*
X106332863Y-106525961D01*
X106336873Y-106528874D01*
X106379542Y-106584202D01*
X106385525Y-106653815D01*
X106352922Y-106715612D01*
X106351674Y-106716877D01*
X105866320Y-107202231D01*
X105908233Y-107234852D01*
X106122482Y-107350799D01*
X106122491Y-107350802D01*
X106352897Y-107429901D01*
X106593193Y-107470000D01*
X106836807Y-107470000D01*
X107077102Y-107429901D01*
X107307508Y-107350802D01*
X107307517Y-107350799D01*
X107521767Y-107234852D01*
X107563678Y-107202231D01*
X107074655Y-106713208D01*
X107041170Y-106651885D01*
X107046154Y-106582193D01*
X107088026Y-106526260D01*
X107089400Y-106525245D01*
X107160042Y-106473921D01*
X107246319Y-106369629D01*
X107304218Y-106330523D01*
X107374069Y-106328927D01*
X107429543Y-106360990D01*
X107916759Y-106848207D01*
X108012254Y-106702043D01*
X108012259Y-106702035D01*
X108110115Y-106478944D01*
X108169920Y-106242779D01*
X108190038Y-106000005D01*
X108190038Y-106000001D01*
X111194532Y-106000001D01*
X111214364Y-106226686D01*
X111214366Y-106226697D01*
X111273258Y-106446488D01*
X111273261Y-106446497D01*
X111369431Y-106652732D01*
X111369432Y-106652734D01*
X111499954Y-106839141D01*
X111660858Y-107000045D01*
X111660861Y-107000047D01*
X111847266Y-107130568D01*
X112053504Y-107226739D01*
X112273308Y-107285635D01*
X112435230Y-107299801D01*
X112499998Y-107305468D01*
X112500000Y-107305468D01*
X112500002Y-107305468D01*
X112556673Y-107300509D01*
X112726692Y-107285635D01*
X112946496Y-107226739D01*
X113152734Y-107130568D01*
X113339139Y-107000047D01*
X113500047Y-106839139D01*
X113630568Y-106652734D01*
X113726739Y-106446496D01*
X113785635Y-106226692D01*
X113805468Y-106000002D01*
X116195034Y-106000002D01*
X116214858Y-106226599D01*
X116214860Y-106226610D01*
X116273730Y-106446317D01*
X116273734Y-106446326D01*
X116369865Y-106652481D01*
X116369866Y-106652483D01*
X116420973Y-106725471D01*
X116420973Y-106725472D01*
X116962580Y-106183865D01*
X117023903Y-106150380D01*
X117093594Y-106155364D01*
X117149528Y-106197235D01*
X117160742Y-106215246D01*
X117166527Y-106226599D01*
X117172358Y-106238044D01*
X117172363Y-106238050D01*
X117261949Y-106327636D01*
X117261951Y-106327637D01*
X117261955Y-106327641D01*
X117284747Y-106339254D01*
X117335542Y-106387228D01*
X117352337Y-106455049D01*
X117329799Y-106521184D01*
X117316132Y-106537419D01*
X116774526Y-107079025D01*
X116774526Y-107079026D01*
X116847512Y-107130131D01*
X116847516Y-107130133D01*
X117053673Y-107226265D01*
X117053682Y-107226269D01*
X117273389Y-107285139D01*
X117273400Y-107285141D01*
X117499998Y-107304966D01*
X117500002Y-107304966D01*
X117726599Y-107285141D01*
X117726610Y-107285139D01*
X117946317Y-107226269D01*
X117946331Y-107226264D01*
X118152478Y-107130136D01*
X118225472Y-107079025D01*
X117683866Y-106537419D01*
X117650381Y-106476096D01*
X117655365Y-106406404D01*
X117697237Y-106350471D01*
X117715245Y-106339258D01*
X117738045Y-106327641D01*
X117827641Y-106238045D01*
X117839254Y-106215252D01*
X117887225Y-106164458D01*
X117955046Y-106147661D01*
X118021181Y-106170197D01*
X118037419Y-106183866D01*
X118579025Y-106725472D01*
X118630136Y-106652478D01*
X118726264Y-106446331D01*
X118726269Y-106446317D01*
X118785139Y-106226610D01*
X118785141Y-106226599D01*
X118804966Y-106000002D01*
X118804966Y-105999997D01*
X118785141Y-105773400D01*
X118785139Y-105773389D01*
X118726269Y-105553682D01*
X118726265Y-105553673D01*
X118630133Y-105347516D01*
X118630131Y-105347512D01*
X118579026Y-105274526D01*
X118579025Y-105274526D01*
X118037419Y-105816132D01*
X117976096Y-105849617D01*
X117906404Y-105844633D01*
X117850471Y-105802761D01*
X117839256Y-105784751D01*
X117827641Y-105761955D01*
X117827637Y-105761951D01*
X117827636Y-105761949D01*
X117738050Y-105672363D01*
X117738044Y-105672358D01*
X117728109Y-105667296D01*
X117715250Y-105660744D01*
X117664456Y-105612773D01*
X117647660Y-105544952D01*
X117670197Y-105478817D01*
X117683865Y-105462580D01*
X118225472Y-104920973D01*
X118152483Y-104869866D01*
X118152481Y-104869865D01*
X117946326Y-104773734D01*
X117946317Y-104773730D01*
X117726610Y-104714860D01*
X117726599Y-104714858D01*
X117500002Y-104695034D01*
X117499998Y-104695034D01*
X117273400Y-104714858D01*
X117273389Y-104714860D01*
X117053682Y-104773730D01*
X117053673Y-104773734D01*
X116847513Y-104869868D01*
X116774526Y-104920973D01*
X117316133Y-105462580D01*
X117349618Y-105523903D01*
X117344634Y-105593595D01*
X117302762Y-105649528D01*
X117284748Y-105660745D01*
X117261956Y-105672358D01*
X117261949Y-105672363D01*
X117172363Y-105761949D01*
X117172358Y-105761956D01*
X117160745Y-105784748D01*
X117112770Y-105835544D01*
X117044949Y-105852338D01*
X116978814Y-105829800D01*
X116962580Y-105816133D01*
X116420973Y-105274526D01*
X116369868Y-105347513D01*
X116273734Y-105553673D01*
X116273730Y-105553682D01*
X116214860Y-105773389D01*
X116214858Y-105773400D01*
X116195034Y-105999997D01*
X116195034Y-106000002D01*
X113805468Y-106000002D01*
X113805468Y-106000000D01*
X113805467Y-105999994D01*
X113790577Y-105829800D01*
X113785635Y-105773308D01*
X113726739Y-105553504D01*
X113630568Y-105347266D01*
X113500047Y-105160861D01*
X113500045Y-105160858D01*
X113339141Y-104999954D01*
X113152734Y-104869432D01*
X113152732Y-104869431D01*
X112946497Y-104773261D01*
X112946488Y-104773258D01*
X112726697Y-104714366D01*
X112726693Y-104714365D01*
X112726692Y-104714365D01*
X112726691Y-104714364D01*
X112726686Y-104714364D01*
X112500002Y-104694532D01*
X112499998Y-104694532D01*
X112273313Y-104714364D01*
X112273302Y-104714366D01*
X112053511Y-104773258D01*
X112053502Y-104773261D01*
X111847267Y-104869431D01*
X111847265Y-104869432D01*
X111660858Y-104999954D01*
X111499954Y-105160858D01*
X111369432Y-105347265D01*
X111369431Y-105347267D01*
X111273261Y-105553502D01*
X111273258Y-105553511D01*
X111214366Y-105773302D01*
X111214364Y-105773313D01*
X111194532Y-105999998D01*
X111194532Y-106000001D01*
X108190038Y-106000001D01*
X108190038Y-105999994D01*
X108169920Y-105757220D01*
X108110115Y-105521055D01*
X108012256Y-105297958D01*
X107916759Y-105151791D01*
X107429044Y-105639507D01*
X107367721Y-105672992D01*
X107298029Y-105668008D01*
X107242096Y-105626136D01*
X107236672Y-105618277D01*
X107215931Y-105585594D01*
X107181948Y-105553682D01*
X107097134Y-105474036D01*
X107093121Y-105471121D01*
X107050455Y-105415792D01*
X107044474Y-105346179D01*
X107077079Y-105284383D01*
X107078324Y-105283121D01*
X107563679Y-104797767D01*
X107521766Y-104765147D01*
X107307517Y-104649200D01*
X107307508Y-104649197D01*
X107077102Y-104570098D01*
X106836807Y-104530000D01*
X106593193Y-104530000D01*
X106352897Y-104570098D01*
X106122491Y-104649197D01*
X106122483Y-104649200D01*
X105908226Y-104765151D01*
X105866320Y-104797766D01*
X105866320Y-104797768D01*
X106355345Y-105286792D01*
X106388830Y-105348115D01*
X106383846Y-105417806D01*
X106341975Y-105473740D01*
X106340602Y-105474752D01*
X106286748Y-105513879D01*
X106269955Y-105526081D01*
X106269953Y-105526083D01*
X106183680Y-105630369D01*
X106125780Y-105669476D01*
X106055929Y-105671072D01*
X106000456Y-105639009D01*
X105513239Y-105151791D01*
X105417742Y-105297960D01*
X105319884Y-105521055D01*
X105260079Y-105757220D01*
X105239962Y-105999994D01*
X105239962Y-106000005D01*
X94669925Y-106000005D01*
X93971452Y-105301532D01*
X93910061Y-105236949D01*
X93910060Y-105236948D01*
X93910059Y-105236947D01*
X93882204Y-105217559D01*
X93859709Y-105201902D01*
X93855946Y-105199064D01*
X93808413Y-105160305D01*
X93808406Y-105160300D01*
X93777959Y-105144397D01*
X93771251Y-105140334D01*
X93743049Y-105120705D01*
X93743046Y-105120703D01*
X93743045Y-105120703D01*
X93743041Y-105120701D01*
X93686680Y-105096514D01*
X93682424Y-105094493D01*
X93628057Y-105066094D01*
X93628050Y-105066091D01*
X93628049Y-105066091D01*
X93622008Y-105064362D01*
X93595030Y-105056642D01*
X93587630Y-105054008D01*
X93556057Y-105040459D01*
X93556058Y-105040459D01*
X93495966Y-105028109D01*
X93491391Y-105026986D01*
X93432420Y-105010113D01*
X93432425Y-105010113D01*
X93398158Y-105007503D01*
X93390380Y-105006412D01*
X93356742Y-104999500D01*
X93356741Y-104999500D01*
X93295402Y-104999500D01*
X93290695Y-104999321D01*
X93285121Y-104998896D01*
X93229524Y-104994662D01*
X93209589Y-104997201D01*
X93195440Y-104999003D01*
X93187611Y-104999500D01*
X92863899Y-104999500D01*
X92796860Y-104979815D01*
X92751105Y-104927011D01*
X92747717Y-104918833D01*
X92698797Y-104787671D01*
X92698793Y-104787664D01*
X92612547Y-104672455D01*
X92612544Y-104672452D01*
X92497335Y-104586206D01*
X92497328Y-104586202D01*
X92362482Y-104535908D01*
X92362483Y-104535908D01*
X92302883Y-104529501D01*
X92302881Y-104529500D01*
X92302873Y-104529500D01*
X92302864Y-104529500D01*
X90267129Y-104529500D01*
X90267123Y-104529501D01*
X90207516Y-104535908D01*
X90072671Y-104586202D01*
X90072664Y-104586206D01*
X89957455Y-104672452D01*
X89957452Y-104672455D01*
X89871206Y-104787664D01*
X89871202Y-104787671D01*
X89820908Y-104922517D01*
X89814501Y-104982116D01*
X89814500Y-104982135D01*
X89814500Y-107017870D01*
X67000500Y-107017870D01*
X67000500Y-98500004D01*
X166295233Y-98500004D01*
X166314273Y-98754079D01*
X166370968Y-99002477D01*
X166370973Y-99002494D01*
X166464058Y-99239671D01*
X166464057Y-99239671D01*
X166591457Y-99460332D01*
X166633452Y-99512993D01*
X167318590Y-98827855D01*
X167379913Y-98794370D01*
X167449604Y-98799354D01*
X167504645Y-98840049D01*
X167572074Y-98927924D01*
X167572075Y-98927925D01*
X167659948Y-98995353D01*
X167701150Y-99051781D01*
X167705305Y-99121527D01*
X167672142Y-99181409D01*
X166986813Y-99866737D01*
X167147623Y-99976375D01*
X167147624Y-99976376D01*
X167377176Y-100086921D01*
X167377174Y-100086921D01*
X167620652Y-100162024D01*
X167620658Y-100162026D01*
X167872595Y-100199999D01*
X167872604Y-100200000D01*
X168127396Y-100200000D01*
X168127404Y-100199999D01*
X168379341Y-100162026D01*
X168379347Y-100162024D01*
X168622824Y-100086921D01*
X168852381Y-99976373D01*
X169013185Y-99866737D01*
X168327856Y-99181409D01*
X168294371Y-99120086D01*
X168299355Y-99050395D01*
X168340049Y-98995353D01*
X168427925Y-98927925D01*
X168495354Y-98840048D01*
X168551779Y-98798848D01*
X168621525Y-98794693D01*
X168681409Y-98827856D01*
X169366545Y-99512993D01*
X169408545Y-99460327D01*
X169535941Y-99239671D01*
X169629026Y-99002494D01*
X169629031Y-99002477D01*
X169685726Y-98754079D01*
X169704767Y-98500004D01*
X169704767Y-98499995D01*
X169685726Y-98245920D01*
X169629031Y-97997522D01*
X169629026Y-97997505D01*
X169535941Y-97760328D01*
X169535942Y-97760328D01*
X169408544Y-97539671D01*
X169366545Y-97487005D01*
X168681409Y-98172142D01*
X168620086Y-98205627D01*
X168550394Y-98200643D01*
X168495353Y-98159948D01*
X168427925Y-98072075D01*
X168427925Y-98072074D01*
X168340049Y-98004645D01*
X168298847Y-97948219D01*
X168294692Y-97878473D01*
X168327855Y-97818590D01*
X169013185Y-97133261D01*
X168852377Y-97023624D01*
X168852376Y-97023623D01*
X168622823Y-96913078D01*
X168622825Y-96913078D01*
X168379347Y-96837975D01*
X168379341Y-96837973D01*
X168127404Y-96800000D01*
X167872595Y-96800000D01*
X167620658Y-96837973D01*
X167620652Y-96837975D01*
X167377175Y-96913078D01*
X167147624Y-97023623D01*
X167147616Y-97023628D01*
X166986813Y-97133261D01*
X167672143Y-97818590D01*
X167705628Y-97879913D01*
X167700644Y-97949604D01*
X167659949Y-98004646D01*
X167572075Y-98072074D01*
X167572074Y-98072075D01*
X167504646Y-98159949D01*
X167448218Y-98201151D01*
X167378472Y-98205306D01*
X167318590Y-98172143D01*
X166633453Y-97487006D01*
X166591455Y-97539670D01*
X166464058Y-97760328D01*
X166370973Y-97997505D01*
X166370968Y-97997522D01*
X166314273Y-98245920D01*
X166295233Y-98499995D01*
X166295233Y-98500004D01*
X67000500Y-98500004D01*
X67000500Y-96000004D01*
X89814732Y-96000004D01*
X89833777Y-96254154D01*
X89890490Y-96502630D01*
X89890492Y-96502637D01*
X89983608Y-96739890D01*
X90010536Y-96786531D01*
X90111041Y-96960612D01*
X90269950Y-97159877D01*
X90456783Y-97333232D01*
X90667366Y-97476805D01*
X90667371Y-97476807D01*
X90667372Y-97476808D01*
X90667373Y-97476809D01*
X90789328Y-97535538D01*
X90896992Y-97587387D01*
X90896993Y-97587387D01*
X90896996Y-97587389D01*
X91140542Y-97662513D01*
X91392565Y-97700500D01*
X91647435Y-97700500D01*
X91899458Y-97662513D01*
X92143004Y-97587389D01*
X92324458Y-97500005D01*
X92372626Y-97476809D01*
X92372626Y-97476808D01*
X92372634Y-97476805D01*
X92583217Y-97333232D01*
X92770050Y-97159877D01*
X92928959Y-96960612D01*
X93056393Y-96739888D01*
X93149508Y-96502637D01*
X93206222Y-96254157D01*
X93218032Y-96096556D01*
X93225268Y-96000004D01*
X150774732Y-96000004D01*
X150793777Y-96254154D01*
X150850490Y-96502630D01*
X150850492Y-96502637D01*
X150943608Y-96739890D01*
X150970536Y-96786531D01*
X151071041Y-96960612D01*
X151229950Y-97159877D01*
X151416783Y-97333232D01*
X151627366Y-97476805D01*
X151627371Y-97476807D01*
X151627372Y-97476808D01*
X151627373Y-97476809D01*
X151749328Y-97535538D01*
X151856992Y-97587387D01*
X151856993Y-97587387D01*
X151856996Y-97587389D01*
X152100542Y-97662513D01*
X152352565Y-97700500D01*
X152607435Y-97700500D01*
X152859458Y-97662513D01*
X153103004Y-97587389D01*
X153284458Y-97500005D01*
X153332626Y-97476809D01*
X153332626Y-97476808D01*
X153332634Y-97476805D01*
X153543217Y-97333232D01*
X153730050Y-97159877D01*
X153888959Y-96960612D01*
X154016393Y-96739888D01*
X154109508Y-96502637D01*
X154166222Y-96254157D01*
X154178032Y-96096556D01*
X154185268Y-96000004D01*
X154185268Y-95999995D01*
X154166222Y-95745845D01*
X154148598Y-95668631D01*
X154109508Y-95497363D01*
X154016393Y-95260112D01*
X153888959Y-95039388D01*
X153730050Y-94840123D01*
X153543217Y-94666768D01*
X153332634Y-94523195D01*
X153332630Y-94523193D01*
X153332627Y-94523191D01*
X153332626Y-94523190D01*
X153103006Y-94412612D01*
X153103008Y-94412612D01*
X152859466Y-94337489D01*
X152859462Y-94337488D01*
X152859458Y-94337487D01*
X152738231Y-94319214D01*
X152607440Y-94299500D01*
X152607435Y-94299500D01*
X152352565Y-94299500D01*
X152352559Y-94299500D01*
X152195609Y-94323157D01*
X152100542Y-94337487D01*
X152100538Y-94337488D01*
X152100539Y-94337488D01*
X152100533Y-94337489D01*
X151856992Y-94412612D01*
X151627373Y-94523190D01*
X151627372Y-94523191D01*
X151416782Y-94666768D01*
X151229952Y-94840121D01*
X151229950Y-94840123D01*
X151071041Y-95039388D01*
X150943608Y-95260109D01*
X150850492Y-95497362D01*
X150850490Y-95497369D01*
X150793777Y-95745845D01*
X150774732Y-95999995D01*
X150774732Y-96000004D01*
X93225268Y-96000004D01*
X93225268Y-95999995D01*
X93206222Y-95745845D01*
X93188598Y-95668631D01*
X93149508Y-95497363D01*
X93056393Y-95260112D01*
X92928959Y-95039388D01*
X92770050Y-94840123D01*
X92583217Y-94666768D01*
X92372634Y-94523195D01*
X92372630Y-94523193D01*
X92372627Y-94523191D01*
X92372626Y-94523190D01*
X92143006Y-94412612D01*
X92143008Y-94412612D01*
X91899466Y-94337489D01*
X91899462Y-94337488D01*
X91899458Y-94337487D01*
X91778231Y-94319214D01*
X91647440Y-94299500D01*
X91647435Y-94299500D01*
X91392565Y-94299500D01*
X91392559Y-94299500D01*
X91235609Y-94323157D01*
X91140542Y-94337487D01*
X91140538Y-94337488D01*
X91140539Y-94337488D01*
X91140533Y-94337489D01*
X90896992Y-94412612D01*
X90667373Y-94523190D01*
X90667372Y-94523191D01*
X90456782Y-94666768D01*
X90269952Y-94840121D01*
X90269950Y-94840123D01*
X90111041Y-95039388D01*
X89983608Y-95260109D01*
X89890492Y-95497362D01*
X89890490Y-95497369D01*
X89833777Y-95745845D01*
X89814732Y-95999995D01*
X89814732Y-96000004D01*
X67000500Y-96000004D01*
X67000500Y-79669999D01*
X99680769Y-79669999D01*
X99699668Y-79946314D01*
X99699669Y-79946316D01*
X99756014Y-80217469D01*
X99756019Y-80217485D01*
X99848760Y-80478435D01*
X99848763Y-80478441D01*
X99848764Y-80478444D01*
X99848766Y-80478448D01*
X99976186Y-80724356D01*
X100135903Y-80950623D01*
X100324942Y-81153035D01*
X100539782Y-81327821D01*
X100539784Y-81327822D01*
X100539785Y-81327823D01*
X100776423Y-81471725D01*
X100949917Y-81547083D01*
X101030452Y-81582065D01*
X101297141Y-81656788D01*
X101538364Y-81689942D01*
X101571519Y-81694500D01*
X101571520Y-81694500D01*
X101848481Y-81694500D01*
X101878061Y-81690434D01*
X102122859Y-81656788D01*
X102389548Y-81582065D01*
X102643578Y-81471724D01*
X102880218Y-81327821D01*
X103095058Y-81153035D01*
X103284097Y-80950623D01*
X103443814Y-80724356D01*
X103443813Y-80724356D01*
X103444777Y-80722992D01*
X103499519Y-80679574D01*
X103546081Y-80670500D01*
X159340217Y-80670500D01*
X159407256Y-80690185D01*
X159427898Y-80706819D01*
X185052105Y-106331025D01*
X185085590Y-106392348D01*
X185088077Y-106427972D01*
X185068592Y-106687995D01*
X185068592Y-106688004D01*
X185088196Y-106949620D01*
X185088197Y-106949625D01*
X185146576Y-107205402D01*
X185146578Y-107205411D01*
X185146580Y-107205416D01*
X185185848Y-107305468D01*
X185242432Y-107449643D01*
X185280281Y-107515200D01*
X185296754Y-107583100D01*
X185273901Y-107649127D01*
X185218980Y-107692318D01*
X185172894Y-107701200D01*
X173367482Y-107701200D01*
X173300443Y-107681515D01*
X173279801Y-107664881D01*
X170916452Y-105301532D01*
X170855061Y-105236949D01*
X170855060Y-105236948D01*
X170855059Y-105236947D01*
X170827204Y-105217559D01*
X170804709Y-105201902D01*
X170800946Y-105199064D01*
X170753413Y-105160305D01*
X170753406Y-105160300D01*
X170722959Y-105144397D01*
X170716251Y-105140334D01*
X170688049Y-105120705D01*
X170688046Y-105120703D01*
X170688045Y-105120703D01*
X170688041Y-105120701D01*
X170631680Y-105096514D01*
X170627424Y-105094493D01*
X170573057Y-105066094D01*
X170573050Y-105066091D01*
X170573049Y-105066091D01*
X170567008Y-105064362D01*
X170540030Y-105056642D01*
X170532630Y-105054008D01*
X170501057Y-105040459D01*
X170501058Y-105040459D01*
X170440966Y-105028109D01*
X170436391Y-105026986D01*
X170377420Y-105010113D01*
X170377425Y-105010113D01*
X170343158Y-105007503D01*
X170335380Y-105006412D01*
X170301742Y-104999500D01*
X170301741Y-104999500D01*
X170240402Y-104999500D01*
X170235695Y-104999321D01*
X170230121Y-104998896D01*
X170174524Y-104994662D01*
X170154589Y-104997201D01*
X170140440Y-104999003D01*
X170132611Y-104999500D01*
X169824499Y-104999500D01*
X169757460Y-104979815D01*
X169711705Y-104927011D01*
X169700499Y-104875500D01*
X169700499Y-104752129D01*
X169700498Y-104752123D01*
X169700497Y-104752116D01*
X169694091Y-104692517D01*
X169686608Y-104672455D01*
X169643797Y-104557671D01*
X169643793Y-104557664D01*
X169557547Y-104442455D01*
X169557544Y-104442452D01*
X169442335Y-104356206D01*
X169442328Y-104356202D01*
X169307482Y-104305908D01*
X169307483Y-104305908D01*
X169247883Y-104299501D01*
X169247881Y-104299500D01*
X169247873Y-104299500D01*
X169247864Y-104299500D01*
X166752129Y-104299500D01*
X166752123Y-104299501D01*
X166692516Y-104305908D01*
X166557671Y-104356202D01*
X166557664Y-104356206D01*
X166442455Y-104442452D01*
X166442452Y-104442455D01*
X166356206Y-104557664D01*
X166356202Y-104557671D01*
X166305908Y-104692517D01*
X166299501Y-104752116D01*
X166299501Y-104752123D01*
X166299500Y-104752135D01*
X166299500Y-107247870D01*
X166299501Y-107247876D01*
X166305908Y-107307483D01*
X166356202Y-107442328D01*
X166356206Y-107442335D01*
X166442452Y-107557544D01*
X166442455Y-107557547D01*
X166557664Y-107643793D01*
X166557671Y-107643797D01*
X166692517Y-107694091D01*
X166692516Y-107694091D01*
X166699444Y-107694835D01*
X166752127Y-107700500D01*
X169247872Y-107700499D01*
X169307483Y-107694091D01*
X169442331Y-107643796D01*
X169557546Y-107557546D01*
X169643796Y-107442331D01*
X169694091Y-107307483D01*
X169700500Y-107247873D01*
X169700500Y-107214783D01*
X169720185Y-107147744D01*
X169772989Y-107101989D01*
X169842147Y-107092045D01*
X169905703Y-107121070D01*
X169912181Y-107127102D01*
X172185266Y-109400187D01*
X172246638Y-109464750D01*
X172246641Y-109464753D01*
X172296981Y-109499792D01*
X172300743Y-109502628D01*
X172348287Y-109541394D01*
X172348290Y-109541395D01*
X172348293Y-109541398D01*
X172378745Y-109557304D01*
X172385458Y-109561372D01*
X172413651Y-109580995D01*
X172470029Y-109605189D01*
X172474278Y-109607207D01*
X172528651Y-109635609D01*
X172556189Y-109643488D01*
X172561674Y-109645058D01*
X172569068Y-109647690D01*
X172600642Y-109661240D01*
X172600645Y-109661240D01*
X172600646Y-109661241D01*
X172660722Y-109673587D01*
X172665300Y-109674710D01*
X172667404Y-109675312D01*
X172724282Y-109691587D01*
X172758539Y-109694195D01*
X172766314Y-109695286D01*
X172799955Y-109702200D01*
X172799959Y-109702200D01*
X172861299Y-109702200D01*
X172866005Y-109702378D01*
X172893296Y-109704457D01*
X172927176Y-109707037D01*
X172927176Y-109707036D01*
X172927177Y-109707037D01*
X172961260Y-109702696D01*
X172969090Y-109702200D01*
X187988500Y-109702200D01*
X188055539Y-109721885D01*
X188101294Y-109774689D01*
X188112500Y-109826200D01*
X188112500Y-131765138D01*
X188092815Y-131832177D01*
X188040011Y-131877932D01*
X188025622Y-131883451D01*
X187812750Y-131950241D01*
X187464250Y-132099794D01*
X187132666Y-132283838D01*
X187132661Y-132283841D01*
X186821392Y-132500491D01*
X186533642Y-132747516D01*
X186272353Y-133022393D01*
X186040225Y-133322278D01*
X185839616Y-133644124D01*
X185672604Y-133984600D01*
X185672598Y-133984615D01*
X185540891Y-134340234D01*
X185445830Y-134707382D01*
X185388402Y-135082246D01*
X185369195Y-135461000D01*
X185388402Y-135839753D01*
X185445830Y-136214617D01*
X185445831Y-136214622D01*
X185495550Y-136406649D01*
X185540891Y-136581765D01*
X185672598Y-136937384D01*
X185672604Y-136937399D01*
X185839616Y-137277875D01*
X185907840Y-137387330D01*
X186040222Y-137599717D01*
X186040224Y-137599720D01*
X186040225Y-137599721D01*
X186231587Y-137846941D01*
X186272358Y-137899612D01*
X186493698Y-138132462D01*
X186533642Y-138174483D01*
X186821392Y-138421508D01*
X186821395Y-138421510D01*
X187132662Y-138638159D01*
X187464250Y-138822205D01*
X187812757Y-138971761D01*
X187812760Y-138971762D01*
X187812765Y-138971764D01*
X188174595Y-139085289D01*
X188174598Y-139085289D01*
X188174606Y-139085292D01*
X188546084Y-139161633D01*
X188847920Y-139192326D01*
X188923378Y-139200000D01*
X188923379Y-139200000D01*
X189302622Y-139200000D01*
X189365503Y-139193605D01*
X189679916Y-139161633D01*
X190051394Y-139085292D01*
X190051404Y-139085289D01*
X190413234Y-138971764D01*
X190413235Y-138971763D01*
X190413243Y-138971761D01*
X190761750Y-138822205D01*
X191093338Y-138638159D01*
X191404605Y-138421510D01*
X191692358Y-138174483D01*
X191953642Y-137899612D01*
X192185778Y-137599717D01*
X192386383Y-137277876D01*
X192553399Y-136937391D01*
X192685111Y-136581757D01*
X192780169Y-136214622D01*
X192837597Y-135839754D01*
X192856805Y-135461000D01*
X192837597Y-135082246D01*
X192780169Y-134707378D01*
X192685111Y-134340243D01*
X192553399Y-133984609D01*
X192527182Y-133931163D01*
X192386383Y-133644124D01*
X192366256Y-133611833D01*
X192185778Y-133322283D01*
X191953642Y-133022388D01*
X191692358Y-132747517D01*
X191544558Y-132620635D01*
X191404607Y-132500491D01*
X191093338Y-132283841D01*
X191093333Y-132283838D01*
X190761749Y-132099794D01*
X190413249Y-131950241D01*
X190200378Y-131883451D01*
X190142306Y-131844600D01*
X190114458Y-131780520D01*
X190113500Y-131765138D01*
X190113500Y-109826200D01*
X190133185Y-109759161D01*
X190185989Y-109713406D01*
X190237500Y-109702200D01*
X195973584Y-109702200D01*
X196062658Y-109704457D01*
X196062658Y-109704456D01*
X196062663Y-109704457D01*
X196123053Y-109693632D01*
X196127712Y-109692980D01*
X196169907Y-109688688D01*
X196188738Y-109686774D01*
X196221527Y-109676486D01*
X196229140Y-109674618D01*
X196262953Y-109668558D01*
X196319921Y-109645801D01*
X196324353Y-109644224D01*
X196382888Y-109625859D01*
X196412927Y-109609184D01*
X196420008Y-109605822D01*
X196451917Y-109593077D01*
X196503154Y-109559308D01*
X196507151Y-109556887D01*
X196560802Y-109527109D01*
X196586868Y-109504730D01*
X196593143Y-109500000D01*
X196593459Y-109499792D01*
X196621819Y-109481102D01*
X196665192Y-109437727D01*
X196668650Y-109434523D01*
X196671913Y-109431720D01*
X196715195Y-109394566D01*
X196736228Y-109367391D01*
X196741398Y-109361521D01*
X197646930Y-108455988D01*
X197708251Y-108422505D01*
X197753090Y-108421056D01*
X197868818Y-108438500D01*
X197868824Y-108438500D01*
X198131182Y-108438500D01*
X198390615Y-108399396D01*
X198641323Y-108322063D01*
X198877704Y-108208228D01*
X199094479Y-108060433D01*
X199286805Y-107881981D01*
X199450386Y-107676857D01*
X199581568Y-107449643D01*
X199677420Y-107205416D01*
X199735802Y-106949630D01*
X199735922Y-106948026D01*
X199755408Y-106688004D01*
X199755408Y-106687995D01*
X199735803Y-106426379D01*
X199735802Y-106426374D01*
X199735802Y-106426370D01*
X199677420Y-106170584D01*
X199581568Y-105926357D01*
X199450386Y-105699143D01*
X199286805Y-105494019D01*
X199286804Y-105494018D01*
X199286801Y-105494014D01*
X199094479Y-105315567D01*
X199052274Y-105286792D01*
X198877704Y-105167772D01*
X198877700Y-105167770D01*
X198877697Y-105167768D01*
X198877696Y-105167767D01*
X198641325Y-105053938D01*
X198641327Y-105053938D01*
X198390623Y-104976606D01*
X198390619Y-104976605D01*
X198390615Y-104976604D01*
X198265823Y-104957794D01*
X198131187Y-104937500D01*
X198131182Y-104937500D01*
X197868818Y-104937500D01*
X197868812Y-104937500D01*
X197707247Y-104961853D01*
X197609385Y-104976604D01*
X197609381Y-104976605D01*
X197609382Y-104976605D01*
X197609376Y-104976606D01*
X197358673Y-105053938D01*
X197122303Y-105167767D01*
X197122302Y-105167768D01*
X196905520Y-105315567D01*
X196713198Y-105494014D01*
X196549614Y-105699143D01*
X196418432Y-105926356D01*
X196322582Y-106170578D01*
X196322576Y-106170597D01*
X196264197Y-106426374D01*
X196264196Y-106426379D01*
X196244592Y-106687995D01*
X196244592Y-106688004D01*
X196264077Y-106948026D01*
X196249457Y-107016349D01*
X196228105Y-107044973D01*
X195608199Y-107664881D01*
X195546876Y-107698366D01*
X195520518Y-107701200D01*
X189139929Y-107701200D01*
X189136789Y-107701120D01*
X189062064Y-107697331D01*
X189062060Y-107697331D01*
X189046143Y-107699770D01*
X189027367Y-107701200D01*
X188475106Y-107701200D01*
X188408067Y-107681515D01*
X188362312Y-107628711D01*
X188352368Y-107559553D01*
X188367719Y-107515200D01*
X188393526Y-107470500D01*
X188405568Y-107449643D01*
X188501420Y-107205416D01*
X188559802Y-106949630D01*
X188559922Y-106948026D01*
X188579408Y-106688004D01*
X188579408Y-106687995D01*
X188559803Y-106426379D01*
X188559802Y-106426374D01*
X188559802Y-106426370D01*
X188501420Y-106170584D01*
X188405568Y-105926357D01*
X188274386Y-105699143D01*
X188110805Y-105494019D01*
X188110804Y-105494018D01*
X188110801Y-105494014D01*
X187918479Y-105315567D01*
X187876274Y-105286792D01*
X187701704Y-105167772D01*
X187701700Y-105167770D01*
X187701697Y-105167768D01*
X187701696Y-105167767D01*
X187465325Y-105053938D01*
X187465327Y-105053938D01*
X187214623Y-104976606D01*
X187214619Y-104976605D01*
X187214615Y-104976604D01*
X187089823Y-104957794D01*
X186955187Y-104937500D01*
X186955182Y-104937500D01*
X186692818Y-104937500D01*
X186692812Y-104937500D01*
X186577092Y-104954943D01*
X186507867Y-104945470D01*
X186470929Y-104920009D01*
X177062924Y-95512004D01*
X185069093Y-95512004D01*
X185088692Y-95773545D01*
X185088693Y-95773550D01*
X185147058Y-96029270D01*
X185242883Y-96273426D01*
X185242882Y-96273426D01*
X185374030Y-96500577D01*
X185421873Y-96560571D01*
X186142589Y-95839855D01*
X186203912Y-95806370D01*
X186273603Y-95811354D01*
X186328645Y-95852048D01*
X186396075Y-95939925D01*
X186396076Y-95939926D01*
X186483948Y-96007352D01*
X186525151Y-96063780D01*
X186529306Y-96133526D01*
X186496143Y-96193409D01*
X185774831Y-96914720D01*
X185946546Y-97031793D01*
X185946550Y-97031795D01*
X186182854Y-97145594D01*
X186182858Y-97145595D01*
X186433494Y-97222907D01*
X186433500Y-97222909D01*
X186692848Y-97261999D01*
X186692857Y-97262000D01*
X186955143Y-97262000D01*
X186955151Y-97261999D01*
X187214499Y-97222909D01*
X187214505Y-97222907D01*
X187465143Y-97145595D01*
X187701445Y-97031798D01*
X187701456Y-97031791D01*
X187873167Y-96914720D01*
X187151856Y-96193409D01*
X187118371Y-96132086D01*
X187123355Y-96062394D01*
X187164049Y-96007353D01*
X187251925Y-95939925D01*
X187319355Y-95852048D01*
X187375781Y-95810848D01*
X187445527Y-95806693D01*
X187505410Y-95839856D01*
X188226124Y-96560571D01*
X188273974Y-96500570D01*
X188405116Y-96273426D01*
X188500941Y-96029270D01*
X188559306Y-95773550D01*
X188559307Y-95773545D01*
X188578907Y-95512004D01*
X188578907Y-95511995D01*
X188559307Y-95250454D01*
X188559306Y-95250449D01*
X188500941Y-94994729D01*
X188405116Y-94750573D01*
X188405117Y-94750573D01*
X188273971Y-94523426D01*
X188226125Y-94463427D01*
X187505409Y-95184143D01*
X187444086Y-95217628D01*
X187374394Y-95212644D01*
X187319352Y-95171948D01*
X187251926Y-95084076D01*
X187193687Y-95039388D01*
X187164048Y-95016645D01*
X187122847Y-94960218D01*
X187118692Y-94890472D01*
X187151855Y-94830589D01*
X187873167Y-94109278D01*
X187701447Y-93992202D01*
X187701445Y-93992201D01*
X187465142Y-93878404D01*
X187465144Y-93878404D01*
X187214505Y-93801092D01*
X187214499Y-93801090D01*
X186955151Y-93762000D01*
X186692848Y-93762000D01*
X186433500Y-93801090D01*
X186433494Y-93801092D01*
X186182858Y-93878404D01*
X186182854Y-93878405D01*
X185946550Y-93992204D01*
X185946546Y-93992206D01*
X185774832Y-94109278D01*
X186496144Y-94830590D01*
X186529629Y-94891913D01*
X186524645Y-94961605D01*
X186483950Y-95016645D01*
X186454313Y-95039388D01*
X186396074Y-95084076D01*
X186328645Y-95171950D01*
X186272216Y-95213152D01*
X186202470Y-95217306D01*
X186142589Y-95184143D01*
X185421873Y-94463427D01*
X185374029Y-94523423D01*
X185242883Y-94750573D01*
X185147058Y-94994729D01*
X185088693Y-95250449D01*
X185088692Y-95250454D01*
X185069093Y-95511995D01*
X185069093Y-95512004D01*
X177062924Y-95512004D01*
X161220919Y-79669999D01*
X168260769Y-79669999D01*
X168279668Y-79946314D01*
X168279669Y-79946316D01*
X168336014Y-80217469D01*
X168336019Y-80217485D01*
X168428760Y-80478435D01*
X168428763Y-80478441D01*
X168428764Y-80478444D01*
X168428766Y-80478448D01*
X168556186Y-80724356D01*
X168715903Y-80950623D01*
X168904942Y-81153035D01*
X169119782Y-81327821D01*
X169119784Y-81327822D01*
X169119785Y-81327823D01*
X169356423Y-81471725D01*
X169529917Y-81547083D01*
X169610452Y-81582065D01*
X169877141Y-81656788D01*
X170118364Y-81689942D01*
X170151519Y-81694500D01*
X170151520Y-81694500D01*
X170428481Y-81694500D01*
X170458061Y-81690434D01*
X170702859Y-81656788D01*
X170969548Y-81582065D01*
X171223578Y-81471724D01*
X171460218Y-81327821D01*
X171675058Y-81153035D01*
X171864097Y-80950623D01*
X172023814Y-80724356D01*
X172023813Y-80724356D01*
X172024777Y-80722992D01*
X172079519Y-80679574D01*
X172126081Y-80670500D01*
X181819217Y-80670500D01*
X181886256Y-80690185D01*
X181906898Y-80706819D01*
X196228105Y-95028025D01*
X196261590Y-95089348D01*
X196264077Y-95124972D01*
X196244592Y-95384995D01*
X196244592Y-95385004D01*
X196264196Y-95646620D01*
X196264197Y-95646625D01*
X196322576Y-95902402D01*
X196322578Y-95902411D01*
X196322580Y-95902416D01*
X196418432Y-96146643D01*
X196549614Y-96373857D01*
X196650664Y-96500570D01*
X196713198Y-96578985D01*
X196886612Y-96739888D01*
X196905521Y-96757433D01*
X197122296Y-96905228D01*
X197122301Y-96905230D01*
X197122302Y-96905231D01*
X197122303Y-96905232D01*
X197237300Y-96960611D01*
X197358673Y-97019061D01*
X197358674Y-97019061D01*
X197358677Y-97019063D01*
X197609385Y-97096396D01*
X197868818Y-97135500D01*
X198131182Y-97135500D01*
X198390615Y-97096396D01*
X198641323Y-97019063D01*
X198877704Y-96905228D01*
X199094479Y-96757433D01*
X199286805Y-96578981D01*
X199450386Y-96373857D01*
X199581568Y-96146643D01*
X199677420Y-95902416D01*
X199735802Y-95646630D01*
X199745891Y-95512000D01*
X199755408Y-95385004D01*
X199755408Y-95384995D01*
X199735803Y-95123379D01*
X199735802Y-95123374D01*
X199735802Y-95123370D01*
X199677420Y-94867584D01*
X199581568Y-94623357D01*
X199450386Y-94396143D01*
X199286805Y-94191019D01*
X199286804Y-94191018D01*
X199286801Y-94191014D01*
X199094479Y-94012567D01*
X199064609Y-93992202D01*
X198877704Y-93864772D01*
X198877700Y-93864770D01*
X198877697Y-93864768D01*
X198877696Y-93864767D01*
X198641325Y-93750938D01*
X198641327Y-93750938D01*
X198390623Y-93673606D01*
X198390619Y-93673605D01*
X198390615Y-93673604D01*
X198265823Y-93654794D01*
X198131187Y-93634500D01*
X198131182Y-93634500D01*
X197868818Y-93634500D01*
X197868812Y-93634500D01*
X197753092Y-93651943D01*
X197683867Y-93642470D01*
X197646929Y-93617009D01*
X183001452Y-78971532D01*
X182940061Y-78906949D01*
X182940060Y-78906948D01*
X182940059Y-78906947D01*
X182912204Y-78887559D01*
X182889709Y-78871902D01*
X182885946Y-78869064D01*
X182838413Y-78830305D01*
X182838406Y-78830300D01*
X182807959Y-78814397D01*
X182801251Y-78810334D01*
X182773049Y-78790705D01*
X182773046Y-78790703D01*
X182773045Y-78790703D01*
X182773041Y-78790701D01*
X182716680Y-78766514D01*
X182712424Y-78764493D01*
X182658057Y-78736094D01*
X182658050Y-78736091D01*
X182658049Y-78736091D01*
X182652008Y-78734362D01*
X182625030Y-78726642D01*
X182617630Y-78724008D01*
X182586057Y-78710459D01*
X182586058Y-78710459D01*
X182525966Y-78698109D01*
X182521391Y-78696986D01*
X182462420Y-78680113D01*
X182462425Y-78680113D01*
X182428158Y-78677503D01*
X182420380Y-78676412D01*
X182386742Y-78669500D01*
X182386741Y-78669500D01*
X182325402Y-78669500D01*
X182320695Y-78669321D01*
X182315121Y-78668896D01*
X182259524Y-78664662D01*
X182239589Y-78667201D01*
X182225440Y-78669003D01*
X182217611Y-78669500D01*
X172126081Y-78669500D01*
X172059042Y-78649815D01*
X172024777Y-78617008D01*
X171864098Y-78389378D01*
X171864092Y-78389372D01*
X171675058Y-78186965D01*
X171460214Y-78012176D01*
X171223576Y-77868274D01*
X170969551Y-77757936D01*
X170969549Y-77757935D01*
X170969548Y-77757935D01*
X170893673Y-77736676D01*
X170702864Y-77683213D01*
X170702860Y-77683212D01*
X170702859Y-77683212D01*
X170565669Y-77664356D01*
X170428481Y-77645500D01*
X170428480Y-77645500D01*
X170151520Y-77645500D01*
X170151519Y-77645500D01*
X169877141Y-77683212D01*
X169877135Y-77683213D01*
X169610448Y-77757936D01*
X169356423Y-77868274D01*
X169119785Y-78012176D01*
X168904941Y-78186965D01*
X168715907Y-78389372D01*
X168715904Y-78389374D01*
X168715903Y-78389377D01*
X168652016Y-78479882D01*
X168556186Y-78615643D01*
X168428763Y-78861558D01*
X168428760Y-78861564D01*
X168336019Y-79122514D01*
X168336014Y-79122530D01*
X168279669Y-79393683D01*
X168279668Y-79393685D01*
X168260769Y-79669999D01*
X161220919Y-79669999D01*
X160522452Y-78971532D01*
X160461061Y-78906949D01*
X160461060Y-78906948D01*
X160461059Y-78906947D01*
X160433204Y-78887559D01*
X160410709Y-78871902D01*
X160406946Y-78869064D01*
X160359413Y-78830305D01*
X160359406Y-78830300D01*
X160328959Y-78814397D01*
X160322251Y-78810334D01*
X160294049Y-78790705D01*
X160294046Y-78790703D01*
X160294045Y-78790703D01*
X160294041Y-78790701D01*
X160237680Y-78766514D01*
X160233424Y-78764493D01*
X160179057Y-78736094D01*
X160179050Y-78736091D01*
X160179049Y-78736091D01*
X160173008Y-78734362D01*
X160146030Y-78726642D01*
X160138630Y-78724008D01*
X160107057Y-78710459D01*
X160107058Y-78710459D01*
X160046966Y-78698109D01*
X160042391Y-78696986D01*
X159983420Y-78680113D01*
X159983425Y-78680113D01*
X159949158Y-78677503D01*
X159941380Y-78676412D01*
X159907742Y-78669500D01*
X159907741Y-78669500D01*
X159846402Y-78669500D01*
X159841695Y-78669321D01*
X159836121Y-78668896D01*
X159780524Y-78664662D01*
X159760589Y-78667201D01*
X159746440Y-78669003D01*
X159738611Y-78669500D01*
X103546081Y-78669500D01*
X103479042Y-78649815D01*
X103444777Y-78617008D01*
X103284098Y-78389378D01*
X103284092Y-78389372D01*
X103095058Y-78186965D01*
X102880214Y-78012176D01*
X102643576Y-77868274D01*
X102389551Y-77757936D01*
X102389549Y-77757935D01*
X102389548Y-77757935D01*
X102313673Y-77736675D01*
X102122864Y-77683213D01*
X102122860Y-77683212D01*
X102122859Y-77683212D01*
X101985669Y-77664355D01*
X101848481Y-77645500D01*
X101848480Y-77645500D01*
X101571520Y-77645500D01*
X101571519Y-77645500D01*
X101297141Y-77683212D01*
X101297135Y-77683213D01*
X101030448Y-77757936D01*
X100776423Y-77868274D01*
X100539785Y-78012176D01*
X100324941Y-78186965D01*
X100135907Y-78389372D01*
X100135904Y-78389374D01*
X100135903Y-78389377D01*
X100072016Y-78479882D01*
X99976186Y-78615643D01*
X99848763Y-78861558D01*
X99848760Y-78861564D01*
X99756019Y-79122514D01*
X99756014Y-79122530D01*
X99699669Y-79393683D01*
X99699668Y-79393685D01*
X99680769Y-79669999D01*
X67000500Y-79669999D01*
X67000500Y-55515889D01*
X80119416Y-55515889D01*
X80119459Y-55540001D01*
X80119500Y-55540099D01*
X80119616Y-55540382D01*
X80119618Y-55540384D01*
X80119808Y-55540462D01*
X80120000Y-55540541D01*
X80120002Y-55540539D01*
X80144616Y-55540524D01*
X80144616Y-55540528D01*
X80144760Y-55540500D01*
X92033240Y-55540500D01*
X92033383Y-55540528D01*
X92033384Y-55540524D01*
X92057997Y-55540539D01*
X92058000Y-55540541D01*
X92058383Y-55540383D01*
X92058500Y-55540099D01*
X92058541Y-55540000D01*
X92058540Y-55539997D01*
X92058583Y-55515889D01*
X92058500Y-55515467D01*
X92058500Y-50484759D01*
X92058528Y-50484616D01*
X92058524Y-50484616D01*
X92058525Y-50483555D01*
X179814372Y-50483555D01*
X179814499Y-50484203D01*
X179814499Y-55516019D01*
X179814417Y-55516440D01*
X179814459Y-55539999D01*
X179814459Y-55540000D01*
X179814499Y-55540099D01*
X179814677Y-55540541D01*
X179814999Y-55540540D01*
X179815000Y-55540541D01*
X179815000Y-55540540D01*
X179839616Y-55540524D01*
X179839616Y-55540528D01*
X179839760Y-55540500D01*
X191728240Y-55540500D01*
X191728383Y-55540528D01*
X191728384Y-55540524D01*
X191752997Y-55540539D01*
X191753000Y-55540541D01*
X191753383Y-55540383D01*
X191753500Y-55540099D01*
X191753541Y-55540000D01*
X191753540Y-55539997D01*
X191753583Y-55515889D01*
X191753500Y-55515467D01*
X191753500Y-50484759D01*
X191753528Y-50484616D01*
X191753524Y-50484616D01*
X191753539Y-50460002D01*
X191753541Y-50460000D01*
X191753462Y-50459808D01*
X191753384Y-50459618D01*
X191753382Y-50459616D01*
X191753099Y-50459500D01*
X191753000Y-50459459D01*
X191728446Y-50459459D01*
X191728240Y-50459500D01*
X179839760Y-50459500D01*
X179839554Y-50459459D01*
X179815000Y-50459459D01*
X179814901Y-50459500D01*
X179814617Y-50459616D01*
X179814615Y-50459618D01*
X179814458Y-50460000D01*
X179814372Y-50483555D01*
X92058525Y-50483555D01*
X92058539Y-50460002D01*
X92058541Y-50460000D01*
X92058462Y-50459808D01*
X92058384Y-50459618D01*
X92058382Y-50459616D01*
X92058099Y-50459500D01*
X92058000Y-50459459D01*
X92033446Y-50459459D01*
X92033240Y-50459500D01*
X80144760Y-50459500D01*
X80144554Y-50459459D01*
X80120000Y-50459459D01*
X80119901Y-50459500D01*
X80119617Y-50459616D01*
X80119615Y-50459618D01*
X80119459Y-50459999D01*
X80119476Y-50484616D01*
X80119471Y-50484616D01*
X80119500Y-50484759D01*
X80119500Y-55515467D01*
X80119416Y-55515889D01*
X67000500Y-55515889D01*
X67000500Y-26838000D01*
X100442769Y-26838000D01*
X100461668Y-27114314D01*
X100461669Y-27114316D01*
X100518014Y-27385469D01*
X100518019Y-27385485D01*
X100610760Y-27646435D01*
X100610763Y-27646441D01*
X100610764Y-27646444D01*
X100610766Y-27646448D01*
X100738186Y-27892356D01*
X100897903Y-28118623D01*
X101086942Y-28321035D01*
X101301782Y-28495821D01*
X101301784Y-28495822D01*
X101301785Y-28495823D01*
X101538423Y-28639725D01*
X101711917Y-28715083D01*
X101792452Y-28750065D01*
X102059141Y-28824788D01*
X102300364Y-28857942D01*
X102333519Y-28862500D01*
X102333520Y-28862500D01*
X102610481Y-28862500D01*
X102640061Y-28858434D01*
X102884859Y-28824788D01*
X103151548Y-28750065D01*
X103405578Y-28639724D01*
X103642218Y-28495821D01*
X103857058Y-28321035D01*
X104046097Y-28118623D01*
X104205814Y-27892356D01*
X104333234Y-27646448D01*
X104425982Y-27385480D01*
X104425982Y-27385475D01*
X104425985Y-27385469D01*
X104456973Y-27236343D01*
X104482331Y-27114314D01*
X104501231Y-26838000D01*
X104482331Y-26561686D01*
X104465989Y-26483046D01*
X104434187Y-26330000D01*
X168260769Y-26330000D01*
X168279668Y-26606314D01*
X168279669Y-26606316D01*
X168336014Y-26877469D01*
X168336019Y-26877485D01*
X168428760Y-27138435D01*
X168428763Y-27138441D01*
X168428764Y-27138444D01*
X168428766Y-27138448D01*
X168556186Y-27384356D01*
X168715903Y-27610623D01*
X168904942Y-27813035D01*
X169119782Y-27987821D01*
X169119784Y-27987822D01*
X169119785Y-27987823D01*
X169356423Y-28131725D01*
X169529917Y-28207083D01*
X169610452Y-28242065D01*
X169877141Y-28316788D01*
X170118364Y-28349942D01*
X170151519Y-28354500D01*
X170151520Y-28354500D01*
X170428481Y-28354500D01*
X170458061Y-28350434D01*
X170702859Y-28316788D01*
X170969548Y-28242065D01*
X171223578Y-28131724D01*
X171460218Y-27987821D01*
X171675058Y-27813035D01*
X171864097Y-27610623D01*
X172023814Y-27384356D01*
X172151234Y-27138448D01*
X172159812Y-27114314D01*
X172243980Y-26877485D01*
X172243985Y-26877469D01*
X172274973Y-26728343D01*
X172300331Y-26606314D01*
X172319231Y-26330000D01*
X172300331Y-26053686D01*
X172244216Y-25783644D01*
X172243985Y-25782530D01*
X172243980Y-25782514D01*
X172151239Y-25521564D01*
X172151236Y-25521558D01*
X172151234Y-25521552D01*
X172023814Y-25275644D01*
X171864097Y-25049377D01*
X171675058Y-24846965D01*
X171460218Y-24672179D01*
X171460216Y-24672178D01*
X171460214Y-24672176D01*
X171223576Y-24528274D01*
X170969551Y-24417936D01*
X170969549Y-24417935D01*
X170969548Y-24417935D01*
X170893673Y-24396676D01*
X170702864Y-24343213D01*
X170702860Y-24343212D01*
X170702859Y-24343212D01*
X170565669Y-24324356D01*
X170428481Y-24305500D01*
X170428480Y-24305500D01*
X170151520Y-24305500D01*
X170151519Y-24305500D01*
X169877141Y-24343212D01*
X169877135Y-24343213D01*
X169610448Y-24417936D01*
X169356423Y-24528274D01*
X169119785Y-24672176D01*
X168904941Y-24846965D01*
X168715907Y-25049372D01*
X168556186Y-25275643D01*
X168428763Y-25521558D01*
X168428760Y-25521564D01*
X168336019Y-25782514D01*
X168336014Y-25782530D01*
X168279669Y-26053683D01*
X168279668Y-26053685D01*
X168260769Y-26330000D01*
X104434187Y-26330000D01*
X104425985Y-26290530D01*
X104425980Y-26290514D01*
X104333239Y-26029564D01*
X104333236Y-26029558D01*
X104333234Y-26029552D01*
X104205814Y-25783644D01*
X104046097Y-25557377D01*
X103857058Y-25354965D01*
X103642218Y-25180179D01*
X103642216Y-25180178D01*
X103642214Y-25180176D01*
X103405576Y-25036274D01*
X103151551Y-24925936D01*
X103151549Y-24925935D01*
X103151548Y-24925935D01*
X103075673Y-24904675D01*
X102884864Y-24851213D01*
X102884860Y-24851212D01*
X102884859Y-24851212D01*
X102747669Y-24832356D01*
X102610481Y-24813500D01*
X102610480Y-24813500D01*
X102333520Y-24813500D01*
X102333519Y-24813500D01*
X102059141Y-24851212D01*
X102059135Y-24851213D01*
X101792448Y-24925936D01*
X101538423Y-25036274D01*
X101301785Y-25180176D01*
X101086941Y-25354965D01*
X100897907Y-25557372D01*
X100738186Y-25783643D01*
X100610763Y-26029558D01*
X100610760Y-26029564D01*
X100518019Y-26290514D01*
X100518014Y-26290530D01*
X100461669Y-26561683D01*
X100461668Y-26561685D01*
X100442769Y-26838000D01*
X67000500Y-26838000D01*
X67000500Y-21000000D01*
X67009493Y-20782569D01*
X67018160Y-20584061D01*
X67018574Y-20579138D01*
X67045487Y-20363223D01*
X67071884Y-20162726D01*
X67072669Y-20158114D01*
X67117191Y-19945778D01*
X67161160Y-19747451D01*
X67162253Y-19743235D01*
X67224112Y-19535457D01*
X67285324Y-19341320D01*
X67286673Y-19337488D01*
X67365469Y-19135551D01*
X67443499Y-18947170D01*
X67445033Y-18943771D01*
X67514381Y-18801920D01*
X67540249Y-18749007D01*
X67573419Y-18685284D01*
X67634494Y-18567960D01*
X67636207Y-18564891D01*
X67747211Y-18378601D01*
X67856972Y-18206313D01*
X67858765Y-18203656D01*
X67984856Y-18027054D01*
X68109313Y-17864861D01*
X68111135Y-17862601D01*
X68251448Y-17696933D01*
X68390563Y-17545115D01*
X68545115Y-17390563D01*
X68696933Y-17251448D01*
X68862601Y-17111135D01*
X68864861Y-17109313D01*
X69027054Y-16984856D01*
X69203656Y-16858765D01*
X69206313Y-16856972D01*
X69378601Y-16747211D01*
X69564900Y-16636201D01*
X69567960Y-16634494D01*
X69685284Y-16573419D01*
X69749007Y-16540249D01*
X69823655Y-16503755D01*
X69943771Y-16445033D01*
X69947170Y-16443499D01*
X70135551Y-16365469D01*
X70337488Y-16286673D01*
X70341320Y-16285324D01*
X70535457Y-16224112D01*
X70743235Y-16162253D01*
X70747451Y-16161160D01*
X70945778Y-16117191D01*
X71158114Y-16072669D01*
X71162726Y-16071884D01*
X71363223Y-16045487D01*
X71579138Y-16018574D01*
X71584061Y-16018160D01*
X71782569Y-16009493D01*
X72000000Y-16000500D01*
X72000500Y-16000500D01*
X204999500Y-16000500D01*
X205000000Y-16000500D01*
X205217318Y-16009488D01*
G37*
%TD.AperFunction*%
%TD*%
%TA.AperFunction,NonConductor*%
G36*
X122572255Y-120260585D02*
G01*
X122618010Y-120313389D01*
X122627954Y-120382547D01*
X122618772Y-120414710D01*
X122576412Y-120511282D01*
X122515387Y-120752261D01*
X122515385Y-120752269D01*
X122510832Y-120807216D01*
X122485678Y-120872400D01*
X122429275Y-120913638D01*
X122359532Y-120917835D01*
X122299575Y-120884655D01*
X121867501Y-120452581D01*
X121834016Y-120391258D01*
X121839000Y-120321566D01*
X121880872Y-120265633D01*
X121946336Y-120241216D01*
X121955182Y-120240900D01*
X122505216Y-120240900D01*
X122572255Y-120260585D01*
G37*
%TD.AperFunction*%
%TA.AperFunction,NonConductor*%
G36*
X98709879Y-119126768D02*
G01*
X98723962Y-119138883D01*
X101164998Y-121579919D01*
X101198483Y-121641242D01*
X101193499Y-121710934D01*
X101151627Y-121766867D01*
X101086163Y-121791284D01*
X101077317Y-121791600D01*
X98271044Y-121791600D01*
X98204005Y-121771915D01*
X98176754Y-121748132D01*
X98144983Y-121710934D01*
X98073160Y-121626840D01*
X97892069Y-121472173D01*
X97892067Y-121472171D01*
X97892065Y-121472170D01*
X97892064Y-121472169D01*
X97689011Y-121347738D01*
X97468983Y-121256600D01*
X97237413Y-121201006D01*
X97237414Y-121201006D01*
X97022174Y-121184067D01*
X97000000Y-121182322D01*
X96999999Y-121182322D01*
X96762585Y-121201006D01*
X96531016Y-121256600D01*
X96362553Y-121326380D01*
X96293083Y-121333849D01*
X96230604Y-121302574D01*
X96194952Y-121242485D01*
X96191100Y-121211819D01*
X96191100Y-120788180D01*
X96210785Y-120721141D01*
X96263589Y-120675386D01*
X96332747Y-120665442D01*
X96362548Y-120673617D01*
X96531012Y-120743398D01*
X96762583Y-120798993D01*
X97000000Y-120817678D01*
X97237417Y-120798993D01*
X97468988Y-120743398D01*
X97689011Y-120652261D01*
X97892069Y-120527827D01*
X98073160Y-120373160D01*
X98227827Y-120192069D01*
X98352261Y-119989011D01*
X98443398Y-119768988D01*
X98498993Y-119537417D01*
X98517678Y-119300000D01*
X98512663Y-119236290D01*
X98527027Y-119167917D01*
X98576077Y-119118160D01*
X98644242Y-119102820D01*
X98709879Y-119126768D01*
G37*
%TD.AperFunction*%
M02*
