%TF.GenerationSoftware,KiCad,Pcbnew,7.0.7*%
%TF.CreationDate,2023-12-20T01:36:47+05:30*%
%TF.ProjectId,Power Supply,506f7765-7220-4537-9570-706c792e6b69,rev?*%
%TF.SameCoordinates,Original*%
%TF.FileFunction,Legend,Top*%
%TF.FilePolarity,Positive*%
%FSLAX46Y46*%
G04 Gerber Fmt 4.6, Leading zero omitted, Abs format (unit mm)*
G04 Created by KiCad (PCBNEW 7.0.7) date 2023-12-20 01:36:47*
%MOMM*%
%LPD*%
G01*
G04 APERTURE LIST*
%ADD10C,0.150000*%
%ADD11C,0.300000*%
%ADD12C,0.200000*%
%ADD13C,0.127000*%
%ADD14C,0.120000*%
%ADD15C,0.100000*%
%ADD16C,0.152400*%
%ADD17C,0.050800*%
G04 APERTURE END LIST*
D10*
X76336779Y-111454819D02*
X76336779Y-110454819D01*
X76336779Y-110931009D02*
X76908207Y-110931009D01*
X76908207Y-111454819D02*
X76908207Y-110454819D01*
X77765350Y-111407200D02*
X77670112Y-111454819D01*
X77670112Y-111454819D02*
X77479636Y-111454819D01*
X77479636Y-111454819D02*
X77384398Y-111407200D01*
X77384398Y-111407200D02*
X77336779Y-111311961D01*
X77336779Y-111311961D02*
X77336779Y-110931009D01*
X77336779Y-110931009D02*
X77384398Y-110835771D01*
X77384398Y-110835771D02*
X77479636Y-110788152D01*
X77479636Y-110788152D02*
X77670112Y-110788152D01*
X77670112Y-110788152D02*
X77765350Y-110835771D01*
X77765350Y-110835771D02*
X77812969Y-110931009D01*
X77812969Y-110931009D02*
X77812969Y-111026247D01*
X77812969Y-111026247D02*
X77336779Y-111121485D01*
X78670112Y-111454819D02*
X78670112Y-110931009D01*
X78670112Y-110931009D02*
X78622493Y-110835771D01*
X78622493Y-110835771D02*
X78527255Y-110788152D01*
X78527255Y-110788152D02*
X78336779Y-110788152D01*
X78336779Y-110788152D02*
X78241541Y-110835771D01*
X78670112Y-111407200D02*
X78574874Y-111454819D01*
X78574874Y-111454819D02*
X78336779Y-111454819D01*
X78336779Y-111454819D02*
X78241541Y-111407200D01*
X78241541Y-111407200D02*
X78193922Y-111311961D01*
X78193922Y-111311961D02*
X78193922Y-111216723D01*
X78193922Y-111216723D02*
X78241541Y-111121485D01*
X78241541Y-111121485D02*
X78336779Y-111073866D01*
X78336779Y-111073866D02*
X78574874Y-111073866D01*
X78574874Y-111073866D02*
X78670112Y-111026247D01*
X79003446Y-110788152D02*
X79384398Y-110788152D01*
X79146303Y-110454819D02*
X79146303Y-111311961D01*
X79146303Y-111311961D02*
X79193922Y-111407200D01*
X79193922Y-111407200D02*
X79289160Y-111454819D01*
X79289160Y-111454819D02*
X79384398Y-111454819D01*
X80432018Y-111407200D02*
X80574875Y-111454819D01*
X80574875Y-111454819D02*
X80812970Y-111454819D01*
X80812970Y-111454819D02*
X80908208Y-111407200D01*
X80908208Y-111407200D02*
X80955827Y-111359580D01*
X80955827Y-111359580D02*
X81003446Y-111264342D01*
X81003446Y-111264342D02*
X81003446Y-111169104D01*
X81003446Y-111169104D02*
X80955827Y-111073866D01*
X80955827Y-111073866D02*
X80908208Y-111026247D01*
X80908208Y-111026247D02*
X80812970Y-110978628D01*
X80812970Y-110978628D02*
X80622494Y-110931009D01*
X80622494Y-110931009D02*
X80527256Y-110883390D01*
X80527256Y-110883390D02*
X80479637Y-110835771D01*
X80479637Y-110835771D02*
X80432018Y-110740533D01*
X80432018Y-110740533D02*
X80432018Y-110645295D01*
X80432018Y-110645295D02*
X80479637Y-110550057D01*
X80479637Y-110550057D02*
X80527256Y-110502438D01*
X80527256Y-110502438D02*
X80622494Y-110454819D01*
X80622494Y-110454819D02*
X80860589Y-110454819D01*
X80860589Y-110454819D02*
X81003446Y-110502438D01*
X81432018Y-111454819D02*
X81432018Y-110788152D01*
X81432018Y-110454819D02*
X81384399Y-110502438D01*
X81384399Y-110502438D02*
X81432018Y-110550057D01*
X81432018Y-110550057D02*
X81479637Y-110502438D01*
X81479637Y-110502438D02*
X81432018Y-110454819D01*
X81432018Y-110454819D02*
X81432018Y-110550057D01*
X81908208Y-110788152D02*
X81908208Y-111454819D01*
X81908208Y-110883390D02*
X81955827Y-110835771D01*
X81955827Y-110835771D02*
X82051065Y-110788152D01*
X82051065Y-110788152D02*
X82193922Y-110788152D01*
X82193922Y-110788152D02*
X82289160Y-110835771D01*
X82289160Y-110835771D02*
X82336779Y-110931009D01*
X82336779Y-110931009D02*
X82336779Y-111454819D01*
X82812970Y-111454819D02*
X82812970Y-110454819D01*
X82908208Y-111073866D02*
X83193922Y-111454819D01*
X83193922Y-110788152D02*
X82812970Y-111169104D01*
X154336779Y-155869819D02*
X154336779Y-154869819D01*
X154336779Y-155346009D02*
X154908207Y-155346009D01*
X154908207Y-155869819D02*
X154908207Y-154869819D01*
X155765350Y-155822200D02*
X155670112Y-155869819D01*
X155670112Y-155869819D02*
X155479636Y-155869819D01*
X155479636Y-155869819D02*
X155384398Y-155822200D01*
X155384398Y-155822200D02*
X155336779Y-155726961D01*
X155336779Y-155726961D02*
X155336779Y-155346009D01*
X155336779Y-155346009D02*
X155384398Y-155250771D01*
X155384398Y-155250771D02*
X155479636Y-155203152D01*
X155479636Y-155203152D02*
X155670112Y-155203152D01*
X155670112Y-155203152D02*
X155765350Y-155250771D01*
X155765350Y-155250771D02*
X155812969Y-155346009D01*
X155812969Y-155346009D02*
X155812969Y-155441247D01*
X155812969Y-155441247D02*
X155336779Y-155536485D01*
X156670112Y-155869819D02*
X156670112Y-155346009D01*
X156670112Y-155346009D02*
X156622493Y-155250771D01*
X156622493Y-155250771D02*
X156527255Y-155203152D01*
X156527255Y-155203152D02*
X156336779Y-155203152D01*
X156336779Y-155203152D02*
X156241541Y-155250771D01*
X156670112Y-155822200D02*
X156574874Y-155869819D01*
X156574874Y-155869819D02*
X156336779Y-155869819D01*
X156336779Y-155869819D02*
X156241541Y-155822200D01*
X156241541Y-155822200D02*
X156193922Y-155726961D01*
X156193922Y-155726961D02*
X156193922Y-155631723D01*
X156193922Y-155631723D02*
X156241541Y-155536485D01*
X156241541Y-155536485D02*
X156336779Y-155488866D01*
X156336779Y-155488866D02*
X156574874Y-155488866D01*
X156574874Y-155488866D02*
X156670112Y-155441247D01*
X157003446Y-155203152D02*
X157384398Y-155203152D01*
X157146303Y-154869819D02*
X157146303Y-155726961D01*
X157146303Y-155726961D02*
X157193922Y-155822200D01*
X157193922Y-155822200D02*
X157289160Y-155869819D01*
X157289160Y-155869819D02*
X157384398Y-155869819D01*
X158432018Y-155822200D02*
X158574875Y-155869819D01*
X158574875Y-155869819D02*
X158812970Y-155869819D01*
X158812970Y-155869819D02*
X158908208Y-155822200D01*
X158908208Y-155822200D02*
X158955827Y-155774580D01*
X158955827Y-155774580D02*
X159003446Y-155679342D01*
X159003446Y-155679342D02*
X159003446Y-155584104D01*
X159003446Y-155584104D02*
X158955827Y-155488866D01*
X158955827Y-155488866D02*
X158908208Y-155441247D01*
X158908208Y-155441247D02*
X158812970Y-155393628D01*
X158812970Y-155393628D02*
X158622494Y-155346009D01*
X158622494Y-155346009D02*
X158527256Y-155298390D01*
X158527256Y-155298390D02*
X158479637Y-155250771D01*
X158479637Y-155250771D02*
X158432018Y-155155533D01*
X158432018Y-155155533D02*
X158432018Y-155060295D01*
X158432018Y-155060295D02*
X158479637Y-154965057D01*
X158479637Y-154965057D02*
X158527256Y-154917438D01*
X158527256Y-154917438D02*
X158622494Y-154869819D01*
X158622494Y-154869819D02*
X158860589Y-154869819D01*
X158860589Y-154869819D02*
X159003446Y-154917438D01*
X159432018Y-155869819D02*
X159432018Y-155203152D01*
X159432018Y-154869819D02*
X159384399Y-154917438D01*
X159384399Y-154917438D02*
X159432018Y-154965057D01*
X159432018Y-154965057D02*
X159479637Y-154917438D01*
X159479637Y-154917438D02*
X159432018Y-154869819D01*
X159432018Y-154869819D02*
X159432018Y-154965057D01*
X159908208Y-155203152D02*
X159908208Y-155869819D01*
X159908208Y-155298390D02*
X159955827Y-155250771D01*
X159955827Y-155250771D02*
X160051065Y-155203152D01*
X160051065Y-155203152D02*
X160193922Y-155203152D01*
X160193922Y-155203152D02*
X160289160Y-155250771D01*
X160289160Y-155250771D02*
X160336779Y-155346009D01*
X160336779Y-155346009D02*
X160336779Y-155869819D01*
X160812970Y-155869819D02*
X160812970Y-154869819D01*
X160908208Y-155488866D02*
X161193922Y-155869819D01*
X161193922Y-155203152D02*
X160812970Y-155584104D01*
X92380952Y-167869819D02*
X91809524Y-167869819D01*
X92095238Y-167869819D02*
X92095238Y-166869819D01*
X92095238Y-166869819D02*
X92000000Y-167012676D01*
X92000000Y-167012676D02*
X91904762Y-167107914D01*
X91904762Y-167107914D02*
X91809524Y-167155533D01*
X92761905Y-166965057D02*
X92809524Y-166917438D01*
X92809524Y-166917438D02*
X92904762Y-166869819D01*
X92904762Y-166869819D02*
X93142857Y-166869819D01*
X93142857Y-166869819D02*
X93238095Y-166917438D01*
X93238095Y-166917438D02*
X93285714Y-166965057D01*
X93285714Y-166965057D02*
X93333333Y-167060295D01*
X93333333Y-167060295D02*
X93333333Y-167155533D01*
X93333333Y-167155533D02*
X93285714Y-167298390D01*
X93285714Y-167298390D02*
X92714286Y-167869819D01*
X92714286Y-167869819D02*
X93333333Y-167869819D01*
X93619048Y-166869819D02*
X93952381Y-167869819D01*
X93952381Y-167869819D02*
X94285714Y-166869819D01*
X185336779Y-92869819D02*
X185336779Y-91869819D01*
X185336779Y-91869819D02*
X185574874Y-91869819D01*
X185574874Y-91869819D02*
X185717731Y-91917438D01*
X185717731Y-91917438D02*
X185812969Y-92012676D01*
X185812969Y-92012676D02*
X185860588Y-92107914D01*
X185860588Y-92107914D02*
X185908207Y-92298390D01*
X185908207Y-92298390D02*
X185908207Y-92441247D01*
X185908207Y-92441247D02*
X185860588Y-92631723D01*
X185860588Y-92631723D02*
X185812969Y-92726961D01*
X185812969Y-92726961D02*
X185717731Y-92822200D01*
X185717731Y-92822200D02*
X185574874Y-92869819D01*
X185574874Y-92869819D02*
X185336779Y-92869819D01*
X186860588Y-92869819D02*
X186289160Y-92869819D01*
X186574874Y-92869819D02*
X186574874Y-91869819D01*
X186574874Y-91869819D02*
X186479636Y-92012676D01*
X186479636Y-92012676D02*
X186384398Y-92107914D01*
X186384398Y-92107914D02*
X186289160Y-92155533D01*
X111193922Y-18869819D02*
X111765350Y-18869819D01*
X111479636Y-19869819D02*
X111479636Y-18869819D01*
X112622493Y-19869819D02*
X112051065Y-19869819D01*
X112336779Y-19869819D02*
X112336779Y-18869819D01*
X112336779Y-18869819D02*
X112241541Y-19012676D01*
X112241541Y-19012676D02*
X112146303Y-19107914D01*
X112146303Y-19107914D02*
X112051065Y-19155533D01*
X123523810Y-166869819D02*
X124142857Y-166869819D01*
X124142857Y-166869819D02*
X123809524Y-167250771D01*
X123809524Y-167250771D02*
X123952381Y-167250771D01*
X123952381Y-167250771D02*
X124047619Y-167298390D01*
X124047619Y-167298390D02*
X124095238Y-167346009D01*
X124095238Y-167346009D02*
X124142857Y-167441247D01*
X124142857Y-167441247D02*
X124142857Y-167679342D01*
X124142857Y-167679342D02*
X124095238Y-167774580D01*
X124095238Y-167774580D02*
X124047619Y-167822200D01*
X124047619Y-167822200D02*
X123952381Y-167869819D01*
X123952381Y-167869819D02*
X123666667Y-167869819D01*
X123666667Y-167869819D02*
X123571429Y-167822200D01*
X123571429Y-167822200D02*
X123523810Y-167774580D01*
X124571429Y-167774580D02*
X124619048Y-167822200D01*
X124619048Y-167822200D02*
X124571429Y-167869819D01*
X124571429Y-167869819D02*
X124523810Y-167822200D01*
X124523810Y-167822200D02*
X124571429Y-167774580D01*
X124571429Y-167774580D02*
X124571429Y-167869819D01*
X124952381Y-166869819D02*
X125571428Y-166869819D01*
X125571428Y-166869819D02*
X125238095Y-167250771D01*
X125238095Y-167250771D02*
X125380952Y-167250771D01*
X125380952Y-167250771D02*
X125476190Y-167298390D01*
X125476190Y-167298390D02*
X125523809Y-167346009D01*
X125523809Y-167346009D02*
X125571428Y-167441247D01*
X125571428Y-167441247D02*
X125571428Y-167679342D01*
X125571428Y-167679342D02*
X125523809Y-167774580D01*
X125523809Y-167774580D02*
X125476190Y-167822200D01*
X125476190Y-167822200D02*
X125380952Y-167869819D01*
X125380952Y-167869819D02*
X125095238Y-167869819D01*
X125095238Y-167869819D02*
X125000000Y-167822200D01*
X125000000Y-167822200D02*
X124952381Y-167774580D01*
X125857143Y-166869819D02*
X126190476Y-167869819D01*
X126190476Y-167869819D02*
X126523809Y-166869819D01*
D11*
X69382742Y-75911653D02*
X72382742Y-75911653D01*
X72382742Y-75911653D02*
X72382742Y-76625939D01*
X72382742Y-76625939D02*
X72239885Y-77054510D01*
X72239885Y-77054510D02*
X71954171Y-77340225D01*
X71954171Y-77340225D02*
X71668457Y-77483082D01*
X71668457Y-77483082D02*
X71097028Y-77625939D01*
X71097028Y-77625939D02*
X70668457Y-77625939D01*
X70668457Y-77625939D02*
X70097028Y-77483082D01*
X70097028Y-77483082D02*
X69811314Y-77340225D01*
X69811314Y-77340225D02*
X69525600Y-77054510D01*
X69525600Y-77054510D02*
X69382742Y-76625939D01*
X69382742Y-76625939D02*
X69382742Y-75911653D01*
X69525600Y-80054510D02*
X69382742Y-79768796D01*
X69382742Y-79768796D02*
X69382742Y-79197368D01*
X69382742Y-79197368D02*
X69525600Y-78911653D01*
X69525600Y-78911653D02*
X69811314Y-78768796D01*
X69811314Y-78768796D02*
X70954171Y-78768796D01*
X70954171Y-78768796D02*
X71239885Y-78911653D01*
X71239885Y-78911653D02*
X71382742Y-79197368D01*
X71382742Y-79197368D02*
X71382742Y-79768796D01*
X71382742Y-79768796D02*
X71239885Y-80054510D01*
X71239885Y-80054510D02*
X70954171Y-80197368D01*
X70954171Y-80197368D02*
X70668457Y-80197368D01*
X70668457Y-80197368D02*
X70382742Y-78768796D01*
X69525600Y-81340225D02*
X69382742Y-81625939D01*
X69382742Y-81625939D02*
X69382742Y-82197368D01*
X69382742Y-82197368D02*
X69525600Y-82483082D01*
X69525600Y-82483082D02*
X69811314Y-82625939D01*
X69811314Y-82625939D02*
X69954171Y-82625939D01*
X69954171Y-82625939D02*
X70239885Y-82483082D01*
X70239885Y-82483082D02*
X70382742Y-82197368D01*
X70382742Y-82197368D02*
X70382742Y-81768797D01*
X70382742Y-81768797D02*
X70525600Y-81483082D01*
X70525600Y-81483082D02*
X70811314Y-81340225D01*
X70811314Y-81340225D02*
X70954171Y-81340225D01*
X70954171Y-81340225D02*
X71239885Y-81483082D01*
X71239885Y-81483082D02*
X71382742Y-81768797D01*
X71382742Y-81768797D02*
X71382742Y-82197368D01*
X71382742Y-82197368D02*
X71239885Y-82483082D01*
X69382742Y-83911653D02*
X71382742Y-83911653D01*
X72382742Y-83911653D02*
X72239885Y-83768796D01*
X72239885Y-83768796D02*
X72097028Y-83911653D01*
X72097028Y-83911653D02*
X72239885Y-84054510D01*
X72239885Y-84054510D02*
X72382742Y-83911653D01*
X72382742Y-83911653D02*
X72097028Y-83911653D01*
X71382742Y-86625939D02*
X68954171Y-86625939D01*
X68954171Y-86625939D02*
X68668457Y-86483081D01*
X68668457Y-86483081D02*
X68525600Y-86340224D01*
X68525600Y-86340224D02*
X68382742Y-86054510D01*
X68382742Y-86054510D02*
X68382742Y-85625939D01*
X68382742Y-85625939D02*
X68525600Y-85340224D01*
X69525600Y-86625939D02*
X69382742Y-86340224D01*
X69382742Y-86340224D02*
X69382742Y-85768796D01*
X69382742Y-85768796D02*
X69525600Y-85483081D01*
X69525600Y-85483081D02*
X69668457Y-85340224D01*
X69668457Y-85340224D02*
X69954171Y-85197367D01*
X69954171Y-85197367D02*
X70811314Y-85197367D01*
X70811314Y-85197367D02*
X71097028Y-85340224D01*
X71097028Y-85340224D02*
X71239885Y-85483081D01*
X71239885Y-85483081D02*
X71382742Y-85768796D01*
X71382742Y-85768796D02*
X71382742Y-86340224D01*
X71382742Y-86340224D02*
X71239885Y-86625939D01*
X71382742Y-88054510D02*
X69382742Y-88054510D01*
X71097028Y-88054510D02*
X71239885Y-88197367D01*
X71239885Y-88197367D02*
X71382742Y-88483082D01*
X71382742Y-88483082D02*
X71382742Y-88911653D01*
X71382742Y-88911653D02*
X71239885Y-89197367D01*
X71239885Y-89197367D02*
X70954171Y-89340225D01*
X70954171Y-89340225D02*
X69382742Y-89340225D01*
X69525600Y-91911653D02*
X69382742Y-91625939D01*
X69382742Y-91625939D02*
X69382742Y-91054511D01*
X69382742Y-91054511D02*
X69525600Y-90768796D01*
X69525600Y-90768796D02*
X69811314Y-90625939D01*
X69811314Y-90625939D02*
X70954171Y-90625939D01*
X70954171Y-90625939D02*
X71239885Y-90768796D01*
X71239885Y-90768796D02*
X71382742Y-91054511D01*
X71382742Y-91054511D02*
X71382742Y-91625939D01*
X71382742Y-91625939D02*
X71239885Y-91911653D01*
X71239885Y-91911653D02*
X70954171Y-92054511D01*
X70954171Y-92054511D02*
X70668457Y-92054511D01*
X70668457Y-92054511D02*
X70382742Y-90625939D01*
X69382742Y-94625940D02*
X72382742Y-94625940D01*
X69525600Y-94625940D02*
X69382742Y-94340225D01*
X69382742Y-94340225D02*
X69382742Y-93768797D01*
X69382742Y-93768797D02*
X69525600Y-93483082D01*
X69525600Y-93483082D02*
X69668457Y-93340225D01*
X69668457Y-93340225D02*
X69954171Y-93197368D01*
X69954171Y-93197368D02*
X70811314Y-93197368D01*
X70811314Y-93197368D02*
X71097028Y-93340225D01*
X71097028Y-93340225D02*
X71239885Y-93483082D01*
X71239885Y-93483082D02*
X71382742Y-93768797D01*
X71382742Y-93768797D02*
X71382742Y-94340225D01*
X71382742Y-94340225D02*
X71239885Y-94625940D01*
X69382742Y-100768797D02*
X69382742Y-100625940D01*
X69382742Y-100625940D02*
X69525600Y-100340225D01*
X69525600Y-100340225D02*
X69954171Y-99911654D01*
X69954171Y-99911654D02*
X70811314Y-99197368D01*
X70811314Y-99197368D02*
X71239885Y-98911654D01*
X71239885Y-98911654D02*
X71668457Y-98768797D01*
X71668457Y-98768797D02*
X71954171Y-98768797D01*
X71954171Y-98768797D02*
X72239885Y-98911654D01*
X72239885Y-98911654D02*
X72382742Y-99197368D01*
X72382742Y-99197368D02*
X72382742Y-99340225D01*
X72382742Y-99340225D02*
X72239885Y-99625940D01*
X72239885Y-99625940D02*
X71954171Y-99768797D01*
X71954171Y-99768797D02*
X71811314Y-99768797D01*
X71811314Y-99768797D02*
X71525600Y-99625940D01*
X71525600Y-99625940D02*
X71382742Y-99483082D01*
X71382742Y-99483082D02*
X70811314Y-98625940D01*
X70811314Y-98625940D02*
X70668457Y-98483082D01*
X70668457Y-98483082D02*
X70382742Y-98340225D01*
X70382742Y-98340225D02*
X69954171Y-98340225D01*
X69954171Y-98340225D02*
X69668457Y-98483082D01*
X69668457Y-98483082D02*
X69525600Y-98625940D01*
X69525600Y-98625940D02*
X69382742Y-98911654D01*
X69382742Y-98911654D02*
X69382742Y-99340225D01*
X69382742Y-99340225D02*
X69525600Y-99625940D01*
X69525600Y-99625940D02*
X69668457Y-99768797D01*
X69668457Y-99768797D02*
X70239885Y-100197368D01*
X70239885Y-100197368D02*
X70668457Y-100340225D01*
X70668457Y-100340225D02*
X70954171Y-100340225D01*
X69382742Y-104340225D02*
X72382742Y-104340225D01*
X72382742Y-104340225D02*
X72382742Y-105054511D01*
X72382742Y-105054511D02*
X72239885Y-105483082D01*
X72239885Y-105483082D02*
X71954171Y-105768797D01*
X71954171Y-105768797D02*
X71668457Y-105911654D01*
X71668457Y-105911654D02*
X71097028Y-106054511D01*
X71097028Y-106054511D02*
X70668457Y-106054511D01*
X70668457Y-106054511D02*
X70097028Y-105911654D01*
X70097028Y-105911654D02*
X69811314Y-105768797D01*
X69811314Y-105768797D02*
X69525600Y-105483082D01*
X69525600Y-105483082D02*
X69382742Y-105054511D01*
X69382742Y-105054511D02*
X69382742Y-104340225D01*
X69525600Y-108483082D02*
X69382742Y-108197368D01*
X69382742Y-108197368D02*
X69382742Y-107625940D01*
X69382742Y-107625940D02*
X69525600Y-107340225D01*
X69525600Y-107340225D02*
X69811314Y-107197368D01*
X69811314Y-107197368D02*
X70954171Y-107197368D01*
X70954171Y-107197368D02*
X71239885Y-107340225D01*
X71239885Y-107340225D02*
X71382742Y-107625940D01*
X71382742Y-107625940D02*
X71382742Y-108197368D01*
X71382742Y-108197368D02*
X71239885Y-108483082D01*
X71239885Y-108483082D02*
X70954171Y-108625940D01*
X70954171Y-108625940D02*
X70668457Y-108625940D01*
X70668457Y-108625940D02*
X70382742Y-107197368D01*
X71382742Y-109625940D02*
X69382742Y-110340226D01*
X69382742Y-110340226D02*
X71382742Y-111054511D01*
X69525600Y-113340225D02*
X69382742Y-113054511D01*
X69382742Y-113054511D02*
X69382742Y-112483083D01*
X69382742Y-112483083D02*
X69525600Y-112197368D01*
X69525600Y-112197368D02*
X69811314Y-112054511D01*
X69811314Y-112054511D02*
X70954171Y-112054511D01*
X70954171Y-112054511D02*
X71239885Y-112197368D01*
X71239885Y-112197368D02*
X71382742Y-112483083D01*
X71382742Y-112483083D02*
X71382742Y-113054511D01*
X71382742Y-113054511D02*
X71239885Y-113340225D01*
X71239885Y-113340225D02*
X70954171Y-113483083D01*
X70954171Y-113483083D02*
X70668457Y-113483083D01*
X70668457Y-113483083D02*
X70382742Y-112054511D01*
X69382742Y-115197369D02*
X69525600Y-114911654D01*
X69525600Y-114911654D02*
X69811314Y-114768797D01*
X69811314Y-114768797D02*
X72382742Y-114768797D01*
X69382742Y-116768798D02*
X69525600Y-116483083D01*
X69525600Y-116483083D02*
X69668457Y-116340226D01*
X69668457Y-116340226D02*
X69954171Y-116197369D01*
X69954171Y-116197369D02*
X70811314Y-116197369D01*
X70811314Y-116197369D02*
X71097028Y-116340226D01*
X71097028Y-116340226D02*
X71239885Y-116483083D01*
X71239885Y-116483083D02*
X71382742Y-116768798D01*
X71382742Y-116768798D02*
X71382742Y-117197369D01*
X71382742Y-117197369D02*
X71239885Y-117483083D01*
X71239885Y-117483083D02*
X71097028Y-117625941D01*
X71097028Y-117625941D02*
X70811314Y-117768798D01*
X70811314Y-117768798D02*
X69954171Y-117768798D01*
X69954171Y-117768798D02*
X69668457Y-117625941D01*
X69668457Y-117625941D02*
X69525600Y-117483083D01*
X69525600Y-117483083D02*
X69382742Y-117197369D01*
X69382742Y-117197369D02*
X69382742Y-116768798D01*
X71382742Y-119054512D02*
X68382742Y-119054512D01*
X71239885Y-119054512D02*
X71382742Y-119340227D01*
X71382742Y-119340227D02*
X71382742Y-119911655D01*
X71382742Y-119911655D02*
X71239885Y-120197369D01*
X71239885Y-120197369D02*
X71097028Y-120340227D01*
X71097028Y-120340227D02*
X70811314Y-120483084D01*
X70811314Y-120483084D02*
X69954171Y-120483084D01*
X69954171Y-120483084D02*
X69668457Y-120340227D01*
X69668457Y-120340227D02*
X69525600Y-120197369D01*
X69525600Y-120197369D02*
X69382742Y-119911655D01*
X69382742Y-119911655D02*
X69382742Y-119340227D01*
X69382742Y-119340227D02*
X69525600Y-119054512D01*
X69525600Y-122911655D02*
X69382742Y-122625941D01*
X69382742Y-122625941D02*
X69382742Y-122054513D01*
X69382742Y-122054513D02*
X69525600Y-121768798D01*
X69525600Y-121768798D02*
X69811314Y-121625941D01*
X69811314Y-121625941D02*
X70954171Y-121625941D01*
X70954171Y-121625941D02*
X71239885Y-121768798D01*
X71239885Y-121768798D02*
X71382742Y-122054513D01*
X71382742Y-122054513D02*
X71382742Y-122625941D01*
X71382742Y-122625941D02*
X71239885Y-122911655D01*
X71239885Y-122911655D02*
X70954171Y-123054513D01*
X70954171Y-123054513D02*
X70668457Y-123054513D01*
X70668457Y-123054513D02*
X70382742Y-121625941D01*
X69382742Y-125625942D02*
X72382742Y-125625942D01*
X69525600Y-125625942D02*
X69382742Y-125340227D01*
X69382742Y-125340227D02*
X69382742Y-124768799D01*
X69382742Y-124768799D02*
X69525600Y-124483084D01*
X69525600Y-124483084D02*
X69668457Y-124340227D01*
X69668457Y-124340227D02*
X69954171Y-124197370D01*
X69954171Y-124197370D02*
X70811314Y-124197370D01*
X70811314Y-124197370D02*
X71097028Y-124340227D01*
X71097028Y-124340227D02*
X71239885Y-124483084D01*
X71239885Y-124483084D02*
X71382742Y-124768799D01*
X71382742Y-124768799D02*
X71382742Y-125340227D01*
X71382742Y-125340227D02*
X71239885Y-125625942D01*
X70954171Y-130340227D02*
X70811314Y-130768799D01*
X70811314Y-130768799D02*
X70668457Y-130911656D01*
X70668457Y-130911656D02*
X70382742Y-131054513D01*
X70382742Y-131054513D02*
X69954171Y-131054513D01*
X69954171Y-131054513D02*
X69668457Y-130911656D01*
X69668457Y-130911656D02*
X69525600Y-130768799D01*
X69525600Y-130768799D02*
X69382742Y-130483084D01*
X69382742Y-130483084D02*
X69382742Y-129340227D01*
X69382742Y-129340227D02*
X72382742Y-129340227D01*
X72382742Y-129340227D02*
X72382742Y-130340227D01*
X72382742Y-130340227D02*
X72239885Y-130625942D01*
X72239885Y-130625942D02*
X72097028Y-130768799D01*
X72097028Y-130768799D02*
X71811314Y-130911656D01*
X71811314Y-130911656D02*
X71525600Y-130911656D01*
X71525600Y-130911656D02*
X71239885Y-130768799D01*
X71239885Y-130768799D02*
X71097028Y-130625942D01*
X71097028Y-130625942D02*
X70954171Y-130340227D01*
X70954171Y-130340227D02*
X70954171Y-129340227D01*
X71382742Y-132054513D02*
X69382742Y-132768799D01*
X71382742Y-133483084D02*
X69382742Y-132768799D01*
X69382742Y-132768799D02*
X68668457Y-132483084D01*
X68668457Y-132483084D02*
X68525600Y-132340227D01*
X68525600Y-132340227D02*
X68382742Y-132054513D01*
X70525600Y-136911655D02*
X70525600Y-139197370D01*
X72382742Y-142483084D02*
X72382742Y-144197370D01*
X69382742Y-143340227D02*
X72382742Y-143340227D01*
X69382742Y-146483084D02*
X70954171Y-146483084D01*
X70954171Y-146483084D02*
X71239885Y-146340226D01*
X71239885Y-146340226D02*
X71382742Y-146054512D01*
X71382742Y-146054512D02*
X71382742Y-145483084D01*
X71382742Y-145483084D02*
X71239885Y-145197369D01*
X69525600Y-146483084D02*
X69382742Y-146197369D01*
X69382742Y-146197369D02*
X69382742Y-145483084D01*
X69382742Y-145483084D02*
X69525600Y-145197369D01*
X69525600Y-145197369D02*
X69811314Y-145054512D01*
X69811314Y-145054512D02*
X70097028Y-145054512D01*
X70097028Y-145054512D02*
X70382742Y-145197369D01*
X70382742Y-145197369D02*
X70525600Y-145483084D01*
X70525600Y-145483084D02*
X70525600Y-146197369D01*
X70525600Y-146197369D02*
X70668457Y-146483084D01*
X71382742Y-147911655D02*
X69382742Y-147911655D01*
X71097028Y-147911655D02*
X71239885Y-148054512D01*
X71239885Y-148054512D02*
X71382742Y-148340227D01*
X71382742Y-148340227D02*
X71382742Y-148768798D01*
X71382742Y-148768798D02*
X71239885Y-149054512D01*
X71239885Y-149054512D02*
X70954171Y-149197370D01*
X70954171Y-149197370D02*
X69382742Y-149197370D01*
X69382742Y-150625941D02*
X71382742Y-150625941D01*
X72382742Y-150625941D02*
X72239885Y-150483084D01*
X72239885Y-150483084D02*
X72097028Y-150625941D01*
X72097028Y-150625941D02*
X72239885Y-150768798D01*
X72239885Y-150768798D02*
X72382742Y-150625941D01*
X72382742Y-150625941D02*
X72097028Y-150625941D01*
X69525600Y-151911655D02*
X69382742Y-152197369D01*
X69382742Y-152197369D02*
X69382742Y-152768798D01*
X69382742Y-152768798D02*
X69525600Y-153054512D01*
X69525600Y-153054512D02*
X69811314Y-153197369D01*
X69811314Y-153197369D02*
X69954171Y-153197369D01*
X69954171Y-153197369D02*
X70239885Y-153054512D01*
X70239885Y-153054512D02*
X70382742Y-152768798D01*
X70382742Y-152768798D02*
X70382742Y-152340227D01*
X70382742Y-152340227D02*
X70525600Y-152054512D01*
X70525600Y-152054512D02*
X70811314Y-151911655D01*
X70811314Y-151911655D02*
X70954171Y-151911655D01*
X70954171Y-151911655D02*
X71239885Y-152054512D01*
X71239885Y-152054512D02*
X71382742Y-152340227D01*
X71382742Y-152340227D02*
X71382742Y-152768798D01*
X71382742Y-152768798D02*
X71239885Y-153054512D01*
X69382742Y-154483083D02*
X72382742Y-154483083D01*
X69382742Y-155768798D02*
X70954171Y-155768798D01*
X70954171Y-155768798D02*
X71239885Y-155625940D01*
X71239885Y-155625940D02*
X71382742Y-155340226D01*
X71382742Y-155340226D02*
X71382742Y-154911655D01*
X71382742Y-154911655D02*
X71239885Y-154625940D01*
X71239885Y-154625940D02*
X71097028Y-154483083D01*
X71382742Y-158483084D02*
X68382742Y-158483084D01*
X69525600Y-158483084D02*
X69382742Y-158197369D01*
X69382742Y-158197369D02*
X69382742Y-157625941D01*
X69382742Y-157625941D02*
X69525600Y-157340226D01*
X69525600Y-157340226D02*
X69668457Y-157197369D01*
X69668457Y-157197369D02*
X69954171Y-157054512D01*
X69954171Y-157054512D02*
X70811314Y-157054512D01*
X70811314Y-157054512D02*
X71097028Y-157197369D01*
X71097028Y-157197369D02*
X71239885Y-157340226D01*
X71239885Y-157340226D02*
X71382742Y-157625941D01*
X71382742Y-157625941D02*
X71382742Y-158197369D01*
X71382742Y-158197369D02*
X71239885Y-158483084D01*
X69382742Y-162197369D02*
X72382742Y-162197369D01*
X72382742Y-162197369D02*
X70239885Y-163197369D01*
X70239885Y-163197369D02*
X72382742Y-164197369D01*
X72382742Y-164197369D02*
X69382742Y-164197369D01*
X71382742Y-166911655D02*
X69382742Y-166911655D01*
X71382742Y-165625940D02*
X69811314Y-165625940D01*
X69811314Y-165625940D02*
X69525600Y-165768797D01*
X69525600Y-165768797D02*
X69382742Y-166054512D01*
X69382742Y-166054512D02*
X69382742Y-166483083D01*
X69382742Y-166483083D02*
X69525600Y-166768797D01*
X69525600Y-166768797D02*
X69668457Y-166911655D01*
X69382742Y-169625941D02*
X72382742Y-169625941D01*
X69525600Y-169625941D02*
X69382742Y-169340226D01*
X69382742Y-169340226D02*
X69382742Y-168768798D01*
X69382742Y-168768798D02*
X69525600Y-168483083D01*
X69525600Y-168483083D02*
X69668457Y-168340226D01*
X69668457Y-168340226D02*
X69954171Y-168197369D01*
X69954171Y-168197369D02*
X70811314Y-168197369D01*
X70811314Y-168197369D02*
X71097028Y-168340226D01*
X71097028Y-168340226D02*
X71239885Y-168483083D01*
X71239885Y-168483083D02*
X71382742Y-168768798D01*
X71382742Y-168768798D02*
X71382742Y-169340226D01*
X71382742Y-169340226D02*
X71239885Y-169625941D01*
X69382742Y-172340227D02*
X70954171Y-172340227D01*
X70954171Y-172340227D02*
X71239885Y-172197369D01*
X71239885Y-172197369D02*
X71382742Y-171911655D01*
X71382742Y-171911655D02*
X71382742Y-171340227D01*
X71382742Y-171340227D02*
X71239885Y-171054512D01*
X69525600Y-172340227D02*
X69382742Y-172054512D01*
X69382742Y-172054512D02*
X69382742Y-171340227D01*
X69382742Y-171340227D02*
X69525600Y-171054512D01*
X69525600Y-171054512D02*
X69811314Y-170911655D01*
X69811314Y-170911655D02*
X70097028Y-170911655D01*
X70097028Y-170911655D02*
X70382742Y-171054512D01*
X70382742Y-171054512D02*
X70525600Y-171340227D01*
X70525600Y-171340227D02*
X70525600Y-172054512D01*
X70525600Y-172054512D02*
X70668457Y-172340227D01*
X69382742Y-174197370D02*
X69525600Y-173911655D01*
X69525600Y-173911655D02*
X69811314Y-173768798D01*
X69811314Y-173768798D02*
X72382742Y-173768798D01*
X69382742Y-175340227D02*
X71382742Y-175340227D01*
X72382742Y-175340227D02*
X72239885Y-175197370D01*
X72239885Y-175197370D02*
X72097028Y-175340227D01*
X72097028Y-175340227D02*
X72239885Y-175483084D01*
X72239885Y-175483084D02*
X72382742Y-175340227D01*
X72382742Y-175340227D02*
X72097028Y-175340227D01*
X69382742Y-178054513D02*
X70954171Y-178054513D01*
X70954171Y-178054513D02*
X71239885Y-177911655D01*
X71239885Y-177911655D02*
X71382742Y-177625941D01*
X71382742Y-177625941D02*
X71382742Y-177054513D01*
X71382742Y-177054513D02*
X71239885Y-176768798D01*
X69525600Y-178054513D02*
X69382742Y-177768798D01*
X69382742Y-177768798D02*
X69382742Y-177054513D01*
X69382742Y-177054513D02*
X69525600Y-176768798D01*
X69525600Y-176768798D02*
X69811314Y-176625941D01*
X69811314Y-176625941D02*
X70097028Y-176625941D01*
X70097028Y-176625941D02*
X70382742Y-176768798D01*
X70382742Y-176768798D02*
X70525600Y-177054513D01*
X70525600Y-177054513D02*
X70525600Y-177768798D01*
X70525600Y-177768798D02*
X70668457Y-178054513D01*
X69382742Y-179483084D02*
X71382742Y-179483084D01*
X70811314Y-179483084D02*
X71097028Y-179625941D01*
X71097028Y-179625941D02*
X71239885Y-179768799D01*
X71239885Y-179768799D02*
X71382742Y-180054513D01*
X71382742Y-180054513D02*
X71382742Y-180340227D01*
X207617257Y-93571429D02*
X204617257Y-93571429D01*
X207617257Y-92285715D02*
X206045828Y-92285715D01*
X206045828Y-92285715D02*
X205760114Y-92428572D01*
X205760114Y-92428572D02*
X205617257Y-92714286D01*
X205617257Y-92714286D02*
X205617257Y-93142857D01*
X205617257Y-93142857D02*
X205760114Y-93428572D01*
X205760114Y-93428572D02*
X205902971Y-93571429D01*
X205617257Y-91285714D02*
X205617257Y-90142857D01*
X204617257Y-90857143D02*
X207188685Y-90857143D01*
X207188685Y-90857143D02*
X207474400Y-90714286D01*
X207474400Y-90714286D02*
X207617257Y-90428571D01*
X207617257Y-90428571D02*
X207617257Y-90142857D01*
X205617257Y-89571428D02*
X205617257Y-88428571D01*
X204617257Y-89142857D02*
X207188685Y-89142857D01*
X207188685Y-89142857D02*
X207474400Y-89000000D01*
X207474400Y-89000000D02*
X207617257Y-88714285D01*
X207617257Y-88714285D02*
X207617257Y-88428571D01*
X205617257Y-87428571D02*
X208617257Y-87428571D01*
X205760114Y-87428571D02*
X205617257Y-87142857D01*
X205617257Y-87142857D02*
X205617257Y-86571428D01*
X205617257Y-86571428D02*
X205760114Y-86285714D01*
X205760114Y-86285714D02*
X205902971Y-86142857D01*
X205902971Y-86142857D02*
X206188685Y-85999999D01*
X206188685Y-85999999D02*
X207045828Y-85999999D01*
X207045828Y-85999999D02*
X207331542Y-86142857D01*
X207331542Y-86142857D02*
X207474400Y-86285714D01*
X207474400Y-86285714D02*
X207617257Y-86571428D01*
X207617257Y-86571428D02*
X207617257Y-87142857D01*
X207617257Y-87142857D02*
X207474400Y-87428571D01*
X207474400Y-84857142D02*
X207617257Y-84571428D01*
X207617257Y-84571428D02*
X207617257Y-83999999D01*
X207617257Y-83999999D02*
X207474400Y-83714285D01*
X207474400Y-83714285D02*
X207188685Y-83571428D01*
X207188685Y-83571428D02*
X207045828Y-83571428D01*
X207045828Y-83571428D02*
X206760114Y-83714285D01*
X206760114Y-83714285D02*
X206617257Y-83999999D01*
X206617257Y-83999999D02*
X206617257Y-84428571D01*
X206617257Y-84428571D02*
X206474400Y-84714285D01*
X206474400Y-84714285D02*
X206188685Y-84857142D01*
X206188685Y-84857142D02*
X206045828Y-84857142D01*
X206045828Y-84857142D02*
X205760114Y-84714285D01*
X205760114Y-84714285D02*
X205617257Y-84428571D01*
X205617257Y-84428571D02*
X205617257Y-83999999D01*
X205617257Y-83999999D02*
X205760114Y-83714285D01*
X207331542Y-82285714D02*
X207474400Y-82142857D01*
X207474400Y-82142857D02*
X207617257Y-82285714D01*
X207617257Y-82285714D02*
X207474400Y-82428571D01*
X207474400Y-82428571D02*
X207331542Y-82285714D01*
X207331542Y-82285714D02*
X207617257Y-82285714D01*
X205760114Y-82285714D02*
X205902971Y-82142857D01*
X205902971Y-82142857D02*
X206045828Y-82285714D01*
X206045828Y-82285714D02*
X205902971Y-82428571D01*
X205902971Y-82428571D02*
X205760114Y-82285714D01*
X205760114Y-82285714D02*
X206045828Y-82285714D01*
X204474400Y-78714286D02*
X208331542Y-81285714D01*
X204474400Y-75571429D02*
X208331542Y-78142857D01*
X205617257Y-75000000D02*
X205617257Y-73857143D01*
X204617257Y-74571429D02*
X207188685Y-74571429D01*
X207188685Y-74571429D02*
X207474400Y-74428572D01*
X207474400Y-74428572D02*
X207617257Y-74142857D01*
X207617257Y-74142857D02*
X207617257Y-73857143D01*
X207617257Y-71571429D02*
X206045828Y-71571429D01*
X206045828Y-71571429D02*
X205760114Y-71714286D01*
X205760114Y-71714286D02*
X205617257Y-72000000D01*
X205617257Y-72000000D02*
X205617257Y-72571429D01*
X205617257Y-72571429D02*
X205760114Y-72857143D01*
X207474400Y-71571429D02*
X207617257Y-71857143D01*
X207617257Y-71857143D02*
X207617257Y-72571429D01*
X207617257Y-72571429D02*
X207474400Y-72857143D01*
X207474400Y-72857143D02*
X207188685Y-73000000D01*
X207188685Y-73000000D02*
X206902971Y-73000000D01*
X206902971Y-73000000D02*
X206617257Y-72857143D01*
X206617257Y-72857143D02*
X206474400Y-72571429D01*
X206474400Y-72571429D02*
X206474400Y-71857143D01*
X206474400Y-71857143D02*
X206331542Y-71571429D01*
X205617257Y-70142857D02*
X207617257Y-70142857D01*
X205902971Y-70142857D02*
X205760114Y-70000000D01*
X205760114Y-70000000D02*
X205617257Y-69714285D01*
X205617257Y-69714285D02*
X205617257Y-69285714D01*
X205617257Y-69285714D02*
X205760114Y-69000000D01*
X205760114Y-69000000D02*
X206045828Y-68857143D01*
X206045828Y-68857143D02*
X207617257Y-68857143D01*
X207617257Y-67428571D02*
X205617257Y-67428571D01*
X204617257Y-67428571D02*
X204760114Y-67571428D01*
X204760114Y-67571428D02*
X204902971Y-67428571D01*
X204902971Y-67428571D02*
X204760114Y-67285714D01*
X204760114Y-67285714D02*
X204617257Y-67428571D01*
X204617257Y-67428571D02*
X204902971Y-67428571D01*
X207474400Y-66142857D02*
X207617257Y-65857143D01*
X207617257Y-65857143D02*
X207617257Y-65285714D01*
X207617257Y-65285714D02*
X207474400Y-65000000D01*
X207474400Y-65000000D02*
X207188685Y-64857143D01*
X207188685Y-64857143D02*
X207045828Y-64857143D01*
X207045828Y-64857143D02*
X206760114Y-65000000D01*
X206760114Y-65000000D02*
X206617257Y-65285714D01*
X206617257Y-65285714D02*
X206617257Y-65714286D01*
X206617257Y-65714286D02*
X206474400Y-66000000D01*
X206474400Y-66000000D02*
X206188685Y-66142857D01*
X206188685Y-66142857D02*
X206045828Y-66142857D01*
X206045828Y-66142857D02*
X205760114Y-66000000D01*
X205760114Y-66000000D02*
X205617257Y-65714286D01*
X205617257Y-65714286D02*
X205617257Y-65285714D01*
X205617257Y-65285714D02*
X205760114Y-65000000D01*
X207617257Y-63571429D02*
X204617257Y-63571429D01*
X207617257Y-62285715D02*
X206045828Y-62285715D01*
X206045828Y-62285715D02*
X205760114Y-62428572D01*
X205760114Y-62428572D02*
X205617257Y-62714286D01*
X205617257Y-62714286D02*
X205617257Y-63142857D01*
X205617257Y-63142857D02*
X205760114Y-63428572D01*
X205760114Y-63428572D02*
X205902971Y-63571429D01*
X205617257Y-59571429D02*
X208617257Y-59571429D01*
X207474400Y-59571429D02*
X207617257Y-59857143D01*
X207617257Y-59857143D02*
X207617257Y-60428571D01*
X207617257Y-60428571D02*
X207474400Y-60714286D01*
X207474400Y-60714286D02*
X207331542Y-60857143D01*
X207331542Y-60857143D02*
X207045828Y-61000000D01*
X207045828Y-61000000D02*
X206188685Y-61000000D01*
X206188685Y-61000000D02*
X205902971Y-60857143D01*
X205902971Y-60857143D02*
X205760114Y-60714286D01*
X205760114Y-60714286D02*
X205617257Y-60428571D01*
X205617257Y-60428571D02*
X205617257Y-59857143D01*
X205617257Y-59857143D02*
X205760114Y-59571429D01*
X207617257Y-58142857D02*
X205617257Y-58142857D01*
X205902971Y-58142857D02*
X205760114Y-58000000D01*
X205760114Y-58000000D02*
X205617257Y-57714285D01*
X205617257Y-57714285D02*
X205617257Y-57285714D01*
X205617257Y-57285714D02*
X205760114Y-57000000D01*
X205760114Y-57000000D02*
X206045828Y-56857143D01*
X206045828Y-56857143D02*
X207617257Y-56857143D01*
X206045828Y-56857143D02*
X205760114Y-56714285D01*
X205760114Y-56714285D02*
X205617257Y-56428571D01*
X205617257Y-56428571D02*
X205617257Y-56000000D01*
X205617257Y-56000000D02*
X205760114Y-55714285D01*
X205760114Y-55714285D02*
X206045828Y-55571428D01*
X206045828Y-55571428D02*
X207617257Y-55571428D01*
X205617257Y-52857143D02*
X207617257Y-52857143D01*
X205617257Y-54142857D02*
X207188685Y-54142857D01*
X207188685Y-54142857D02*
X207474400Y-54000000D01*
X207474400Y-54000000D02*
X207617257Y-53714285D01*
X207617257Y-53714285D02*
X207617257Y-53285714D01*
X207617257Y-53285714D02*
X207474400Y-53000000D01*
X207474400Y-53000000D02*
X207331542Y-52857143D01*
X207617257Y-50142857D02*
X204617257Y-50142857D01*
X207474400Y-50142857D02*
X207617257Y-50428571D01*
X207617257Y-50428571D02*
X207617257Y-50999999D01*
X207617257Y-50999999D02*
X207474400Y-51285714D01*
X207474400Y-51285714D02*
X207331542Y-51428571D01*
X207331542Y-51428571D02*
X207045828Y-51571428D01*
X207045828Y-51571428D02*
X206188685Y-51571428D01*
X206188685Y-51571428D02*
X205902971Y-51428571D01*
X205902971Y-51428571D02*
X205760114Y-51285714D01*
X205760114Y-51285714D02*
X205617257Y-50999999D01*
X205617257Y-50999999D02*
X205617257Y-50428571D01*
X205617257Y-50428571D02*
X205760114Y-50142857D01*
X207617257Y-47428571D02*
X206045828Y-47428571D01*
X206045828Y-47428571D02*
X205760114Y-47571428D01*
X205760114Y-47571428D02*
X205617257Y-47857142D01*
X205617257Y-47857142D02*
X205617257Y-48428571D01*
X205617257Y-48428571D02*
X205760114Y-48714285D01*
X207474400Y-47428571D02*
X207617257Y-47714285D01*
X207617257Y-47714285D02*
X207617257Y-48428571D01*
X207617257Y-48428571D02*
X207474400Y-48714285D01*
X207474400Y-48714285D02*
X207188685Y-48857142D01*
X207188685Y-48857142D02*
X206902971Y-48857142D01*
X206902971Y-48857142D02*
X206617257Y-48714285D01*
X206617257Y-48714285D02*
X206474400Y-48428571D01*
X206474400Y-48428571D02*
X206474400Y-47714285D01*
X206474400Y-47714285D02*
X206331542Y-47428571D01*
X207617257Y-45571427D02*
X207474400Y-45857142D01*
X207474400Y-45857142D02*
X207188685Y-45999999D01*
X207188685Y-45999999D02*
X204617257Y-45999999D01*
X207617257Y-44428570D02*
X205617257Y-44428570D01*
X204617257Y-44428570D02*
X204760114Y-44571427D01*
X204760114Y-44571427D02*
X204902971Y-44428570D01*
X204902971Y-44428570D02*
X204760114Y-44285713D01*
X204760114Y-44285713D02*
X204617257Y-44428570D01*
X204617257Y-44428570D02*
X204902971Y-44428570D01*
X207617257Y-41714285D02*
X206045828Y-41714285D01*
X206045828Y-41714285D02*
X205760114Y-41857142D01*
X205760114Y-41857142D02*
X205617257Y-42142856D01*
X205617257Y-42142856D02*
X205617257Y-42714285D01*
X205617257Y-42714285D02*
X205760114Y-42999999D01*
X207474400Y-41714285D02*
X207617257Y-41999999D01*
X207617257Y-41999999D02*
X207617257Y-42714285D01*
X207617257Y-42714285D02*
X207474400Y-42999999D01*
X207474400Y-42999999D02*
X207188685Y-43142856D01*
X207188685Y-43142856D02*
X206902971Y-43142856D01*
X206902971Y-43142856D02*
X206617257Y-42999999D01*
X206617257Y-42999999D02*
X206474400Y-42714285D01*
X206474400Y-42714285D02*
X206474400Y-41999999D01*
X206474400Y-41999999D02*
X206331542Y-41714285D01*
X207617257Y-40285713D02*
X205617257Y-40285713D01*
X206188685Y-40285713D02*
X205902971Y-40142856D01*
X205902971Y-40142856D02*
X205760114Y-39999999D01*
X205760114Y-39999999D02*
X205617257Y-39714284D01*
X205617257Y-39714284D02*
X205617257Y-39428570D01*
X207331542Y-38428570D02*
X207474400Y-38285713D01*
X207474400Y-38285713D02*
X207617257Y-38428570D01*
X207617257Y-38428570D02*
X207474400Y-38571427D01*
X207474400Y-38571427D02*
X207331542Y-38428570D01*
X207331542Y-38428570D02*
X207617257Y-38428570D01*
X205617257Y-37285713D02*
X207617257Y-36714285D01*
X207617257Y-36714285D02*
X206188685Y-36142856D01*
X206188685Y-36142856D02*
X207617257Y-35571427D01*
X207617257Y-35571427D02*
X205617257Y-34999999D01*
X207474400Y-32714285D02*
X207617257Y-32999999D01*
X207617257Y-32999999D02*
X207617257Y-33571428D01*
X207617257Y-33571428D02*
X207474400Y-33857142D01*
X207474400Y-33857142D02*
X207188685Y-33999999D01*
X207188685Y-33999999D02*
X206045828Y-33999999D01*
X206045828Y-33999999D02*
X205760114Y-33857142D01*
X205760114Y-33857142D02*
X205617257Y-33571428D01*
X205617257Y-33571428D02*
X205617257Y-32999999D01*
X205617257Y-32999999D02*
X205760114Y-32714285D01*
X205760114Y-32714285D02*
X206045828Y-32571428D01*
X206045828Y-32571428D02*
X206331542Y-32571428D01*
X206331542Y-32571428D02*
X206617257Y-33999999D01*
X207617257Y-31285713D02*
X204617257Y-31285713D01*
X205760114Y-31285713D02*
X205617257Y-30999999D01*
X205617257Y-30999999D02*
X205617257Y-30428570D01*
X205617257Y-30428570D02*
X205760114Y-30142856D01*
X205760114Y-30142856D02*
X205902971Y-29999999D01*
X205902971Y-29999999D02*
X206188685Y-29857141D01*
X206188685Y-29857141D02*
X207045828Y-29857141D01*
X207045828Y-29857141D02*
X207331542Y-29999999D01*
X207331542Y-29999999D02*
X207474400Y-30142856D01*
X207474400Y-30142856D02*
X207617257Y-30428570D01*
X207617257Y-30428570D02*
X207617257Y-30999999D01*
X207617257Y-30999999D02*
X207474400Y-31285713D01*
X207331542Y-28571427D02*
X207474400Y-28428570D01*
X207474400Y-28428570D02*
X207617257Y-28571427D01*
X207617257Y-28571427D02*
X207474400Y-28714284D01*
X207474400Y-28714284D02*
X207331542Y-28571427D01*
X207331542Y-28571427D02*
X207617257Y-28571427D01*
X207617257Y-25857142D02*
X206045828Y-25857142D01*
X206045828Y-25857142D02*
X205760114Y-25999999D01*
X205760114Y-25999999D02*
X205617257Y-26285713D01*
X205617257Y-26285713D02*
X205617257Y-26857142D01*
X205617257Y-26857142D02*
X205760114Y-27142856D01*
X207474400Y-25857142D02*
X207617257Y-26142856D01*
X207617257Y-26142856D02*
X207617257Y-26857142D01*
X207617257Y-26857142D02*
X207474400Y-27142856D01*
X207474400Y-27142856D02*
X207188685Y-27285713D01*
X207188685Y-27285713D02*
X206902971Y-27285713D01*
X206902971Y-27285713D02*
X206617257Y-27142856D01*
X206617257Y-27142856D02*
X206474400Y-26857142D01*
X206474400Y-26857142D02*
X206474400Y-26142856D01*
X206474400Y-26142856D02*
X206331542Y-25857142D01*
X205617257Y-24428570D02*
X208617257Y-24428570D01*
X205760114Y-24428570D02*
X205617257Y-24142856D01*
X205617257Y-24142856D02*
X205617257Y-23571427D01*
X205617257Y-23571427D02*
X205760114Y-23285713D01*
X205760114Y-23285713D02*
X205902971Y-23142856D01*
X205902971Y-23142856D02*
X206188685Y-22999998D01*
X206188685Y-22999998D02*
X207045828Y-22999998D01*
X207045828Y-22999998D02*
X207331542Y-23142856D01*
X207331542Y-23142856D02*
X207474400Y-23285713D01*
X207474400Y-23285713D02*
X207617257Y-23571427D01*
X207617257Y-23571427D02*
X207617257Y-24142856D01*
X207617257Y-24142856D02*
X207474400Y-24428570D01*
X205617257Y-21714284D02*
X208617257Y-21714284D01*
X205760114Y-21714284D02*
X205617257Y-21428570D01*
X205617257Y-21428570D02*
X205617257Y-20857141D01*
X205617257Y-20857141D02*
X205760114Y-20571427D01*
X205760114Y-20571427D02*
X205902971Y-20428570D01*
X205902971Y-20428570D02*
X206188685Y-20285712D01*
X206188685Y-20285712D02*
X207045828Y-20285712D01*
X207045828Y-20285712D02*
X207331542Y-20428570D01*
X207331542Y-20428570D02*
X207474400Y-20571427D01*
X207474400Y-20571427D02*
X207617257Y-20857141D01*
X207617257Y-20857141D02*
X207617257Y-21428570D01*
X207617257Y-21428570D02*
X207474400Y-21714284D01*
D10*
X140238095Y-166917438D02*
X140142857Y-166869819D01*
X140142857Y-166869819D02*
X140000000Y-166869819D01*
X140000000Y-166869819D02*
X139857143Y-166917438D01*
X139857143Y-166917438D02*
X139761905Y-167012676D01*
X139761905Y-167012676D02*
X139714286Y-167107914D01*
X139714286Y-167107914D02*
X139666667Y-167298390D01*
X139666667Y-167298390D02*
X139666667Y-167441247D01*
X139666667Y-167441247D02*
X139714286Y-167631723D01*
X139714286Y-167631723D02*
X139761905Y-167726961D01*
X139761905Y-167726961D02*
X139857143Y-167822200D01*
X139857143Y-167822200D02*
X140000000Y-167869819D01*
X140000000Y-167869819D02*
X140095238Y-167869819D01*
X140095238Y-167869819D02*
X140238095Y-167822200D01*
X140238095Y-167822200D02*
X140285714Y-167774580D01*
X140285714Y-167774580D02*
X140285714Y-167441247D01*
X140285714Y-167441247D02*
X140095238Y-167441247D01*
X140714286Y-167869819D02*
X140714286Y-166869819D01*
X140714286Y-166869819D02*
X141285714Y-167869819D01*
X141285714Y-167869819D02*
X141285714Y-166869819D01*
X141761905Y-167869819D02*
X141761905Y-166869819D01*
X141761905Y-166869819D02*
X142000000Y-166869819D01*
X142000000Y-166869819D02*
X142142857Y-166917438D01*
X142142857Y-166917438D02*
X142238095Y-167012676D01*
X142238095Y-167012676D02*
X142285714Y-167107914D01*
X142285714Y-167107914D02*
X142333333Y-167298390D01*
X142333333Y-167298390D02*
X142333333Y-167441247D01*
X142333333Y-167441247D02*
X142285714Y-167631723D01*
X142285714Y-167631723D02*
X142238095Y-167726961D01*
X142238095Y-167726961D02*
X142142857Y-167822200D01*
X142142857Y-167822200D02*
X142000000Y-167869819D01*
X142000000Y-167869819D02*
X141761905Y-167869819D01*
X108809523Y-166869819D02*
X108333333Y-166869819D01*
X108333333Y-166869819D02*
X108285714Y-167346009D01*
X108285714Y-167346009D02*
X108333333Y-167298390D01*
X108333333Y-167298390D02*
X108428571Y-167250771D01*
X108428571Y-167250771D02*
X108666666Y-167250771D01*
X108666666Y-167250771D02*
X108761904Y-167298390D01*
X108761904Y-167298390D02*
X108809523Y-167346009D01*
X108809523Y-167346009D02*
X108857142Y-167441247D01*
X108857142Y-167441247D02*
X108857142Y-167679342D01*
X108857142Y-167679342D02*
X108809523Y-167774580D01*
X108809523Y-167774580D02*
X108761904Y-167822200D01*
X108761904Y-167822200D02*
X108666666Y-167869819D01*
X108666666Y-167869819D02*
X108428571Y-167869819D01*
X108428571Y-167869819D02*
X108333333Y-167822200D01*
X108333333Y-167822200D02*
X108285714Y-167774580D01*
X109142857Y-166869819D02*
X109476190Y-167869819D01*
X109476190Y-167869819D02*
X109809523Y-166869819D01*
X90238095Y-131454819D02*
X90238095Y-132264342D01*
X90238095Y-132264342D02*
X90285714Y-132359580D01*
X90285714Y-132359580D02*
X90333333Y-132407200D01*
X90333333Y-132407200D02*
X90428571Y-132454819D01*
X90428571Y-132454819D02*
X90619047Y-132454819D01*
X90619047Y-132454819D02*
X90714285Y-132407200D01*
X90714285Y-132407200D02*
X90761904Y-132359580D01*
X90761904Y-132359580D02*
X90809523Y-132264342D01*
X90809523Y-132264342D02*
X90809523Y-131454819D01*
X91238095Y-131550057D02*
X91285714Y-131502438D01*
X91285714Y-131502438D02*
X91380952Y-131454819D01*
X91380952Y-131454819D02*
X91619047Y-131454819D01*
X91619047Y-131454819D02*
X91714285Y-131502438D01*
X91714285Y-131502438D02*
X91761904Y-131550057D01*
X91761904Y-131550057D02*
X91809523Y-131645295D01*
X91809523Y-131645295D02*
X91809523Y-131740533D01*
X91809523Y-131740533D02*
X91761904Y-131883390D01*
X91761904Y-131883390D02*
X91190476Y-132454819D01*
X91190476Y-132454819D02*
X91809523Y-132454819D01*
X90238095Y-114454819D02*
X90238095Y-115264342D01*
X90238095Y-115264342D02*
X90285714Y-115359580D01*
X90285714Y-115359580D02*
X90333333Y-115407200D01*
X90333333Y-115407200D02*
X90428571Y-115454819D01*
X90428571Y-115454819D02*
X90619047Y-115454819D01*
X90619047Y-115454819D02*
X90714285Y-115407200D01*
X90714285Y-115407200D02*
X90761904Y-115359580D01*
X90761904Y-115359580D02*
X90809523Y-115264342D01*
X90809523Y-115264342D02*
X90809523Y-114454819D01*
X91809523Y-115454819D02*
X91238095Y-115454819D01*
X91523809Y-115454819D02*
X91523809Y-114454819D01*
X91523809Y-114454819D02*
X91428571Y-114597676D01*
X91428571Y-114597676D02*
X91333333Y-114692914D01*
X91333333Y-114692914D02*
X91238095Y-114740533D01*
X114833333Y-103859580D02*
X114785714Y-103907200D01*
X114785714Y-103907200D02*
X114642857Y-103954819D01*
X114642857Y-103954819D02*
X114547619Y-103954819D01*
X114547619Y-103954819D02*
X114404762Y-103907200D01*
X114404762Y-103907200D02*
X114309524Y-103811961D01*
X114309524Y-103811961D02*
X114261905Y-103716723D01*
X114261905Y-103716723D02*
X114214286Y-103526247D01*
X114214286Y-103526247D02*
X114214286Y-103383390D01*
X114214286Y-103383390D02*
X114261905Y-103192914D01*
X114261905Y-103192914D02*
X114309524Y-103097676D01*
X114309524Y-103097676D02*
X114404762Y-103002438D01*
X114404762Y-103002438D02*
X114547619Y-102954819D01*
X114547619Y-102954819D02*
X114642857Y-102954819D01*
X114642857Y-102954819D02*
X114785714Y-103002438D01*
X114785714Y-103002438D02*
X114833333Y-103050057D01*
X115214286Y-103050057D02*
X115261905Y-103002438D01*
X115261905Y-103002438D02*
X115357143Y-102954819D01*
X115357143Y-102954819D02*
X115595238Y-102954819D01*
X115595238Y-102954819D02*
X115690476Y-103002438D01*
X115690476Y-103002438D02*
X115738095Y-103050057D01*
X115738095Y-103050057D02*
X115785714Y-103145295D01*
X115785714Y-103145295D02*
X115785714Y-103240533D01*
X115785714Y-103240533D02*
X115738095Y-103383390D01*
X115738095Y-103383390D02*
X115166667Y-103954819D01*
X115166667Y-103954819D02*
X115785714Y-103954819D01*
X121333333Y-132109580D02*
X121285714Y-132157200D01*
X121285714Y-132157200D02*
X121142857Y-132204819D01*
X121142857Y-132204819D02*
X121047619Y-132204819D01*
X121047619Y-132204819D02*
X120904762Y-132157200D01*
X120904762Y-132157200D02*
X120809524Y-132061961D01*
X120809524Y-132061961D02*
X120761905Y-131966723D01*
X120761905Y-131966723D02*
X120714286Y-131776247D01*
X120714286Y-131776247D02*
X120714286Y-131633390D01*
X120714286Y-131633390D02*
X120761905Y-131442914D01*
X120761905Y-131442914D02*
X120809524Y-131347676D01*
X120809524Y-131347676D02*
X120904762Y-131252438D01*
X120904762Y-131252438D02*
X121047619Y-131204819D01*
X121047619Y-131204819D02*
X121142857Y-131204819D01*
X121142857Y-131204819D02*
X121285714Y-131252438D01*
X121285714Y-131252438D02*
X121333333Y-131300057D01*
X122190476Y-131204819D02*
X122000000Y-131204819D01*
X122000000Y-131204819D02*
X121904762Y-131252438D01*
X121904762Y-131252438D02*
X121857143Y-131300057D01*
X121857143Y-131300057D02*
X121761905Y-131442914D01*
X121761905Y-131442914D02*
X121714286Y-131633390D01*
X121714286Y-131633390D02*
X121714286Y-132014342D01*
X121714286Y-132014342D02*
X121761905Y-132109580D01*
X121761905Y-132109580D02*
X121809524Y-132157200D01*
X121809524Y-132157200D02*
X121904762Y-132204819D01*
X121904762Y-132204819D02*
X122095238Y-132204819D01*
X122095238Y-132204819D02*
X122190476Y-132157200D01*
X122190476Y-132157200D02*
X122238095Y-132109580D01*
X122238095Y-132109580D02*
X122285714Y-132014342D01*
X122285714Y-132014342D02*
X122285714Y-131776247D01*
X122285714Y-131776247D02*
X122238095Y-131681009D01*
X122238095Y-131681009D02*
X122190476Y-131633390D01*
X122190476Y-131633390D02*
X122095238Y-131585771D01*
X122095238Y-131585771D02*
X121904762Y-131585771D01*
X121904762Y-131585771D02*
X121809524Y-131633390D01*
X121809524Y-131633390D02*
X121761905Y-131681009D01*
X121761905Y-131681009D02*
X121714286Y-131776247D01*
X138261905Y-102734819D02*
X138261905Y-101734819D01*
X138261905Y-101734819D02*
X138500000Y-101734819D01*
X138500000Y-101734819D02*
X138642857Y-101782438D01*
X138642857Y-101782438D02*
X138738095Y-101877676D01*
X138738095Y-101877676D02*
X138785714Y-101972914D01*
X138785714Y-101972914D02*
X138833333Y-102163390D01*
X138833333Y-102163390D02*
X138833333Y-102306247D01*
X138833333Y-102306247D02*
X138785714Y-102496723D01*
X138785714Y-102496723D02*
X138738095Y-102591961D01*
X138738095Y-102591961D02*
X138642857Y-102687200D01*
X138642857Y-102687200D02*
X138500000Y-102734819D01*
X138500000Y-102734819D02*
X138261905Y-102734819D01*
X139166667Y-101734819D02*
X139785714Y-101734819D01*
X139785714Y-101734819D02*
X139452381Y-102115771D01*
X139452381Y-102115771D02*
X139595238Y-102115771D01*
X139595238Y-102115771D02*
X139690476Y-102163390D01*
X139690476Y-102163390D02*
X139738095Y-102211009D01*
X139738095Y-102211009D02*
X139785714Y-102306247D01*
X139785714Y-102306247D02*
X139785714Y-102544342D01*
X139785714Y-102544342D02*
X139738095Y-102639580D01*
X139738095Y-102639580D02*
X139690476Y-102687200D01*
X139690476Y-102687200D02*
X139595238Y-102734819D01*
X139595238Y-102734819D02*
X139309524Y-102734819D01*
X139309524Y-102734819D02*
X139214286Y-102687200D01*
X139214286Y-102687200D02*
X139166667Y-102639580D01*
X131118095Y-103854819D02*
X131118095Y-102854819D01*
X131689523Y-103854819D02*
X131260952Y-103283390D01*
X131689523Y-102854819D02*
X131118095Y-103426247D01*
X139833333Y-114704819D02*
X139357143Y-114704819D01*
X139357143Y-114704819D02*
X139357143Y-113704819D01*
X140690476Y-114704819D02*
X140119048Y-114704819D01*
X140404762Y-114704819D02*
X140404762Y-113704819D01*
X140404762Y-113704819D02*
X140309524Y-113847676D01*
X140309524Y-113847676D02*
X140214286Y-113942914D01*
X140214286Y-113942914D02*
X140119048Y-113990533D01*
X109261905Y-156734819D02*
X109261905Y-155734819D01*
X109261905Y-155734819D02*
X109500000Y-155734819D01*
X109500000Y-155734819D02*
X109642857Y-155782438D01*
X109642857Y-155782438D02*
X109738095Y-155877676D01*
X109738095Y-155877676D02*
X109785714Y-155972914D01*
X109785714Y-155972914D02*
X109833333Y-156163390D01*
X109833333Y-156163390D02*
X109833333Y-156306247D01*
X109833333Y-156306247D02*
X109785714Y-156496723D01*
X109785714Y-156496723D02*
X109738095Y-156591961D01*
X109738095Y-156591961D02*
X109642857Y-156687200D01*
X109642857Y-156687200D02*
X109500000Y-156734819D01*
X109500000Y-156734819D02*
X109261905Y-156734819D01*
X110690476Y-156068152D02*
X110690476Y-156734819D01*
X110452381Y-155687200D02*
X110214286Y-156401485D01*
X110214286Y-156401485D02*
X110833333Y-156401485D01*
X102118095Y-157854819D02*
X102118095Y-156854819D01*
X102689523Y-157854819D02*
X102260952Y-157283390D01*
X102689523Y-156854819D02*
X102118095Y-157426247D01*
X121833333Y-90834819D02*
X121500000Y-90358628D01*
X121261905Y-90834819D02*
X121261905Y-89834819D01*
X121261905Y-89834819D02*
X121642857Y-89834819D01*
X121642857Y-89834819D02*
X121738095Y-89882438D01*
X121738095Y-89882438D02*
X121785714Y-89930057D01*
X121785714Y-89930057D02*
X121833333Y-90025295D01*
X121833333Y-90025295D02*
X121833333Y-90168152D01*
X121833333Y-90168152D02*
X121785714Y-90263390D01*
X121785714Y-90263390D02*
X121738095Y-90311009D01*
X121738095Y-90311009D02*
X121642857Y-90358628D01*
X121642857Y-90358628D02*
X121261905Y-90358628D01*
X122785714Y-90834819D02*
X122214286Y-90834819D01*
X122500000Y-90834819D02*
X122500000Y-89834819D01*
X122500000Y-89834819D02*
X122404762Y-89977676D01*
X122404762Y-89977676D02*
X122309524Y-90072914D01*
X122309524Y-90072914D02*
X122214286Y-90120533D01*
X139833333Y-132149819D02*
X139357143Y-132149819D01*
X139357143Y-132149819D02*
X139357143Y-131149819D01*
X140119048Y-131245057D02*
X140166667Y-131197438D01*
X140166667Y-131197438D02*
X140261905Y-131149819D01*
X140261905Y-131149819D02*
X140500000Y-131149819D01*
X140500000Y-131149819D02*
X140595238Y-131197438D01*
X140595238Y-131197438D02*
X140642857Y-131245057D01*
X140642857Y-131245057D02*
X140690476Y-131340295D01*
X140690476Y-131340295D02*
X140690476Y-131435533D01*
X140690476Y-131435533D02*
X140642857Y-131578390D01*
X140642857Y-131578390D02*
X140071429Y-132149819D01*
X140071429Y-132149819D02*
X140690476Y-132149819D01*
X132504761Y-148714819D02*
X132171428Y-148238628D01*
X131933333Y-148714819D02*
X131933333Y-147714819D01*
X131933333Y-147714819D02*
X132314285Y-147714819D01*
X132314285Y-147714819D02*
X132409523Y-147762438D01*
X132409523Y-147762438D02*
X132457142Y-147810057D01*
X132457142Y-147810057D02*
X132504761Y-147905295D01*
X132504761Y-147905295D02*
X132504761Y-148048152D01*
X132504761Y-148048152D02*
X132457142Y-148143390D01*
X132457142Y-148143390D02*
X132409523Y-148191009D01*
X132409523Y-148191009D02*
X132314285Y-148238628D01*
X132314285Y-148238628D02*
X131933333Y-148238628D01*
X132790476Y-147714819D02*
X133123809Y-148714819D01*
X133123809Y-148714819D02*
X133457142Y-147714819D01*
X133742857Y-147810057D02*
X133790476Y-147762438D01*
X133790476Y-147762438D02*
X133885714Y-147714819D01*
X133885714Y-147714819D02*
X134123809Y-147714819D01*
X134123809Y-147714819D02*
X134219047Y-147762438D01*
X134219047Y-147762438D02*
X134266666Y-147810057D01*
X134266666Y-147810057D02*
X134314285Y-147905295D01*
X134314285Y-147905295D02*
X134314285Y-148000533D01*
X134314285Y-148000533D02*
X134266666Y-148143390D01*
X134266666Y-148143390D02*
X133695238Y-148714819D01*
X133695238Y-148714819D02*
X134314285Y-148714819D01*
X145004761Y-148714819D02*
X144671428Y-148238628D01*
X144433333Y-148714819D02*
X144433333Y-147714819D01*
X144433333Y-147714819D02*
X144814285Y-147714819D01*
X144814285Y-147714819D02*
X144909523Y-147762438D01*
X144909523Y-147762438D02*
X144957142Y-147810057D01*
X144957142Y-147810057D02*
X145004761Y-147905295D01*
X145004761Y-147905295D02*
X145004761Y-148048152D01*
X145004761Y-148048152D02*
X144957142Y-148143390D01*
X144957142Y-148143390D02*
X144909523Y-148191009D01*
X144909523Y-148191009D02*
X144814285Y-148238628D01*
X144814285Y-148238628D02*
X144433333Y-148238628D01*
X145290476Y-147714819D02*
X145623809Y-148714819D01*
X145623809Y-148714819D02*
X145957142Y-147714819D01*
X146814285Y-148714819D02*
X146242857Y-148714819D01*
X146528571Y-148714819D02*
X146528571Y-147714819D01*
X146528571Y-147714819D02*
X146433333Y-147857676D01*
X146433333Y-147857676D02*
X146338095Y-147952914D01*
X146338095Y-147952914D02*
X146242857Y-148000533D01*
X98261905Y-103454819D02*
X98261905Y-102454819D01*
X98261905Y-102454819D02*
X98500000Y-102454819D01*
X98500000Y-102454819D02*
X98642857Y-102502438D01*
X98642857Y-102502438D02*
X98738095Y-102597676D01*
X98738095Y-102597676D02*
X98785714Y-102692914D01*
X98785714Y-102692914D02*
X98833333Y-102883390D01*
X98833333Y-102883390D02*
X98833333Y-103026247D01*
X98833333Y-103026247D02*
X98785714Y-103216723D01*
X98785714Y-103216723D02*
X98738095Y-103311961D01*
X98738095Y-103311961D02*
X98642857Y-103407200D01*
X98642857Y-103407200D02*
X98500000Y-103454819D01*
X98500000Y-103454819D02*
X98261905Y-103454819D01*
X99214286Y-102550057D02*
X99261905Y-102502438D01*
X99261905Y-102502438D02*
X99357143Y-102454819D01*
X99357143Y-102454819D02*
X99595238Y-102454819D01*
X99595238Y-102454819D02*
X99690476Y-102502438D01*
X99690476Y-102502438D02*
X99738095Y-102550057D01*
X99738095Y-102550057D02*
X99785714Y-102645295D01*
X99785714Y-102645295D02*
X99785714Y-102740533D01*
X99785714Y-102740533D02*
X99738095Y-102883390D01*
X99738095Y-102883390D02*
X99166667Y-103454819D01*
X99166667Y-103454819D02*
X99785714Y-103454819D01*
X121333333Y-115109580D02*
X121285714Y-115157200D01*
X121285714Y-115157200D02*
X121142857Y-115204819D01*
X121142857Y-115204819D02*
X121047619Y-115204819D01*
X121047619Y-115204819D02*
X120904762Y-115157200D01*
X120904762Y-115157200D02*
X120809524Y-115061961D01*
X120809524Y-115061961D02*
X120761905Y-114966723D01*
X120761905Y-114966723D02*
X120714286Y-114776247D01*
X120714286Y-114776247D02*
X120714286Y-114633390D01*
X120714286Y-114633390D02*
X120761905Y-114442914D01*
X120761905Y-114442914D02*
X120809524Y-114347676D01*
X120809524Y-114347676D02*
X120904762Y-114252438D01*
X120904762Y-114252438D02*
X121047619Y-114204819D01*
X121047619Y-114204819D02*
X121142857Y-114204819D01*
X121142857Y-114204819D02*
X121285714Y-114252438D01*
X121285714Y-114252438D02*
X121333333Y-114300057D01*
X122238095Y-114204819D02*
X121761905Y-114204819D01*
X121761905Y-114204819D02*
X121714286Y-114681009D01*
X121714286Y-114681009D02*
X121761905Y-114633390D01*
X121761905Y-114633390D02*
X121857143Y-114585771D01*
X121857143Y-114585771D02*
X122095238Y-114585771D01*
X122095238Y-114585771D02*
X122190476Y-114633390D01*
X122190476Y-114633390D02*
X122238095Y-114681009D01*
X122238095Y-114681009D02*
X122285714Y-114776247D01*
X122285714Y-114776247D02*
X122285714Y-115014342D01*
X122285714Y-115014342D02*
X122238095Y-115109580D01*
X122238095Y-115109580D02*
X122190476Y-115157200D01*
X122190476Y-115157200D02*
X122095238Y-115204819D01*
X122095238Y-115204819D02*
X121857143Y-115204819D01*
X121857143Y-115204819D02*
X121761905Y-115157200D01*
X121761905Y-115157200D02*
X121714286Y-115109580D01*
X106333333Y-132109580D02*
X106285714Y-132157200D01*
X106285714Y-132157200D02*
X106142857Y-132204819D01*
X106142857Y-132204819D02*
X106047619Y-132204819D01*
X106047619Y-132204819D02*
X105904762Y-132157200D01*
X105904762Y-132157200D02*
X105809524Y-132061961D01*
X105809524Y-132061961D02*
X105761905Y-131966723D01*
X105761905Y-131966723D02*
X105714286Y-131776247D01*
X105714286Y-131776247D02*
X105714286Y-131633390D01*
X105714286Y-131633390D02*
X105761905Y-131442914D01*
X105761905Y-131442914D02*
X105809524Y-131347676D01*
X105809524Y-131347676D02*
X105904762Y-131252438D01*
X105904762Y-131252438D02*
X106047619Y-131204819D01*
X106047619Y-131204819D02*
X106142857Y-131204819D01*
X106142857Y-131204819D02*
X106285714Y-131252438D01*
X106285714Y-131252438D02*
X106333333Y-131300057D01*
X107190476Y-131538152D02*
X107190476Y-132204819D01*
X106952381Y-131157200D02*
X106714286Y-131871485D01*
X106714286Y-131871485D02*
X107333333Y-131871485D01*
X106333333Y-115109580D02*
X106285714Y-115157200D01*
X106285714Y-115157200D02*
X106142857Y-115204819D01*
X106142857Y-115204819D02*
X106047619Y-115204819D01*
X106047619Y-115204819D02*
X105904762Y-115157200D01*
X105904762Y-115157200D02*
X105809524Y-115061961D01*
X105809524Y-115061961D02*
X105761905Y-114966723D01*
X105761905Y-114966723D02*
X105714286Y-114776247D01*
X105714286Y-114776247D02*
X105714286Y-114633390D01*
X105714286Y-114633390D02*
X105761905Y-114442914D01*
X105761905Y-114442914D02*
X105809524Y-114347676D01*
X105809524Y-114347676D02*
X105904762Y-114252438D01*
X105904762Y-114252438D02*
X106047619Y-114204819D01*
X106047619Y-114204819D02*
X106142857Y-114204819D01*
X106142857Y-114204819D02*
X106285714Y-114252438D01*
X106285714Y-114252438D02*
X106333333Y-114300057D01*
X106666667Y-114204819D02*
X107285714Y-114204819D01*
X107285714Y-114204819D02*
X106952381Y-114585771D01*
X106952381Y-114585771D02*
X107095238Y-114585771D01*
X107095238Y-114585771D02*
X107190476Y-114633390D01*
X107190476Y-114633390D02*
X107238095Y-114681009D01*
X107238095Y-114681009D02*
X107285714Y-114776247D01*
X107285714Y-114776247D02*
X107285714Y-115014342D01*
X107285714Y-115014342D02*
X107238095Y-115109580D01*
X107238095Y-115109580D02*
X107190476Y-115157200D01*
X107190476Y-115157200D02*
X107095238Y-115204819D01*
X107095238Y-115204819D02*
X106809524Y-115204819D01*
X106809524Y-115204819D02*
X106714286Y-115157200D01*
X106714286Y-115157200D02*
X106666667Y-115109580D01*
X154238095Y-114454819D02*
X154809523Y-114454819D01*
X154523809Y-115454819D02*
X154523809Y-114454819D01*
X155095238Y-114550057D02*
X155142857Y-114502438D01*
X155142857Y-114502438D02*
X155238095Y-114454819D01*
X155238095Y-114454819D02*
X155476190Y-114454819D01*
X155476190Y-114454819D02*
X155571428Y-114502438D01*
X155571428Y-114502438D02*
X155619047Y-114550057D01*
X155619047Y-114550057D02*
X155666666Y-114645295D01*
X155666666Y-114645295D02*
X155666666Y-114740533D01*
X155666666Y-114740533D02*
X155619047Y-114883390D01*
X155619047Y-114883390D02*
X155047619Y-115454819D01*
X155047619Y-115454819D02*
X155666666Y-115454819D01*
X97483333Y-148734819D02*
X97150000Y-148258628D01*
X96911905Y-148734819D02*
X96911905Y-147734819D01*
X96911905Y-147734819D02*
X97292857Y-147734819D01*
X97292857Y-147734819D02*
X97388095Y-147782438D01*
X97388095Y-147782438D02*
X97435714Y-147830057D01*
X97435714Y-147830057D02*
X97483333Y-147925295D01*
X97483333Y-147925295D02*
X97483333Y-148068152D01*
X97483333Y-148068152D02*
X97435714Y-148163390D01*
X97435714Y-148163390D02*
X97388095Y-148211009D01*
X97388095Y-148211009D02*
X97292857Y-148258628D01*
X97292857Y-148258628D02*
X96911905Y-148258628D01*
X97864286Y-147830057D02*
X97911905Y-147782438D01*
X97911905Y-147782438D02*
X98007143Y-147734819D01*
X98007143Y-147734819D02*
X98245238Y-147734819D01*
X98245238Y-147734819D02*
X98340476Y-147782438D01*
X98340476Y-147782438D02*
X98388095Y-147830057D01*
X98388095Y-147830057D02*
X98435714Y-147925295D01*
X98435714Y-147925295D02*
X98435714Y-148020533D01*
X98435714Y-148020533D02*
X98388095Y-148163390D01*
X98388095Y-148163390D02*
X97816667Y-148734819D01*
X97816667Y-148734819D02*
X98435714Y-148734819D01*
X167833333Y-92359580D02*
X167785714Y-92407200D01*
X167785714Y-92407200D02*
X167642857Y-92454819D01*
X167642857Y-92454819D02*
X167547619Y-92454819D01*
X167547619Y-92454819D02*
X167404762Y-92407200D01*
X167404762Y-92407200D02*
X167309524Y-92311961D01*
X167309524Y-92311961D02*
X167261905Y-92216723D01*
X167261905Y-92216723D02*
X167214286Y-92026247D01*
X167214286Y-92026247D02*
X167214286Y-91883390D01*
X167214286Y-91883390D02*
X167261905Y-91692914D01*
X167261905Y-91692914D02*
X167309524Y-91597676D01*
X167309524Y-91597676D02*
X167404762Y-91502438D01*
X167404762Y-91502438D02*
X167547619Y-91454819D01*
X167547619Y-91454819D02*
X167642857Y-91454819D01*
X167642857Y-91454819D02*
X167785714Y-91502438D01*
X167785714Y-91502438D02*
X167833333Y-91550057D01*
X168785714Y-92454819D02*
X168214286Y-92454819D01*
X168500000Y-92454819D02*
X168500000Y-91454819D01*
X168500000Y-91454819D02*
X168404762Y-91597676D01*
X168404762Y-91597676D02*
X168309524Y-91692914D01*
X168309524Y-91692914D02*
X168214286Y-91740533D01*
X117833333Y-148734819D02*
X117500000Y-148258628D01*
X117261905Y-148734819D02*
X117261905Y-147734819D01*
X117261905Y-147734819D02*
X117642857Y-147734819D01*
X117642857Y-147734819D02*
X117738095Y-147782438D01*
X117738095Y-147782438D02*
X117785714Y-147830057D01*
X117785714Y-147830057D02*
X117833333Y-147925295D01*
X117833333Y-147925295D02*
X117833333Y-148068152D01*
X117833333Y-148068152D02*
X117785714Y-148163390D01*
X117785714Y-148163390D02*
X117738095Y-148211009D01*
X117738095Y-148211009D02*
X117642857Y-148258628D01*
X117642857Y-148258628D02*
X117261905Y-148258628D01*
X118166667Y-147734819D02*
X118785714Y-147734819D01*
X118785714Y-147734819D02*
X118452381Y-148115771D01*
X118452381Y-148115771D02*
X118595238Y-148115771D01*
X118595238Y-148115771D02*
X118690476Y-148163390D01*
X118690476Y-148163390D02*
X118738095Y-148211009D01*
X118738095Y-148211009D02*
X118785714Y-148306247D01*
X118785714Y-148306247D02*
X118785714Y-148544342D01*
X118785714Y-148544342D02*
X118738095Y-148639580D01*
X118738095Y-148639580D02*
X118690476Y-148687200D01*
X118690476Y-148687200D02*
X118595238Y-148734819D01*
X118595238Y-148734819D02*
X118309524Y-148734819D01*
X118309524Y-148734819D02*
X118214286Y-148687200D01*
X118214286Y-148687200D02*
X118166667Y-148639580D01*
D12*
%TO.C,U2*%
X94855000Y-141400000D02*
G75*
G03*
X94855000Y-141400000I-100000J0D01*
G01*
D13*
X93420000Y-140071000D02*
X93420000Y-139260000D01*
X93420000Y-136740000D02*
X93420000Y-135860000D01*
X93420000Y-133340000D02*
X93420000Y-132920000D01*
X88720000Y-143080000D02*
X88720000Y-132920000D01*
X88720000Y-143080000D02*
X93420000Y-143080000D01*
X88720000Y-132920000D02*
X93420000Y-132920000D01*
D12*
%TO.C,U1*%
X94855000Y-124400000D02*
G75*
G03*
X94855000Y-124400000I-100000J0D01*
G01*
D13*
X93420000Y-123071000D02*
X93420000Y-122260000D01*
X93420000Y-119740000D02*
X93420000Y-118860000D01*
X93420000Y-116340000D02*
X93420000Y-115920000D01*
X88720000Y-126080000D02*
X88720000Y-115920000D01*
X88720000Y-126080000D02*
X93420000Y-126080000D01*
X88720000Y-115920000D02*
X93420000Y-115920000D01*
D14*
%TO.C,C2*%
X111880000Y-104630000D02*
X111880000Y-105075000D01*
X111880000Y-104630000D02*
X118120000Y-104630000D01*
X111880000Y-106925000D02*
X111880000Y-107370000D01*
X111880000Y-107370000D02*
X118120000Y-107370000D01*
X118120000Y-104630000D02*
X118120000Y-105075000D01*
X118120000Y-106925000D02*
X118120000Y-107370000D01*
%TO.C,C6*%
X116020354Y-135125000D02*
X117020354Y-135125000D01*
X116520354Y-134625000D02*
X116520354Y-135625000D01*
X121500000Y-132920000D02*
X121500000Y-143080000D01*
X121540000Y-132920000D02*
X121540000Y-143080000D01*
X121580000Y-132920000D02*
X121580000Y-143080000D01*
X121620000Y-132921000D02*
X121620000Y-143079000D01*
X121660000Y-132922000D02*
X121660000Y-143078000D01*
X121700000Y-132923000D02*
X121700000Y-143077000D01*
X121740000Y-132925000D02*
X121740000Y-143075000D01*
X121780000Y-132927000D02*
X121780000Y-143073000D01*
X121820000Y-132930000D02*
X121820000Y-143070000D01*
X121860000Y-132932000D02*
X121860000Y-143068000D01*
X121900000Y-132935000D02*
X121900000Y-143065000D01*
X121940000Y-132938000D02*
X121940000Y-143062000D01*
X121980000Y-132942000D02*
X121980000Y-143058000D01*
X122020000Y-132946000D02*
X122020000Y-143054000D01*
X122060000Y-132950000D02*
X122060000Y-143050000D01*
X122100000Y-132955000D02*
X122100000Y-143045000D01*
X122140000Y-132960000D02*
X122140000Y-143040000D01*
X122180000Y-132965000D02*
X122180000Y-143035000D01*
X122221000Y-132970000D02*
X122221000Y-143030000D01*
X122261000Y-132976000D02*
X122261000Y-143024000D01*
X122301000Y-132982000D02*
X122301000Y-143018000D01*
X122341000Y-132989000D02*
X122341000Y-143011000D01*
X122381000Y-132996000D02*
X122381000Y-143004000D01*
X122421000Y-133003000D02*
X122421000Y-142997000D01*
X122461000Y-133010000D02*
X122461000Y-142990000D01*
X122501000Y-133018000D02*
X122501000Y-142982000D01*
X122541000Y-133026000D02*
X122541000Y-142974000D01*
X122581000Y-133035000D02*
X122581000Y-142965000D01*
X122621000Y-133044000D02*
X122621000Y-142956000D01*
X122661000Y-133053000D02*
X122661000Y-142947000D01*
X122701000Y-133062000D02*
X122701000Y-142938000D01*
X122741000Y-133072000D02*
X122741000Y-142928000D01*
X122781000Y-133082000D02*
X122781000Y-136759000D01*
X122781000Y-139241000D02*
X122781000Y-142918000D01*
X122821000Y-133093000D02*
X122821000Y-136759000D01*
X122821000Y-139241000D02*
X122821000Y-142907000D01*
X122861000Y-133103000D02*
X122861000Y-136759000D01*
X122861000Y-139241000D02*
X122861000Y-142897000D01*
X122901000Y-133115000D02*
X122901000Y-136759000D01*
X122901000Y-139241000D02*
X122901000Y-142885000D01*
X122941000Y-133126000D02*
X122941000Y-136759000D01*
X122941000Y-139241000D02*
X122941000Y-142874000D01*
X122981000Y-133138000D02*
X122981000Y-136759000D01*
X122981000Y-139241000D02*
X122981000Y-142862000D01*
X123021000Y-133150000D02*
X123021000Y-136759000D01*
X123021000Y-139241000D02*
X123021000Y-142850000D01*
X123061000Y-133163000D02*
X123061000Y-136759000D01*
X123061000Y-139241000D02*
X123061000Y-142837000D01*
X123101000Y-133176000D02*
X123101000Y-136759000D01*
X123101000Y-139241000D02*
X123101000Y-142824000D01*
X123141000Y-133189000D02*
X123141000Y-136759000D01*
X123141000Y-139241000D02*
X123141000Y-142811000D01*
X123181000Y-133203000D02*
X123181000Y-136759000D01*
X123181000Y-139241000D02*
X123181000Y-142797000D01*
X123221000Y-133217000D02*
X123221000Y-136759000D01*
X123221000Y-139241000D02*
X123221000Y-142783000D01*
X123261000Y-133232000D02*
X123261000Y-136759000D01*
X123261000Y-139241000D02*
X123261000Y-142768000D01*
X123301000Y-133246000D02*
X123301000Y-136759000D01*
X123301000Y-139241000D02*
X123301000Y-142754000D01*
X123341000Y-133262000D02*
X123341000Y-136759000D01*
X123341000Y-139241000D02*
X123341000Y-142738000D01*
X123381000Y-133277000D02*
X123381000Y-136759000D01*
X123381000Y-139241000D02*
X123381000Y-142723000D01*
X123421000Y-133293000D02*
X123421000Y-136759000D01*
X123421000Y-139241000D02*
X123421000Y-142707000D01*
X123461000Y-133310000D02*
X123461000Y-136759000D01*
X123461000Y-139241000D02*
X123461000Y-142690000D01*
X123501000Y-133326000D02*
X123501000Y-136759000D01*
X123501000Y-139241000D02*
X123501000Y-142674000D01*
X123541000Y-133343000D02*
X123541000Y-136759000D01*
X123541000Y-139241000D02*
X123541000Y-142657000D01*
X123581000Y-133361000D02*
X123581000Y-136759000D01*
X123581000Y-139241000D02*
X123581000Y-142639000D01*
X123621000Y-133379000D02*
X123621000Y-136759000D01*
X123621000Y-139241000D02*
X123621000Y-142621000D01*
X123661000Y-133397000D02*
X123661000Y-136759000D01*
X123661000Y-139241000D02*
X123661000Y-142603000D01*
X123701000Y-133416000D02*
X123701000Y-136759000D01*
X123701000Y-139241000D02*
X123701000Y-142584000D01*
X123741000Y-133436000D02*
X123741000Y-136759000D01*
X123741000Y-139241000D02*
X123741000Y-142564000D01*
X123781000Y-133455000D02*
X123781000Y-136759000D01*
X123781000Y-139241000D02*
X123781000Y-142545000D01*
X123821000Y-133475000D02*
X123821000Y-136759000D01*
X123821000Y-139241000D02*
X123821000Y-142525000D01*
X123861000Y-133496000D02*
X123861000Y-136759000D01*
X123861000Y-139241000D02*
X123861000Y-142504000D01*
X123901000Y-133517000D02*
X123901000Y-136759000D01*
X123901000Y-139241000D02*
X123901000Y-142483000D01*
X123941000Y-133538000D02*
X123941000Y-136759000D01*
X123941000Y-139241000D02*
X123941000Y-142462000D01*
X123981000Y-133560000D02*
X123981000Y-136759000D01*
X123981000Y-139241000D02*
X123981000Y-142440000D01*
X124021000Y-133583000D02*
X124021000Y-136759000D01*
X124021000Y-139241000D02*
X124021000Y-142417000D01*
X124061000Y-133605000D02*
X124061000Y-136759000D01*
X124061000Y-139241000D02*
X124061000Y-142395000D01*
X124101000Y-133629000D02*
X124101000Y-136759000D01*
X124101000Y-139241000D02*
X124101000Y-142371000D01*
X124141000Y-133653000D02*
X124141000Y-136759000D01*
X124141000Y-139241000D02*
X124141000Y-142347000D01*
X124181000Y-133677000D02*
X124181000Y-136759000D01*
X124181000Y-139241000D02*
X124181000Y-142323000D01*
X124221000Y-133702000D02*
X124221000Y-136759000D01*
X124221000Y-139241000D02*
X124221000Y-142298000D01*
X124261000Y-133727000D02*
X124261000Y-136759000D01*
X124261000Y-139241000D02*
X124261000Y-142273000D01*
X124301000Y-133753000D02*
X124301000Y-136759000D01*
X124301000Y-139241000D02*
X124301000Y-142247000D01*
X124341000Y-133779000D02*
X124341000Y-136759000D01*
X124341000Y-139241000D02*
X124341000Y-142221000D01*
X124381000Y-133806000D02*
X124381000Y-136759000D01*
X124381000Y-139241000D02*
X124381000Y-142194000D01*
X124421000Y-133834000D02*
X124421000Y-136759000D01*
X124421000Y-139241000D02*
X124421000Y-142166000D01*
X124461000Y-133862000D02*
X124461000Y-136759000D01*
X124461000Y-139241000D02*
X124461000Y-142138000D01*
X124501000Y-133890000D02*
X124501000Y-136759000D01*
X124501000Y-139241000D02*
X124501000Y-142110000D01*
X124541000Y-133920000D02*
X124541000Y-136759000D01*
X124541000Y-139241000D02*
X124541000Y-142080000D01*
X124581000Y-133950000D02*
X124581000Y-136759000D01*
X124581000Y-139241000D02*
X124581000Y-142050000D01*
X124621000Y-133980000D02*
X124621000Y-136759000D01*
X124621000Y-139241000D02*
X124621000Y-142020000D01*
X124661000Y-134011000D02*
X124661000Y-136759000D01*
X124661000Y-139241000D02*
X124661000Y-141989000D01*
X124701000Y-134043000D02*
X124701000Y-136759000D01*
X124701000Y-139241000D02*
X124701000Y-141957000D01*
X124741000Y-134075000D02*
X124741000Y-136759000D01*
X124741000Y-139241000D02*
X124741000Y-141925000D01*
X124781000Y-134108000D02*
X124781000Y-136759000D01*
X124781000Y-139241000D02*
X124781000Y-141892000D01*
X124821000Y-134142000D02*
X124821000Y-136759000D01*
X124821000Y-139241000D02*
X124821000Y-141858000D01*
X124861000Y-134176000D02*
X124861000Y-136759000D01*
X124861000Y-139241000D02*
X124861000Y-141824000D01*
X124901000Y-134211000D02*
X124901000Y-136759000D01*
X124901000Y-139241000D02*
X124901000Y-141789000D01*
X124941000Y-134247000D02*
X124941000Y-136759000D01*
X124941000Y-139241000D02*
X124941000Y-141753000D01*
X124981000Y-134284000D02*
X124981000Y-136759000D01*
X124981000Y-139241000D02*
X124981000Y-141716000D01*
X125021000Y-134321000D02*
X125021000Y-136759000D01*
X125021000Y-139241000D02*
X125021000Y-141679000D01*
X125061000Y-134360000D02*
X125061000Y-136759000D01*
X125061000Y-139241000D02*
X125061000Y-141640000D01*
X125101000Y-134399000D02*
X125101000Y-136759000D01*
X125101000Y-139241000D02*
X125101000Y-141601000D01*
X125141000Y-134439000D02*
X125141000Y-136759000D01*
X125141000Y-139241000D02*
X125141000Y-141561000D01*
X125181000Y-134480000D02*
X125181000Y-136759000D01*
X125181000Y-139241000D02*
X125181000Y-141520000D01*
X125221000Y-134522000D02*
X125221000Y-136759000D01*
X125221000Y-139241000D02*
X125221000Y-141478000D01*
X125261000Y-134564000D02*
X125261000Y-141436000D01*
X125301000Y-134608000D02*
X125301000Y-141392000D01*
X125341000Y-134653000D02*
X125341000Y-141347000D01*
X125381000Y-134699000D02*
X125381000Y-141301000D01*
X125421000Y-134746000D02*
X125421000Y-141254000D01*
X125461000Y-134794000D02*
X125461000Y-141206000D01*
X125501000Y-134844000D02*
X125501000Y-141156000D01*
X125541000Y-134894000D02*
X125541000Y-141106000D01*
X125581000Y-134946000D02*
X125581000Y-141054000D01*
X125621000Y-135000000D02*
X125621000Y-141000000D01*
X125661000Y-135055000D02*
X125661000Y-140945000D01*
X125701000Y-135111000D02*
X125701000Y-140889000D01*
X125741000Y-135170000D02*
X125741000Y-140830000D01*
X125781000Y-135230000D02*
X125781000Y-140770000D01*
X125821000Y-135291000D02*
X125821000Y-140709000D01*
X125861000Y-135355000D02*
X125861000Y-140645000D01*
X125901000Y-135421000D02*
X125901000Y-140579000D01*
X125941000Y-135490000D02*
X125941000Y-140510000D01*
X125981000Y-135561000D02*
X125981000Y-140439000D01*
X126021000Y-135635000D02*
X126021000Y-140365000D01*
X126061000Y-135711000D02*
X126061000Y-140289000D01*
X126101000Y-135791000D02*
X126101000Y-140209000D01*
X126141000Y-135875000D02*
X126141000Y-140125000D01*
X126181000Y-135963000D02*
X126181000Y-140037000D01*
X126221000Y-136056000D02*
X126221000Y-139944000D01*
X126261000Y-136154000D02*
X126261000Y-139846000D01*
X126301000Y-136258000D02*
X126301000Y-139742000D01*
X126341000Y-136370000D02*
X126341000Y-139630000D01*
X126381000Y-136490000D02*
X126381000Y-139510000D01*
X126421000Y-136622000D02*
X126421000Y-139378000D01*
X126461000Y-136770000D02*
X126461000Y-139230000D01*
X126501000Y-136938000D02*
X126501000Y-139062000D01*
X126541000Y-137138000D02*
X126541000Y-138862000D01*
X126581000Y-137401000D02*
X126581000Y-138599000D01*
X126620000Y-138000000D02*
G75*
G03*
X126620000Y-138000000I-5120000J0D01*
G01*
%TO.C,D3*%
X133220000Y-106000000D02*
X134130000Y-106000000D01*
X134130000Y-103280000D02*
X134130000Y-108720000D01*
X134130000Y-108720000D02*
X143870000Y-108720000D01*
X135555000Y-103280000D02*
X135555000Y-108720000D01*
X135675000Y-103280000D02*
X135675000Y-108720000D01*
X135795000Y-103280000D02*
X135795000Y-108720000D01*
X143870000Y-103280000D02*
X134130000Y-103280000D01*
X143870000Y-108720000D02*
X143870000Y-103280000D01*
X144780000Y-106000000D02*
X143870000Y-106000000D01*
%TO.C,L1*%
X131750000Y-116880000D02*
X131750000Y-124230000D01*
X131750000Y-116880000D02*
X138245000Y-116880000D01*
X131750000Y-124230000D02*
X138245000Y-124230000D01*
X141755000Y-116880000D02*
X148250000Y-116880000D01*
X141755000Y-124230000D02*
X148250000Y-124230000D01*
X148250000Y-116880000D02*
X148250000Y-124230000D01*
%TO.C,D4*%
X104220000Y-160000000D02*
X105130000Y-160000000D01*
X105130000Y-157280000D02*
X105130000Y-162720000D01*
X105130000Y-162720000D02*
X114870000Y-162720000D01*
X106555000Y-157280000D02*
X106555000Y-162720000D01*
X106675000Y-157280000D02*
X106675000Y-162720000D01*
X106795000Y-157280000D02*
X106795000Y-162720000D01*
X114870000Y-157280000D02*
X105130000Y-157280000D01*
X114870000Y-162720000D02*
X114870000Y-157280000D01*
X115780000Y-160000000D02*
X114870000Y-160000000D01*
%TO.C,R1*%
X92960000Y-96000000D02*
X96880000Y-96000000D01*
X96880000Y-91380000D02*
X96880000Y-100620000D01*
X96880000Y-100620000D02*
X147120000Y-100620000D01*
X147120000Y-91380000D02*
X96880000Y-91380000D01*
X147120000Y-100620000D02*
X147120000Y-91380000D01*
X151040000Y-96000000D02*
X147120000Y-96000000D01*
%TO.C,L2*%
X131750000Y-134325000D02*
X131750000Y-141675000D01*
X131750000Y-134325000D02*
X138245000Y-134325000D01*
X131750000Y-141675000D02*
X138245000Y-141675000D01*
X141755000Y-134325000D02*
X148250000Y-134325000D01*
X141755000Y-141675000D02*
X148250000Y-141675000D01*
X148250000Y-134325000D02*
X148250000Y-141675000D01*
%TO.C,RV2*%
X129690000Y-149550000D02*
X129690000Y-149800000D01*
X129690000Y-155260000D02*
X129690000Y-151720000D01*
X129790000Y-149350000D02*
X129790000Y-149550000D01*
X129790000Y-149350000D02*
X131210000Y-149350000D01*
X129790000Y-149550000D02*
X129690000Y-149550000D01*
X131210000Y-149550000D02*
X131210000Y-149350000D01*
X131210000Y-149550000D02*
X134790000Y-149550000D01*
X132490000Y-156570000D02*
X131000000Y-156570000D01*
X134790000Y-149350000D02*
X136210000Y-149350000D01*
X134790000Y-149550000D02*
X134790000Y-149350000D01*
X135000000Y-156570000D02*
X133510000Y-156570000D01*
X136210000Y-149350000D02*
X136210000Y-149550000D01*
X136210000Y-149550000D02*
X136310000Y-149550000D01*
X136310000Y-149550000D02*
X136310000Y-150240000D01*
X136310000Y-151280000D02*
X136310000Y-155260000D01*
X129690000Y-155260000D02*
G75*
G03*
X131000000Y-156570000I1310000J0D01*
G01*
X135000000Y-156570000D02*
G75*
G03*
X136310000Y-155260000I0J1310000D01*
G01*
%TO.C,RV1*%
X142190000Y-149550000D02*
X142190000Y-149800000D01*
X142190000Y-155260000D02*
X142190000Y-151720000D01*
X142290000Y-149350000D02*
X142290000Y-149550000D01*
X142290000Y-149350000D02*
X143710000Y-149350000D01*
X142290000Y-149550000D02*
X142190000Y-149550000D01*
X143710000Y-149550000D02*
X143710000Y-149350000D01*
X143710000Y-149550000D02*
X147290000Y-149550000D01*
X144990000Y-156570000D02*
X143500000Y-156570000D01*
X147290000Y-149350000D02*
X148710000Y-149350000D01*
X147290000Y-149550000D02*
X147290000Y-149350000D01*
X147500000Y-156570000D02*
X146010000Y-156570000D01*
X148710000Y-149350000D02*
X148710000Y-149550000D01*
X148710000Y-149550000D02*
X148810000Y-149550000D01*
X148810000Y-149550000D02*
X148810000Y-150240000D01*
X148810000Y-151280000D02*
X148810000Y-155260000D01*
X142190000Y-155260000D02*
G75*
G03*
X143500000Y-156570000I1310000J0D01*
G01*
X147500000Y-156570000D02*
G75*
G03*
X148810000Y-155260000I0J1310000D01*
G01*
D15*
%TO.C,TR1*%
X193404000Y-41062000D02*
X178418000Y-41062000D01*
X178418000Y-41062000D02*
X178418000Y-65954000D01*
X178418000Y-65954000D02*
X193404000Y-65954000D01*
X193404000Y-65954000D02*
X193404000Y-41062000D01*
X178418000Y-33188000D02*
X93582000Y-33188000D01*
X93582000Y-33188000D02*
X93582000Y-73066000D01*
X93582000Y-73066000D02*
X178418000Y-73066000D01*
X178418000Y-73066000D02*
X178418000Y-33188000D01*
X111108000Y-73066000D02*
X160892000Y-73066000D01*
X160892000Y-73066000D02*
X160892000Y-85512000D01*
X160892000Y-85512000D02*
X111108000Y-85512000D01*
X111108000Y-85512000D02*
X111108000Y-73066000D01*
X111108000Y-33188000D02*
X160892000Y-33188000D01*
X160892000Y-33188000D02*
X160892000Y-20742000D01*
X160892000Y-20742000D02*
X111108000Y-20742000D01*
X111108000Y-20742000D02*
X111108000Y-33188000D01*
X93582000Y-41062000D02*
X78596000Y-41062000D01*
X78596000Y-41062000D02*
X78596000Y-65954000D01*
X78596000Y-65954000D02*
X93582000Y-65954000D01*
X93582000Y-65954000D02*
X93582000Y-41062000D01*
D13*
%TO.C,D2*%
X92575000Y-106000000D02*
X94682500Y-106000000D01*
X94682500Y-104255000D02*
X103317500Y-104255000D01*
X94682500Y-106000000D02*
X94682500Y-104255000D01*
X94682500Y-107745000D02*
X94682500Y-106000000D01*
X103317500Y-104255000D02*
X103317500Y-106000000D01*
X103317500Y-106000000D02*
X103317500Y-107745000D01*
X103317500Y-106000000D02*
X105425000Y-106000000D01*
X103317500Y-107745000D02*
X94682500Y-107745000D01*
D12*
X89415000Y-106000000D02*
G75*
G03*
X89415000Y-106000000I-100000J0D01*
G01*
D14*
%TO.C,C5*%
X116020354Y-118125000D02*
X117020354Y-118125000D01*
X116520354Y-117625000D02*
X116520354Y-118625000D01*
X121500000Y-115920000D02*
X121500000Y-126080000D01*
X121540000Y-115920000D02*
X121540000Y-126080000D01*
X121580000Y-115920000D02*
X121580000Y-126080000D01*
X121620000Y-115921000D02*
X121620000Y-126079000D01*
X121660000Y-115922000D02*
X121660000Y-126078000D01*
X121700000Y-115923000D02*
X121700000Y-126077000D01*
X121740000Y-115925000D02*
X121740000Y-126075000D01*
X121780000Y-115927000D02*
X121780000Y-126073000D01*
X121820000Y-115930000D02*
X121820000Y-126070000D01*
X121860000Y-115932000D02*
X121860000Y-126068000D01*
X121900000Y-115935000D02*
X121900000Y-126065000D01*
X121940000Y-115938000D02*
X121940000Y-126062000D01*
X121980000Y-115942000D02*
X121980000Y-126058000D01*
X122020000Y-115946000D02*
X122020000Y-126054000D01*
X122060000Y-115950000D02*
X122060000Y-126050000D01*
X122100000Y-115955000D02*
X122100000Y-126045000D01*
X122140000Y-115960000D02*
X122140000Y-126040000D01*
X122180000Y-115965000D02*
X122180000Y-126035000D01*
X122221000Y-115970000D02*
X122221000Y-126030000D01*
X122261000Y-115976000D02*
X122261000Y-126024000D01*
X122301000Y-115982000D02*
X122301000Y-126018000D01*
X122341000Y-115989000D02*
X122341000Y-126011000D01*
X122381000Y-115996000D02*
X122381000Y-126004000D01*
X122421000Y-116003000D02*
X122421000Y-125997000D01*
X122461000Y-116010000D02*
X122461000Y-125990000D01*
X122501000Y-116018000D02*
X122501000Y-125982000D01*
X122541000Y-116026000D02*
X122541000Y-125974000D01*
X122581000Y-116035000D02*
X122581000Y-125965000D01*
X122621000Y-116044000D02*
X122621000Y-125956000D01*
X122661000Y-116053000D02*
X122661000Y-125947000D01*
X122701000Y-116062000D02*
X122701000Y-125938000D01*
X122741000Y-116072000D02*
X122741000Y-125928000D01*
X122781000Y-116082000D02*
X122781000Y-119759000D01*
X122781000Y-122241000D02*
X122781000Y-125918000D01*
X122821000Y-116093000D02*
X122821000Y-119759000D01*
X122821000Y-122241000D02*
X122821000Y-125907000D01*
X122861000Y-116103000D02*
X122861000Y-119759000D01*
X122861000Y-122241000D02*
X122861000Y-125897000D01*
X122901000Y-116115000D02*
X122901000Y-119759000D01*
X122901000Y-122241000D02*
X122901000Y-125885000D01*
X122941000Y-116126000D02*
X122941000Y-119759000D01*
X122941000Y-122241000D02*
X122941000Y-125874000D01*
X122981000Y-116138000D02*
X122981000Y-119759000D01*
X122981000Y-122241000D02*
X122981000Y-125862000D01*
X123021000Y-116150000D02*
X123021000Y-119759000D01*
X123021000Y-122241000D02*
X123021000Y-125850000D01*
X123061000Y-116163000D02*
X123061000Y-119759000D01*
X123061000Y-122241000D02*
X123061000Y-125837000D01*
X123101000Y-116176000D02*
X123101000Y-119759000D01*
X123101000Y-122241000D02*
X123101000Y-125824000D01*
X123141000Y-116189000D02*
X123141000Y-119759000D01*
X123141000Y-122241000D02*
X123141000Y-125811000D01*
X123181000Y-116203000D02*
X123181000Y-119759000D01*
X123181000Y-122241000D02*
X123181000Y-125797000D01*
X123221000Y-116217000D02*
X123221000Y-119759000D01*
X123221000Y-122241000D02*
X123221000Y-125783000D01*
X123261000Y-116232000D02*
X123261000Y-119759000D01*
X123261000Y-122241000D02*
X123261000Y-125768000D01*
X123301000Y-116246000D02*
X123301000Y-119759000D01*
X123301000Y-122241000D02*
X123301000Y-125754000D01*
X123341000Y-116262000D02*
X123341000Y-119759000D01*
X123341000Y-122241000D02*
X123341000Y-125738000D01*
X123381000Y-116277000D02*
X123381000Y-119759000D01*
X123381000Y-122241000D02*
X123381000Y-125723000D01*
X123421000Y-116293000D02*
X123421000Y-119759000D01*
X123421000Y-122241000D02*
X123421000Y-125707000D01*
X123461000Y-116310000D02*
X123461000Y-119759000D01*
X123461000Y-122241000D02*
X123461000Y-125690000D01*
X123501000Y-116326000D02*
X123501000Y-119759000D01*
X123501000Y-122241000D02*
X123501000Y-125674000D01*
X123541000Y-116343000D02*
X123541000Y-119759000D01*
X123541000Y-122241000D02*
X123541000Y-125657000D01*
X123581000Y-116361000D02*
X123581000Y-119759000D01*
X123581000Y-122241000D02*
X123581000Y-125639000D01*
X123621000Y-116379000D02*
X123621000Y-119759000D01*
X123621000Y-122241000D02*
X123621000Y-125621000D01*
X123661000Y-116397000D02*
X123661000Y-119759000D01*
X123661000Y-122241000D02*
X123661000Y-125603000D01*
X123701000Y-116416000D02*
X123701000Y-119759000D01*
X123701000Y-122241000D02*
X123701000Y-125584000D01*
X123741000Y-116436000D02*
X123741000Y-119759000D01*
X123741000Y-122241000D02*
X123741000Y-125564000D01*
X123781000Y-116455000D02*
X123781000Y-119759000D01*
X123781000Y-122241000D02*
X123781000Y-125545000D01*
X123821000Y-116475000D02*
X123821000Y-119759000D01*
X123821000Y-122241000D02*
X123821000Y-125525000D01*
X123861000Y-116496000D02*
X123861000Y-119759000D01*
X123861000Y-122241000D02*
X123861000Y-125504000D01*
X123901000Y-116517000D02*
X123901000Y-119759000D01*
X123901000Y-122241000D02*
X123901000Y-125483000D01*
X123941000Y-116538000D02*
X123941000Y-119759000D01*
X123941000Y-122241000D02*
X123941000Y-125462000D01*
X123981000Y-116560000D02*
X123981000Y-119759000D01*
X123981000Y-122241000D02*
X123981000Y-125440000D01*
X124021000Y-116583000D02*
X124021000Y-119759000D01*
X124021000Y-122241000D02*
X124021000Y-125417000D01*
X124061000Y-116605000D02*
X124061000Y-119759000D01*
X124061000Y-122241000D02*
X124061000Y-125395000D01*
X124101000Y-116629000D02*
X124101000Y-119759000D01*
X124101000Y-122241000D02*
X124101000Y-125371000D01*
X124141000Y-116653000D02*
X124141000Y-119759000D01*
X124141000Y-122241000D02*
X124141000Y-125347000D01*
X124181000Y-116677000D02*
X124181000Y-119759000D01*
X124181000Y-122241000D02*
X124181000Y-125323000D01*
X124221000Y-116702000D02*
X124221000Y-119759000D01*
X124221000Y-122241000D02*
X124221000Y-125298000D01*
X124261000Y-116727000D02*
X124261000Y-119759000D01*
X124261000Y-122241000D02*
X124261000Y-125273000D01*
X124301000Y-116753000D02*
X124301000Y-119759000D01*
X124301000Y-122241000D02*
X124301000Y-125247000D01*
X124341000Y-116779000D02*
X124341000Y-119759000D01*
X124341000Y-122241000D02*
X124341000Y-125221000D01*
X124381000Y-116806000D02*
X124381000Y-119759000D01*
X124381000Y-122241000D02*
X124381000Y-125194000D01*
X124421000Y-116834000D02*
X124421000Y-119759000D01*
X124421000Y-122241000D02*
X124421000Y-125166000D01*
X124461000Y-116862000D02*
X124461000Y-119759000D01*
X124461000Y-122241000D02*
X124461000Y-125138000D01*
X124501000Y-116890000D02*
X124501000Y-119759000D01*
X124501000Y-122241000D02*
X124501000Y-125110000D01*
X124541000Y-116920000D02*
X124541000Y-119759000D01*
X124541000Y-122241000D02*
X124541000Y-125080000D01*
X124581000Y-116950000D02*
X124581000Y-119759000D01*
X124581000Y-122241000D02*
X124581000Y-125050000D01*
X124621000Y-116980000D02*
X124621000Y-119759000D01*
X124621000Y-122241000D02*
X124621000Y-125020000D01*
X124661000Y-117011000D02*
X124661000Y-119759000D01*
X124661000Y-122241000D02*
X124661000Y-124989000D01*
X124701000Y-117043000D02*
X124701000Y-119759000D01*
X124701000Y-122241000D02*
X124701000Y-124957000D01*
X124741000Y-117075000D02*
X124741000Y-119759000D01*
X124741000Y-122241000D02*
X124741000Y-124925000D01*
X124781000Y-117108000D02*
X124781000Y-119759000D01*
X124781000Y-122241000D02*
X124781000Y-124892000D01*
X124821000Y-117142000D02*
X124821000Y-119759000D01*
X124821000Y-122241000D02*
X124821000Y-124858000D01*
X124861000Y-117176000D02*
X124861000Y-119759000D01*
X124861000Y-122241000D02*
X124861000Y-124824000D01*
X124901000Y-117211000D02*
X124901000Y-119759000D01*
X124901000Y-122241000D02*
X124901000Y-124789000D01*
X124941000Y-117247000D02*
X124941000Y-119759000D01*
X124941000Y-122241000D02*
X124941000Y-124753000D01*
X124981000Y-117284000D02*
X124981000Y-119759000D01*
X124981000Y-122241000D02*
X124981000Y-124716000D01*
X125021000Y-117321000D02*
X125021000Y-119759000D01*
X125021000Y-122241000D02*
X125021000Y-124679000D01*
X125061000Y-117360000D02*
X125061000Y-119759000D01*
X125061000Y-122241000D02*
X125061000Y-124640000D01*
X125101000Y-117399000D02*
X125101000Y-119759000D01*
X125101000Y-122241000D02*
X125101000Y-124601000D01*
X125141000Y-117439000D02*
X125141000Y-119759000D01*
X125141000Y-122241000D02*
X125141000Y-124561000D01*
X125181000Y-117480000D02*
X125181000Y-119759000D01*
X125181000Y-122241000D02*
X125181000Y-124520000D01*
X125221000Y-117522000D02*
X125221000Y-119759000D01*
X125221000Y-122241000D02*
X125221000Y-124478000D01*
X125261000Y-117564000D02*
X125261000Y-124436000D01*
X125301000Y-117608000D02*
X125301000Y-124392000D01*
X125341000Y-117653000D02*
X125341000Y-124347000D01*
X125381000Y-117699000D02*
X125381000Y-124301000D01*
X125421000Y-117746000D02*
X125421000Y-124254000D01*
X125461000Y-117794000D02*
X125461000Y-124206000D01*
X125501000Y-117844000D02*
X125501000Y-124156000D01*
X125541000Y-117894000D02*
X125541000Y-124106000D01*
X125581000Y-117946000D02*
X125581000Y-124054000D01*
X125621000Y-118000000D02*
X125621000Y-124000000D01*
X125661000Y-118055000D02*
X125661000Y-123945000D01*
X125701000Y-118111000D02*
X125701000Y-123889000D01*
X125741000Y-118170000D02*
X125741000Y-123830000D01*
X125781000Y-118230000D02*
X125781000Y-123770000D01*
X125821000Y-118291000D02*
X125821000Y-123709000D01*
X125861000Y-118355000D02*
X125861000Y-123645000D01*
X125901000Y-118421000D02*
X125901000Y-123579000D01*
X125941000Y-118490000D02*
X125941000Y-123510000D01*
X125981000Y-118561000D02*
X125981000Y-123439000D01*
X126021000Y-118635000D02*
X126021000Y-123365000D01*
X126061000Y-118711000D02*
X126061000Y-123289000D01*
X126101000Y-118791000D02*
X126101000Y-123209000D01*
X126141000Y-118875000D02*
X126141000Y-123125000D01*
X126181000Y-118963000D02*
X126181000Y-123037000D01*
X126221000Y-119056000D02*
X126221000Y-122944000D01*
X126261000Y-119154000D02*
X126261000Y-122846000D01*
X126301000Y-119258000D02*
X126301000Y-122742000D01*
X126341000Y-119370000D02*
X126341000Y-122630000D01*
X126381000Y-119490000D02*
X126381000Y-122510000D01*
X126421000Y-119622000D02*
X126421000Y-122378000D01*
X126461000Y-119770000D02*
X126461000Y-122230000D01*
X126501000Y-119938000D02*
X126501000Y-122062000D01*
X126541000Y-120138000D02*
X126541000Y-121862000D01*
X126581000Y-120401000D02*
X126581000Y-121599000D01*
X126620000Y-121000000D02*
G75*
G03*
X126620000Y-121000000I-5120000J0D01*
G01*
%TO.C,C4*%
X101020354Y-135125000D02*
X102020354Y-135125000D01*
X101520354Y-134625000D02*
X101520354Y-135625000D01*
X106500000Y-132920000D02*
X106500000Y-143080000D01*
X106540000Y-132920000D02*
X106540000Y-143080000D01*
X106580000Y-132920000D02*
X106580000Y-143080000D01*
X106620000Y-132921000D02*
X106620000Y-143079000D01*
X106660000Y-132922000D02*
X106660000Y-143078000D01*
X106700000Y-132923000D02*
X106700000Y-143077000D01*
X106740000Y-132925000D02*
X106740000Y-143075000D01*
X106780000Y-132927000D02*
X106780000Y-143073000D01*
X106820000Y-132930000D02*
X106820000Y-143070000D01*
X106860000Y-132932000D02*
X106860000Y-143068000D01*
X106900000Y-132935000D02*
X106900000Y-143065000D01*
X106940000Y-132938000D02*
X106940000Y-143062000D01*
X106980000Y-132942000D02*
X106980000Y-143058000D01*
X107020000Y-132946000D02*
X107020000Y-143054000D01*
X107060000Y-132950000D02*
X107060000Y-143050000D01*
X107100000Y-132955000D02*
X107100000Y-143045000D01*
X107140000Y-132960000D02*
X107140000Y-143040000D01*
X107180000Y-132965000D02*
X107180000Y-143035000D01*
X107221000Y-132970000D02*
X107221000Y-143030000D01*
X107261000Y-132976000D02*
X107261000Y-143024000D01*
X107301000Y-132982000D02*
X107301000Y-143018000D01*
X107341000Y-132989000D02*
X107341000Y-143011000D01*
X107381000Y-132996000D02*
X107381000Y-143004000D01*
X107421000Y-133003000D02*
X107421000Y-142997000D01*
X107461000Y-133010000D02*
X107461000Y-142990000D01*
X107501000Y-133018000D02*
X107501000Y-142982000D01*
X107541000Y-133026000D02*
X107541000Y-142974000D01*
X107581000Y-133035000D02*
X107581000Y-142965000D01*
X107621000Y-133044000D02*
X107621000Y-142956000D01*
X107661000Y-133053000D02*
X107661000Y-142947000D01*
X107701000Y-133062000D02*
X107701000Y-142938000D01*
X107741000Y-133072000D02*
X107741000Y-142928000D01*
X107781000Y-133082000D02*
X107781000Y-136759000D01*
X107781000Y-139241000D02*
X107781000Y-142918000D01*
X107821000Y-133093000D02*
X107821000Y-136759000D01*
X107821000Y-139241000D02*
X107821000Y-142907000D01*
X107861000Y-133103000D02*
X107861000Y-136759000D01*
X107861000Y-139241000D02*
X107861000Y-142897000D01*
X107901000Y-133115000D02*
X107901000Y-136759000D01*
X107901000Y-139241000D02*
X107901000Y-142885000D01*
X107941000Y-133126000D02*
X107941000Y-136759000D01*
X107941000Y-139241000D02*
X107941000Y-142874000D01*
X107981000Y-133138000D02*
X107981000Y-136759000D01*
X107981000Y-139241000D02*
X107981000Y-142862000D01*
X108021000Y-133150000D02*
X108021000Y-136759000D01*
X108021000Y-139241000D02*
X108021000Y-142850000D01*
X108061000Y-133163000D02*
X108061000Y-136759000D01*
X108061000Y-139241000D02*
X108061000Y-142837000D01*
X108101000Y-133176000D02*
X108101000Y-136759000D01*
X108101000Y-139241000D02*
X108101000Y-142824000D01*
X108141000Y-133189000D02*
X108141000Y-136759000D01*
X108141000Y-139241000D02*
X108141000Y-142811000D01*
X108181000Y-133203000D02*
X108181000Y-136759000D01*
X108181000Y-139241000D02*
X108181000Y-142797000D01*
X108221000Y-133217000D02*
X108221000Y-136759000D01*
X108221000Y-139241000D02*
X108221000Y-142783000D01*
X108261000Y-133232000D02*
X108261000Y-136759000D01*
X108261000Y-139241000D02*
X108261000Y-142768000D01*
X108301000Y-133246000D02*
X108301000Y-136759000D01*
X108301000Y-139241000D02*
X108301000Y-142754000D01*
X108341000Y-133262000D02*
X108341000Y-136759000D01*
X108341000Y-139241000D02*
X108341000Y-142738000D01*
X108381000Y-133277000D02*
X108381000Y-136759000D01*
X108381000Y-139241000D02*
X108381000Y-142723000D01*
X108421000Y-133293000D02*
X108421000Y-136759000D01*
X108421000Y-139241000D02*
X108421000Y-142707000D01*
X108461000Y-133310000D02*
X108461000Y-136759000D01*
X108461000Y-139241000D02*
X108461000Y-142690000D01*
X108501000Y-133326000D02*
X108501000Y-136759000D01*
X108501000Y-139241000D02*
X108501000Y-142674000D01*
X108541000Y-133343000D02*
X108541000Y-136759000D01*
X108541000Y-139241000D02*
X108541000Y-142657000D01*
X108581000Y-133361000D02*
X108581000Y-136759000D01*
X108581000Y-139241000D02*
X108581000Y-142639000D01*
X108621000Y-133379000D02*
X108621000Y-136759000D01*
X108621000Y-139241000D02*
X108621000Y-142621000D01*
X108661000Y-133397000D02*
X108661000Y-136759000D01*
X108661000Y-139241000D02*
X108661000Y-142603000D01*
X108701000Y-133416000D02*
X108701000Y-136759000D01*
X108701000Y-139241000D02*
X108701000Y-142584000D01*
X108741000Y-133436000D02*
X108741000Y-136759000D01*
X108741000Y-139241000D02*
X108741000Y-142564000D01*
X108781000Y-133455000D02*
X108781000Y-136759000D01*
X108781000Y-139241000D02*
X108781000Y-142545000D01*
X108821000Y-133475000D02*
X108821000Y-136759000D01*
X108821000Y-139241000D02*
X108821000Y-142525000D01*
X108861000Y-133496000D02*
X108861000Y-136759000D01*
X108861000Y-139241000D02*
X108861000Y-142504000D01*
X108901000Y-133517000D02*
X108901000Y-136759000D01*
X108901000Y-139241000D02*
X108901000Y-142483000D01*
X108941000Y-133538000D02*
X108941000Y-136759000D01*
X108941000Y-139241000D02*
X108941000Y-142462000D01*
X108981000Y-133560000D02*
X108981000Y-136759000D01*
X108981000Y-139241000D02*
X108981000Y-142440000D01*
X109021000Y-133583000D02*
X109021000Y-136759000D01*
X109021000Y-139241000D02*
X109021000Y-142417000D01*
X109061000Y-133605000D02*
X109061000Y-136759000D01*
X109061000Y-139241000D02*
X109061000Y-142395000D01*
X109101000Y-133629000D02*
X109101000Y-136759000D01*
X109101000Y-139241000D02*
X109101000Y-142371000D01*
X109141000Y-133653000D02*
X109141000Y-136759000D01*
X109141000Y-139241000D02*
X109141000Y-142347000D01*
X109181000Y-133677000D02*
X109181000Y-136759000D01*
X109181000Y-139241000D02*
X109181000Y-142323000D01*
X109221000Y-133702000D02*
X109221000Y-136759000D01*
X109221000Y-139241000D02*
X109221000Y-142298000D01*
X109261000Y-133727000D02*
X109261000Y-136759000D01*
X109261000Y-139241000D02*
X109261000Y-142273000D01*
X109301000Y-133753000D02*
X109301000Y-136759000D01*
X109301000Y-139241000D02*
X109301000Y-142247000D01*
X109341000Y-133779000D02*
X109341000Y-136759000D01*
X109341000Y-139241000D02*
X109341000Y-142221000D01*
X109381000Y-133806000D02*
X109381000Y-136759000D01*
X109381000Y-139241000D02*
X109381000Y-142194000D01*
X109421000Y-133834000D02*
X109421000Y-136759000D01*
X109421000Y-139241000D02*
X109421000Y-142166000D01*
X109461000Y-133862000D02*
X109461000Y-136759000D01*
X109461000Y-139241000D02*
X109461000Y-142138000D01*
X109501000Y-133890000D02*
X109501000Y-136759000D01*
X109501000Y-139241000D02*
X109501000Y-142110000D01*
X109541000Y-133920000D02*
X109541000Y-136759000D01*
X109541000Y-139241000D02*
X109541000Y-142080000D01*
X109581000Y-133950000D02*
X109581000Y-136759000D01*
X109581000Y-139241000D02*
X109581000Y-142050000D01*
X109621000Y-133980000D02*
X109621000Y-136759000D01*
X109621000Y-139241000D02*
X109621000Y-142020000D01*
X109661000Y-134011000D02*
X109661000Y-136759000D01*
X109661000Y-139241000D02*
X109661000Y-141989000D01*
X109701000Y-134043000D02*
X109701000Y-136759000D01*
X109701000Y-139241000D02*
X109701000Y-141957000D01*
X109741000Y-134075000D02*
X109741000Y-136759000D01*
X109741000Y-139241000D02*
X109741000Y-141925000D01*
X109781000Y-134108000D02*
X109781000Y-136759000D01*
X109781000Y-139241000D02*
X109781000Y-141892000D01*
X109821000Y-134142000D02*
X109821000Y-136759000D01*
X109821000Y-139241000D02*
X109821000Y-141858000D01*
X109861000Y-134176000D02*
X109861000Y-136759000D01*
X109861000Y-139241000D02*
X109861000Y-141824000D01*
X109901000Y-134211000D02*
X109901000Y-136759000D01*
X109901000Y-139241000D02*
X109901000Y-141789000D01*
X109941000Y-134247000D02*
X109941000Y-136759000D01*
X109941000Y-139241000D02*
X109941000Y-141753000D01*
X109981000Y-134284000D02*
X109981000Y-136759000D01*
X109981000Y-139241000D02*
X109981000Y-141716000D01*
X110021000Y-134321000D02*
X110021000Y-136759000D01*
X110021000Y-139241000D02*
X110021000Y-141679000D01*
X110061000Y-134360000D02*
X110061000Y-136759000D01*
X110061000Y-139241000D02*
X110061000Y-141640000D01*
X110101000Y-134399000D02*
X110101000Y-136759000D01*
X110101000Y-139241000D02*
X110101000Y-141601000D01*
X110141000Y-134439000D02*
X110141000Y-136759000D01*
X110141000Y-139241000D02*
X110141000Y-141561000D01*
X110181000Y-134480000D02*
X110181000Y-136759000D01*
X110181000Y-139241000D02*
X110181000Y-141520000D01*
X110221000Y-134522000D02*
X110221000Y-136759000D01*
X110221000Y-139241000D02*
X110221000Y-141478000D01*
X110261000Y-134564000D02*
X110261000Y-141436000D01*
X110301000Y-134608000D02*
X110301000Y-141392000D01*
X110341000Y-134653000D02*
X110341000Y-141347000D01*
X110381000Y-134699000D02*
X110381000Y-141301000D01*
X110421000Y-134746000D02*
X110421000Y-141254000D01*
X110461000Y-134794000D02*
X110461000Y-141206000D01*
X110501000Y-134844000D02*
X110501000Y-141156000D01*
X110541000Y-134894000D02*
X110541000Y-141106000D01*
X110581000Y-134946000D02*
X110581000Y-141054000D01*
X110621000Y-135000000D02*
X110621000Y-141000000D01*
X110661000Y-135055000D02*
X110661000Y-140945000D01*
X110701000Y-135111000D02*
X110701000Y-140889000D01*
X110741000Y-135170000D02*
X110741000Y-140830000D01*
X110781000Y-135230000D02*
X110781000Y-140770000D01*
X110821000Y-135291000D02*
X110821000Y-140709000D01*
X110861000Y-135355000D02*
X110861000Y-140645000D01*
X110901000Y-135421000D02*
X110901000Y-140579000D01*
X110941000Y-135490000D02*
X110941000Y-140510000D01*
X110981000Y-135561000D02*
X110981000Y-140439000D01*
X111021000Y-135635000D02*
X111021000Y-140365000D01*
X111061000Y-135711000D02*
X111061000Y-140289000D01*
X111101000Y-135791000D02*
X111101000Y-140209000D01*
X111141000Y-135875000D02*
X111141000Y-140125000D01*
X111181000Y-135963000D02*
X111181000Y-140037000D01*
X111221000Y-136056000D02*
X111221000Y-139944000D01*
X111261000Y-136154000D02*
X111261000Y-139846000D01*
X111301000Y-136258000D02*
X111301000Y-139742000D01*
X111341000Y-136370000D02*
X111341000Y-139630000D01*
X111381000Y-136490000D02*
X111381000Y-139510000D01*
X111421000Y-136622000D02*
X111421000Y-139378000D01*
X111461000Y-136770000D02*
X111461000Y-139230000D01*
X111501000Y-136938000D02*
X111501000Y-139062000D01*
X111541000Y-137138000D02*
X111541000Y-138862000D01*
X111581000Y-137401000D02*
X111581000Y-138599000D01*
X111620000Y-138000000D02*
G75*
G03*
X111620000Y-138000000I-5120000J0D01*
G01*
%TO.C,C3*%
X101020354Y-118125000D02*
X102020354Y-118125000D01*
X101520354Y-117625000D02*
X101520354Y-118625000D01*
X106500000Y-115920000D02*
X106500000Y-126080000D01*
X106540000Y-115920000D02*
X106540000Y-126080000D01*
X106580000Y-115920000D02*
X106580000Y-126080000D01*
X106620000Y-115921000D02*
X106620000Y-126079000D01*
X106660000Y-115922000D02*
X106660000Y-126078000D01*
X106700000Y-115923000D02*
X106700000Y-126077000D01*
X106740000Y-115925000D02*
X106740000Y-126075000D01*
X106780000Y-115927000D02*
X106780000Y-126073000D01*
X106820000Y-115930000D02*
X106820000Y-126070000D01*
X106860000Y-115932000D02*
X106860000Y-126068000D01*
X106900000Y-115935000D02*
X106900000Y-126065000D01*
X106940000Y-115938000D02*
X106940000Y-126062000D01*
X106980000Y-115942000D02*
X106980000Y-126058000D01*
X107020000Y-115946000D02*
X107020000Y-126054000D01*
X107060000Y-115950000D02*
X107060000Y-126050000D01*
X107100000Y-115955000D02*
X107100000Y-126045000D01*
X107140000Y-115960000D02*
X107140000Y-126040000D01*
X107180000Y-115965000D02*
X107180000Y-126035000D01*
X107221000Y-115970000D02*
X107221000Y-126030000D01*
X107261000Y-115976000D02*
X107261000Y-126024000D01*
X107301000Y-115982000D02*
X107301000Y-126018000D01*
X107341000Y-115989000D02*
X107341000Y-126011000D01*
X107381000Y-115996000D02*
X107381000Y-126004000D01*
X107421000Y-116003000D02*
X107421000Y-125997000D01*
X107461000Y-116010000D02*
X107461000Y-125990000D01*
X107501000Y-116018000D02*
X107501000Y-125982000D01*
X107541000Y-116026000D02*
X107541000Y-125974000D01*
X107581000Y-116035000D02*
X107581000Y-125965000D01*
X107621000Y-116044000D02*
X107621000Y-125956000D01*
X107661000Y-116053000D02*
X107661000Y-125947000D01*
X107701000Y-116062000D02*
X107701000Y-125938000D01*
X107741000Y-116072000D02*
X107741000Y-125928000D01*
X107781000Y-116082000D02*
X107781000Y-119759000D01*
X107781000Y-122241000D02*
X107781000Y-125918000D01*
X107821000Y-116093000D02*
X107821000Y-119759000D01*
X107821000Y-122241000D02*
X107821000Y-125907000D01*
X107861000Y-116103000D02*
X107861000Y-119759000D01*
X107861000Y-122241000D02*
X107861000Y-125897000D01*
X107901000Y-116115000D02*
X107901000Y-119759000D01*
X107901000Y-122241000D02*
X107901000Y-125885000D01*
X107941000Y-116126000D02*
X107941000Y-119759000D01*
X107941000Y-122241000D02*
X107941000Y-125874000D01*
X107981000Y-116138000D02*
X107981000Y-119759000D01*
X107981000Y-122241000D02*
X107981000Y-125862000D01*
X108021000Y-116150000D02*
X108021000Y-119759000D01*
X108021000Y-122241000D02*
X108021000Y-125850000D01*
X108061000Y-116163000D02*
X108061000Y-119759000D01*
X108061000Y-122241000D02*
X108061000Y-125837000D01*
X108101000Y-116176000D02*
X108101000Y-119759000D01*
X108101000Y-122241000D02*
X108101000Y-125824000D01*
X108141000Y-116189000D02*
X108141000Y-119759000D01*
X108141000Y-122241000D02*
X108141000Y-125811000D01*
X108181000Y-116203000D02*
X108181000Y-119759000D01*
X108181000Y-122241000D02*
X108181000Y-125797000D01*
X108221000Y-116217000D02*
X108221000Y-119759000D01*
X108221000Y-122241000D02*
X108221000Y-125783000D01*
X108261000Y-116232000D02*
X108261000Y-119759000D01*
X108261000Y-122241000D02*
X108261000Y-125768000D01*
X108301000Y-116246000D02*
X108301000Y-119759000D01*
X108301000Y-122241000D02*
X108301000Y-125754000D01*
X108341000Y-116262000D02*
X108341000Y-119759000D01*
X108341000Y-122241000D02*
X108341000Y-125738000D01*
X108381000Y-116277000D02*
X108381000Y-119759000D01*
X108381000Y-122241000D02*
X108381000Y-125723000D01*
X108421000Y-116293000D02*
X108421000Y-119759000D01*
X108421000Y-122241000D02*
X108421000Y-125707000D01*
X108461000Y-116310000D02*
X108461000Y-119759000D01*
X108461000Y-122241000D02*
X108461000Y-125690000D01*
X108501000Y-116326000D02*
X108501000Y-119759000D01*
X108501000Y-122241000D02*
X108501000Y-125674000D01*
X108541000Y-116343000D02*
X108541000Y-119759000D01*
X108541000Y-122241000D02*
X108541000Y-125657000D01*
X108581000Y-116361000D02*
X108581000Y-119759000D01*
X108581000Y-122241000D02*
X108581000Y-125639000D01*
X108621000Y-116379000D02*
X108621000Y-119759000D01*
X108621000Y-122241000D02*
X108621000Y-125621000D01*
X108661000Y-116397000D02*
X108661000Y-119759000D01*
X108661000Y-122241000D02*
X108661000Y-125603000D01*
X108701000Y-116416000D02*
X108701000Y-119759000D01*
X108701000Y-122241000D02*
X108701000Y-125584000D01*
X108741000Y-116436000D02*
X108741000Y-119759000D01*
X108741000Y-122241000D02*
X108741000Y-125564000D01*
X108781000Y-116455000D02*
X108781000Y-119759000D01*
X108781000Y-122241000D02*
X108781000Y-125545000D01*
X108821000Y-116475000D02*
X108821000Y-119759000D01*
X108821000Y-122241000D02*
X108821000Y-125525000D01*
X108861000Y-116496000D02*
X108861000Y-119759000D01*
X108861000Y-122241000D02*
X108861000Y-125504000D01*
X108901000Y-116517000D02*
X108901000Y-119759000D01*
X108901000Y-122241000D02*
X108901000Y-125483000D01*
X108941000Y-116538000D02*
X108941000Y-119759000D01*
X108941000Y-122241000D02*
X108941000Y-125462000D01*
X108981000Y-116560000D02*
X108981000Y-119759000D01*
X108981000Y-122241000D02*
X108981000Y-125440000D01*
X109021000Y-116583000D02*
X109021000Y-119759000D01*
X109021000Y-122241000D02*
X109021000Y-125417000D01*
X109061000Y-116605000D02*
X109061000Y-119759000D01*
X109061000Y-122241000D02*
X109061000Y-125395000D01*
X109101000Y-116629000D02*
X109101000Y-119759000D01*
X109101000Y-122241000D02*
X109101000Y-125371000D01*
X109141000Y-116653000D02*
X109141000Y-119759000D01*
X109141000Y-122241000D02*
X109141000Y-125347000D01*
X109181000Y-116677000D02*
X109181000Y-119759000D01*
X109181000Y-122241000D02*
X109181000Y-125323000D01*
X109221000Y-116702000D02*
X109221000Y-119759000D01*
X109221000Y-122241000D02*
X109221000Y-125298000D01*
X109261000Y-116727000D02*
X109261000Y-119759000D01*
X109261000Y-122241000D02*
X109261000Y-125273000D01*
X109301000Y-116753000D02*
X109301000Y-119759000D01*
X109301000Y-122241000D02*
X109301000Y-125247000D01*
X109341000Y-116779000D02*
X109341000Y-119759000D01*
X109341000Y-122241000D02*
X109341000Y-125221000D01*
X109381000Y-116806000D02*
X109381000Y-119759000D01*
X109381000Y-122241000D02*
X109381000Y-125194000D01*
X109421000Y-116834000D02*
X109421000Y-119759000D01*
X109421000Y-122241000D02*
X109421000Y-125166000D01*
X109461000Y-116862000D02*
X109461000Y-119759000D01*
X109461000Y-122241000D02*
X109461000Y-125138000D01*
X109501000Y-116890000D02*
X109501000Y-119759000D01*
X109501000Y-122241000D02*
X109501000Y-125110000D01*
X109541000Y-116920000D02*
X109541000Y-119759000D01*
X109541000Y-122241000D02*
X109541000Y-125080000D01*
X109581000Y-116950000D02*
X109581000Y-119759000D01*
X109581000Y-122241000D02*
X109581000Y-125050000D01*
X109621000Y-116980000D02*
X109621000Y-119759000D01*
X109621000Y-122241000D02*
X109621000Y-125020000D01*
X109661000Y-117011000D02*
X109661000Y-119759000D01*
X109661000Y-122241000D02*
X109661000Y-124989000D01*
X109701000Y-117043000D02*
X109701000Y-119759000D01*
X109701000Y-122241000D02*
X109701000Y-124957000D01*
X109741000Y-117075000D02*
X109741000Y-119759000D01*
X109741000Y-122241000D02*
X109741000Y-124925000D01*
X109781000Y-117108000D02*
X109781000Y-119759000D01*
X109781000Y-122241000D02*
X109781000Y-124892000D01*
X109821000Y-117142000D02*
X109821000Y-119759000D01*
X109821000Y-122241000D02*
X109821000Y-124858000D01*
X109861000Y-117176000D02*
X109861000Y-119759000D01*
X109861000Y-122241000D02*
X109861000Y-124824000D01*
X109901000Y-117211000D02*
X109901000Y-119759000D01*
X109901000Y-122241000D02*
X109901000Y-124789000D01*
X109941000Y-117247000D02*
X109941000Y-119759000D01*
X109941000Y-122241000D02*
X109941000Y-124753000D01*
X109981000Y-117284000D02*
X109981000Y-119759000D01*
X109981000Y-122241000D02*
X109981000Y-124716000D01*
X110021000Y-117321000D02*
X110021000Y-119759000D01*
X110021000Y-122241000D02*
X110021000Y-124679000D01*
X110061000Y-117360000D02*
X110061000Y-119759000D01*
X110061000Y-122241000D02*
X110061000Y-124640000D01*
X110101000Y-117399000D02*
X110101000Y-119759000D01*
X110101000Y-122241000D02*
X110101000Y-124601000D01*
X110141000Y-117439000D02*
X110141000Y-119759000D01*
X110141000Y-122241000D02*
X110141000Y-124561000D01*
X110181000Y-117480000D02*
X110181000Y-119759000D01*
X110181000Y-122241000D02*
X110181000Y-124520000D01*
X110221000Y-117522000D02*
X110221000Y-119759000D01*
X110221000Y-122241000D02*
X110221000Y-124478000D01*
X110261000Y-117564000D02*
X110261000Y-124436000D01*
X110301000Y-117608000D02*
X110301000Y-124392000D01*
X110341000Y-117653000D02*
X110341000Y-124347000D01*
X110381000Y-117699000D02*
X110381000Y-124301000D01*
X110421000Y-117746000D02*
X110421000Y-124254000D01*
X110461000Y-117794000D02*
X110461000Y-124206000D01*
X110501000Y-117844000D02*
X110501000Y-124156000D01*
X110541000Y-117894000D02*
X110541000Y-124106000D01*
X110581000Y-117946000D02*
X110581000Y-124054000D01*
X110621000Y-118000000D02*
X110621000Y-124000000D01*
X110661000Y-118055000D02*
X110661000Y-123945000D01*
X110701000Y-118111000D02*
X110701000Y-123889000D01*
X110741000Y-118170000D02*
X110741000Y-123830000D01*
X110781000Y-118230000D02*
X110781000Y-123770000D01*
X110821000Y-118291000D02*
X110821000Y-123709000D01*
X110861000Y-118355000D02*
X110861000Y-123645000D01*
X110901000Y-118421000D02*
X110901000Y-123579000D01*
X110941000Y-118490000D02*
X110941000Y-123510000D01*
X110981000Y-118561000D02*
X110981000Y-123439000D01*
X111021000Y-118635000D02*
X111021000Y-123365000D01*
X111061000Y-118711000D02*
X111061000Y-123289000D01*
X111101000Y-118791000D02*
X111101000Y-123209000D01*
X111141000Y-118875000D02*
X111141000Y-123125000D01*
X111181000Y-118963000D02*
X111181000Y-123037000D01*
X111221000Y-119056000D02*
X111221000Y-122944000D01*
X111261000Y-119154000D02*
X111261000Y-122846000D01*
X111301000Y-119258000D02*
X111301000Y-122742000D01*
X111341000Y-119370000D02*
X111341000Y-122630000D01*
X111381000Y-119490000D02*
X111381000Y-122510000D01*
X111421000Y-119622000D02*
X111421000Y-122378000D01*
X111461000Y-119770000D02*
X111461000Y-122230000D01*
X111501000Y-119938000D02*
X111501000Y-122062000D01*
X111541000Y-120138000D02*
X111541000Y-121862000D01*
X111581000Y-120401000D02*
X111581000Y-121599000D01*
X111620000Y-121000000D02*
G75*
G03*
X111620000Y-121000000I-5120000J0D01*
G01*
D16*
%TO.C,T2*%
X167650000Y-124462800D02*
X156728000Y-130889000D01*
X168056400Y-146687800D02*
X156753400Y-140058400D01*
X179969000Y-124259600D02*
X191373600Y-130939800D01*
X180375400Y-146459200D02*
X191373600Y-139982200D01*
X156907300Y-130767500D02*
G75*
G03*
X154188000Y-135461000I2690897J-4693539D01*
G01*
X154188000Y-135461000D02*
G75*
G03*
X156844500Y-140118000I5410199J-27D01*
G01*
X174000000Y-122761001D02*
G75*
G03*
X167628200Y-124475100I20J-12700029D01*
G01*
X179976500Y-124255100D02*
G75*
G03*
X174000000Y-122761000I-5976445J-11205931D01*
G01*
X168023500Y-146666900D02*
G75*
G03*
X174000000Y-148161000I5976437J11205900D01*
G01*
X174000000Y-148161000D02*
G75*
G03*
X180371800Y-146446900I-20J12700025D01*
G01*
X193812001Y-135461000D02*
G75*
G03*
X191336600Y-130916000I-5410271J-60D01*
G01*
X191336600Y-140006000D02*
G75*
G03*
X193812000Y-135461000I-2934800J4545020D01*
G01*
X183372600Y-135461000D02*
G75*
G03*
X183372600Y-135461000I-9372600J0D01*
G01*
D17*
X185684000Y-135461000D02*
G75*
G03*
X185684000Y-135461000I-11684000J0D01*
G01*
D14*
%TO.C,R2*%
X92340000Y-151000000D02*
X93030000Y-151000000D01*
X93030000Y-149280000D02*
X93030000Y-152720000D01*
X93030000Y-152720000D02*
X102270000Y-152720000D01*
X102270000Y-149280000D02*
X93030000Y-149280000D01*
X102270000Y-152720000D02*
X102270000Y-149280000D01*
X102960000Y-151000000D02*
X102270000Y-151000000D01*
%TO.C,C1*%
X162885000Y-112009440D02*
X162885000Y-110209440D01*
X161985000Y-111109440D02*
X163785000Y-111109440D01*
X158919000Y-102250000D02*
X177081000Y-102250000D01*
X158920000Y-102210000D02*
X177080000Y-102210000D01*
X158920000Y-102170000D02*
X177080000Y-102170000D01*
X158920000Y-102130000D02*
X177080000Y-102130000D01*
X158921000Y-102090000D02*
X177079000Y-102090000D01*
X158922000Y-102050000D02*
X177078000Y-102050000D01*
X158923000Y-102010000D02*
X177077000Y-102010000D01*
X158924000Y-101970000D02*
X177076000Y-101970000D01*
X158925000Y-101930000D02*
X177075000Y-101930000D01*
X158927000Y-101890000D02*
X177073000Y-101890000D01*
X158928000Y-101850000D02*
X177072000Y-101850000D01*
X158930000Y-101810000D02*
X177070000Y-101810000D01*
X158932000Y-101770000D02*
X177068000Y-101770000D01*
X158934000Y-101730000D02*
X177066000Y-101730000D01*
X158937000Y-101690000D02*
X177063000Y-101690000D01*
X158939000Y-101650000D02*
X177061000Y-101650000D01*
X158942000Y-101610000D02*
X177058000Y-101610000D01*
X158945000Y-101570000D02*
X177055000Y-101570000D01*
X158948000Y-101529000D02*
X177052000Y-101529000D01*
X158951000Y-101489000D02*
X177049000Y-101489000D01*
X158955000Y-101449000D02*
X177045000Y-101449000D01*
X158958000Y-101409000D02*
X177042000Y-101409000D01*
X158962000Y-101369000D02*
X177038000Y-101369000D01*
X158966000Y-101329000D02*
X177034000Y-101329000D01*
X158970000Y-101289000D02*
X177030000Y-101289000D01*
X158974000Y-101249000D02*
X177026000Y-101249000D01*
X158979000Y-101209000D02*
X177021000Y-101209000D01*
X158984000Y-101169000D02*
X177016000Y-101169000D01*
X158989000Y-101129000D02*
X177011000Y-101129000D01*
X158994000Y-101089000D02*
X177006000Y-101089000D01*
X158999000Y-101049000D02*
X177001000Y-101049000D01*
X159004000Y-101009000D02*
X176996000Y-101009000D01*
X159010000Y-100969000D02*
X176990000Y-100969000D01*
X159016000Y-100929000D02*
X176984000Y-100929000D01*
X159021000Y-100889000D02*
X176979000Y-100889000D01*
X159028000Y-100849000D02*
X176972000Y-100849000D01*
X159034000Y-100809000D02*
X176966000Y-100809000D01*
X159040000Y-100769000D02*
X176960000Y-100769000D01*
X159047000Y-100729000D02*
X176953000Y-100729000D01*
X159054000Y-100689000D02*
X176946000Y-100689000D01*
X159061000Y-100649000D02*
X176939000Y-100649000D01*
X159068000Y-100609000D02*
X176932000Y-100609000D01*
X159076000Y-100569000D02*
X176924000Y-100569000D01*
X159083000Y-100529000D02*
X176917000Y-100529000D01*
X159091000Y-100489000D02*
X176909000Y-100489000D01*
X159099000Y-100449000D02*
X176901000Y-100449000D01*
X159107000Y-100409000D02*
X176893000Y-100409000D01*
X159115000Y-100369000D02*
X176885000Y-100369000D01*
X159124000Y-100329000D02*
X176876000Y-100329000D01*
X159133000Y-100289000D02*
X176867000Y-100289000D01*
X159142000Y-100249000D02*
X176858000Y-100249000D01*
X159151000Y-100209000D02*
X176849000Y-100209000D01*
X159160000Y-100169000D02*
X176840000Y-100169000D01*
X159169000Y-100129000D02*
X176831000Y-100129000D01*
X159179000Y-100089000D02*
X176821000Y-100089000D01*
X159189000Y-100049000D02*
X176811000Y-100049000D01*
X159199000Y-100009000D02*
X176801000Y-100009000D01*
X159209000Y-99969000D02*
X176791000Y-99969000D01*
X159220000Y-99929000D02*
X166560000Y-99929000D01*
X169440000Y-99929000D02*
X176780000Y-99929000D01*
X159230000Y-99889000D02*
X166560000Y-99889000D01*
X169440000Y-99889000D02*
X176770000Y-99889000D01*
X159241000Y-99849000D02*
X166560000Y-99849000D01*
X169440000Y-99849000D02*
X176759000Y-99849000D01*
X159252000Y-99809000D02*
X166560000Y-99809000D01*
X169440000Y-99809000D02*
X176748000Y-99809000D01*
X159263000Y-99769000D02*
X166560000Y-99769000D01*
X169440000Y-99769000D02*
X176737000Y-99769000D01*
X159275000Y-99729000D02*
X166560000Y-99729000D01*
X169440000Y-99729000D02*
X176725000Y-99729000D01*
X159286000Y-99689000D02*
X166560000Y-99689000D01*
X169440000Y-99689000D02*
X176714000Y-99689000D01*
X159298000Y-99649000D02*
X166560000Y-99649000D01*
X169440000Y-99649000D02*
X176702000Y-99649000D01*
X159310000Y-99609000D02*
X166560000Y-99609000D01*
X169440000Y-99609000D02*
X176690000Y-99609000D01*
X159322000Y-99569000D02*
X166560000Y-99569000D01*
X169440000Y-99569000D02*
X176678000Y-99569000D01*
X159335000Y-99529000D02*
X166560000Y-99529000D01*
X169440000Y-99529000D02*
X176665000Y-99529000D01*
X159347000Y-99489000D02*
X166560000Y-99489000D01*
X169440000Y-99489000D02*
X176653000Y-99489000D01*
X159360000Y-99449000D02*
X166560000Y-99449000D01*
X169440000Y-99449000D02*
X176640000Y-99449000D01*
X159373000Y-99409000D02*
X166560000Y-99409000D01*
X169440000Y-99409000D02*
X176627000Y-99409000D01*
X159386000Y-99369000D02*
X166560000Y-99369000D01*
X169440000Y-99369000D02*
X176614000Y-99369000D01*
X159400000Y-99329000D02*
X166560000Y-99329000D01*
X169440000Y-99329000D02*
X176600000Y-99329000D01*
X159413000Y-99289000D02*
X166560000Y-99289000D01*
X169440000Y-99289000D02*
X176587000Y-99289000D01*
X159427000Y-99249000D02*
X166560000Y-99249000D01*
X169440000Y-99249000D02*
X176573000Y-99249000D01*
X159441000Y-99209000D02*
X166560000Y-99209000D01*
X169440000Y-99209000D02*
X176559000Y-99209000D01*
X159455000Y-99169000D02*
X166560000Y-99169000D01*
X169440000Y-99169000D02*
X176545000Y-99169000D01*
X159470000Y-99129000D02*
X166560000Y-99129000D01*
X169440000Y-99129000D02*
X176530000Y-99129000D01*
X159484000Y-99089000D02*
X166560000Y-99089000D01*
X169440000Y-99089000D02*
X176516000Y-99089000D01*
X159499000Y-99049000D02*
X166560000Y-99049000D01*
X169440000Y-99049000D02*
X176501000Y-99049000D01*
X159514000Y-99009000D02*
X166560000Y-99009000D01*
X169440000Y-99009000D02*
X176486000Y-99009000D01*
X159530000Y-98969000D02*
X166560000Y-98969000D01*
X169440000Y-98969000D02*
X176470000Y-98969000D01*
X159545000Y-98929000D02*
X166560000Y-98929000D01*
X169440000Y-98929000D02*
X176455000Y-98929000D01*
X159561000Y-98889000D02*
X166560000Y-98889000D01*
X169440000Y-98889000D02*
X176439000Y-98889000D01*
X159577000Y-98849000D02*
X166560000Y-98849000D01*
X169440000Y-98849000D02*
X176423000Y-98849000D01*
X159593000Y-98809000D02*
X166560000Y-98809000D01*
X169440000Y-98809000D02*
X176407000Y-98809000D01*
X159610000Y-98769000D02*
X166560000Y-98769000D01*
X169440000Y-98769000D02*
X176390000Y-98769000D01*
X159626000Y-98729000D02*
X166560000Y-98729000D01*
X169440000Y-98729000D02*
X176374000Y-98729000D01*
X159643000Y-98689000D02*
X166560000Y-98689000D01*
X169440000Y-98689000D02*
X176357000Y-98689000D01*
X159660000Y-98649000D02*
X166560000Y-98649000D01*
X169440000Y-98649000D02*
X176340000Y-98649000D01*
X159677000Y-98609000D02*
X166560000Y-98609000D01*
X169440000Y-98609000D02*
X176323000Y-98609000D01*
X159695000Y-98569000D02*
X166560000Y-98569000D01*
X169440000Y-98569000D02*
X176305000Y-98569000D01*
X159713000Y-98529000D02*
X166560000Y-98529000D01*
X169440000Y-98529000D02*
X176287000Y-98529000D01*
X159731000Y-98489000D02*
X166560000Y-98489000D01*
X169440000Y-98489000D02*
X176269000Y-98489000D01*
X159749000Y-98449000D02*
X166560000Y-98449000D01*
X169440000Y-98449000D02*
X176251000Y-98449000D01*
X159767000Y-98409000D02*
X166560000Y-98409000D01*
X169440000Y-98409000D02*
X176233000Y-98409000D01*
X159786000Y-98369000D02*
X166560000Y-98369000D01*
X169440000Y-98369000D02*
X176214000Y-98369000D01*
X159805000Y-98329000D02*
X166560000Y-98329000D01*
X169440000Y-98329000D02*
X176195000Y-98329000D01*
X159824000Y-98289000D02*
X166560000Y-98289000D01*
X169440000Y-98289000D02*
X176176000Y-98289000D01*
X159844000Y-98249000D02*
X166560000Y-98249000D01*
X169440000Y-98249000D02*
X176156000Y-98249000D01*
X159863000Y-98209000D02*
X166560000Y-98209000D01*
X169440000Y-98209000D02*
X176137000Y-98209000D01*
X159883000Y-98169000D02*
X166560000Y-98169000D01*
X169440000Y-98169000D02*
X176117000Y-98169000D01*
X159903000Y-98129000D02*
X166560000Y-98129000D01*
X169440000Y-98129000D02*
X176097000Y-98129000D01*
X159924000Y-98089000D02*
X166560000Y-98089000D01*
X169440000Y-98089000D02*
X176076000Y-98089000D01*
X159944000Y-98049000D02*
X166560000Y-98049000D01*
X169440000Y-98049000D02*
X176056000Y-98049000D01*
X159965000Y-98009000D02*
X166560000Y-98009000D01*
X169440000Y-98009000D02*
X176035000Y-98009000D01*
X159986000Y-97969000D02*
X166560000Y-97969000D01*
X169440000Y-97969000D02*
X176014000Y-97969000D01*
X160008000Y-97929000D02*
X166560000Y-97929000D01*
X169440000Y-97929000D02*
X175992000Y-97929000D01*
X160029000Y-97889000D02*
X166560000Y-97889000D01*
X169440000Y-97889000D02*
X175971000Y-97889000D01*
X160051000Y-97849000D02*
X166560000Y-97849000D01*
X169440000Y-97849000D02*
X175949000Y-97849000D01*
X160073000Y-97809000D02*
X166560000Y-97809000D01*
X169440000Y-97809000D02*
X175927000Y-97809000D01*
X160096000Y-97769000D02*
X166560000Y-97769000D01*
X169440000Y-97769000D02*
X175904000Y-97769000D01*
X160118000Y-97729000D02*
X166560000Y-97729000D01*
X169440000Y-97729000D02*
X175882000Y-97729000D01*
X160141000Y-97689000D02*
X166560000Y-97689000D01*
X169440000Y-97689000D02*
X175859000Y-97689000D01*
X160165000Y-97649000D02*
X166560000Y-97649000D01*
X169440000Y-97649000D02*
X175835000Y-97649000D01*
X160188000Y-97609000D02*
X166560000Y-97609000D01*
X169440000Y-97609000D02*
X175812000Y-97609000D01*
X160212000Y-97569000D02*
X166560000Y-97569000D01*
X169440000Y-97569000D02*
X175788000Y-97569000D01*
X160236000Y-97529000D02*
X166560000Y-97529000D01*
X169440000Y-97529000D02*
X175764000Y-97529000D01*
X160260000Y-97489000D02*
X166560000Y-97489000D01*
X169440000Y-97489000D02*
X175740000Y-97489000D01*
X160285000Y-97449000D02*
X166560000Y-97449000D01*
X169440000Y-97449000D02*
X175715000Y-97449000D01*
X160310000Y-97409000D02*
X166560000Y-97409000D01*
X169440000Y-97409000D02*
X175690000Y-97409000D01*
X160335000Y-97369000D02*
X166560000Y-97369000D01*
X169440000Y-97369000D02*
X175665000Y-97369000D01*
X160360000Y-97329000D02*
X166560000Y-97329000D01*
X169440000Y-97329000D02*
X175640000Y-97329000D01*
X160386000Y-97289000D02*
X166560000Y-97289000D01*
X169440000Y-97289000D02*
X175614000Y-97289000D01*
X160412000Y-97249000D02*
X166560000Y-97249000D01*
X169440000Y-97249000D02*
X175588000Y-97249000D01*
X160439000Y-97209000D02*
X166560000Y-97209000D01*
X169440000Y-97209000D02*
X175561000Y-97209000D01*
X160465000Y-97169000D02*
X166560000Y-97169000D01*
X169440000Y-97169000D02*
X175535000Y-97169000D01*
X160492000Y-97129000D02*
X166560000Y-97129000D01*
X169440000Y-97129000D02*
X175508000Y-97129000D01*
X160520000Y-97089000D02*
X166560000Y-97089000D01*
X169440000Y-97089000D02*
X175480000Y-97089000D01*
X160547000Y-97049000D02*
X175453000Y-97049000D01*
X160575000Y-97009000D02*
X175425000Y-97009000D01*
X160603000Y-96969000D02*
X175397000Y-96969000D01*
X160632000Y-96929000D02*
X175368000Y-96929000D01*
X160661000Y-96889000D02*
X175339000Y-96889000D01*
X160690000Y-96849000D02*
X175310000Y-96849000D01*
X160720000Y-96809000D02*
X175280000Y-96809000D01*
X160750000Y-96769000D02*
X175250000Y-96769000D01*
X160780000Y-96729000D02*
X175220000Y-96729000D01*
X160810000Y-96689000D02*
X175190000Y-96689000D01*
X160841000Y-96649000D02*
X175159000Y-96649000D01*
X160873000Y-96609000D02*
X175127000Y-96609000D01*
X160904000Y-96569000D02*
X175096000Y-96569000D01*
X160936000Y-96529000D02*
X175064000Y-96529000D01*
X160969000Y-96489000D02*
X175031000Y-96489000D01*
X161001000Y-96449000D02*
X174999000Y-96449000D01*
X161035000Y-96409000D02*
X174965000Y-96409000D01*
X161068000Y-96369000D02*
X174932000Y-96369000D01*
X161102000Y-96329000D02*
X174898000Y-96329000D01*
X161136000Y-96289000D02*
X174864000Y-96289000D01*
X161171000Y-96249000D02*
X174829000Y-96249000D01*
X161206000Y-96209000D02*
X174794000Y-96209000D01*
X161242000Y-96169000D02*
X174758000Y-96169000D01*
X161278000Y-96129000D02*
X174722000Y-96129000D01*
X161314000Y-96089000D02*
X174686000Y-96089000D01*
X161351000Y-96049000D02*
X174649000Y-96049000D01*
X161388000Y-96009000D02*
X174612000Y-96009000D01*
X161426000Y-95969000D02*
X174574000Y-95969000D01*
X161464000Y-95929000D02*
X174536000Y-95929000D01*
X161503000Y-95889000D02*
X174497000Y-95889000D01*
X161542000Y-95849000D02*
X174458000Y-95849000D01*
X161582000Y-95809000D02*
X174418000Y-95809000D01*
X161622000Y-95769000D02*
X174378000Y-95769000D01*
X161663000Y-95729000D02*
X174337000Y-95729000D01*
X161704000Y-95689000D02*
X174296000Y-95689000D01*
X161746000Y-95649000D02*
X174254000Y-95649000D01*
X161788000Y-95609000D02*
X174212000Y-95609000D01*
X161830000Y-95569000D02*
X174170000Y-95569000D01*
X161874000Y-95529000D02*
X174126000Y-95529000D01*
X161918000Y-95489000D02*
X174082000Y-95489000D01*
X161962000Y-95449000D02*
X174038000Y-95449000D01*
X162007000Y-95409000D02*
X173993000Y-95409000D01*
X162053000Y-95369000D02*
X173947000Y-95369000D01*
X162099000Y-95329000D02*
X173901000Y-95329000D01*
X162146000Y-95289000D02*
X173854000Y-95289000D01*
X162194000Y-95249000D02*
X173806000Y-95249000D01*
X162242000Y-95209000D02*
X173758000Y-95209000D01*
X162291000Y-95169000D02*
X173709000Y-95169000D01*
X162340000Y-95129000D02*
X173660000Y-95129000D01*
X162391000Y-95089000D02*
X173609000Y-95089000D01*
X162442000Y-95049000D02*
X173558000Y-95049000D01*
X162494000Y-95009000D02*
X173506000Y-95009000D01*
X162546000Y-94969000D02*
X173454000Y-94969000D01*
X162600000Y-94929000D02*
X173400000Y-94929000D01*
X162654000Y-94889000D02*
X173346000Y-94889000D01*
X162709000Y-94849000D02*
X173291000Y-94849000D01*
X162765000Y-94809000D02*
X173235000Y-94809000D01*
X162822000Y-94769000D02*
X173178000Y-94769000D01*
X162880000Y-94729000D02*
X173120000Y-94729000D01*
X162938000Y-94689000D02*
X173062000Y-94689000D01*
X162998000Y-94649000D02*
X173002000Y-94649000D01*
X163059000Y-94609000D02*
X172941000Y-94609000D01*
X163121000Y-94569000D02*
X172879000Y-94569000D01*
X163184000Y-94529000D02*
X172816000Y-94529000D01*
X163248000Y-94489000D02*
X172752000Y-94489000D01*
X163314000Y-94449000D02*
X172686000Y-94449000D01*
X163380000Y-94409000D02*
X172620000Y-94409000D01*
X163448000Y-94369000D02*
X172552000Y-94369000D01*
X163518000Y-94329000D02*
X172482000Y-94329000D01*
X163588000Y-94289000D02*
X172412000Y-94289000D01*
X163661000Y-94249000D02*
X172339000Y-94249000D01*
X163735000Y-94209000D02*
X172265000Y-94209000D01*
X163810000Y-94169000D02*
X172190000Y-94169000D01*
X163887000Y-94129000D02*
X172113000Y-94129000D01*
X163967000Y-94089000D02*
X172033000Y-94089000D01*
X164048000Y-94050000D02*
X171952000Y-94050000D01*
X164131000Y-94010000D02*
X171869000Y-94010000D01*
X164216000Y-93970000D02*
X171784000Y-93970000D01*
X164304000Y-93930000D02*
X171696000Y-93930000D01*
X164395000Y-93890000D02*
X171605000Y-93890000D01*
X164488000Y-93850000D02*
X171512000Y-93850000D01*
X164584000Y-93810000D02*
X171416000Y-93810000D01*
X164683000Y-93770000D02*
X171317000Y-93770000D01*
X164786000Y-93730000D02*
X171214000Y-93730000D01*
X164893000Y-93690000D02*
X171107000Y-93690000D01*
X165004000Y-93650000D02*
X170996000Y-93650000D01*
X165120000Y-93610000D02*
X170880000Y-93610000D01*
X165241000Y-93570000D02*
X170759000Y-93570000D01*
X165368000Y-93530000D02*
X170632000Y-93530000D01*
X165502000Y-93490000D02*
X170498000Y-93490000D01*
X165645000Y-93450000D02*
X170355000Y-93450000D01*
X165797000Y-93410000D02*
X170203000Y-93410000D01*
X165961000Y-93370000D02*
X170039000Y-93370000D01*
X166140000Y-93330000D02*
X169860000Y-93330000D01*
X166339000Y-93290000D02*
X169661000Y-93290000D01*
X166565000Y-93250000D02*
X169435000Y-93250000D01*
X166834000Y-93210000D02*
X169166000Y-93210000D01*
X167186000Y-93170000D02*
X168814000Y-93170000D01*
X167960000Y-93130000D02*
X168040000Y-93130000D01*
X177120000Y-102250000D02*
G75*
G03*
X177120000Y-102250000I-9120000J0D01*
G01*
D15*
%TO.C,D1*%
X200286000Y-106815000D02*
X198127000Y-108974000D01*
X200286000Y-93226000D02*
X200286000Y-106815000D01*
X200286000Y-93226000D02*
X184538000Y-93226000D01*
X184538000Y-108974000D02*
X198127000Y-108974000D01*
X184538000Y-93226000D02*
X184538000Y-108974000D01*
X196454113Y-100973000D02*
G75*
G03*
X196454113Y-100973000I-4042113J0D01*
G01*
D14*
%TO.C,R3*%
X112690000Y-151000000D02*
X113380000Y-151000000D01*
X113380000Y-149280000D02*
X113380000Y-152720000D01*
X113380000Y-152720000D02*
X122620000Y-152720000D01*
X122620000Y-149280000D02*
X113380000Y-149280000D01*
X122620000Y-152720000D02*
X122620000Y-149280000D01*
X123310000Y-151000000D02*
X122620000Y-151000000D01*
%TD*%
M02*
